%TF.GenerationSoftware,KiCad,Pcbnew,9.0.6-9.0.6~ubuntu24.04.1*%
%TF.CreationDate,2025-11-27T19:55:15+01:00*%
%TF.ProjectId,intercons,696e7465-7263-46f6-9e73-2e6b69636164,rev?*%
%TF.SameCoordinates,Original*%
%TF.FileFunction,Legend,Bot*%
%TF.FilePolarity,Positive*%
%FSLAX46Y46*%
G04 Gerber Fmt 4.6, Leading zero omitted, Abs format (unit mm)*
G04 Created by KiCad (PCBNEW 9.0.6-9.0.6~ubuntu24.04.1) date 2025-11-27 19:55:15*
%MOMM*%
%LPD*%
G01*
G04 APERTURE LIST*
%ADD10C,0.100000*%
%ADD11C,0.000000*%
G04 APERTURE END LIST*
D10*
X138869125Y-52329331D02*
X139345315Y-52329331D01*
X139345315Y-52329331D02*
X139345315Y-51329331D01*
X138583410Y-52043616D02*
X138107220Y-52043616D01*
X138678648Y-52329331D02*
X138345315Y-51329331D01*
X138345315Y-51329331D02*
X138011982Y-52329331D01*
X137107220Y-52329331D02*
X137440553Y-51853140D01*
X137678648Y-52329331D02*
X137678648Y-51329331D01*
X137678648Y-51329331D02*
X137297696Y-51329331D01*
X137297696Y-51329331D02*
X137202458Y-51376950D01*
X137202458Y-51376950D02*
X137154839Y-51424569D01*
X137154839Y-51424569D02*
X137107220Y-51519807D01*
X137107220Y-51519807D02*
X137107220Y-51662664D01*
X137107220Y-51662664D02*
X137154839Y-51757902D01*
X137154839Y-51757902D02*
X137202458Y-51805521D01*
X137202458Y-51805521D02*
X137297696Y-51853140D01*
X137297696Y-51853140D02*
X137678648Y-51853140D01*
X136726267Y-52043616D02*
X136250077Y-52043616D01*
X136821505Y-52329331D02*
X136488172Y-51329331D01*
X136488172Y-51329331D02*
X136154839Y-52329331D01*
X135059600Y-52329331D02*
X135059600Y-51329331D01*
X135059600Y-51329331D02*
X134678648Y-51329331D01*
X134678648Y-51329331D02*
X134583410Y-51376950D01*
X134583410Y-51376950D02*
X134535791Y-51424569D01*
X134535791Y-51424569D02*
X134488172Y-51519807D01*
X134488172Y-51519807D02*
X134488172Y-51662664D01*
X134488172Y-51662664D02*
X134535791Y-51757902D01*
X134535791Y-51757902D02*
X134583410Y-51805521D01*
X134583410Y-51805521D02*
X134678648Y-51853140D01*
X134678648Y-51853140D02*
X135059600Y-51853140D01*
X134059600Y-52329331D02*
X134059600Y-51662664D01*
X134059600Y-51853140D02*
X134011981Y-51757902D01*
X134011981Y-51757902D02*
X133964362Y-51710283D01*
X133964362Y-51710283D02*
X133869124Y-51662664D01*
X133869124Y-51662664D02*
X133773886Y-51662664D01*
X133297695Y-52329331D02*
X133392933Y-52281712D01*
X133392933Y-52281712D02*
X133440552Y-52234092D01*
X133440552Y-52234092D02*
X133488171Y-52138854D01*
X133488171Y-52138854D02*
X133488171Y-51853140D01*
X133488171Y-51853140D02*
X133440552Y-51757902D01*
X133440552Y-51757902D02*
X133392933Y-51710283D01*
X133392933Y-51710283D02*
X133297695Y-51662664D01*
X133297695Y-51662664D02*
X133154838Y-51662664D01*
X133154838Y-51662664D02*
X133059600Y-51710283D01*
X133059600Y-51710283D02*
X133011981Y-51757902D01*
X133011981Y-51757902D02*
X132964362Y-51853140D01*
X132964362Y-51853140D02*
X132964362Y-52138854D01*
X132964362Y-52138854D02*
X133011981Y-52234092D01*
X133011981Y-52234092D02*
X133059600Y-52281712D01*
X133059600Y-52281712D02*
X133154838Y-52329331D01*
X133154838Y-52329331D02*
X133297695Y-52329331D01*
X132535790Y-51662664D02*
X132535790Y-52519807D01*
X132535790Y-52519807D02*
X132583409Y-52615045D01*
X132583409Y-52615045D02*
X132678647Y-52662664D01*
X132678647Y-52662664D02*
X132726266Y-52662664D01*
X132535790Y-51329331D02*
X132583409Y-51376950D01*
X132583409Y-51376950D02*
X132535790Y-51424569D01*
X132535790Y-51424569D02*
X132488171Y-51376950D01*
X132488171Y-51376950D02*
X132535790Y-51329331D01*
X132535790Y-51329331D02*
X132535790Y-51424569D01*
X131678648Y-52281712D02*
X131773886Y-52329331D01*
X131773886Y-52329331D02*
X131964362Y-52329331D01*
X131964362Y-52329331D02*
X132059600Y-52281712D01*
X132059600Y-52281712D02*
X132107219Y-52186473D01*
X132107219Y-52186473D02*
X132107219Y-51805521D01*
X132107219Y-51805521D02*
X132059600Y-51710283D01*
X132059600Y-51710283D02*
X131964362Y-51662664D01*
X131964362Y-51662664D02*
X131773886Y-51662664D01*
X131773886Y-51662664D02*
X131678648Y-51710283D01*
X131678648Y-51710283D02*
X131631029Y-51805521D01*
X131631029Y-51805521D02*
X131631029Y-51900759D01*
X131631029Y-51900759D02*
X132107219Y-51995997D01*
X130773886Y-52281712D02*
X130869124Y-52329331D01*
X130869124Y-52329331D02*
X131059600Y-52329331D01*
X131059600Y-52329331D02*
X131154838Y-52281712D01*
X131154838Y-52281712D02*
X131202457Y-52234092D01*
X131202457Y-52234092D02*
X131250076Y-52138854D01*
X131250076Y-52138854D02*
X131250076Y-51853140D01*
X131250076Y-51853140D02*
X131202457Y-51757902D01*
X131202457Y-51757902D02*
X131154838Y-51710283D01*
X131154838Y-51710283D02*
X131059600Y-51662664D01*
X131059600Y-51662664D02*
X130869124Y-51662664D01*
X130869124Y-51662664D02*
X130773886Y-51710283D01*
X130488171Y-51662664D02*
X130107219Y-51662664D01*
X130345314Y-51329331D02*
X130345314Y-52186473D01*
X130345314Y-52186473D02*
X130297695Y-52281712D01*
X130297695Y-52281712D02*
X130202457Y-52329331D01*
X130202457Y-52329331D02*
X130107219Y-52329331D01*
X138869125Y-53939275D02*
X139345315Y-53939275D01*
X139345315Y-53939275D02*
X139345315Y-52939275D01*
X138107220Y-53272608D02*
X138107220Y-53939275D01*
X138535791Y-53272608D02*
X138535791Y-53796417D01*
X138535791Y-53796417D02*
X138488172Y-53891656D01*
X138488172Y-53891656D02*
X138392934Y-53939275D01*
X138392934Y-53939275D02*
X138250077Y-53939275D01*
X138250077Y-53939275D02*
X138154839Y-53891656D01*
X138154839Y-53891656D02*
X138107220Y-53844036D01*
X137202458Y-53891656D02*
X137297696Y-53939275D01*
X137297696Y-53939275D02*
X137488172Y-53939275D01*
X137488172Y-53939275D02*
X137583410Y-53891656D01*
X137583410Y-53891656D02*
X137631029Y-53844036D01*
X137631029Y-53844036D02*
X137678648Y-53748798D01*
X137678648Y-53748798D02*
X137678648Y-53463084D01*
X137678648Y-53463084D02*
X137631029Y-53367846D01*
X137631029Y-53367846D02*
X137583410Y-53320227D01*
X137583410Y-53320227D02*
X137488172Y-53272608D01*
X137488172Y-53272608D02*
X137297696Y-53272608D01*
X137297696Y-53272608D02*
X137202458Y-53320227D01*
X136345315Y-53939275D02*
X136345315Y-53415465D01*
X136345315Y-53415465D02*
X136392934Y-53320227D01*
X136392934Y-53320227D02*
X136488172Y-53272608D01*
X136488172Y-53272608D02*
X136678648Y-53272608D01*
X136678648Y-53272608D02*
X136773886Y-53320227D01*
X136345315Y-53891656D02*
X136440553Y-53939275D01*
X136440553Y-53939275D02*
X136678648Y-53939275D01*
X136678648Y-53939275D02*
X136773886Y-53891656D01*
X136773886Y-53891656D02*
X136821505Y-53796417D01*
X136821505Y-53796417D02*
X136821505Y-53701179D01*
X136821505Y-53701179D02*
X136773886Y-53605941D01*
X136773886Y-53605941D02*
X136678648Y-53558322D01*
X136678648Y-53558322D02*
X136440553Y-53558322D01*
X136440553Y-53558322D02*
X136345315Y-53510703D01*
X135916743Y-53891656D02*
X135821505Y-53939275D01*
X135821505Y-53939275D02*
X135631029Y-53939275D01*
X135631029Y-53939275D02*
X135535791Y-53891656D01*
X135535791Y-53891656D02*
X135488172Y-53796417D01*
X135488172Y-53796417D02*
X135488172Y-53748798D01*
X135488172Y-53748798D02*
X135535791Y-53653560D01*
X135535791Y-53653560D02*
X135631029Y-53605941D01*
X135631029Y-53605941D02*
X135773886Y-53605941D01*
X135773886Y-53605941D02*
X135869124Y-53558322D01*
X135869124Y-53558322D02*
X135916743Y-53463084D01*
X135916743Y-53463084D02*
X135916743Y-53415465D01*
X135916743Y-53415465D02*
X135869124Y-53320227D01*
X135869124Y-53320227D02*
X135773886Y-53272608D01*
X135773886Y-53272608D02*
X135631029Y-53272608D01*
X135631029Y-53272608D02*
X135535791Y-53320227D01*
X134297695Y-53939275D02*
X134297695Y-52939275D01*
X134297695Y-53415465D02*
X133726267Y-53415465D01*
X133726267Y-53939275D02*
X133726267Y-52939275D01*
X132869124Y-53891656D02*
X132964362Y-53939275D01*
X132964362Y-53939275D02*
X133154838Y-53939275D01*
X133154838Y-53939275D02*
X133250076Y-53891656D01*
X133250076Y-53891656D02*
X133297695Y-53796417D01*
X133297695Y-53796417D02*
X133297695Y-53415465D01*
X133297695Y-53415465D02*
X133250076Y-53320227D01*
X133250076Y-53320227D02*
X133154838Y-53272608D01*
X133154838Y-53272608D02*
X132964362Y-53272608D01*
X132964362Y-53272608D02*
X132869124Y-53320227D01*
X132869124Y-53320227D02*
X132821505Y-53415465D01*
X132821505Y-53415465D02*
X132821505Y-53510703D01*
X132821505Y-53510703D02*
X133297695Y-53605941D01*
X132392933Y-53939275D02*
X132392933Y-53272608D01*
X132392933Y-53463084D02*
X132345314Y-53367846D01*
X132345314Y-53367846D02*
X132297695Y-53320227D01*
X132297695Y-53320227D02*
X132202457Y-53272608D01*
X132202457Y-53272608D02*
X132107219Y-53272608D01*
X131773885Y-53939275D02*
X131773885Y-53272608D01*
X131773885Y-53463084D02*
X131726266Y-53367846D01*
X131726266Y-53367846D02*
X131678647Y-53320227D01*
X131678647Y-53320227D02*
X131583409Y-53272608D01*
X131583409Y-53272608D02*
X131488171Y-53272608D01*
X130773885Y-53891656D02*
X130869123Y-53939275D01*
X130869123Y-53939275D02*
X131059599Y-53939275D01*
X131059599Y-53939275D02*
X131154837Y-53891656D01*
X131154837Y-53891656D02*
X131202456Y-53796417D01*
X131202456Y-53796417D02*
X131202456Y-53415465D01*
X131202456Y-53415465D02*
X131154837Y-53320227D01*
X131154837Y-53320227D02*
X131059599Y-53272608D01*
X131059599Y-53272608D02*
X130869123Y-53272608D01*
X130869123Y-53272608D02*
X130773885Y-53320227D01*
X130773885Y-53320227D02*
X130726266Y-53415465D01*
X130726266Y-53415465D02*
X130726266Y-53510703D01*
X130726266Y-53510703D02*
X131202456Y-53605941D01*
X130297694Y-53939275D02*
X130297694Y-53272608D01*
X130297694Y-53463084D02*
X130250075Y-53367846D01*
X130250075Y-53367846D02*
X130202456Y-53320227D01*
X130202456Y-53320227D02*
X130107218Y-53272608D01*
X130107218Y-53272608D02*
X130011980Y-53272608D01*
X129250075Y-53939275D02*
X129250075Y-53415465D01*
X129250075Y-53415465D02*
X129297694Y-53320227D01*
X129297694Y-53320227D02*
X129392932Y-53272608D01*
X129392932Y-53272608D02*
X129583408Y-53272608D01*
X129583408Y-53272608D02*
X129678646Y-53320227D01*
X129250075Y-53891656D02*
X129345313Y-53939275D01*
X129345313Y-53939275D02*
X129583408Y-53939275D01*
X129583408Y-53939275D02*
X129678646Y-53891656D01*
X129678646Y-53891656D02*
X129726265Y-53796417D01*
X129726265Y-53796417D02*
X129726265Y-53701179D01*
X129726265Y-53701179D02*
X129678646Y-53605941D01*
X129678646Y-53605941D02*
X129583408Y-53558322D01*
X129583408Y-53558322D02*
X129345313Y-53558322D01*
X129345313Y-53558322D02*
X129250075Y-53510703D01*
X139345315Y-54549219D02*
X139345315Y-55358742D01*
X139345315Y-55358742D02*
X139297696Y-55453980D01*
X139297696Y-55453980D02*
X139250077Y-55501600D01*
X139250077Y-55501600D02*
X139154839Y-55549219D01*
X139154839Y-55549219D02*
X138964363Y-55549219D01*
X138964363Y-55549219D02*
X138869125Y-55501600D01*
X138869125Y-55501600D02*
X138821506Y-55453980D01*
X138821506Y-55453980D02*
X138773887Y-55358742D01*
X138773887Y-55358742D02*
X138773887Y-54549219D01*
X138297696Y-55549219D02*
X138297696Y-54549219D01*
X138297696Y-54549219D02*
X137916744Y-54549219D01*
X137916744Y-54549219D02*
X137821506Y-54596838D01*
X137821506Y-54596838D02*
X137773887Y-54644457D01*
X137773887Y-54644457D02*
X137726268Y-54739695D01*
X137726268Y-54739695D02*
X137726268Y-54882552D01*
X137726268Y-54882552D02*
X137773887Y-54977790D01*
X137773887Y-54977790D02*
X137821506Y-55025409D01*
X137821506Y-55025409D02*
X137916744Y-55073028D01*
X137916744Y-55073028D02*
X138297696Y-55073028D01*
X137297696Y-55549219D02*
X137297696Y-54549219D01*
X137297696Y-54549219D02*
X136964363Y-55263504D01*
X136964363Y-55263504D02*
X136631030Y-54549219D01*
X136631030Y-54549219D02*
X136631030Y-55549219D01*
X135440553Y-54644457D02*
X135392934Y-54596838D01*
X135392934Y-54596838D02*
X135297696Y-54549219D01*
X135297696Y-54549219D02*
X135059601Y-54549219D01*
X135059601Y-54549219D02*
X134964363Y-54596838D01*
X134964363Y-54596838D02*
X134916744Y-54644457D01*
X134916744Y-54644457D02*
X134869125Y-54739695D01*
X134869125Y-54739695D02*
X134869125Y-54834933D01*
X134869125Y-54834933D02*
X134916744Y-54977790D01*
X134916744Y-54977790D02*
X135488172Y-55549219D01*
X135488172Y-55549219D02*
X134869125Y-55549219D01*
X134250077Y-54549219D02*
X134154839Y-54549219D01*
X134154839Y-54549219D02*
X134059601Y-54596838D01*
X134059601Y-54596838D02*
X134011982Y-54644457D01*
X134011982Y-54644457D02*
X133964363Y-54739695D01*
X133964363Y-54739695D02*
X133916744Y-54930171D01*
X133916744Y-54930171D02*
X133916744Y-55168266D01*
X133916744Y-55168266D02*
X133964363Y-55358742D01*
X133964363Y-55358742D02*
X134011982Y-55453980D01*
X134011982Y-55453980D02*
X134059601Y-55501600D01*
X134059601Y-55501600D02*
X134154839Y-55549219D01*
X134154839Y-55549219D02*
X134250077Y-55549219D01*
X134250077Y-55549219D02*
X134345315Y-55501600D01*
X134345315Y-55501600D02*
X134392934Y-55453980D01*
X134392934Y-55453980D02*
X134440553Y-55358742D01*
X134440553Y-55358742D02*
X134488172Y-55168266D01*
X134488172Y-55168266D02*
X134488172Y-54930171D01*
X134488172Y-54930171D02*
X134440553Y-54739695D01*
X134440553Y-54739695D02*
X134392934Y-54644457D01*
X134392934Y-54644457D02*
X134345315Y-54596838D01*
X134345315Y-54596838D02*
X134250077Y-54549219D01*
X133535791Y-54644457D02*
X133488172Y-54596838D01*
X133488172Y-54596838D02*
X133392934Y-54549219D01*
X133392934Y-54549219D02*
X133154839Y-54549219D01*
X133154839Y-54549219D02*
X133059601Y-54596838D01*
X133059601Y-54596838D02*
X133011982Y-54644457D01*
X133011982Y-54644457D02*
X132964363Y-54739695D01*
X132964363Y-54739695D02*
X132964363Y-54834933D01*
X132964363Y-54834933D02*
X133011982Y-54977790D01*
X133011982Y-54977790D02*
X133583410Y-55549219D01*
X133583410Y-55549219D02*
X132964363Y-55549219D01*
X132059601Y-54549219D02*
X132535791Y-54549219D01*
X132535791Y-54549219D02*
X132583410Y-55025409D01*
X132583410Y-55025409D02*
X132535791Y-54977790D01*
X132535791Y-54977790D02*
X132440553Y-54930171D01*
X132440553Y-54930171D02*
X132202458Y-54930171D01*
X132202458Y-54930171D02*
X132107220Y-54977790D01*
X132107220Y-54977790D02*
X132059601Y-55025409D01*
X132059601Y-55025409D02*
X132011982Y-55120647D01*
X132011982Y-55120647D02*
X132011982Y-55358742D01*
X132011982Y-55358742D02*
X132059601Y-55453980D01*
X132059601Y-55453980D02*
X132107220Y-55501600D01*
X132107220Y-55501600D02*
X132202458Y-55549219D01*
X132202458Y-55549219D02*
X132440553Y-55549219D01*
X132440553Y-55549219D02*
X132535791Y-55501600D01*
X132535791Y-55501600D02*
X132583410Y-55453980D01*
D11*
%TO.C,logo1*%
G36*
X135718255Y-60092406D02*
G01*
X135792643Y-60158713D01*
X135852170Y-60210660D01*
X135898952Y-60250127D01*
X135935106Y-60278995D01*
X135962749Y-60299142D01*
X135983997Y-60312450D01*
X136000968Y-60320796D01*
X136007040Y-60323262D01*
X136046261Y-60334774D01*
X136092831Y-60338696D01*
X136157170Y-60335179D01*
X136249693Y-60324371D01*
X136274368Y-60321327D01*
X136493979Y-60312148D01*
X136696144Y-60337854D01*
X136882114Y-60398841D01*
X137053140Y-60495503D01*
X137210472Y-60628238D01*
X137274265Y-60694751D01*
X137331829Y-60765379D01*
X137376177Y-60837532D01*
X137417098Y-60925280D01*
X137436870Y-60973271D01*
X137461745Y-61043720D01*
X137477072Y-61110070D01*
X137485786Y-61186772D01*
X137490795Y-61287739D01*
X137490822Y-61288275D01*
X137490909Y-61290769D01*
X137489800Y-61436988D01*
X137473913Y-61570225D01*
X137440519Y-61705421D01*
X137386890Y-61857518D01*
X137384411Y-61864119D01*
X137375907Y-61892383D01*
X137368745Y-61928503D01*
X137362706Y-61976404D01*
X137357566Y-62040011D01*
X137353104Y-62123249D01*
X137349100Y-62230043D01*
X137345331Y-62364318D01*
X137341577Y-62529999D01*
X137337615Y-62731011D01*
X137337044Y-62761907D01*
X137333993Y-62945122D01*
X137330897Y-63158789D01*
X137327840Y-63395511D01*
X137324902Y-63647896D01*
X137322169Y-63908546D01*
X137319721Y-64170067D01*
X137317641Y-64425065D01*
X137316012Y-64666144D01*
X137314566Y-64911456D01*
X137313493Y-65126238D01*
X137313069Y-65307589D01*
X137313535Y-65458457D01*
X137315134Y-65581785D01*
X137318105Y-65680520D01*
X137322692Y-65757607D01*
X137329135Y-65815992D01*
X137337675Y-65858621D01*
X137348554Y-65888439D01*
X137362014Y-65908393D01*
X137378296Y-65921426D01*
X137397640Y-65930486D01*
X137420290Y-65938518D01*
X137428202Y-65940443D01*
X137478269Y-65945081D01*
X137567180Y-65947864D01*
X137694656Y-65948791D01*
X137860419Y-65947862D01*
X138064190Y-65945076D01*
X138305690Y-65940433D01*
X138454785Y-65937307D01*
X138656475Y-65933220D01*
X138885262Y-65928702D01*
X139134662Y-65923878D01*
X139398190Y-65918869D01*
X139669362Y-65913799D01*
X139941693Y-65908792D01*
X140208701Y-65903970D01*
X140463899Y-65899456D01*
X141793114Y-65876228D01*
X141902728Y-65929857D01*
X141994101Y-65986422D01*
X142065322Y-66063630D01*
X142118301Y-66143774D01*
X142116603Y-67097130D01*
X142116310Y-67194261D01*
X142115907Y-67327956D01*
X142114588Y-67535160D01*
X142112614Y-67707440D01*
X142109929Y-67847021D01*
X142106478Y-67956124D01*
X142102205Y-68036973D01*
X142097055Y-68091790D01*
X142090972Y-68122800D01*
X142068062Y-68172684D01*
X142023466Y-68227365D01*
X142003234Y-68252173D01*
X141915555Y-68315026D01*
X141815371Y-68352619D01*
X141763147Y-68360380D01*
X141677986Y-68367631D01*
X141576760Y-68372552D01*
X141471750Y-68374365D01*
X141402353Y-68374596D01*
X141307104Y-68377871D01*
X141239141Y-68388449D01*
X141190842Y-68410592D01*
X141154584Y-68448559D01*
X141122744Y-68506612D01*
X141087699Y-68589011D01*
X141037832Y-68696148D01*
X140928007Y-68866950D01*
X140794922Y-69010191D01*
X140642485Y-69124511D01*
X140474605Y-69208553D01*
X140295190Y-69260957D01*
X140108148Y-69280365D01*
X139917389Y-69265416D01*
X139726821Y-69214752D01*
X139540352Y-69127015D01*
X139531603Y-69121803D01*
X139423351Y-69040700D01*
X139317134Y-68933895D01*
X139223196Y-68812929D01*
X139151784Y-68689341D01*
X139143225Y-68671082D01*
X139092618Y-68563661D01*
X139054837Y-68485802D01*
X139026592Y-68432249D01*
X139004594Y-68397743D01*
X138985553Y-68377026D01*
X138966179Y-68364839D01*
X138943182Y-68355925D01*
X138932624Y-68353986D01*
X138886962Y-68350639D01*
X138807032Y-68347632D01*
X138692335Y-68344958D01*
X138542374Y-68342615D01*
X138356647Y-68340598D01*
X138134658Y-68338903D01*
X137875906Y-68337525D01*
X137579893Y-68336461D01*
X137246120Y-68335706D01*
X136874088Y-68335256D01*
X136463298Y-68335107D01*
X134043133Y-68335107D01*
X133994767Y-68379272D01*
X133974198Y-68403702D01*
X133940225Y-68462726D01*
X133912739Y-68531397D01*
X133897490Y-68576929D01*
X133825893Y-68740250D01*
X133734710Y-68890009D01*
X133631357Y-69013503D01*
X133587434Y-69053328D01*
X133479345Y-69132561D01*
X133356083Y-69204506D01*
X133231232Y-69261664D01*
X133118378Y-69296541D01*
X133097401Y-69300235D01*
X133003870Y-69307867D01*
X132890483Y-69307728D01*
X132771580Y-69300564D01*
X132661500Y-69287125D01*
X132574584Y-69268160D01*
X132490980Y-69234478D01*
X132382143Y-69174122D01*
X132271938Y-69098915D01*
X132172707Y-69017382D01*
X132096791Y-68938052D01*
X132068168Y-68900889D01*
X131999874Y-68797374D01*
X131940465Y-68680566D01*
X131883092Y-68537629D01*
X131871086Y-68504961D01*
X131848437Y-68449526D01*
X131824137Y-68409753D01*
X131791922Y-68382839D01*
X131745527Y-68365981D01*
X131678687Y-68356376D01*
X131585136Y-68351220D01*
X131458609Y-68347711D01*
X131322461Y-68342912D01*
X131208160Y-68335176D01*
X131127063Y-68324550D01*
X131076040Y-68310731D01*
X130993576Y-68257659D01*
X130957488Y-68215775D01*
X132324301Y-68215775D01*
X132335349Y-68348550D01*
X132381678Y-68479566D01*
X132454828Y-68592397D01*
X132557926Y-68694758D01*
X132676724Y-68767037D01*
X132776402Y-68798570D01*
X132908638Y-68812080D01*
X133039732Y-68798496D01*
X133155806Y-68758078D01*
X133179460Y-68744804D01*
X133271983Y-68676239D01*
X133359333Y-68588776D01*
X133426796Y-68496614D01*
X133469533Y-68394447D01*
X133490360Y-68266988D01*
X133485119Y-68170970D01*
X139509843Y-68170970D01*
X139516269Y-68266988D01*
X139518515Y-68300548D01*
X139561283Y-68423438D01*
X139588978Y-68472838D01*
X139680532Y-68591552D01*
X139792544Y-68678207D01*
X139928316Y-68735613D01*
X139942493Y-68739688D01*
X140047083Y-68761469D01*
X140138496Y-68761330D01*
X140233911Y-68739489D01*
X140325674Y-68704310D01*
X140441534Y-68632909D01*
X140533947Y-68535052D01*
X140609253Y-68405092D01*
X140628746Y-68355850D01*
X140652344Y-68227365D01*
X140642835Y-68095567D01*
X140602954Y-67967549D01*
X140535440Y-67850407D01*
X140443028Y-67751237D01*
X140328456Y-67677133D01*
X140226394Y-67644896D01*
X140104542Y-67631865D01*
X139979746Y-67638948D01*
X139867698Y-67666508D01*
X139760865Y-67722270D01*
X139660779Y-67810354D01*
X139583738Y-67919048D01*
X139532505Y-68041529D01*
X139509843Y-68170970D01*
X133485119Y-68170970D01*
X133483253Y-68136788D01*
X133447621Y-68017428D01*
X133426537Y-67974703D01*
X133338068Y-67845028D01*
X133228076Y-67747401D01*
X133098104Y-67682951D01*
X132949697Y-67652809D01*
X132949273Y-67652776D01*
X132808542Y-67659307D01*
X132679295Y-67698718D01*
X132564931Y-67766060D01*
X132468850Y-67856385D01*
X132394452Y-67964744D01*
X132345135Y-68086191D01*
X132324301Y-68215775D01*
X130957488Y-68215775D01*
X130924711Y-68177734D01*
X130881529Y-68084227D01*
X130879837Y-68076099D01*
X130874921Y-68026198D01*
X130870744Y-67943713D01*
X130867300Y-67833719D01*
X130864589Y-67701291D01*
X130862608Y-67551504D01*
X130861355Y-67389436D01*
X130860827Y-67220160D01*
X130860893Y-67161699D01*
X131471464Y-67161699D01*
X131473035Y-67280604D01*
X131476207Y-67388048D01*
X131480996Y-67476022D01*
X131487420Y-67536513D01*
X131495186Y-67576661D01*
X131517135Y-67636797D01*
X131554097Y-67673913D01*
X131614063Y-67694148D01*
X131705024Y-67703640D01*
X131727512Y-67704837D01*
X131831361Y-67706555D01*
X131910367Y-67697069D01*
X131976287Y-67672281D01*
X132040879Y-67628091D01*
X132115901Y-67560402D01*
X132218732Y-67467873D01*
X132336502Y-67381279D01*
X132457723Y-67315989D01*
X132594314Y-67264636D01*
X132726323Y-67231707D01*
X132920020Y-67215412D01*
X133109612Y-67237609D01*
X133293348Y-67297851D01*
X133469477Y-67395692D01*
X133636249Y-67530683D01*
X133673662Y-67565070D01*
X133743445Y-67623937D01*
X133805945Y-67670526D01*
X133851030Y-67696991D01*
X133862895Y-67700896D01*
X133883789Y-67705099D01*
X133913975Y-67708804D01*
X133955594Y-67712034D01*
X134010787Y-67714813D01*
X134081694Y-67717166D01*
X134170455Y-67719117D01*
X134279210Y-67720688D01*
X134410100Y-67721905D01*
X134565266Y-67722792D01*
X134746847Y-67723372D01*
X134956984Y-67723669D01*
X135197818Y-67723708D01*
X135471488Y-67723513D01*
X135780136Y-67723107D01*
X136125901Y-67722514D01*
X136446566Y-67721822D01*
X136850096Y-67720646D01*
X137223601Y-67719190D01*
X137566243Y-67717463D01*
X137877183Y-67715475D01*
X138155579Y-67713234D01*
X138400594Y-67710749D01*
X138611388Y-67708029D01*
X138787121Y-67705082D01*
X138926953Y-67701917D01*
X139030047Y-67698544D01*
X139095561Y-67694970D01*
X139122658Y-67691204D01*
X139137125Y-67677951D01*
X139173772Y-67641980D01*
X139226734Y-67589029D01*
X139290278Y-67524789D01*
X139397930Y-67422830D01*
X139538638Y-67315236D01*
X139680737Y-67238743D01*
X139831541Y-67189625D01*
X139998363Y-67164159D01*
X140183345Y-67161866D01*
X140371676Y-67191962D01*
X140548087Y-67257419D01*
X140715953Y-67359522D01*
X140878648Y-67499557D01*
X140936272Y-67555341D01*
X141010027Y-67619617D01*
X141072582Y-67660474D01*
X141132594Y-67681848D01*
X141198718Y-67687676D01*
X141279610Y-67681893D01*
X141285805Y-67681165D01*
X141348701Y-67667724D01*
X141392499Y-67641183D01*
X141421455Y-67595018D01*
X141439823Y-67522701D01*
X141451860Y-67417707D01*
X141453228Y-67399811D01*
X141457665Y-67304545D01*
X141459213Y-67194261D01*
X141458158Y-67076710D01*
X141454782Y-66959646D01*
X141449371Y-66850821D01*
X141442208Y-66757986D01*
X141433578Y-66688894D01*
X141423765Y-66651298D01*
X141423148Y-66650183D01*
X141388931Y-66616356D01*
X141338196Y-66590942D01*
X141324956Y-66588485D01*
X141271973Y-66583753D01*
X141185467Y-66578978D01*
X141069184Y-66574284D01*
X140926864Y-66569798D01*
X140762253Y-66565644D01*
X140579094Y-66561949D01*
X140381129Y-66558838D01*
X140358232Y-66558526D01*
X140154235Y-66555688D01*
X139920017Y-66552347D01*
X139663612Y-66548621D01*
X139393051Y-66544630D01*
X139116367Y-66540493D01*
X138841590Y-66536329D01*
X138576755Y-66532257D01*
X138329893Y-66528397D01*
X138231429Y-66526896D01*
X137940203Y-66523028D01*
X137633548Y-66519732D01*
X137313743Y-66516993D01*
X136983065Y-66514798D01*
X136643795Y-66513133D01*
X136298209Y-66511983D01*
X135948588Y-66511335D01*
X135597209Y-66511175D01*
X135246351Y-66511490D01*
X134898293Y-66512264D01*
X134555313Y-66513485D01*
X134219690Y-66515138D01*
X133893702Y-66517210D01*
X133579629Y-66519686D01*
X133279748Y-66522553D01*
X132996339Y-66525797D01*
X132731680Y-66529404D01*
X132488049Y-66533360D01*
X132267725Y-66537652D01*
X132072987Y-66542264D01*
X131906114Y-66547184D01*
X131769383Y-66552397D01*
X131665074Y-66557890D01*
X131595465Y-66563649D01*
X131562835Y-66569659D01*
X131523927Y-66598095D01*
X131489336Y-66664853D01*
X131486990Y-66675647D01*
X131480825Y-66731691D01*
X131476173Y-66816329D01*
X131473050Y-66921551D01*
X131471474Y-67039344D01*
X131471464Y-67161699D01*
X130860893Y-67161699D01*
X130861021Y-67048752D01*
X130861936Y-66880289D01*
X130863568Y-66719845D01*
X130865916Y-66572496D01*
X130868977Y-66443318D01*
X130872749Y-66337386D01*
X130877229Y-66259775D01*
X130882415Y-66215562D01*
X130909191Y-66133616D01*
X130973303Y-66035798D01*
X131064572Y-65964193D01*
X131068723Y-65962010D01*
X131087643Y-65954249D01*
X131113143Y-65947866D01*
X131148853Y-65942729D01*
X131198404Y-65938705D01*
X131265427Y-65935662D01*
X131353554Y-65933469D01*
X131466414Y-65931992D01*
X131607639Y-65931102D01*
X131780860Y-65930664D01*
X131989707Y-65930547D01*
X132116220Y-65930519D01*
X132311188Y-65930207D01*
X132472192Y-65929301D01*
X132602613Y-65927497D01*
X132705833Y-65924493D01*
X132785235Y-65919985D01*
X132844201Y-65913670D01*
X132886111Y-65905244D01*
X132914349Y-65894406D01*
X132932296Y-65880850D01*
X132943334Y-65864275D01*
X132950845Y-65844377D01*
X132955756Y-65814485D01*
X132961407Y-65752895D01*
X132966716Y-65670056D01*
X132970983Y-65575330D01*
X132973455Y-65514934D01*
X132979218Y-65426418D01*
X132987456Y-65365214D01*
X132999429Y-65323506D01*
X133016396Y-65293477D01*
X133020287Y-65288189D01*
X133033857Y-65269884D01*
X133047732Y-65254111D01*
X133064695Y-65240707D01*
X133087528Y-65229508D01*
X133119014Y-65220351D01*
X133161934Y-65213073D01*
X133219072Y-65207512D01*
X133293209Y-65203504D01*
X133387127Y-65200886D01*
X133503609Y-65199494D01*
X133645437Y-65199167D01*
X133815394Y-65199740D01*
X134016261Y-65201052D01*
X134250821Y-65202937D01*
X134521856Y-65205235D01*
X134669124Y-65206489D01*
X134923299Y-65208638D01*
X135142316Y-65210281D01*
X135328871Y-65211220D01*
X135485657Y-65211258D01*
X135615371Y-65210198D01*
X135720708Y-65207842D01*
X135804363Y-65203992D01*
X135869031Y-65198452D01*
X135917407Y-65191023D01*
X135952186Y-65181509D01*
X135976064Y-65169711D01*
X135991736Y-65155433D01*
X136001897Y-65138477D01*
X136009241Y-65118645D01*
X136016466Y-65095740D01*
X136017913Y-65088959D01*
X136021571Y-65044155D01*
X136024340Y-64965506D01*
X136026268Y-64857052D01*
X136027406Y-64722827D01*
X136027802Y-64566871D01*
X136027505Y-64393220D01*
X136026566Y-64205912D01*
X136025033Y-64008983D01*
X136022955Y-63806472D01*
X136020383Y-63602415D01*
X136017364Y-63400851D01*
X136013949Y-63205815D01*
X136010187Y-63021345D01*
X136006127Y-62851480D01*
X136001818Y-62700255D01*
X135997310Y-62571709D01*
X135992653Y-62469878D01*
X135987894Y-62398800D01*
X135983084Y-62362513D01*
X135972310Y-62332179D01*
X135945707Y-62290513D01*
X135899894Y-62245879D01*
X135827429Y-62190031D01*
X135732035Y-62115511D01*
X135594873Y-61981060D01*
X135490651Y-61835136D01*
X135415388Y-61671663D01*
X135365102Y-61484566D01*
X135360496Y-61462057D01*
X135339580Y-61377545D01*
X135328959Y-61344098D01*
X135817373Y-61344098D01*
X135818078Y-61408293D01*
X135823086Y-61492455D01*
X135833990Y-61552297D01*
X135852067Y-61597122D01*
X135852295Y-61597538D01*
X135924672Y-61696383D01*
X136023694Y-61785187D01*
X136136824Y-61852694D01*
X136165196Y-61864874D01*
X136311828Y-61904563D01*
X136460532Y-61909381D01*
X136604474Y-61880537D01*
X136736817Y-61819236D01*
X136850725Y-61726685D01*
X136894162Y-61676531D01*
X136970417Y-61551702D01*
X137009503Y-61420865D01*
X137011150Y-61287739D01*
X136975091Y-61156042D01*
X136901057Y-61029494D01*
X136884388Y-61008494D01*
X136777743Y-60907862D01*
X136653999Y-60837313D01*
X136519290Y-60796775D01*
X136379748Y-60786172D01*
X136241504Y-60805432D01*
X136110692Y-60854478D01*
X135993443Y-60933239D01*
X135895890Y-61041638D01*
X135880756Y-61063470D01*
X135849869Y-61111020D01*
X135831113Y-61151201D01*
X135821462Y-61195670D01*
X135817891Y-61256083D01*
X135817373Y-61344098D01*
X135328959Y-61344098D01*
X135316293Y-61304211D01*
X135294873Y-61255856D01*
X135280549Y-61235415D01*
X135232754Y-61179448D01*
X135165601Y-61109188D01*
X135086492Y-61031614D01*
X135002831Y-60953707D01*
X134922018Y-60882450D01*
X134851456Y-60824821D01*
X134798549Y-60787802D01*
X134769679Y-60771773D01*
X134738942Y-60757535D01*
X134701985Y-60744165D01*
X134654171Y-60730570D01*
X134590866Y-60715660D01*
X134507434Y-60698343D01*
X134399238Y-60677529D01*
X134261644Y-60652126D01*
X134090016Y-60621044D01*
X134047920Y-60613440D01*
X133807811Y-60569533D01*
X133545345Y-60520655D01*
X133255162Y-60465802D01*
X132931902Y-60403968D01*
X132836945Y-60386015D01*
X132708858Y-60362349D01*
X132574494Y-60337976D01*
X132450990Y-60316029D01*
X132448282Y-60315554D01*
X132334303Y-60294992D01*
X132219209Y-60273269D01*
X132116276Y-60252945D01*
X132038780Y-60236577D01*
X132034326Y-60235594D01*
X131937587Y-60219074D01*
X131826137Y-60206745D01*
X131723211Y-60201211D01*
X131554861Y-60198863D01*
X131216478Y-60403743D01*
X131202009Y-60412529D01*
X131097251Y-60477733D01*
X131040633Y-60514566D01*
X131003174Y-60538935D01*
X130925574Y-60592175D01*
X130870251Y-60633490D01*
X130843001Y-60658920D01*
X130842877Y-60659100D01*
X130819530Y-60703448D01*
X130792082Y-60771083D01*
X130766448Y-60847437D01*
X130733483Y-60937538D01*
X130668465Y-61066864D01*
X130589503Y-61186298D01*
X130505384Y-61281240D01*
X130499433Y-61286630D01*
X130446114Y-61329562D01*
X130374999Y-61381103D01*
X130299779Y-61431264D01*
X130229458Y-61477915D01*
X130157160Y-61535627D01*
X130108043Y-61593280D01*
X130074728Y-61660149D01*
X130049839Y-61745510D01*
X130048380Y-61751630D01*
X130031066Y-61821164D01*
X130006709Y-61915535D01*
X130001296Y-61936062D01*
X129978338Y-62023128D01*
X129948981Y-62132325D01*
X129933340Y-62189916D01*
X129908516Y-62281478D01*
X129883003Y-62375815D01*
X129855223Y-62478785D01*
X129823599Y-62596246D01*
X129786552Y-62734055D01*
X129742504Y-62898070D01*
X129689878Y-63094149D01*
X129683540Y-63117840D01*
X129653517Y-63231479D01*
X129622116Y-63352105D01*
X129595187Y-63457286D01*
X129588695Y-63482780D01*
X129564240Y-63576984D01*
X129533772Y-63692482D01*
X129500546Y-63816984D01*
X129467817Y-63938198D01*
X129429042Y-64081106D01*
X129394264Y-64210136D01*
X129362634Y-64328717D01*
X129330940Y-64448971D01*
X129295968Y-64583021D01*
X129254506Y-64742989D01*
X129248361Y-64766671D01*
X129219125Y-64878088D01*
X129184331Y-65009230D01*
X129147817Y-65145668D01*
X129113426Y-65272974D01*
X129097601Y-65331384D01*
X129068839Y-65438465D01*
X129043627Y-65533475D01*
X129024238Y-65607818D01*
X129012946Y-65652895D01*
X128988937Y-65731996D01*
X128944363Y-65823198D01*
X128891104Y-65885946D01*
X128886836Y-65889173D01*
X128826063Y-65912456D01*
X128743053Y-65918141D01*
X128648539Y-65908076D01*
X128553255Y-65884113D01*
X128467935Y-65848099D01*
X128403312Y-65801886D01*
X128399024Y-65797582D01*
X128380493Y-65777641D01*
X128365887Y-65756750D01*
X128355762Y-65731840D01*
X128350674Y-65699838D01*
X128351177Y-65657673D01*
X128357827Y-65602274D01*
X128371179Y-65530570D01*
X128391787Y-65439491D01*
X128420208Y-65325963D01*
X128456996Y-65186918D01*
X128502707Y-65019282D01*
X128557896Y-64819986D01*
X128623118Y-64585957D01*
X128629054Y-64564659D01*
X128670613Y-64413678D01*
X128701746Y-64295218D01*
X128723117Y-64204729D01*
X128735387Y-64137662D01*
X128739222Y-64089470D01*
X128735285Y-64055604D01*
X128724239Y-64031514D01*
X128706747Y-64012654D01*
X128699022Y-64006545D01*
X128640046Y-63975013D01*
X128560059Y-63946747D01*
X128474283Y-63926387D01*
X128397944Y-63918569D01*
X128355426Y-63921157D01*
X128305846Y-63939219D01*
X128256968Y-63982363D01*
X128254612Y-63984942D01*
X128230462Y-64015808D01*
X128193777Y-64068537D01*
X128143622Y-64144618D01*
X128079061Y-64245538D01*
X127999159Y-64372786D01*
X127902980Y-64527851D01*
X127789589Y-64712221D01*
X127658049Y-64927384D01*
X127507426Y-65174829D01*
X127478683Y-65221695D01*
X127410235Y-65327595D01*
X127352753Y-65404414D01*
X127301341Y-65456534D01*
X127251102Y-65488338D01*
X127197139Y-65504207D01*
X127134558Y-65508523D01*
X127073535Y-65503044D01*
X126979211Y-65482817D01*
X126879712Y-65452104D01*
X126789794Y-65415598D01*
X126724213Y-65377995D01*
X126723510Y-65377463D01*
X126673314Y-65317337D01*
X126658568Y-65240514D01*
X126679326Y-65147283D01*
X126686765Y-65133069D01*
X126714578Y-65086863D01*
X126760315Y-65013994D01*
X126821657Y-64918058D01*
X126896288Y-64802650D01*
X126981888Y-64671368D01*
X127076140Y-64527807D01*
X127176726Y-64375564D01*
X127244732Y-64272866D01*
X127341483Y-64126452D01*
X127430503Y-63991379D01*
X127509458Y-63871205D01*
X127576018Y-63769492D01*
X127627848Y-63689797D01*
X127662616Y-63635680D01*
X127677989Y-63610702D01*
X127696106Y-63555378D01*
X127696715Y-63470219D01*
X127671082Y-63388135D01*
X127656275Y-63358623D01*
X127573369Y-63144153D01*
X127524462Y-62911213D01*
X127509531Y-62659475D01*
X127520486Y-62503461D01*
X128194232Y-62503461D01*
X128204784Y-62636319D01*
X128242884Y-62748035D01*
X128308526Y-62840396D01*
X128312806Y-62844830D01*
X128354911Y-62881857D01*
X128406009Y-62912647D01*
X128475867Y-62942160D01*
X128574251Y-62975357D01*
X128626396Y-62991211D01*
X128722000Y-63017398D01*
X128808190Y-63037698D01*
X128871105Y-63048684D01*
X128875621Y-63049185D01*
X128919638Y-63053136D01*
X128956104Y-63051857D01*
X128986972Y-63041709D01*
X129014194Y-63019058D01*
X129039723Y-62980268D01*
X129065512Y-62921701D01*
X129093512Y-62839721D01*
X129125675Y-62730693D01*
X129163956Y-62590980D01*
X129210305Y-62416946D01*
X129211198Y-62413578D01*
X129242804Y-62292585D01*
X129271520Y-62179408D01*
X129295502Y-62081566D01*
X129312904Y-62006579D01*
X129321884Y-61961964D01*
X129325017Y-61936062D01*
X129322709Y-61886854D01*
X129303906Y-61847093D01*
X129264147Y-61813679D01*
X129198974Y-61783515D01*
X129103930Y-61753499D01*
X128974554Y-61720534D01*
X128902823Y-61703556D01*
X128813843Y-61683910D01*
X128749540Y-61672731D01*
X128701732Y-61669092D01*
X128662237Y-61672067D01*
X128622871Y-61680730D01*
X128610617Y-61684365D01*
X128522810Y-61729827D01*
X128438045Y-61803864D01*
X128364878Y-61897631D01*
X128311862Y-62002285D01*
X128255800Y-62167177D01*
X128211235Y-62347676D01*
X128194232Y-62503461D01*
X127520486Y-62503461D01*
X127528551Y-62388608D01*
X127581502Y-62098284D01*
X127596725Y-62034839D01*
X127679960Y-61743514D01*
X127776922Y-61488323D01*
X127888077Y-61268557D01*
X128013892Y-61083509D01*
X128154834Y-60932472D01*
X128311369Y-60814736D01*
X128483965Y-60729595D01*
X128493872Y-60725736D01*
X128562896Y-60694724D01*
X128616452Y-60663826D01*
X128643656Y-60639202D01*
X128644425Y-60637685D01*
X128656756Y-60598228D01*
X128661711Y-60574346D01*
X129142087Y-60574346D01*
X129161298Y-60703469D01*
X129210783Y-60825666D01*
X129287943Y-60934776D01*
X129390178Y-61024639D01*
X129514888Y-61089094D01*
X129520105Y-61091001D01*
X129647819Y-61127755D01*
X129762834Y-61138064D01*
X129879584Y-61123278D01*
X130009592Y-61082366D01*
X130140041Y-61009229D01*
X130243672Y-60912363D01*
X130317677Y-60795286D01*
X130359247Y-60661514D01*
X130365575Y-60514566D01*
X130358688Y-60461853D01*
X130339732Y-60379796D01*
X130315452Y-60314721D01*
X130295582Y-60280557D01*
X130220074Y-60188953D01*
X130121115Y-60105447D01*
X130009912Y-60040115D01*
X129907189Y-60006061D01*
X129772167Y-59990703D01*
X129636024Y-60002055D01*
X129513707Y-60040115D01*
X129389345Y-60114743D01*
X129278463Y-60216930D01*
X129196714Y-60335021D01*
X129155749Y-60444458D01*
X129142087Y-60574346D01*
X128661711Y-60574346D01*
X128670121Y-60533817D01*
X128681758Y-60457613D01*
X128708729Y-60314012D01*
X128775823Y-60124113D01*
X128875069Y-59956057D01*
X129005194Y-59811469D01*
X129096391Y-59743247D01*
X132316707Y-59743247D01*
X132340709Y-59778867D01*
X132402623Y-59809740D01*
X132502857Y-59838137D01*
X132641820Y-59866325D01*
X132664232Y-59870406D01*
X132756891Y-59887306D01*
X132871788Y-59908290D01*
X132996444Y-59931078D01*
X133118378Y-59953390D01*
X133140341Y-59957406D01*
X133274818Y-59981818D01*
X133418127Y-60007586D01*
X133554455Y-60031877D01*
X133667992Y-60051860D01*
X133674404Y-60052978D01*
X133770814Y-60069806D01*
X133855254Y-60084586D01*
X133918821Y-60095756D01*
X133952613Y-60101757D01*
X133975477Y-60103080D01*
X134023042Y-60094558D01*
X134063258Y-60076601D01*
X134080202Y-60055040D01*
X134075861Y-60043340D01*
X134052759Y-60006726D01*
X134016407Y-59958609D01*
X134010705Y-59951748D01*
X133970216Y-59907152D01*
X133909481Y-59844109D01*
X133833292Y-59767250D01*
X133746439Y-59681206D01*
X133653714Y-59590605D01*
X133559908Y-59500078D01*
X133469812Y-59414255D01*
X133388217Y-59337766D01*
X133319914Y-59275240D01*
X133269695Y-59231308D01*
X133242350Y-59210599D01*
X133203378Y-59194826D01*
X133155281Y-59191090D01*
X133098571Y-59205751D01*
X133025918Y-59240870D01*
X132929990Y-59298513D01*
X132899982Y-59317432D01*
X132793198Y-59384076D01*
X132679383Y-59454318D01*
X132578579Y-59515767D01*
X132468073Y-59585214D01*
X132380798Y-59648690D01*
X132330206Y-59700611D01*
X132316707Y-59743247D01*
X129096391Y-59743247D01*
X129164929Y-59691976D01*
X129353001Y-59599203D01*
X129370497Y-59592392D01*
X129433120Y-59569196D01*
X129486567Y-59553237D01*
X129540526Y-59543096D01*
X129604682Y-59537356D01*
X129688723Y-59534597D01*
X129802336Y-59533402D01*
X130088226Y-59531475D01*
X130224361Y-59460141D01*
X130235194Y-59454405D01*
X130292107Y-59423348D01*
X130376447Y-59376289D01*
X130489029Y-59312761D01*
X130630668Y-59232302D01*
X130802178Y-59134445D01*
X131004375Y-59018727D01*
X131238073Y-58884683D01*
X131504086Y-58731848D01*
X131803231Y-58559757D01*
X131876728Y-58520189D01*
X131961165Y-58479625D01*
X132031542Y-58450596D01*
X132073109Y-58436673D01*
X132111127Y-58427791D01*
X132152417Y-58424656D01*
X132205873Y-58427241D01*
X132280391Y-58435516D01*
X132384865Y-58449452D01*
X132488210Y-58464408D01*
X132597730Y-58481786D01*
X132694354Y-58498596D01*
X132765055Y-58512671D01*
X132772819Y-58514390D01*
X132845627Y-58529369D01*
X132943578Y-58548203D01*
X133054808Y-58568654D01*
X133167451Y-58588487D01*
X133191005Y-58592548D01*
X133298421Y-58611462D01*
X133397597Y-58629514D01*
X133478372Y-58644830D01*
X133530588Y-58655534D01*
X133561432Y-58661959D01*
X133636079Y-58675891D01*
X133728358Y-58691842D01*
X133825024Y-58707476D01*
X133884002Y-58716956D01*
X134040489Y-58746327D01*
X134166267Y-58777986D01*
X134267771Y-58814092D01*
X134351440Y-58856805D01*
X134423710Y-58908283D01*
X134432296Y-58915596D01*
X134471812Y-58950653D01*
X134534399Y-59007152D01*
X134615988Y-59081383D01*
X134712508Y-59169638D01*
X134819891Y-59268207D01*
X134934066Y-59373383D01*
X135049306Y-59479698D01*
X135229753Y-59645995D01*
X135384755Y-59788536D01*
X135516428Y-59909198D01*
X135626889Y-60009861D01*
X135676896Y-60055040D01*
X135718255Y-60092406D01*
G37*
G36*
X128666479Y-67675410D02*
G01*
X128705839Y-67782947D01*
X128735467Y-67864010D01*
X128755660Y-67919076D01*
X128793149Y-68020643D01*
X128837679Y-68140750D01*
X128885301Y-68268749D01*
X128932066Y-68393994D01*
X128970166Y-68496075D01*
X129018722Y-68627964D01*
X129055186Y-68731002D01*
X129080754Y-68809941D01*
X129096623Y-68869534D01*
X129103990Y-68914533D01*
X129104052Y-68949691D01*
X129098006Y-68979762D01*
X129087047Y-69009496D01*
X129063875Y-69052017D01*
X129019891Y-69093842D01*
X128955391Y-69120929D01*
X128864401Y-69135531D01*
X128740947Y-69139898D01*
X128614867Y-69133563D01*
X128512367Y-69111830D01*
X128433682Y-69072365D01*
X128372076Y-69012848D01*
X128369221Y-69008866D01*
X128347187Y-68966232D01*
X128318041Y-68896254D01*
X128285242Y-68807695D01*
X128252252Y-68709321D01*
X128221594Y-68612450D01*
X128193125Y-68529950D01*
X128164599Y-68469057D01*
X128130417Y-68426501D01*
X128084984Y-68399014D01*
X128022702Y-68383326D01*
X127937974Y-68376168D01*
X127825203Y-68374271D01*
X127678792Y-68374365D01*
X127289167Y-68374365D01*
X127232365Y-68428345D01*
X127223191Y-68437766D01*
X127194672Y-68477669D01*
X127165452Y-68537085D01*
X127132756Y-68622244D01*
X127093808Y-68739377D01*
X127065563Y-68824601D01*
X127022595Y-68935650D01*
X126980124Y-69016880D01*
X126934325Y-69073788D01*
X126881376Y-69111870D01*
X126817451Y-69136624D01*
X126794096Y-69142182D01*
X126713189Y-69152909D01*
X126617867Y-69157174D01*
X126521436Y-69155104D01*
X126437200Y-69146825D01*
X126378462Y-69132462D01*
X126349349Y-69117694D01*
X126288932Y-69069534D01*
X126245337Y-69011077D01*
X126228579Y-68954234D01*
X126231300Y-68922838D01*
X126241154Y-68874525D01*
X126259117Y-68809113D01*
X126286137Y-68723846D01*
X126323160Y-68615969D01*
X126371136Y-68482728D01*
X126431013Y-68321367D01*
X126503738Y-68129132D01*
X126590259Y-67903268D01*
X126594218Y-67892910D01*
X126618148Y-67829050D01*
X126653068Y-67734591D01*
X126677283Y-67668639D01*
X127442547Y-67668639D01*
X127459136Y-67709798D01*
X127495713Y-67734111D01*
X127505220Y-67736870D01*
X127555337Y-67743045D01*
X127626652Y-67745582D01*
X127707088Y-67744766D01*
X127784565Y-67740881D01*
X127847004Y-67734209D01*
X127882327Y-67725034D01*
X127883170Y-67724535D01*
X127905401Y-67701268D01*
X127914214Y-67662577D01*
X127909182Y-67603260D01*
X127889880Y-67518117D01*
X127855882Y-67401946D01*
X127823773Y-67301235D01*
X127781502Y-67179827D01*
X127745339Y-67092952D01*
X127713858Y-67038328D01*
X127685637Y-67013671D01*
X127659249Y-67016699D01*
X127633271Y-67045127D01*
X127622507Y-67064066D01*
X127593794Y-67127518D01*
X127560017Y-67214502D01*
X127524681Y-67315248D01*
X127491290Y-67419983D01*
X127463348Y-67518935D01*
X127444999Y-67604327D01*
X127442547Y-67668639D01*
X126677283Y-67668639D01*
X126697116Y-67614624D01*
X126748429Y-67474241D01*
X126805145Y-67318535D01*
X126865403Y-67152598D01*
X126927339Y-66981522D01*
X126993756Y-66798215D01*
X127051061Y-66641419D01*
X127098320Y-66514322D01*
X127137090Y-66413211D01*
X127168929Y-66334372D01*
X127195398Y-66274090D01*
X127218054Y-66228653D01*
X127238456Y-66194347D01*
X127258163Y-66167457D01*
X127278733Y-66144269D01*
X127302234Y-66120328D01*
X127349824Y-66081180D01*
X127400140Y-66060047D01*
X127471446Y-66047783D01*
X127483661Y-66046410D01*
X127568996Y-66041889D01*
X127668515Y-66043000D01*
X127771537Y-66048932D01*
X127867379Y-66058874D01*
X127945358Y-66072014D01*
X127994793Y-66087541D01*
X128034026Y-66111542D01*
X128069843Y-66143726D01*
X128103532Y-66188343D01*
X128137851Y-66250403D01*
X128175559Y-66334915D01*
X128219416Y-66446892D01*
X128272179Y-66591343D01*
X128307671Y-66690220D01*
X128365977Y-66851906D01*
X128427367Y-67021427D01*
X128486426Y-67183842D01*
X128537741Y-67324210D01*
X128573770Y-67422426D01*
X128621189Y-67551778D01*
X128661778Y-67662577D01*
X128666479Y-67675410D01*
G37*
%TD*%
M02*
