%TF.GenerationSoftware,KiCad,Pcbnew,9.0.6-9.0.6~ubuntu24.04.1*%
%TF.CreationDate,2025-11-27T19:55:15+01:00*%
%TF.ProjectId,intercons,696e7465-7263-46f6-9e73-2e6b69636164,rev?*%
%TF.SameCoordinates,Original*%
%TF.FileFunction,Copper,L2,Bot*%
%TF.FilePolarity,Positive*%
%FSLAX46Y46*%
G04 Gerber Fmt 4.6, Leading zero omitted, Abs format (unit mm)*
G04 Created by KiCad (PCBNEW 9.0.6-9.0.6~ubuntu24.04.1) date 2025-11-27 19:55:15*
%MOMM*%
%LPD*%
G01*
G04 APERTURE LIST*
G04 Aperture macros list*
%AMRoundRect*
0 Rectangle with rounded corners*
0 $1 Rounding radius*
0 $2 $3 $4 $5 $6 $7 $8 $9 X,Y pos of 4 corners*
0 Add a 4 corners polygon primitive as box body*
4,1,4,$2,$3,$4,$5,$6,$7,$8,$9,$2,$3,0*
0 Add four circle primitives for the rounded corners*
1,1,$1+$1,$2,$3*
1,1,$1+$1,$4,$5*
1,1,$1+$1,$6,$7*
1,1,$1+$1,$8,$9*
0 Add four rect primitives between the rounded corners*
20,1,$1+$1,$2,$3,$4,$5,0*
20,1,$1+$1,$4,$5,$6,$7,0*
20,1,$1+$1,$6,$7,$8,$9,0*
20,1,$1+$1,$8,$9,$2,$3,0*%
G04 Aperture macros list end*
%TA.AperFunction,ComponentPad*%
%ADD10C,1.905000*%
%TD*%
%TA.AperFunction,ComponentPad*%
%ADD11RoundRect,0.250001X-0.949999X0.949999X-0.949999X-0.949999X0.949999X-0.949999X0.949999X0.949999X0*%
%TD*%
%TA.AperFunction,ComponentPad*%
%ADD12C,2.400000*%
%TD*%
%TA.AperFunction,ComponentPad*%
%ADD13C,1.400000*%
%TD*%
%TA.AperFunction,ComponentPad*%
%ADD14RoundRect,0.250001X-1.149999X1.149999X-1.149999X-1.149999X1.149999X-1.149999X1.149999X1.149999X0*%
%TD*%
%TA.AperFunction,ComponentPad*%
%ADD15C,2.800000*%
%TD*%
%TA.AperFunction,ComponentPad*%
%ADD16RoundRect,0.250001X-0.949999X-0.949999X0.949999X-0.949999X0.949999X0.949999X-0.949999X0.949999X0*%
%TD*%
%TA.AperFunction,ComponentPad*%
%ADD17RoundRect,0.250001X1.149999X-1.149999X1.149999X1.149999X-1.149999X1.149999X-1.149999X-1.149999X0*%
%TD*%
%TA.AperFunction,ComponentPad*%
%ADD18R,1.800000X1.800000*%
%TD*%
%TA.AperFunction,ComponentPad*%
%ADD19C,1.800000*%
%TD*%
G04 APERTURE END LIST*
D10*
%TO.P,A2,4,Vout-*%
%TO.N,unconnected-(A2-Vout--Pad4)*%
X103378000Y-67106800D03*
%TO.P,A2,3,Vout+*%
%TO.N,unconnected-(A2-Vout+-Pad3)*%
X103378000Y-73106800D03*
%TO.P,A2,2,Vin+*%
%TO.N,Net-(A2-Vin+)*%
X159378000Y-73106800D03*
%TO.P,A2,1,Vin-*%
%TO.N,GND*%
X159378000Y-67106800D03*
%TD*%
%TO.P,A1,1,Vin+*%
%TO.N,Net-(A1-Vin+)*%
X156304400Y-111912400D03*
%TO.P,A1,2,Vin-*%
%TO.N,GND*%
X156304400Y-116912400D03*
%TO.P,A1,3,Bat-*%
X117304400Y-114412400D03*
%TO.P,A1,4,Bat+*%
%TO.N,Net-(A1-Bat+)*%
X117304400Y-109412400D03*
%TD*%
D11*
%TO.P,C1,1*%
%TO.N,Net-(A2-Vin+)*%
X120700800Y-85362400D03*
D12*
%TO.P,C1,2*%
%TO.N,GND*%
X120700800Y-92862400D03*
%TD*%
D13*
%TO.P,R1,1*%
%TO.N,Net-(D3-K)*%
X159816800Y-99314000D03*
%TO.P,R1,2*%
%TO.N,GND*%
X152196800Y-99314000D03*
%TD*%
D14*
%TO.P,J3,1,Pin_1*%
%TO.N,Net-(A1-Bat+)*%
X171279300Y-86853200D03*
D15*
%TO.P,J3,2,Pin_2*%
%TO.N,GND*%
X171279300Y-91853200D03*
%TD*%
D10*
%TO.P,SW1,1,A*%
%TO.N,Net-(D2-A)*%
X159715200Y-87590000D03*
%TO.P,SW1,2,B*%
%TO.N,Net-(J1-Pin_1)*%
X159715200Y-82590000D03*
%TD*%
D16*
%TO.P,D1,1,K*%
%TO.N,Net-(A1-Vin+)*%
X133959600Y-85090000D03*
D12*
%TO.P,D1,2,A*%
%TO.N,Net-(D1-A)*%
X149199600Y-85090000D03*
%TD*%
D14*
%TO.P,J2,1,Pin_1*%
%TO.N,Net-(D1-A)*%
X171533300Y-68666800D03*
D15*
%TO.P,J2,2,Pin_2*%
%TO.N,GND*%
X171533300Y-73666800D03*
%TD*%
D17*
%TO.P,J6,1,Pin_1*%
%TO.N,GND*%
X103447100Y-91404000D03*
D15*
%TO.P,J6,2,Pin_2*%
%TO.N,Net-(D2-A)*%
X103447100Y-86404000D03*
%TD*%
D14*
%TO.P,J4,1,Pin_1*%
%TO.N,Net-(D1-A)*%
X171450000Y-102463600D03*
D15*
%TO.P,J4,2,Pin_2*%
%TO.N,GND*%
X171450000Y-107463600D03*
%TD*%
D14*
%TO.P,J5,1,Pin_1*%
%TO.N,Net-(A1-Bat+)*%
X171348400Y-117195600D03*
D15*
%TO.P,J5,2,Pin_2*%
%TO.N,GND*%
X171348400Y-122195600D03*
%TD*%
D17*
%TO.P,J7,1,Pin_1*%
%TO.N,GND*%
X103447100Y-106694800D03*
D15*
%TO.P,J7,2,Pin_2*%
%TO.N,Net-(D2-A)*%
X103447100Y-101694800D03*
%TD*%
D16*
%TO.P,D2,1,K*%
%TO.N,Net-(A2-Vin+)*%
X134061200Y-94335600D03*
D12*
%TO.P,D2,2,A*%
%TO.N,Net-(D2-A)*%
X149301200Y-94335600D03*
%TD*%
D14*
%TO.P,J1,1,Pin_1*%
%TO.N,Net-(J1-Pin_1)*%
X171787300Y-52563200D03*
D15*
%TO.P,J1,2,Pin_2*%
%TO.N,GND*%
X171787300Y-57563200D03*
%TD*%
D17*
%TO.P,J8,1,Pin_1*%
%TO.N,GND*%
X103327200Y-122043200D03*
D15*
%TO.P,J8,2,Pin_2*%
%TO.N,Net-(D2-A)*%
X103327200Y-117043200D03*
%TD*%
D18*
%TO.P,D3,1,K*%
%TO.N,Net-(D3-K)*%
X159766000Y-94792800D03*
D19*
%TO.P,D3,2,A*%
%TO.N,Net-(D2-A)*%
X159766000Y-92252800D03*
%TD*%
%TA.AperFunction,Conductor*%
%TO.N,GND*%
G36*
X175820139Y-46748185D02*
G01*
X175865894Y-46800989D01*
X175877100Y-46852500D01*
X175877100Y-130185500D01*
X175857415Y-130252539D01*
X175804611Y-130298294D01*
X175753100Y-130309500D01*
X99176500Y-130309500D01*
X99109461Y-130289815D01*
X99063706Y-130237011D01*
X99052500Y-130185500D01*
X99052500Y-116918641D01*
X101426700Y-116918641D01*
X101426700Y-117167758D01*
X101426701Y-117167775D01*
X101459217Y-117414761D01*
X101523698Y-117655407D01*
X101619030Y-117885561D01*
X101619037Y-117885576D01*
X101743600Y-118101326D01*
X101895260Y-118298974D01*
X101895266Y-118298981D01*
X102071418Y-118475133D01*
X102071425Y-118475139D01*
X102269073Y-118626799D01*
X102484823Y-118751362D01*
X102484838Y-118751369D01*
X102584025Y-118792453D01*
X102714993Y-118846702D01*
X102955635Y-118911182D01*
X103202635Y-118943700D01*
X103202642Y-118943700D01*
X103451758Y-118943700D01*
X103451765Y-118943700D01*
X103698765Y-118911182D01*
X103939407Y-118846702D01*
X104169573Y-118751364D01*
X104385327Y-118626799D01*
X104582976Y-118475138D01*
X104759138Y-118298976D01*
X104910799Y-118101327D01*
X105035364Y-117885573D01*
X105130702Y-117655407D01*
X105195182Y-117414765D01*
X105227700Y-117167765D01*
X105227700Y-116918635D01*
X105195182Y-116671635D01*
X105130702Y-116430993D01*
X105035364Y-116200827D01*
X104916872Y-115995592D01*
X104916867Y-115995584D01*
X169447900Y-115995584D01*
X169447900Y-118395615D01*
X169458400Y-118498395D01*
X169458401Y-118498396D01*
X169513586Y-118664935D01*
X169513587Y-118664937D01*
X169605686Y-118814251D01*
X169605689Y-118814255D01*
X169729744Y-118938310D01*
X169729748Y-118938313D01*
X169879062Y-119030412D01*
X169879064Y-119030413D01*
X169879066Y-119030414D01*
X170045603Y-119085599D01*
X170148392Y-119096100D01*
X170148397Y-119096100D01*
X172548403Y-119096100D01*
X172548408Y-119096100D01*
X172651197Y-119085599D01*
X172817734Y-119030414D01*
X172967055Y-118938311D01*
X173091111Y-118814255D01*
X173183214Y-118664934D01*
X173238399Y-118498397D01*
X173248900Y-118395608D01*
X173248900Y-115995592D01*
X173238399Y-115892803D01*
X173183214Y-115726266D01*
X173091111Y-115576945D01*
X172967055Y-115452889D01*
X172967051Y-115452886D01*
X172817737Y-115360787D01*
X172817735Y-115360786D01*
X172734465Y-115333193D01*
X172651197Y-115305601D01*
X172651195Y-115305600D01*
X172548415Y-115295100D01*
X172548408Y-115295100D01*
X170148392Y-115295100D01*
X170148384Y-115295100D01*
X170045604Y-115305600D01*
X170045603Y-115305601D01*
X169879064Y-115360786D01*
X169879062Y-115360787D01*
X169729748Y-115452886D01*
X169729744Y-115452889D01*
X169605689Y-115576944D01*
X169605686Y-115576948D01*
X169513587Y-115726262D01*
X169513586Y-115726264D01*
X169458401Y-115892803D01*
X169458400Y-115892804D01*
X169447900Y-115995584D01*
X104916867Y-115995584D01*
X104910798Y-115985071D01*
X104759139Y-115787425D01*
X104759133Y-115787418D01*
X104582981Y-115611266D01*
X104582974Y-115611260D01*
X104385326Y-115459600D01*
X104169576Y-115335037D01*
X104169561Y-115335030D01*
X103939407Y-115239698D01*
X103698761Y-115175217D01*
X103451775Y-115142701D01*
X103451770Y-115142700D01*
X103451765Y-115142700D01*
X103202635Y-115142700D01*
X103202629Y-115142700D01*
X103202624Y-115142701D01*
X102955638Y-115175217D01*
X102714992Y-115239698D01*
X102484838Y-115335030D01*
X102484823Y-115335037D01*
X102269073Y-115459600D01*
X102071425Y-115611260D01*
X102071418Y-115611266D01*
X101895266Y-115787418D01*
X101895260Y-115787425D01*
X101743600Y-115985073D01*
X101619037Y-116200823D01*
X101619030Y-116200838D01*
X101523698Y-116430992D01*
X101459217Y-116671638D01*
X101426701Y-116918624D01*
X101426700Y-116918641D01*
X99052500Y-116918641D01*
X99052500Y-111798046D01*
X154851400Y-111798046D01*
X154851400Y-112026753D01*
X154887178Y-112252646D01*
X154887178Y-112252649D01*
X154957850Y-112470155D01*
X154957852Y-112470158D01*
X155061683Y-112673938D01*
X155196114Y-112858966D01*
X155357834Y-113020686D01*
X155542862Y-113155117D01*
X155746642Y-113258948D01*
X155746644Y-113258949D01*
X155964151Y-113329621D01*
X155964152Y-113329621D01*
X155964155Y-113329622D01*
X156190046Y-113365400D01*
X156190047Y-113365400D01*
X156418753Y-113365400D01*
X156418754Y-113365400D01*
X156644645Y-113329622D01*
X156644648Y-113329621D01*
X156644649Y-113329621D01*
X156862155Y-113258949D01*
X156862155Y-113258948D01*
X156862158Y-113258948D01*
X157065938Y-113155117D01*
X157250966Y-113020686D01*
X157412686Y-112858966D01*
X157547117Y-112673938D01*
X157650948Y-112470158D01*
X157721622Y-112252645D01*
X157757400Y-112026754D01*
X157757400Y-111798046D01*
X157721622Y-111572155D01*
X157721621Y-111572151D01*
X157721621Y-111572150D01*
X157650949Y-111354644D01*
X157547116Y-111150861D01*
X157412686Y-110965834D01*
X157250966Y-110804114D01*
X157065938Y-110669683D01*
X157037349Y-110655116D01*
X156862155Y-110565850D01*
X156644648Y-110495178D01*
X156475226Y-110468344D01*
X156418754Y-110459400D01*
X156190046Y-110459400D01*
X156114749Y-110471326D01*
X155964153Y-110495178D01*
X155964150Y-110495178D01*
X155746644Y-110565850D01*
X155542861Y-110669683D01*
X155437296Y-110746380D01*
X155357834Y-110804114D01*
X155357832Y-110804116D01*
X155357831Y-110804116D01*
X155196116Y-110965831D01*
X155196116Y-110965832D01*
X155196114Y-110965834D01*
X155138380Y-111045296D01*
X155061683Y-111150861D01*
X154957850Y-111354644D01*
X154887178Y-111572150D01*
X154887178Y-111572153D01*
X154851400Y-111798046D01*
X99052500Y-111798046D01*
X99052500Y-109298046D01*
X115851400Y-109298046D01*
X115851400Y-109526753D01*
X115887178Y-109752646D01*
X115887178Y-109752649D01*
X115957850Y-109970155D01*
X115957852Y-109970158D01*
X116061683Y-110173938D01*
X116196114Y-110358966D01*
X116357834Y-110520686D01*
X116542862Y-110655117D01*
X116746642Y-110758948D01*
X116746644Y-110758949D01*
X116964151Y-110829621D01*
X116964152Y-110829621D01*
X116964155Y-110829622D01*
X117190046Y-110865400D01*
X117190047Y-110865400D01*
X117418753Y-110865400D01*
X117418754Y-110865400D01*
X117644645Y-110829622D01*
X117644648Y-110829621D01*
X117644649Y-110829621D01*
X117862155Y-110758949D01*
X117862155Y-110758948D01*
X117862158Y-110758948D01*
X118065938Y-110655117D01*
X118250966Y-110520686D01*
X118412686Y-110358966D01*
X118547117Y-110173938D01*
X118650948Y-109970158D01*
X118721622Y-109752645D01*
X118757400Y-109526754D01*
X118757400Y-109298046D01*
X118721622Y-109072155D01*
X118721621Y-109072151D01*
X118721621Y-109072150D01*
X118650949Y-108854644D01*
X118547116Y-108650861D01*
X118412686Y-108465834D01*
X118250966Y-108304114D01*
X118065938Y-108169683D01*
X117862155Y-108065850D01*
X117644648Y-107995178D01*
X117475226Y-107968344D01*
X117418754Y-107959400D01*
X117190046Y-107959400D01*
X117114749Y-107971326D01*
X116964153Y-107995178D01*
X116964150Y-107995178D01*
X116746644Y-108065850D01*
X116542861Y-108169683D01*
X116437296Y-108246380D01*
X116357834Y-108304114D01*
X116357832Y-108304116D01*
X116357831Y-108304116D01*
X116196116Y-108465831D01*
X116196116Y-108465832D01*
X116196114Y-108465834D01*
X116138380Y-108545296D01*
X116061683Y-108650861D01*
X115957850Y-108854644D01*
X115887178Y-109072150D01*
X115887178Y-109072153D01*
X115851400Y-109298046D01*
X99052500Y-109298046D01*
X99052500Y-101570241D01*
X101546600Y-101570241D01*
X101546600Y-101819358D01*
X101546601Y-101819375D01*
X101579117Y-102066361D01*
X101643598Y-102307007D01*
X101738930Y-102537161D01*
X101738937Y-102537176D01*
X101863500Y-102752926D01*
X102015160Y-102950574D01*
X102015166Y-102950581D01*
X102191318Y-103126733D01*
X102191325Y-103126739D01*
X102388973Y-103278399D01*
X102604723Y-103402962D01*
X102604738Y-103402969D01*
X102703925Y-103444053D01*
X102834893Y-103498302D01*
X103075535Y-103562782D01*
X103322535Y-103595300D01*
X103322542Y-103595300D01*
X103571658Y-103595300D01*
X103571665Y-103595300D01*
X103818665Y-103562782D01*
X104059307Y-103498302D01*
X104289473Y-103402964D01*
X104505227Y-103278399D01*
X104702876Y-103126738D01*
X104879038Y-102950576D01*
X105030699Y-102752927D01*
X105155264Y-102537173D01*
X105250602Y-102307007D01*
X105315082Y-102066365D01*
X105347600Y-101819365D01*
X105347600Y-101570235D01*
X105315082Y-101323235D01*
X105299099Y-101263584D01*
X169549500Y-101263584D01*
X169549500Y-103663615D01*
X169560000Y-103766395D01*
X169560001Y-103766396D01*
X169615186Y-103932935D01*
X169615187Y-103932937D01*
X169707286Y-104082251D01*
X169707289Y-104082255D01*
X169831344Y-104206310D01*
X169831348Y-104206313D01*
X169980662Y-104298412D01*
X169980664Y-104298413D01*
X169980666Y-104298414D01*
X170147203Y-104353599D01*
X170249992Y-104364100D01*
X170249997Y-104364100D01*
X172650003Y-104364100D01*
X172650008Y-104364100D01*
X172752797Y-104353599D01*
X172919334Y-104298414D01*
X173068655Y-104206311D01*
X173192711Y-104082255D01*
X173284814Y-103932934D01*
X173339999Y-103766397D01*
X173350500Y-103663608D01*
X173350500Y-101263592D01*
X173339999Y-101160803D01*
X173284814Y-100994266D01*
X173192711Y-100844945D01*
X173068655Y-100720889D01*
X173068651Y-100720886D01*
X172919337Y-100628787D01*
X172919335Y-100628786D01*
X172836065Y-100601193D01*
X172752797Y-100573601D01*
X172752795Y-100573600D01*
X172650015Y-100563100D01*
X172650008Y-100563100D01*
X170249992Y-100563100D01*
X170249984Y-100563100D01*
X170147204Y-100573600D01*
X170147203Y-100573601D01*
X169980664Y-100628786D01*
X169980662Y-100628787D01*
X169831348Y-100720886D01*
X169831344Y-100720889D01*
X169707289Y-100844944D01*
X169707286Y-100844948D01*
X169615187Y-100994262D01*
X169615186Y-100994264D01*
X169560001Y-101160803D01*
X169560000Y-101160804D01*
X169549500Y-101263584D01*
X105299099Y-101263584D01*
X105250602Y-101082593D01*
X105155264Y-100852427D01*
X105150944Y-100844945D01*
X105030699Y-100636673D01*
X104879039Y-100439025D01*
X104879033Y-100439018D01*
X104702881Y-100262866D01*
X104702874Y-100262860D01*
X104505226Y-100111200D01*
X104289476Y-99986637D01*
X104289461Y-99986630D01*
X104059307Y-99891298D01*
X103818661Y-99826817D01*
X103571675Y-99794301D01*
X103571670Y-99794300D01*
X103571665Y-99794300D01*
X103322535Y-99794300D01*
X103322529Y-99794300D01*
X103322524Y-99794301D01*
X103075538Y-99826817D01*
X102834892Y-99891298D01*
X102604738Y-99986630D01*
X102604723Y-99986637D01*
X102388973Y-100111200D01*
X102191325Y-100262860D01*
X102191318Y-100262866D01*
X102015166Y-100439018D01*
X102015160Y-100439025D01*
X101863500Y-100636673D01*
X101738937Y-100852423D01*
X101738930Y-100852438D01*
X101643598Y-101082592D01*
X101579117Y-101323238D01*
X101546601Y-101570224D01*
X101546600Y-101570241D01*
X99052500Y-101570241D01*
X99052500Y-99219513D01*
X158616300Y-99219513D01*
X158616300Y-99408486D01*
X158645859Y-99595118D01*
X158704254Y-99774836D01*
X158763595Y-99891298D01*
X158790040Y-99943199D01*
X158901110Y-100096073D01*
X159034727Y-100229690D01*
X159187601Y-100340760D01*
X159267147Y-100381290D01*
X159355963Y-100426545D01*
X159355965Y-100426545D01*
X159355968Y-100426547D01*
X159452297Y-100457846D01*
X159535681Y-100484940D01*
X159722314Y-100514500D01*
X159722319Y-100514500D01*
X159911286Y-100514500D01*
X160097918Y-100484940D01*
X160277632Y-100426547D01*
X160445999Y-100340760D01*
X160598873Y-100229690D01*
X160732490Y-100096073D01*
X160843560Y-99943199D01*
X160929347Y-99774832D01*
X160987740Y-99595118D01*
X161017300Y-99408486D01*
X161017300Y-99219513D01*
X160987740Y-99032881D01*
X160929345Y-98853163D01*
X160843559Y-98684800D01*
X160732490Y-98531927D01*
X160598873Y-98398310D01*
X160445999Y-98287240D01*
X160277636Y-98201454D01*
X160097918Y-98143059D01*
X159911286Y-98113500D01*
X159911281Y-98113500D01*
X159722319Y-98113500D01*
X159722314Y-98113500D01*
X159535681Y-98143059D01*
X159355963Y-98201454D01*
X159187600Y-98287240D01*
X159100379Y-98350610D01*
X159034727Y-98398310D01*
X159034725Y-98398312D01*
X159034724Y-98398312D01*
X158901112Y-98531924D01*
X158901112Y-98531925D01*
X158901110Y-98531927D01*
X158853410Y-98597579D01*
X158790040Y-98684800D01*
X158704254Y-98853163D01*
X158645859Y-99032881D01*
X158616300Y-99219513D01*
X99052500Y-99219513D01*
X99052500Y-93335584D01*
X132360700Y-93335584D01*
X132360700Y-95335615D01*
X132371200Y-95438395D01*
X132371201Y-95438397D01*
X132378104Y-95459229D01*
X132426386Y-95604935D01*
X132426387Y-95604937D01*
X132518486Y-95754251D01*
X132518489Y-95754255D01*
X132642544Y-95878310D01*
X132642548Y-95878313D01*
X132791862Y-95970412D01*
X132791864Y-95970413D01*
X132791866Y-95970414D01*
X132958403Y-96025599D01*
X133061192Y-96036100D01*
X133061197Y-96036100D01*
X135061203Y-96036100D01*
X135061208Y-96036100D01*
X135163997Y-96025599D01*
X135330534Y-95970414D01*
X135479855Y-95878311D01*
X135603911Y-95754255D01*
X135696014Y-95604934D01*
X135751199Y-95438397D01*
X135761700Y-95335608D01*
X135761700Y-94224149D01*
X147600700Y-94224149D01*
X147600700Y-94447050D01*
X147600701Y-94447066D01*
X147629794Y-94668052D01*
X147629795Y-94668057D01*
X147629796Y-94668063D01*
X147629797Y-94668065D01*
X147687490Y-94883380D01*
X147687493Y-94883390D01*
X147772793Y-95089322D01*
X147772795Y-95089326D01*
X147884252Y-95282374D01*
X147884257Y-95282380D01*
X147884258Y-95282382D01*
X148019951Y-95459222D01*
X148019957Y-95459229D01*
X148177570Y-95616842D01*
X148177576Y-95616847D01*
X148354426Y-95752548D01*
X148547474Y-95864005D01*
X148582012Y-95878311D01*
X148719180Y-95935128D01*
X148753419Y-95949310D01*
X148968737Y-96007004D01*
X149189743Y-96036100D01*
X149189750Y-96036100D01*
X149412650Y-96036100D01*
X149412657Y-96036100D01*
X149633663Y-96007004D01*
X149848981Y-95949310D01*
X150054926Y-95864005D01*
X150247974Y-95752548D01*
X150424824Y-95616847D01*
X150582447Y-95459224D01*
X150718148Y-95282374D01*
X150829605Y-95089326D01*
X150914910Y-94883381D01*
X150972604Y-94668063D01*
X151001700Y-94447057D01*
X151001700Y-94224143D01*
X150972604Y-94003137D01*
X150914910Y-93787819D01*
X150829605Y-93581874D01*
X150718148Y-93388826D01*
X150632079Y-93276658D01*
X150582448Y-93211977D01*
X150582442Y-93211970D01*
X150424829Y-93054357D01*
X150424822Y-93054351D01*
X150247982Y-92918658D01*
X150247980Y-92918657D01*
X150247974Y-92918652D01*
X150054926Y-92807195D01*
X150054922Y-92807193D01*
X149848990Y-92721893D01*
X149848983Y-92721891D01*
X149848981Y-92721890D01*
X149633663Y-92664196D01*
X149633657Y-92664195D01*
X149633652Y-92664194D01*
X149412666Y-92635101D01*
X149412663Y-92635100D01*
X149412657Y-92635100D01*
X149189743Y-92635100D01*
X149189737Y-92635100D01*
X149189733Y-92635101D01*
X148968747Y-92664194D01*
X148968740Y-92664195D01*
X148968737Y-92664196D01*
X148832181Y-92700786D01*
X148753419Y-92721890D01*
X148753409Y-92721893D01*
X148547477Y-92807193D01*
X148547473Y-92807195D01*
X148354426Y-92918652D01*
X148354417Y-92918658D01*
X148177577Y-93054351D01*
X148177570Y-93054357D01*
X148019957Y-93211970D01*
X148019951Y-93211977D01*
X147884258Y-93388817D01*
X147884252Y-93388826D01*
X147772795Y-93581873D01*
X147772793Y-93581877D01*
X147687493Y-93787809D01*
X147687490Y-93787819D01*
X147672188Y-93844929D01*
X147629797Y-94003134D01*
X147629794Y-94003147D01*
X147600701Y-94224133D01*
X147600700Y-94224149D01*
X135761700Y-94224149D01*
X135761700Y-93335592D01*
X135751199Y-93232803D01*
X135696014Y-93066266D01*
X135688668Y-93054357D01*
X135603913Y-92916948D01*
X135603910Y-92916944D01*
X135479855Y-92792889D01*
X135479851Y-92792886D01*
X135330537Y-92700787D01*
X135330535Y-92700786D01*
X135220107Y-92664194D01*
X135163997Y-92645601D01*
X135163995Y-92645600D01*
X135061215Y-92635100D01*
X135061208Y-92635100D01*
X133061192Y-92635100D01*
X133061184Y-92635100D01*
X132958404Y-92645600D01*
X132958403Y-92645601D01*
X132791864Y-92700786D01*
X132791862Y-92700787D01*
X132642548Y-92792886D01*
X132642544Y-92792889D01*
X132518489Y-92916944D01*
X132518486Y-92916948D01*
X132426387Y-93066262D01*
X132426386Y-93066264D01*
X132371201Y-93232803D01*
X132371200Y-93232804D01*
X132360700Y-93335584D01*
X99052500Y-93335584D01*
X99052500Y-92142578D01*
X158365500Y-92142578D01*
X158365500Y-92363021D01*
X158399985Y-92580752D01*
X158468103Y-92790403D01*
X158468104Y-92790406D01*
X158568187Y-92986825D01*
X158697752Y-93165158D01*
X158697756Y-93165163D01*
X158747928Y-93215335D01*
X158781413Y-93276658D01*
X158776429Y-93346350D01*
X158734557Y-93402283D01*
X158703581Y-93419198D01*
X158623669Y-93449003D01*
X158623664Y-93449006D01*
X158508455Y-93535252D01*
X158508452Y-93535255D01*
X158422206Y-93650464D01*
X158422202Y-93650471D01*
X158371908Y-93785317D01*
X158365501Y-93844916D01*
X158365501Y-93844923D01*
X158365500Y-93844935D01*
X158365500Y-95740670D01*
X158365501Y-95740676D01*
X158371908Y-95800283D01*
X158422202Y-95935128D01*
X158422206Y-95935135D01*
X158508452Y-96050344D01*
X158508455Y-96050347D01*
X158623664Y-96136593D01*
X158623671Y-96136597D01*
X158758517Y-96186891D01*
X158758516Y-96186891D01*
X158765444Y-96187635D01*
X158818127Y-96193300D01*
X160713872Y-96193299D01*
X160773483Y-96186891D01*
X160908331Y-96136596D01*
X161023546Y-96050346D01*
X161109796Y-95935131D01*
X161160091Y-95800283D01*
X161166500Y-95740673D01*
X161166499Y-93844928D01*
X161160091Y-93785317D01*
X161109796Y-93650469D01*
X161109795Y-93650468D01*
X161109793Y-93650464D01*
X161023547Y-93535255D01*
X161023544Y-93535252D01*
X160908335Y-93449006D01*
X160908328Y-93449002D01*
X160828419Y-93419198D01*
X160772485Y-93377327D01*
X160748068Y-93311862D01*
X160762920Y-93243589D01*
X160784069Y-93215337D01*
X160834242Y-93165165D01*
X160963815Y-92986822D01*
X161063895Y-92790406D01*
X161132015Y-92580751D01*
X161166500Y-92363022D01*
X161166500Y-92142578D01*
X161132015Y-91924849D01*
X161063895Y-91715194D01*
X161063895Y-91715193D01*
X161029237Y-91647175D01*
X160963815Y-91518778D01*
X160947260Y-91495992D01*
X160834247Y-91340441D01*
X160834243Y-91340436D01*
X160678363Y-91184556D01*
X160678358Y-91184552D01*
X160500025Y-91054987D01*
X160500024Y-91054986D01*
X160500022Y-91054985D01*
X160437096Y-91022922D01*
X160303606Y-90954904D01*
X160303603Y-90954903D01*
X160093952Y-90886785D01*
X159985086Y-90869542D01*
X159876222Y-90852300D01*
X159655778Y-90852300D01*
X159583201Y-90863795D01*
X159438047Y-90886785D01*
X159228396Y-90954903D01*
X159228393Y-90954904D01*
X159031974Y-91054987D01*
X158853641Y-91184552D01*
X158853636Y-91184556D01*
X158697756Y-91340436D01*
X158697752Y-91340441D01*
X158568187Y-91518774D01*
X158468104Y-91715193D01*
X158468103Y-91715196D01*
X158399985Y-91924847D01*
X158365500Y-92142578D01*
X99052500Y-92142578D01*
X99052500Y-86279441D01*
X101546600Y-86279441D01*
X101546600Y-86528558D01*
X101546601Y-86528575D01*
X101577253Y-86761405D01*
X101579118Y-86775565D01*
X101593292Y-86828462D01*
X101643598Y-87016207D01*
X101738930Y-87246361D01*
X101738937Y-87246376D01*
X101863500Y-87462126D01*
X102015160Y-87659774D01*
X102015166Y-87659781D01*
X102191318Y-87835933D01*
X102191325Y-87835939D01*
X102388973Y-87987599D01*
X102604723Y-88112162D01*
X102604738Y-88112169D01*
X102690651Y-88147755D01*
X102834893Y-88207502D01*
X103075535Y-88271982D01*
X103322535Y-88304500D01*
X103322542Y-88304500D01*
X103571658Y-88304500D01*
X103571665Y-88304500D01*
X103818665Y-88271982D01*
X104059307Y-88207502D01*
X104289473Y-88112164D01*
X104505227Y-87987599D01*
X104702876Y-87835938D01*
X104879038Y-87659776D01*
X105020326Y-87475646D01*
X158262200Y-87475646D01*
X158262200Y-87704353D01*
X158297978Y-87930246D01*
X158297978Y-87930249D01*
X158368650Y-88147755D01*
X158399093Y-88207502D01*
X158472483Y-88351538D01*
X158606914Y-88536566D01*
X158768634Y-88698286D01*
X158953662Y-88832717D01*
X159157442Y-88936548D01*
X159157444Y-88936549D01*
X159374951Y-89007221D01*
X159374952Y-89007221D01*
X159374955Y-89007222D01*
X159600846Y-89043000D01*
X159600847Y-89043000D01*
X159829553Y-89043000D01*
X159829554Y-89043000D01*
X160055445Y-89007222D01*
X160055448Y-89007221D01*
X160055449Y-89007221D01*
X160272955Y-88936549D01*
X160272955Y-88936548D01*
X160272958Y-88936548D01*
X160476738Y-88832717D01*
X160661766Y-88698286D01*
X160823486Y-88536566D01*
X160957917Y-88351538D01*
X161061748Y-88147758D01*
X161132422Y-87930245D01*
X161168200Y-87704354D01*
X161168200Y-87475646D01*
X161132422Y-87249755D01*
X161132421Y-87249751D01*
X161132421Y-87249750D01*
X161061749Y-87032244D01*
X161043899Y-86997212D01*
X160957917Y-86828462D01*
X160823486Y-86643434D01*
X160661766Y-86481714D01*
X160476738Y-86347283D01*
X160272955Y-86243450D01*
X160055448Y-86172778D01*
X159886026Y-86145944D01*
X159829554Y-86137000D01*
X159600846Y-86137000D01*
X159525549Y-86148926D01*
X159374953Y-86172778D01*
X159374950Y-86172778D01*
X159157444Y-86243450D01*
X158953661Y-86347283D01*
X158848096Y-86423980D01*
X158768634Y-86481714D01*
X158768632Y-86481716D01*
X158768631Y-86481716D01*
X158606916Y-86643431D01*
X158606916Y-86643432D01*
X158606914Y-86643434D01*
X158563124Y-86703706D01*
X158472483Y-86828461D01*
X158368650Y-87032244D01*
X158297978Y-87249750D01*
X158297978Y-87249753D01*
X158262200Y-87475646D01*
X105020326Y-87475646D01*
X105030699Y-87462127D01*
X105043735Y-87439547D01*
X105061503Y-87408774D01*
X105061504Y-87408772D01*
X105153311Y-87249755D01*
X105155264Y-87246373D01*
X105250602Y-87016207D01*
X105315082Y-86775565D01*
X105347600Y-86528565D01*
X105347600Y-86279435D01*
X105315082Y-86032435D01*
X105250602Y-85791793D01*
X105155264Y-85561627D01*
X105148784Y-85550404D01*
X105030699Y-85345873D01*
X104879039Y-85148225D01*
X104879033Y-85148218D01*
X104702881Y-84972066D01*
X104702874Y-84972060D01*
X104505226Y-84820400D01*
X104289476Y-84695837D01*
X104289461Y-84695830D01*
X104059307Y-84600498D01*
X103818661Y-84536017D01*
X103571675Y-84503501D01*
X103571670Y-84503500D01*
X103571665Y-84503500D01*
X103322535Y-84503500D01*
X103322529Y-84503500D01*
X103322524Y-84503501D01*
X103075538Y-84536017D01*
X102834892Y-84600498D01*
X102604738Y-84695830D01*
X102604723Y-84695837D01*
X102388973Y-84820400D01*
X102191325Y-84972060D01*
X102191318Y-84972066D01*
X102015166Y-85148218D01*
X102015160Y-85148225D01*
X101863500Y-85345873D01*
X101738937Y-85561623D01*
X101738930Y-85561638D01*
X101643598Y-85791792D01*
X101579117Y-86032438D01*
X101546601Y-86279424D01*
X101546600Y-86279441D01*
X99052500Y-86279441D01*
X99052500Y-84362384D01*
X119000300Y-84362384D01*
X119000300Y-86362415D01*
X119010800Y-86465195D01*
X119010801Y-86465197D01*
X119038393Y-86548465D01*
X119065986Y-86631735D01*
X119065987Y-86631737D01*
X119158086Y-86781051D01*
X119158089Y-86781055D01*
X119282144Y-86905110D01*
X119282148Y-86905113D01*
X119431462Y-86997212D01*
X119431464Y-86997213D01*
X119431466Y-86997214D01*
X119598003Y-87052399D01*
X119700792Y-87062900D01*
X119700797Y-87062900D01*
X121700803Y-87062900D01*
X121700808Y-87062900D01*
X121803597Y-87052399D01*
X121970134Y-86997214D01*
X122119455Y-86905111D01*
X122243511Y-86781055D01*
X122335614Y-86631734D01*
X122390799Y-86465197D01*
X122401300Y-86362408D01*
X122401300Y-84362392D01*
X122390799Y-84259603D01*
X122335614Y-84093066D01*
X122333713Y-84089984D01*
X132259100Y-84089984D01*
X132259100Y-86090015D01*
X132269600Y-86192795D01*
X132269601Y-86192797D01*
X132297193Y-86276065D01*
X132324786Y-86359335D01*
X132324787Y-86359337D01*
X132416886Y-86508651D01*
X132416889Y-86508655D01*
X132540944Y-86632710D01*
X132540948Y-86632713D01*
X132690262Y-86724812D01*
X132690264Y-86724813D01*
X132690266Y-86724814D01*
X132856803Y-86779999D01*
X132959592Y-86790500D01*
X132959597Y-86790500D01*
X134959603Y-86790500D01*
X134959608Y-86790500D01*
X135062397Y-86779999D01*
X135228934Y-86724814D01*
X135378255Y-86632711D01*
X135502311Y-86508655D01*
X135594414Y-86359334D01*
X135649599Y-86192797D01*
X135660100Y-86090008D01*
X135660100Y-84978549D01*
X147499100Y-84978549D01*
X147499100Y-85201450D01*
X147499101Y-85201466D01*
X147528194Y-85422452D01*
X147528195Y-85422457D01*
X147528196Y-85422463D01*
X147562478Y-85550404D01*
X147585890Y-85637780D01*
X147585893Y-85637790D01*
X147671193Y-85843722D01*
X147671195Y-85843726D01*
X147782652Y-86036774D01*
X147782657Y-86036780D01*
X147782658Y-86036782D01*
X147918351Y-86213622D01*
X147918357Y-86213629D01*
X148075970Y-86371242D01*
X148075976Y-86371247D01*
X148252826Y-86506948D01*
X148445874Y-86618405D01*
X148651819Y-86703710D01*
X148867137Y-86761404D01*
X149088143Y-86790500D01*
X149088150Y-86790500D01*
X149311050Y-86790500D01*
X149311057Y-86790500D01*
X149532063Y-86761404D01*
X149747381Y-86703710D01*
X149953326Y-86618405D01*
X150146374Y-86506948D01*
X150323224Y-86371247D01*
X150480847Y-86213624D01*
X150616548Y-86036774D01*
X150728005Y-85843726D01*
X150806930Y-85653184D01*
X169378800Y-85653184D01*
X169378800Y-88053215D01*
X169389300Y-88155995D01*
X169389301Y-88155996D01*
X169444486Y-88322535D01*
X169444487Y-88322537D01*
X169536586Y-88471851D01*
X169536589Y-88471855D01*
X169660644Y-88595910D01*
X169660648Y-88595913D01*
X169809962Y-88688012D01*
X169809964Y-88688013D01*
X169809966Y-88688014D01*
X169976503Y-88743199D01*
X170079292Y-88753700D01*
X170079297Y-88753700D01*
X172479303Y-88753700D01*
X172479308Y-88753700D01*
X172582097Y-88743199D01*
X172748634Y-88688014D01*
X172897955Y-88595911D01*
X173022011Y-88471855D01*
X173114114Y-88322534D01*
X173169299Y-88155997D01*
X173179800Y-88053208D01*
X173179800Y-85653192D01*
X173169299Y-85550403D01*
X173114114Y-85383866D01*
X173090679Y-85345873D01*
X173022013Y-85234548D01*
X173022010Y-85234544D01*
X172897955Y-85110489D01*
X172897951Y-85110486D01*
X172748637Y-85018387D01*
X172748635Y-85018386D01*
X172628396Y-84978543D01*
X172582097Y-84963201D01*
X172582095Y-84963200D01*
X172479315Y-84952700D01*
X172479308Y-84952700D01*
X170079292Y-84952700D01*
X170079284Y-84952700D01*
X169976504Y-84963200D01*
X169976503Y-84963201D01*
X169809964Y-85018386D01*
X169809962Y-85018387D01*
X169660648Y-85110486D01*
X169660644Y-85110489D01*
X169536589Y-85234544D01*
X169536586Y-85234548D01*
X169444487Y-85383862D01*
X169444486Y-85383864D01*
X169389301Y-85550403D01*
X169389300Y-85550404D01*
X169378800Y-85653184D01*
X150806930Y-85653184D01*
X150813310Y-85637781D01*
X150871004Y-85422463D01*
X150900100Y-85201457D01*
X150900100Y-84978543D01*
X150871004Y-84757537D01*
X150813310Y-84542219D01*
X150810741Y-84536018D01*
X150728006Y-84336277D01*
X150728005Y-84336274D01*
X150616548Y-84143226D01*
X150480847Y-83966376D01*
X150480842Y-83966370D01*
X150323229Y-83808757D01*
X150323222Y-83808751D01*
X150146382Y-83673058D01*
X150146380Y-83673057D01*
X150146374Y-83673052D01*
X149953326Y-83561595D01*
X149953322Y-83561593D01*
X149747390Y-83476293D01*
X149747383Y-83476291D01*
X149747381Y-83476290D01*
X149532063Y-83418596D01*
X149532057Y-83418595D01*
X149532052Y-83418594D01*
X149311066Y-83389501D01*
X149311063Y-83389500D01*
X149311057Y-83389500D01*
X149088143Y-83389500D01*
X149088137Y-83389500D01*
X149088133Y-83389501D01*
X148867147Y-83418594D01*
X148867140Y-83418595D01*
X148867137Y-83418596D01*
X148730581Y-83455186D01*
X148651819Y-83476290D01*
X148651809Y-83476293D01*
X148445877Y-83561593D01*
X148445873Y-83561595D01*
X148252826Y-83673052D01*
X148252817Y-83673058D01*
X148075977Y-83808751D01*
X148075970Y-83808757D01*
X147918357Y-83966370D01*
X147918351Y-83966377D01*
X147782658Y-84143217D01*
X147782652Y-84143226D01*
X147671195Y-84336273D01*
X147671193Y-84336277D01*
X147585893Y-84542209D01*
X147585890Y-84542219D01*
X147544729Y-84695837D01*
X147528197Y-84757534D01*
X147528194Y-84757547D01*
X147499101Y-84978533D01*
X147499100Y-84978549D01*
X135660100Y-84978549D01*
X135660100Y-84089992D01*
X135649599Y-83987203D01*
X135594414Y-83820666D01*
X135593811Y-83819689D01*
X135502313Y-83671348D01*
X135502310Y-83671344D01*
X135378255Y-83547289D01*
X135378251Y-83547286D01*
X135228937Y-83455187D01*
X135228935Y-83455186D01*
X135118507Y-83418594D01*
X135062397Y-83400001D01*
X135062395Y-83400000D01*
X134959615Y-83389500D01*
X134959608Y-83389500D01*
X132959592Y-83389500D01*
X132959584Y-83389500D01*
X132856804Y-83400000D01*
X132856803Y-83400001D01*
X132690264Y-83455186D01*
X132690262Y-83455187D01*
X132540948Y-83547286D01*
X132540944Y-83547289D01*
X132416889Y-83671344D01*
X132416886Y-83671348D01*
X132324787Y-83820662D01*
X132324786Y-83820664D01*
X132269601Y-83987203D01*
X132269600Y-83987204D01*
X132259100Y-84089984D01*
X122333713Y-84089984D01*
X122282664Y-84007222D01*
X122243513Y-83943748D01*
X122243510Y-83943744D01*
X122119455Y-83819689D01*
X122119451Y-83819686D01*
X121970137Y-83727587D01*
X121970135Y-83727586D01*
X121881704Y-83698283D01*
X121803597Y-83672401D01*
X121803595Y-83672400D01*
X121700815Y-83661900D01*
X121700808Y-83661900D01*
X119700792Y-83661900D01*
X119700784Y-83661900D01*
X119598004Y-83672400D01*
X119598003Y-83672401D01*
X119431464Y-83727586D01*
X119431462Y-83727587D01*
X119282148Y-83819686D01*
X119282144Y-83819689D01*
X119158089Y-83943744D01*
X119158086Y-83943748D01*
X119065987Y-84093062D01*
X119065986Y-84093064D01*
X119010801Y-84259603D01*
X119010800Y-84259604D01*
X119000300Y-84362384D01*
X99052500Y-84362384D01*
X99052500Y-82475646D01*
X158262200Y-82475646D01*
X158262200Y-82704353D01*
X158297978Y-82930246D01*
X158297978Y-82930249D01*
X158368650Y-83147755D01*
X158368652Y-83147758D01*
X158472483Y-83351538D01*
X158606914Y-83536566D01*
X158768634Y-83698286D01*
X158953662Y-83832717D01*
X159157442Y-83936548D01*
X159157444Y-83936549D01*
X159374951Y-84007221D01*
X159374952Y-84007221D01*
X159374955Y-84007222D01*
X159600846Y-84043000D01*
X159600847Y-84043000D01*
X159829553Y-84043000D01*
X159829554Y-84043000D01*
X160055445Y-84007222D01*
X160055448Y-84007221D01*
X160055449Y-84007221D01*
X160272955Y-83936549D01*
X160272955Y-83936548D01*
X160272958Y-83936548D01*
X160476738Y-83832717D01*
X160661766Y-83698286D01*
X160823486Y-83536566D01*
X160957917Y-83351538D01*
X161061748Y-83147758D01*
X161132422Y-82930245D01*
X161168200Y-82704354D01*
X161168200Y-82475646D01*
X161132422Y-82249755D01*
X161132421Y-82249751D01*
X161132421Y-82249750D01*
X161061749Y-82032244D01*
X160957916Y-81828461D01*
X160823486Y-81643434D01*
X160661766Y-81481714D01*
X160476738Y-81347283D01*
X160272955Y-81243450D01*
X160055448Y-81172778D01*
X159886026Y-81145944D01*
X159829554Y-81137000D01*
X159600846Y-81137000D01*
X159525549Y-81148926D01*
X159374953Y-81172778D01*
X159374950Y-81172778D01*
X159157444Y-81243450D01*
X158953661Y-81347283D01*
X158848096Y-81423980D01*
X158768634Y-81481714D01*
X158768632Y-81481716D01*
X158768631Y-81481716D01*
X158606916Y-81643431D01*
X158606916Y-81643432D01*
X158606914Y-81643434D01*
X158549180Y-81722896D01*
X158472483Y-81828461D01*
X158368650Y-82032244D01*
X158297978Y-82249750D01*
X158297978Y-82249753D01*
X158262200Y-82475646D01*
X99052500Y-82475646D01*
X99052500Y-72992446D01*
X101925000Y-72992446D01*
X101925000Y-73221153D01*
X101960778Y-73447046D01*
X101960778Y-73447049D01*
X102031450Y-73664555D01*
X102031452Y-73664558D01*
X102135283Y-73868338D01*
X102269714Y-74053366D01*
X102431434Y-74215086D01*
X102616462Y-74349517D01*
X102820242Y-74453348D01*
X102820244Y-74453349D01*
X103037751Y-74524021D01*
X103037752Y-74524021D01*
X103037755Y-74524022D01*
X103263646Y-74559800D01*
X103263647Y-74559800D01*
X103492353Y-74559800D01*
X103492354Y-74559800D01*
X103718245Y-74524022D01*
X103718248Y-74524021D01*
X103718249Y-74524021D01*
X103935755Y-74453349D01*
X103935755Y-74453348D01*
X103935758Y-74453348D01*
X104139538Y-74349517D01*
X104324566Y-74215086D01*
X104486286Y-74053366D01*
X104620717Y-73868338D01*
X104724548Y-73664558D01*
X104795222Y-73447045D01*
X104831000Y-73221154D01*
X104831000Y-72992446D01*
X157925000Y-72992446D01*
X157925000Y-73221153D01*
X157960778Y-73447046D01*
X157960778Y-73447049D01*
X158031450Y-73664555D01*
X158031452Y-73664558D01*
X158135283Y-73868338D01*
X158269714Y-74053366D01*
X158431434Y-74215086D01*
X158616462Y-74349517D01*
X158820242Y-74453348D01*
X158820244Y-74453349D01*
X159037751Y-74524021D01*
X159037752Y-74524021D01*
X159037755Y-74524022D01*
X159263646Y-74559800D01*
X159263647Y-74559800D01*
X159492353Y-74559800D01*
X159492354Y-74559800D01*
X159718245Y-74524022D01*
X159718248Y-74524021D01*
X159718249Y-74524021D01*
X159935755Y-74453349D01*
X159935755Y-74453348D01*
X159935758Y-74453348D01*
X160139538Y-74349517D01*
X160324566Y-74215086D01*
X160486286Y-74053366D01*
X160620717Y-73868338D01*
X160724548Y-73664558D01*
X160795222Y-73447045D01*
X160831000Y-73221154D01*
X160831000Y-72992446D01*
X160795222Y-72766555D01*
X160795221Y-72766551D01*
X160795221Y-72766550D01*
X160724549Y-72549044D01*
X160620716Y-72345261D01*
X160486286Y-72160234D01*
X160324566Y-71998514D01*
X160139538Y-71864083D01*
X159935755Y-71760250D01*
X159718248Y-71689578D01*
X159548826Y-71662744D01*
X159492354Y-71653800D01*
X159263646Y-71653800D01*
X159188349Y-71665726D01*
X159037753Y-71689578D01*
X159037750Y-71689578D01*
X158820244Y-71760250D01*
X158616461Y-71864083D01*
X158510896Y-71940780D01*
X158431434Y-71998514D01*
X158431432Y-71998516D01*
X158431431Y-71998516D01*
X158269716Y-72160231D01*
X158269716Y-72160232D01*
X158269714Y-72160234D01*
X158211980Y-72239696D01*
X158135283Y-72345261D01*
X158031450Y-72549044D01*
X157960778Y-72766550D01*
X157960778Y-72766553D01*
X157925000Y-72992446D01*
X104831000Y-72992446D01*
X104795222Y-72766555D01*
X104795221Y-72766551D01*
X104795221Y-72766550D01*
X104724549Y-72549044D01*
X104620716Y-72345261D01*
X104486286Y-72160234D01*
X104324566Y-71998514D01*
X104139538Y-71864083D01*
X103935755Y-71760250D01*
X103718248Y-71689578D01*
X103548826Y-71662744D01*
X103492354Y-71653800D01*
X103263646Y-71653800D01*
X103188349Y-71665726D01*
X103037753Y-71689578D01*
X103037750Y-71689578D01*
X102820244Y-71760250D01*
X102616461Y-71864083D01*
X102510896Y-71940780D01*
X102431434Y-71998514D01*
X102431432Y-71998516D01*
X102431431Y-71998516D01*
X102269716Y-72160231D01*
X102269716Y-72160232D01*
X102269714Y-72160234D01*
X102211980Y-72239696D01*
X102135283Y-72345261D01*
X102031450Y-72549044D01*
X101960778Y-72766550D01*
X101960778Y-72766553D01*
X101925000Y-72992446D01*
X99052500Y-72992446D01*
X99052500Y-66992446D01*
X101925000Y-66992446D01*
X101925000Y-67221153D01*
X101960778Y-67447046D01*
X101960778Y-67447049D01*
X102031450Y-67664555D01*
X102031452Y-67664558D01*
X102135283Y-67868338D01*
X102269714Y-68053366D01*
X102431434Y-68215086D01*
X102616462Y-68349517D01*
X102820242Y-68453348D01*
X102820244Y-68453349D01*
X103037751Y-68524021D01*
X103037752Y-68524021D01*
X103037755Y-68524022D01*
X103263646Y-68559800D01*
X103263647Y-68559800D01*
X103492353Y-68559800D01*
X103492354Y-68559800D01*
X103718245Y-68524022D01*
X103718248Y-68524021D01*
X103718249Y-68524021D01*
X103935755Y-68453349D01*
X103935755Y-68453348D01*
X103935758Y-68453348D01*
X104139538Y-68349517D01*
X104324566Y-68215086D01*
X104486286Y-68053366D01*
X104620717Y-67868338D01*
X104724548Y-67664558D01*
X104788806Y-67466792D01*
X104788809Y-67466784D01*
X169632800Y-67466784D01*
X169632800Y-69866815D01*
X169643300Y-69969595D01*
X169643301Y-69969596D01*
X169698486Y-70136135D01*
X169698487Y-70136137D01*
X169790586Y-70285451D01*
X169790589Y-70285455D01*
X169914644Y-70409510D01*
X169914648Y-70409513D01*
X170063962Y-70501612D01*
X170063964Y-70501613D01*
X170063966Y-70501614D01*
X170230503Y-70556799D01*
X170333292Y-70567300D01*
X170333297Y-70567300D01*
X172733303Y-70567300D01*
X172733308Y-70567300D01*
X172836097Y-70556799D01*
X173002634Y-70501614D01*
X173151955Y-70409511D01*
X173276011Y-70285455D01*
X173368114Y-70136134D01*
X173423299Y-69969597D01*
X173433800Y-69866808D01*
X173433800Y-67466792D01*
X173423299Y-67364003D01*
X173368114Y-67197466D01*
X173276011Y-67048145D01*
X173151955Y-66924089D01*
X173151951Y-66924086D01*
X173002637Y-66831987D01*
X173002635Y-66831986D01*
X172919365Y-66804393D01*
X172836097Y-66776801D01*
X172836095Y-66776800D01*
X172733315Y-66766300D01*
X172733308Y-66766300D01*
X170333292Y-66766300D01*
X170333284Y-66766300D01*
X170230504Y-66776800D01*
X170230503Y-66776801D01*
X170063964Y-66831986D01*
X170063962Y-66831987D01*
X169914648Y-66924086D01*
X169914644Y-66924089D01*
X169790589Y-67048144D01*
X169790586Y-67048148D01*
X169698487Y-67197462D01*
X169698486Y-67197464D01*
X169643301Y-67364003D01*
X169643300Y-67364004D01*
X169632800Y-67466784D01*
X104788809Y-67466784D01*
X104795221Y-67447049D01*
X104795221Y-67447047D01*
X104795222Y-67447045D01*
X104831000Y-67221154D01*
X104831000Y-66992446D01*
X104795222Y-66766555D01*
X104795221Y-66766551D01*
X104795221Y-66766550D01*
X104724549Y-66549044D01*
X104620716Y-66345261D01*
X104486286Y-66160234D01*
X104324566Y-65998514D01*
X104139538Y-65864083D01*
X103935755Y-65760250D01*
X103718248Y-65689578D01*
X103548826Y-65662744D01*
X103492354Y-65653800D01*
X103263646Y-65653800D01*
X103188349Y-65665726D01*
X103037753Y-65689578D01*
X103037750Y-65689578D01*
X102820244Y-65760250D01*
X102616461Y-65864083D01*
X102510896Y-65940780D01*
X102431434Y-65998514D01*
X102431432Y-65998516D01*
X102431431Y-65998516D01*
X102269716Y-66160231D01*
X102269716Y-66160232D01*
X102269714Y-66160234D01*
X102211980Y-66239696D01*
X102135283Y-66345261D01*
X102031450Y-66549044D01*
X101960778Y-66766550D01*
X101960778Y-66766553D01*
X101925000Y-66992446D01*
X99052500Y-66992446D01*
X99052500Y-51363184D01*
X169886800Y-51363184D01*
X169886800Y-53763215D01*
X169897300Y-53865995D01*
X169897301Y-53865996D01*
X169952486Y-54032535D01*
X169952487Y-54032537D01*
X170044586Y-54181851D01*
X170044589Y-54181855D01*
X170168644Y-54305910D01*
X170168648Y-54305913D01*
X170317962Y-54398012D01*
X170317964Y-54398013D01*
X170317966Y-54398014D01*
X170484503Y-54453199D01*
X170587292Y-54463700D01*
X170587297Y-54463700D01*
X172987303Y-54463700D01*
X172987308Y-54463700D01*
X173090097Y-54453199D01*
X173256634Y-54398014D01*
X173405955Y-54305911D01*
X173530011Y-54181855D01*
X173622114Y-54032534D01*
X173677299Y-53865997D01*
X173687800Y-53763208D01*
X173687800Y-51363192D01*
X173677299Y-51260403D01*
X173622114Y-51093866D01*
X173530011Y-50944545D01*
X173405955Y-50820489D01*
X173405951Y-50820486D01*
X173256637Y-50728387D01*
X173256635Y-50728386D01*
X173173365Y-50700793D01*
X173090097Y-50673201D01*
X173090095Y-50673200D01*
X172987315Y-50662700D01*
X172987308Y-50662700D01*
X170587292Y-50662700D01*
X170587284Y-50662700D01*
X170484504Y-50673200D01*
X170484503Y-50673201D01*
X170317964Y-50728386D01*
X170317962Y-50728387D01*
X170168648Y-50820486D01*
X170168644Y-50820489D01*
X170044589Y-50944544D01*
X170044586Y-50944548D01*
X169952487Y-51093862D01*
X169952486Y-51093864D01*
X169897301Y-51260403D01*
X169897300Y-51260404D01*
X169886800Y-51363184D01*
X99052500Y-51363184D01*
X99052500Y-46852500D01*
X99072185Y-46785461D01*
X99124989Y-46739706D01*
X99176500Y-46728500D01*
X175753100Y-46728500D01*
X175820139Y-46748185D01*
G37*
%TD.AperFunction*%
%TD*%
M02*
