M48
; DRILL file {KiCad 9.0.6-9.0.6~ubuntu24.04.1} date 2025-11-27T19:55:25+0100
; FORMAT={-:-/ absolute / metric / decimal}
; #@! TF.CreationDate,2025-11-27T19:55:25+01:00
; #@! TF.GenerationSoftware,Kicad,Pcbnew,9.0.6-9.0.6~ubuntu24.04.1
; #@! TF.FileFunction,Plated,1,2,PTH
FMAT,2
METRIC
; #@! TA.AperFunction,Plated,PTH,ComponentDrill
T1C0.700
; #@! TA.AperFunction,Plated,PTH,ComponentDrill
T2C0.900
; #@! TA.AperFunction,Plated,PTH,ComponentDrill
T3C1.000
; #@! TA.AperFunction,Plated,PTH,ComponentDrill
T4C1.100
; #@! TA.AperFunction,Plated,PTH,ComponentDrill
T5C1.200
; #@! TA.AperFunction,Plated,PTH,ComponentDrill
T6C1.300
%
G90
G05
T1
X152.197Y-99.314
X159.817Y-99.314
T2
X159.766Y-92.253
X159.766Y-94.793
T3
X159.715Y-82.59
X159.715Y-87.59
T4
X103.378Y-67.107
X103.378Y-73.107
X117.304Y-109.412
X117.304Y-114.412
X156.304Y-111.912
X156.304Y-116.912
X159.378Y-67.107
X159.378Y-73.107
T5
X120.701Y-85.362
X120.701Y-92.862
X133.96Y-85.09
X134.061Y-94.336
X149.2Y-85.09
X149.301Y-94.336
T6
X103.327Y-117.043
X103.327Y-122.043
X103.447Y-86.404
X103.447Y-91.404
X103.447Y-101.695
X103.447Y-106.695
X171.279Y-86.853
X171.279Y-91.853
X171.348Y-117.196
X171.348Y-122.196
X171.45Y-102.464
X171.45Y-107.464
X171.533Y-68.667
X171.533Y-73.667
X171.787Y-52.563
X171.787Y-57.563
M30
