%TF.GenerationSoftware,KiCad,Pcbnew,9.0.6-9.0.6~ubuntu24.04.1*%
%TF.CreationDate,2025-11-27T19:55:15+01:00*%
%TF.ProjectId,intercons,696e7465-7263-46f6-9e73-2e6b69636164,rev?*%
%TF.SameCoordinates,Original*%
%TF.FileFunction,Copper,L1,Top*%
%TF.FilePolarity,Positive*%
%FSLAX46Y46*%
G04 Gerber Fmt 4.6, Leading zero omitted, Abs format (unit mm)*
G04 Created by KiCad (PCBNEW 9.0.6-9.0.6~ubuntu24.04.1) date 2025-11-27 19:55:15*
%MOMM*%
%LPD*%
G01*
G04 APERTURE LIST*
G04 Aperture macros list*
%AMRoundRect*
0 Rectangle with rounded corners*
0 $1 Rounding radius*
0 $2 $3 $4 $5 $6 $7 $8 $9 X,Y pos of 4 corners*
0 Add a 4 corners polygon primitive as box body*
4,1,4,$2,$3,$4,$5,$6,$7,$8,$9,$2,$3,0*
0 Add four circle primitives for the rounded corners*
1,1,$1+$1,$2,$3*
1,1,$1+$1,$4,$5*
1,1,$1+$1,$6,$7*
1,1,$1+$1,$8,$9*
0 Add four rect primitives between the rounded corners*
20,1,$1+$1,$2,$3,$4,$5,0*
20,1,$1+$1,$4,$5,$6,$7,0*
20,1,$1+$1,$6,$7,$8,$9,0*
20,1,$1+$1,$8,$9,$2,$3,0*%
G04 Aperture macros list end*
%TA.AperFunction,ComponentPad*%
%ADD10C,1.905000*%
%TD*%
%TA.AperFunction,ComponentPad*%
%ADD11RoundRect,0.250001X-0.949999X0.949999X-0.949999X-0.949999X0.949999X-0.949999X0.949999X0.949999X0*%
%TD*%
%TA.AperFunction,ComponentPad*%
%ADD12C,2.400000*%
%TD*%
%TA.AperFunction,ComponentPad*%
%ADD13C,1.400000*%
%TD*%
%TA.AperFunction,ComponentPad*%
%ADD14RoundRect,0.250001X-1.149999X1.149999X-1.149999X-1.149999X1.149999X-1.149999X1.149999X1.149999X0*%
%TD*%
%TA.AperFunction,ComponentPad*%
%ADD15C,2.800000*%
%TD*%
%TA.AperFunction,ComponentPad*%
%ADD16RoundRect,0.250001X-0.949999X-0.949999X0.949999X-0.949999X0.949999X0.949999X-0.949999X0.949999X0*%
%TD*%
%TA.AperFunction,ComponentPad*%
%ADD17RoundRect,0.250001X1.149999X-1.149999X1.149999X1.149999X-1.149999X1.149999X-1.149999X-1.149999X0*%
%TD*%
%TA.AperFunction,ComponentPad*%
%ADD18R,1.800000X1.800000*%
%TD*%
%TA.AperFunction,ComponentPad*%
%ADD19C,1.800000*%
%TD*%
%TA.AperFunction,Conductor*%
%ADD20C,2.000000*%
%TD*%
%TA.AperFunction,Conductor*%
%ADD21C,0.200000*%
%TD*%
G04 APERTURE END LIST*
D10*
%TO.P,A2,4,Vout-*%
%TO.N,unconnected-(A2-Vout--Pad4)*%
X103378000Y-67106800D03*
%TO.P,A2,3,Vout+*%
%TO.N,unconnected-(A2-Vout+-Pad3)*%
X103378000Y-73106800D03*
%TO.P,A2,2,Vin+*%
%TO.N,Net-(A2-Vin+)*%
X159378000Y-73106800D03*
%TO.P,A2,1,Vin-*%
%TO.N,GND*%
X159378000Y-67106800D03*
%TD*%
%TO.P,A1,1,Vin+*%
%TO.N,Net-(A1-Vin+)*%
X156304400Y-111912400D03*
%TO.P,A1,2,Vin-*%
%TO.N,GND*%
X156304400Y-116912400D03*
%TO.P,A1,3,Bat-*%
X117304400Y-114412400D03*
%TO.P,A1,4,Bat+*%
%TO.N,Net-(A1-Bat+)*%
X117304400Y-109412400D03*
%TD*%
D11*
%TO.P,C1,1*%
%TO.N,Net-(A2-Vin+)*%
X120700800Y-85362400D03*
D12*
%TO.P,C1,2*%
%TO.N,GND*%
X120700800Y-92862400D03*
%TD*%
D13*
%TO.P,R1,1*%
%TO.N,Net-(D3-K)*%
X159816800Y-99314000D03*
%TO.P,R1,2*%
%TO.N,GND*%
X152196800Y-99314000D03*
%TD*%
D14*
%TO.P,J3,1,Pin_1*%
%TO.N,Net-(A1-Bat+)*%
X171279300Y-86853200D03*
D15*
%TO.P,J3,2,Pin_2*%
%TO.N,GND*%
X171279300Y-91853200D03*
%TD*%
D10*
%TO.P,SW1,1,A*%
%TO.N,Net-(D2-A)*%
X159715200Y-87590000D03*
%TO.P,SW1,2,B*%
%TO.N,Net-(J1-Pin_1)*%
X159715200Y-82590000D03*
%TD*%
D16*
%TO.P,D1,1,K*%
%TO.N,Net-(A1-Vin+)*%
X133959600Y-85090000D03*
D12*
%TO.P,D1,2,A*%
%TO.N,Net-(D1-A)*%
X149199600Y-85090000D03*
%TD*%
D14*
%TO.P,J2,1,Pin_1*%
%TO.N,Net-(D1-A)*%
X171533300Y-68666800D03*
D15*
%TO.P,J2,2,Pin_2*%
%TO.N,GND*%
X171533300Y-73666800D03*
%TD*%
D17*
%TO.P,J6,1,Pin_1*%
%TO.N,GND*%
X103447100Y-91404000D03*
D15*
%TO.P,J6,2,Pin_2*%
%TO.N,Net-(D2-A)*%
X103447100Y-86404000D03*
%TD*%
D14*
%TO.P,J4,1,Pin_1*%
%TO.N,Net-(D1-A)*%
X171450000Y-102463600D03*
D15*
%TO.P,J4,2,Pin_2*%
%TO.N,GND*%
X171450000Y-107463600D03*
%TD*%
D14*
%TO.P,J5,1,Pin_1*%
%TO.N,Net-(A1-Bat+)*%
X171348400Y-117195600D03*
D15*
%TO.P,J5,2,Pin_2*%
%TO.N,GND*%
X171348400Y-122195600D03*
%TD*%
D17*
%TO.P,J7,1,Pin_1*%
%TO.N,GND*%
X103447100Y-106694800D03*
D15*
%TO.P,J7,2,Pin_2*%
%TO.N,Net-(D2-A)*%
X103447100Y-101694800D03*
%TD*%
D16*
%TO.P,D2,1,K*%
%TO.N,Net-(A2-Vin+)*%
X134061200Y-94335600D03*
D12*
%TO.P,D2,2,A*%
%TO.N,Net-(D2-A)*%
X149301200Y-94335600D03*
%TD*%
D14*
%TO.P,J1,1,Pin_1*%
%TO.N,Net-(J1-Pin_1)*%
X171787300Y-52563200D03*
D15*
%TO.P,J1,2,Pin_2*%
%TO.N,GND*%
X171787300Y-57563200D03*
%TD*%
D17*
%TO.P,J8,1,Pin_1*%
%TO.N,GND*%
X103327200Y-122043200D03*
D15*
%TO.P,J8,2,Pin_2*%
%TO.N,Net-(D2-A)*%
X103327200Y-117043200D03*
%TD*%
D18*
%TO.P,D3,1,K*%
%TO.N,Net-(D3-K)*%
X159766000Y-94792800D03*
D19*
%TO.P,D3,2,A*%
%TO.N,Net-(D2-A)*%
X159766000Y-92252800D03*
%TD*%
D20*
%TO.N,Net-(A1-Vin+)*%
X156304400Y-111912400D02*
X142544800Y-98152800D01*
X142544800Y-90627200D02*
X137007600Y-85090000D01*
X137007600Y-85090000D02*
X133959600Y-85090000D01*
X142544800Y-98152800D02*
X142544800Y-90627200D01*
%TO.N,Net-(A1-Bat+)*%
X174498000Y-90071900D02*
X174498000Y-114046000D01*
X171279300Y-86853200D02*
X174498000Y-90071900D01*
X117304400Y-109412400D02*
X134558400Y-109412400D01*
X174498000Y-114046000D02*
X171348400Y-117195600D01*
X134558400Y-109412400D02*
X147269200Y-122123200D01*
X160172400Y-122123200D02*
X165100000Y-117195600D01*
X147269200Y-122123200D02*
X160172400Y-122123200D01*
X165100000Y-117195600D02*
X171348400Y-117195600D01*
%TO.N,Net-(A2-Vin+)*%
X134061200Y-94335600D02*
X129674000Y-94335600D01*
X132956400Y-73106800D02*
X120700800Y-85362400D01*
X159378000Y-73106800D02*
X132956400Y-73106800D01*
X129674000Y-94335600D02*
X120700800Y-85362400D01*
%TO.N,Net-(D1-A)*%
X167487600Y-80111600D02*
X167487600Y-72712500D01*
X167487600Y-72712500D02*
X171533300Y-68666800D01*
X149199600Y-85090000D02*
X162509200Y-85090000D01*
X171450000Y-102463600D02*
X167487600Y-98501200D01*
X162509200Y-85090000D02*
X167487600Y-80111600D01*
X167487600Y-98501200D02*
X167487600Y-80111600D01*
%TO.N,Net-(D2-A)*%
X129641600Y-87579200D02*
X131826000Y-89763600D01*
X131826000Y-89763600D02*
X135737600Y-89763600D01*
X138328400Y-80822800D02*
X133248400Y-80822800D01*
X133248400Y-80822800D02*
X129641600Y-84429600D01*
D21*
X159715200Y-87590000D02*
X159715200Y-92202000D01*
D20*
X149301200Y-94335600D02*
X149301200Y-91795600D01*
D21*
X159715200Y-92202000D02*
X159766000Y-92252800D01*
D20*
X108915200Y-111455200D02*
X108915200Y-101694800D01*
X133153600Y-101694800D02*
X108915200Y-101694800D01*
X108915200Y-101694800D02*
X103447100Y-101694800D01*
X129641600Y-84429600D02*
X129641600Y-87579200D01*
X103447100Y-86404000D02*
X108915200Y-91872100D01*
X138480800Y-92506800D02*
X138480800Y-96367600D01*
X152969600Y-94335600D02*
X159715200Y-87590000D01*
X103327200Y-117043200D02*
X108915200Y-111455200D01*
X149301200Y-94335600D02*
X152969600Y-94335600D01*
X108915200Y-91872100D02*
X108915200Y-101694800D01*
X149301200Y-91795600D02*
X138328400Y-80822800D01*
X138480800Y-96367600D02*
X133153600Y-101694800D01*
X135737600Y-89763600D02*
X138480800Y-92506800D01*
%TO.N,Net-(J1-Pin_1)*%
X164490400Y-59860100D02*
X164490400Y-77814800D01*
X171787300Y-52563200D02*
X164490400Y-59860100D01*
X164490400Y-77814800D02*
X159715200Y-82590000D01*
D21*
%TO.N,Net-(D3-K)*%
X159766000Y-99263200D02*
X159816800Y-99314000D01*
X159766000Y-94792800D02*
X159766000Y-99263200D01*
%TD*%
%TA.AperFunction,Conductor*%
%TO.N,GND*%
G36*
X175820139Y-46748185D02*
G01*
X175865894Y-46800989D01*
X175877100Y-46852500D01*
X175877100Y-89035633D01*
X175857415Y-89102672D01*
X175804611Y-89148427D01*
X175735453Y-89158371D01*
X175671897Y-89129346D01*
X175652783Y-89108520D01*
X175642517Y-89094390D01*
X173216119Y-86667992D01*
X173182634Y-86606669D01*
X173179800Y-86580311D01*
X173179800Y-85653197D01*
X173179799Y-85653184D01*
X173178226Y-85637790D01*
X173169299Y-85550403D01*
X173114114Y-85383866D01*
X173090679Y-85345873D01*
X173022013Y-85234548D01*
X173022010Y-85234544D01*
X172897955Y-85110489D01*
X172897951Y-85110486D01*
X172748637Y-85018387D01*
X172748635Y-85018386D01*
X172628396Y-84978543D01*
X172582097Y-84963201D01*
X172582095Y-84963200D01*
X172479315Y-84952700D01*
X172479308Y-84952700D01*
X170079292Y-84952700D01*
X170079284Y-84952700D01*
X169976504Y-84963200D01*
X169976503Y-84963201D01*
X169809964Y-85018386D01*
X169809962Y-85018387D01*
X169660648Y-85110486D01*
X169660644Y-85110489D01*
X169536589Y-85234544D01*
X169536586Y-85234548D01*
X169444487Y-85383862D01*
X169444486Y-85383864D01*
X169389301Y-85550403D01*
X169389300Y-85550404D01*
X169378800Y-85653184D01*
X169378800Y-88053215D01*
X169389300Y-88155995D01*
X169389301Y-88155997D01*
X169406368Y-88207501D01*
X169444486Y-88322535D01*
X169444487Y-88322537D01*
X169536586Y-88471851D01*
X169536589Y-88471855D01*
X169660644Y-88595910D01*
X169660648Y-88595913D01*
X169809962Y-88688012D01*
X169809964Y-88688013D01*
X169809966Y-88688014D01*
X169976503Y-88743199D01*
X170079292Y-88753700D01*
X171006411Y-88753700D01*
X171073450Y-88773385D01*
X171094092Y-88790019D01*
X172961181Y-90657108D01*
X172994666Y-90718431D01*
X172997500Y-90744789D01*
X172997500Y-100482967D01*
X172977815Y-100550006D01*
X172925011Y-100595761D01*
X172855853Y-100605705D01*
X172834497Y-100600673D01*
X172752799Y-100573601D01*
X172752795Y-100573600D01*
X172650015Y-100563100D01*
X172650008Y-100563100D01*
X171722890Y-100563100D01*
X171655851Y-100543415D01*
X171635209Y-100526781D01*
X169024419Y-97915991D01*
X168990934Y-97854668D01*
X168988100Y-97828310D01*
X168988100Y-73385389D01*
X169007785Y-73318350D01*
X169024419Y-73297708D01*
X171718509Y-70603619D01*
X171779832Y-70570134D01*
X171806190Y-70567300D01*
X172733303Y-70567300D01*
X172733308Y-70567300D01*
X172836097Y-70556799D01*
X173002634Y-70501614D01*
X173151955Y-70409511D01*
X173276011Y-70285455D01*
X173368114Y-70136134D01*
X173423299Y-69969597D01*
X173433800Y-69866808D01*
X173433800Y-67466792D01*
X173423299Y-67364003D01*
X173368114Y-67197466D01*
X173276011Y-67048145D01*
X173151955Y-66924089D01*
X173151951Y-66924086D01*
X173002637Y-66831987D01*
X173002635Y-66831986D01*
X172919365Y-66804393D01*
X172836097Y-66776801D01*
X172836095Y-66776800D01*
X172733315Y-66766300D01*
X172733308Y-66766300D01*
X170333292Y-66766300D01*
X170333284Y-66766300D01*
X170230504Y-66776800D01*
X170230503Y-66776801D01*
X170063964Y-66831986D01*
X170063962Y-66831987D01*
X169914648Y-66924086D01*
X169914644Y-66924089D01*
X169790589Y-67048144D01*
X169790586Y-67048148D01*
X169698487Y-67197462D01*
X169698486Y-67197464D01*
X169643301Y-67364003D01*
X169643300Y-67364004D01*
X169632800Y-67466784D01*
X169632800Y-68393910D01*
X169613115Y-68460949D01*
X169596481Y-68481591D01*
X166343084Y-71734988D01*
X166215218Y-71910979D01*
X166159887Y-71953645D01*
X166090274Y-71959623D01*
X166028479Y-71927017D01*
X165994122Y-71866178D01*
X165990900Y-71838093D01*
X165990900Y-60532989D01*
X166010585Y-60465950D01*
X166027219Y-60445308D01*
X171972508Y-54500019D01*
X172033831Y-54466534D01*
X172060189Y-54463700D01*
X172987303Y-54463700D01*
X172987308Y-54463700D01*
X173090097Y-54453199D01*
X173256634Y-54398014D01*
X173405955Y-54305911D01*
X173530011Y-54181855D01*
X173622114Y-54032534D01*
X173677299Y-53865997D01*
X173687800Y-53763208D01*
X173687800Y-51363192D01*
X173677299Y-51260403D01*
X173622114Y-51093866D01*
X173530011Y-50944545D01*
X173405955Y-50820489D01*
X173405951Y-50820486D01*
X173256637Y-50728387D01*
X173256635Y-50728386D01*
X173173365Y-50700793D01*
X173090097Y-50673201D01*
X173090095Y-50673200D01*
X172987315Y-50662700D01*
X172987308Y-50662700D01*
X170587292Y-50662700D01*
X170587284Y-50662700D01*
X170484504Y-50673200D01*
X170484503Y-50673201D01*
X170317964Y-50728386D01*
X170317962Y-50728387D01*
X170168648Y-50820486D01*
X170168644Y-50820489D01*
X170044589Y-50944544D01*
X170044586Y-50944548D01*
X169952487Y-51093862D01*
X169952486Y-51093864D01*
X169897301Y-51260403D01*
X169897300Y-51260404D01*
X169886800Y-51363184D01*
X169886800Y-52290311D01*
X169867115Y-52357350D01*
X169850481Y-52377992D01*
X163345885Y-58882587D01*
X163345884Y-58882588D01*
X163207057Y-59073665D01*
X163099833Y-59284103D01*
X163026846Y-59508731D01*
X162989900Y-59742002D01*
X162989900Y-77141910D01*
X162970215Y-77208949D01*
X162953581Y-77229591D01*
X158570684Y-81612488D01*
X158431857Y-81803565D01*
X158324633Y-82014003D01*
X158251646Y-82238631D01*
X158214700Y-82471902D01*
X158214700Y-82708097D01*
X158251646Y-82941368D01*
X158324633Y-83165996D01*
X158431857Y-83376435D01*
X158443612Y-83392613D01*
X158467093Y-83458419D01*
X158451269Y-83526473D01*
X158401164Y-83575169D01*
X158343295Y-83589500D01*
X150034884Y-83589500D01*
X149972885Y-83572887D01*
X149953326Y-83561595D01*
X149933013Y-83553181D01*
X149747390Y-83476293D01*
X149747383Y-83476291D01*
X149747381Y-83476290D01*
X149532063Y-83418596D01*
X149532057Y-83418595D01*
X149532052Y-83418594D01*
X149311066Y-83389501D01*
X149311063Y-83389500D01*
X149311057Y-83389500D01*
X149088143Y-83389500D01*
X149088137Y-83389500D01*
X149088133Y-83389501D01*
X148867147Y-83418594D01*
X148867140Y-83418595D01*
X148867137Y-83418596D01*
X148818945Y-83431509D01*
X148651819Y-83476290D01*
X148651809Y-83476293D01*
X148445877Y-83561593D01*
X148445873Y-83561595D01*
X148252826Y-83673052D01*
X148252817Y-83673058D01*
X148075977Y-83808751D01*
X148075970Y-83808757D01*
X147918357Y-83966370D01*
X147918351Y-83966377D01*
X147782658Y-84143217D01*
X147782652Y-84143226D01*
X147671195Y-84336273D01*
X147671193Y-84336277D01*
X147585893Y-84542209D01*
X147585890Y-84542219D01*
X147544729Y-84695837D01*
X147528197Y-84757534D01*
X147528194Y-84757547D01*
X147499101Y-84978533D01*
X147499100Y-84978549D01*
X147499100Y-85201450D01*
X147499101Y-85201466D01*
X147528194Y-85422452D01*
X147528195Y-85422457D01*
X147528196Y-85422463D01*
X147562478Y-85550404D01*
X147585890Y-85637780D01*
X147585893Y-85637790D01*
X147671193Y-85843722D01*
X147671195Y-85843726D01*
X147782652Y-86036774D01*
X147782657Y-86036780D01*
X147782658Y-86036782D01*
X147918351Y-86213622D01*
X147918357Y-86213629D01*
X148075970Y-86371242D01*
X148075977Y-86371248D01*
X148198412Y-86465195D01*
X148252826Y-86506948D01*
X148445874Y-86618405D01*
X148651819Y-86703710D01*
X148867137Y-86761404D01*
X149088143Y-86790500D01*
X149088150Y-86790500D01*
X149311050Y-86790500D01*
X149311057Y-86790500D01*
X149532063Y-86761404D01*
X149747381Y-86703710D01*
X149953326Y-86618405D01*
X149972885Y-86607112D01*
X150034884Y-86590500D01*
X158293311Y-86590500D01*
X158360350Y-86610185D01*
X158406105Y-86662989D01*
X158416049Y-86732147D01*
X158387024Y-86795703D01*
X158380992Y-86802181D01*
X152384392Y-92798781D01*
X152323069Y-92832266D01*
X152296711Y-92835100D01*
X150925700Y-92835100D01*
X150858661Y-92815415D01*
X150812906Y-92762611D01*
X150801700Y-92711100D01*
X150801700Y-91677502D01*
X150764753Y-91444231D01*
X150712620Y-91283785D01*
X150691768Y-91219608D01*
X150691766Y-91219605D01*
X150691766Y-91219603D01*
X150584542Y-91009165D01*
X150582465Y-91006307D01*
X150582460Y-91006300D01*
X150445718Y-90818090D01*
X139305910Y-79678283D01*
X139114834Y-79539457D01*
X138904396Y-79432233D01*
X138679768Y-79359246D01*
X138446497Y-79322300D01*
X138446492Y-79322300D01*
X133130308Y-79322300D01*
X133130303Y-79322300D01*
X132897030Y-79359247D01*
X132745393Y-79408516D01*
X132745392Y-79408517D01*
X132672407Y-79432232D01*
X132672401Y-79432234D01*
X132461965Y-79539457D01*
X132270888Y-79678284D01*
X128497084Y-83452088D01*
X128358257Y-83643165D01*
X128315243Y-83727586D01*
X128251033Y-83853603D01*
X128178046Y-84078231D01*
X128141100Y-84311502D01*
X128141100Y-87697297D01*
X128178046Y-87930568D01*
X128251033Y-88155196D01*
X128336297Y-88322535D01*
X128358257Y-88365634D01*
X128497083Y-88556710D01*
X130848490Y-90908117D01*
X131039566Y-91046943D01*
X131250008Y-91154168D01*
X131474631Y-91227153D01*
X131562109Y-91241008D01*
X131707903Y-91264100D01*
X131707908Y-91264100D01*
X135064711Y-91264100D01*
X135131750Y-91283785D01*
X135152392Y-91300419D01*
X136943981Y-93092008D01*
X136977466Y-93153331D01*
X136980300Y-93179689D01*
X136980300Y-95694711D01*
X136960615Y-95761750D01*
X136943981Y-95782392D01*
X132568392Y-100157981D01*
X132507069Y-100191466D01*
X132480711Y-100194300D01*
X110539700Y-100194300D01*
X110472661Y-100174615D01*
X110426906Y-100121811D01*
X110415700Y-100070300D01*
X110415700Y-91754002D01*
X110381085Y-91535452D01*
X110378754Y-91520740D01*
X110378753Y-91520731D01*
X110305768Y-91296108D01*
X110198543Y-91085666D01*
X110059717Y-90894590D01*
X105362662Y-86197535D01*
X105329177Y-86136212D01*
X105327407Y-86126055D01*
X105315082Y-86032435D01*
X105250602Y-85791793D01*
X105155264Y-85561627D01*
X105148784Y-85550404D01*
X105030699Y-85345873D01*
X104879039Y-85148225D01*
X104879033Y-85148218D01*
X104702881Y-84972066D01*
X104702874Y-84972060D01*
X104505226Y-84820400D01*
X104289476Y-84695837D01*
X104289461Y-84695830D01*
X104059307Y-84600498D01*
X103818661Y-84536017D01*
X103571675Y-84503501D01*
X103571670Y-84503500D01*
X103571665Y-84503500D01*
X103322535Y-84503500D01*
X103322529Y-84503500D01*
X103322524Y-84503501D01*
X103075538Y-84536017D01*
X102834892Y-84600498D01*
X102604738Y-84695830D01*
X102604723Y-84695837D01*
X102388973Y-84820400D01*
X102191325Y-84972060D01*
X102191318Y-84972066D01*
X102015166Y-85148218D01*
X102015160Y-85148225D01*
X101863500Y-85345873D01*
X101738937Y-85561623D01*
X101738930Y-85561638D01*
X101643598Y-85791792D01*
X101579117Y-86032438D01*
X101546601Y-86279424D01*
X101546600Y-86279441D01*
X101546600Y-86528558D01*
X101546601Y-86528575D01*
X101579117Y-86775561D01*
X101643598Y-87016207D01*
X101738930Y-87246361D01*
X101738937Y-87246376D01*
X101863500Y-87462126D01*
X102015160Y-87659774D01*
X102015166Y-87659781D01*
X102191318Y-87835933D01*
X102191325Y-87835939D01*
X102388973Y-87987599D01*
X102604723Y-88112162D01*
X102604738Y-88112169D01*
X102703925Y-88153253D01*
X102834893Y-88207502D01*
X103075535Y-88271982D01*
X103169140Y-88284305D01*
X103233035Y-88312570D01*
X103240635Y-88319562D01*
X107378381Y-92457308D01*
X107411866Y-92518631D01*
X107414700Y-92544989D01*
X107414700Y-100070300D01*
X107395015Y-100137339D01*
X107342211Y-100183094D01*
X107290700Y-100194300D01*
X104655616Y-100194300D01*
X104588577Y-100174615D01*
X104580141Y-100168684D01*
X104505227Y-100111201D01*
X104505222Y-100111197D01*
X104289476Y-99986637D01*
X104289461Y-99986630D01*
X104059307Y-99891298D01*
X103818661Y-99826817D01*
X103571675Y-99794301D01*
X103571670Y-99794300D01*
X103571665Y-99794300D01*
X103322535Y-99794300D01*
X103322529Y-99794300D01*
X103322524Y-99794301D01*
X103075538Y-99826817D01*
X102834892Y-99891298D01*
X102604738Y-99986630D01*
X102604723Y-99986637D01*
X102388973Y-100111200D01*
X102191325Y-100262860D01*
X102191318Y-100262866D01*
X102015166Y-100439018D01*
X102015160Y-100439025D01*
X101863500Y-100636673D01*
X101738937Y-100852423D01*
X101738930Y-100852438D01*
X101643598Y-101082592D01*
X101579117Y-101323238D01*
X101546601Y-101570224D01*
X101546600Y-101570241D01*
X101546600Y-101819358D01*
X101546601Y-101819375D01*
X101579117Y-102066361D01*
X101643598Y-102307007D01*
X101738930Y-102537161D01*
X101738937Y-102537176D01*
X101863500Y-102752926D01*
X102015160Y-102950574D01*
X102015166Y-102950581D01*
X102191318Y-103126733D01*
X102191325Y-103126739D01*
X102388973Y-103278399D01*
X102604723Y-103402962D01*
X102604738Y-103402969D01*
X102703925Y-103444053D01*
X102834893Y-103498302D01*
X103075535Y-103562782D01*
X103322535Y-103595300D01*
X103322542Y-103595300D01*
X103571658Y-103595300D01*
X103571665Y-103595300D01*
X103818665Y-103562782D01*
X104059307Y-103498302D01*
X104289473Y-103402964D01*
X104505227Y-103278399D01*
X104580131Y-103220923D01*
X104645299Y-103195730D01*
X104655616Y-103195300D01*
X107290700Y-103195300D01*
X107357739Y-103214985D01*
X107403494Y-103267789D01*
X107414700Y-103319300D01*
X107414700Y-110782310D01*
X107395015Y-110849349D01*
X107378381Y-110869991D01*
X103120735Y-115127636D01*
X103059412Y-115161121D01*
X103049240Y-115162894D01*
X102955638Y-115175217D01*
X102714992Y-115239698D01*
X102484838Y-115335030D01*
X102484823Y-115335037D01*
X102269073Y-115459600D01*
X102071425Y-115611260D01*
X102071418Y-115611266D01*
X101895266Y-115787418D01*
X101895260Y-115787425D01*
X101743600Y-115985073D01*
X101619037Y-116200823D01*
X101619030Y-116200838D01*
X101523698Y-116430992D01*
X101459217Y-116671638D01*
X101426701Y-116918624D01*
X101426700Y-116918641D01*
X101426700Y-117167758D01*
X101426701Y-117167775D01*
X101459217Y-117414761D01*
X101523698Y-117655407D01*
X101619030Y-117885561D01*
X101619037Y-117885576D01*
X101743600Y-118101326D01*
X101895260Y-118298974D01*
X101895266Y-118298981D01*
X102071418Y-118475133D01*
X102071425Y-118475139D01*
X102269073Y-118626799D01*
X102484823Y-118751362D01*
X102484838Y-118751369D01*
X102584025Y-118792453D01*
X102714993Y-118846702D01*
X102955635Y-118911182D01*
X103202635Y-118943700D01*
X103202642Y-118943700D01*
X103451758Y-118943700D01*
X103451765Y-118943700D01*
X103698765Y-118911182D01*
X103939407Y-118846702D01*
X104169573Y-118751364D01*
X104385327Y-118626799D01*
X104582976Y-118475138D01*
X104759138Y-118298976D01*
X104910799Y-118101327D01*
X105035364Y-117885573D01*
X105130702Y-117655407D01*
X105195182Y-117414765D01*
X105207505Y-117321157D01*
X105235769Y-117257263D01*
X105242750Y-117249675D01*
X110059717Y-112432710D01*
X110198543Y-112241634D01*
X110305768Y-112031192D01*
X110310748Y-112015865D01*
X110378753Y-111806568D01*
X110380696Y-111794302D01*
X110415700Y-111573297D01*
X110415700Y-103319300D01*
X110435385Y-103252261D01*
X110488189Y-103206506D01*
X110539700Y-103195300D01*
X133271697Y-103195300D01*
X133504968Y-103158353D01*
X133729592Y-103085368D01*
X133940034Y-102978143D01*
X134131110Y-102839317D01*
X139625317Y-97345110D01*
X139764143Y-97154034D01*
X139871368Y-96943593D01*
X139895456Y-96869457D01*
X139944353Y-96718968D01*
X139981300Y-96485697D01*
X139981300Y-92388702D01*
X139944353Y-92155431D01*
X139871366Y-91930803D01*
X139832466Y-91854459D01*
X139764143Y-91720367D01*
X139733004Y-91677508D01*
X139625318Y-91529290D01*
X136715110Y-88619083D01*
X136524034Y-88480257D01*
X136507536Y-88471851D01*
X136313596Y-88373033D01*
X136088968Y-88300046D01*
X135855697Y-88263100D01*
X135855692Y-88263100D01*
X132498889Y-88263100D01*
X132431850Y-88243415D01*
X132411208Y-88226781D01*
X131178419Y-86993992D01*
X131144934Y-86932669D01*
X131142100Y-86906311D01*
X131142100Y-85102488D01*
X131161785Y-85035449D01*
X131178414Y-85014811D01*
X132047419Y-84145806D01*
X132108742Y-84112322D01*
X132178434Y-84117306D01*
X132234367Y-84159178D01*
X132258784Y-84224642D01*
X132259100Y-84233488D01*
X132259100Y-86090015D01*
X132269600Y-86192795D01*
X132269601Y-86192797D01*
X132276504Y-86213629D01*
X132324786Y-86359335D01*
X132324787Y-86359337D01*
X132416886Y-86508651D01*
X132416889Y-86508655D01*
X132540944Y-86632710D01*
X132540948Y-86632713D01*
X132690262Y-86724812D01*
X132690264Y-86724813D01*
X132690266Y-86724814D01*
X132856803Y-86779999D01*
X132959592Y-86790500D01*
X132959597Y-86790500D01*
X134959603Y-86790500D01*
X134959608Y-86790500D01*
X135062397Y-86779999D01*
X135228934Y-86724814D01*
X135378255Y-86632711D01*
X135384147Y-86626819D01*
X135445470Y-86593334D01*
X135471828Y-86590500D01*
X136334711Y-86590500D01*
X136401750Y-86610185D01*
X136422392Y-86626819D01*
X141007981Y-91212408D01*
X141041466Y-91273731D01*
X141044300Y-91300089D01*
X141044300Y-98270897D01*
X141081246Y-98504168D01*
X141154233Y-98728796D01*
X141217604Y-98853168D01*
X141261457Y-98939234D01*
X141400283Y-99130310D01*
X155326890Y-113056917D01*
X155517966Y-113195743D01*
X155617392Y-113246403D01*
X155728403Y-113302966D01*
X155728405Y-113302966D01*
X155728408Y-113302968D01*
X155848812Y-113342089D01*
X155953031Y-113375953D01*
X156186303Y-113412900D01*
X156186308Y-113412900D01*
X156422497Y-113412900D01*
X156655768Y-113375953D01*
X156664515Y-113373111D01*
X156880392Y-113302968D01*
X157090834Y-113195743D01*
X157281910Y-113056917D01*
X157448917Y-112889910D01*
X157587743Y-112698834D01*
X157694968Y-112488392D01*
X157767953Y-112263768D01*
X157771459Y-112241634D01*
X157804900Y-112030497D01*
X157804900Y-111794302D01*
X157767953Y-111561031D01*
X157694966Y-111336403D01*
X157587742Y-111125965D01*
X157448917Y-110934890D01*
X144081619Y-97567592D01*
X144048134Y-97506269D01*
X144045300Y-97479911D01*
X144045300Y-90509102D01*
X144008353Y-90275831D01*
X143935366Y-90051203D01*
X143885740Y-89953808D01*
X143885739Y-89953807D01*
X143828143Y-89840766D01*
X143689317Y-89649690D01*
X137985110Y-83945483D01*
X137794034Y-83806657D01*
X137583596Y-83699433D01*
X137358968Y-83626446D01*
X137125697Y-83589500D01*
X137125692Y-83589500D01*
X135471828Y-83589500D01*
X135404789Y-83569815D01*
X135384147Y-83553181D01*
X135378255Y-83547289D01*
X135378251Y-83547286D01*
X135228937Y-83455187D01*
X135228935Y-83455186D01*
X135118507Y-83418594D01*
X135062397Y-83400001D01*
X135062395Y-83400000D01*
X134959615Y-83389500D01*
X134959608Y-83389500D01*
X133103088Y-83389500D01*
X133036049Y-83369815D01*
X132990294Y-83317011D01*
X132980350Y-83247853D01*
X133009375Y-83184297D01*
X133015407Y-83177819D01*
X133833608Y-82359619D01*
X133894931Y-82326134D01*
X133921289Y-82323300D01*
X137655511Y-82323300D01*
X137722550Y-82342985D01*
X137743192Y-82359619D01*
X147764381Y-92380808D01*
X147797866Y-92442131D01*
X147800700Y-92468489D01*
X147800700Y-93500315D01*
X147784088Y-93562314D01*
X147772794Y-93581875D01*
X147772792Y-93581880D01*
X147687493Y-93787809D01*
X147687490Y-93787819D01*
X147672188Y-93844929D01*
X147629797Y-94003134D01*
X147629794Y-94003147D01*
X147600701Y-94224133D01*
X147600700Y-94224149D01*
X147600700Y-94447050D01*
X147600701Y-94447066D01*
X147629794Y-94668052D01*
X147629795Y-94668057D01*
X147629796Y-94668063D01*
X147629797Y-94668065D01*
X147687490Y-94883380D01*
X147687493Y-94883390D01*
X147772793Y-95089322D01*
X147772795Y-95089326D01*
X147884252Y-95282374D01*
X147884257Y-95282380D01*
X147884258Y-95282382D01*
X148019951Y-95459222D01*
X148019957Y-95459229D01*
X148177570Y-95616842D01*
X148177577Y-95616848D01*
X148279051Y-95694711D01*
X148354426Y-95752548D01*
X148547474Y-95864005D01*
X148582012Y-95878311D01*
X148719180Y-95935128D01*
X148753419Y-95949310D01*
X148968737Y-96007004D01*
X149189743Y-96036100D01*
X149189750Y-96036100D01*
X149412650Y-96036100D01*
X149412657Y-96036100D01*
X149633663Y-96007004D01*
X149848981Y-95949310D01*
X150054926Y-95864005D01*
X150074485Y-95852712D01*
X150136484Y-95836100D01*
X153087697Y-95836100D01*
X153320968Y-95799153D01*
X153545592Y-95726168D01*
X153756034Y-95618943D01*
X153947110Y-95480117D01*
X158903019Y-90524208D01*
X158964342Y-90490723D01*
X159034034Y-90495707D01*
X159089967Y-90537579D01*
X159114384Y-90603043D01*
X159114700Y-90611889D01*
X159114700Y-90936848D01*
X159095015Y-91003887D01*
X159046995Y-91047333D01*
X159031978Y-91054984D01*
X159031974Y-91054986D01*
X158853641Y-91184552D01*
X158853636Y-91184556D01*
X158697756Y-91340436D01*
X158697752Y-91340441D01*
X158568187Y-91518774D01*
X158468104Y-91715193D01*
X158468103Y-91715196D01*
X158399985Y-91924847D01*
X158399985Y-91924849D01*
X158365500Y-92142578D01*
X158365500Y-92363022D01*
X158382204Y-92468489D01*
X158399985Y-92580752D01*
X158468103Y-92790403D01*
X158468104Y-92790406D01*
X158568187Y-92986825D01*
X158697752Y-93165158D01*
X158697756Y-93165163D01*
X158747928Y-93215335D01*
X158781413Y-93276658D01*
X158776429Y-93346350D01*
X158734557Y-93402283D01*
X158703581Y-93419198D01*
X158623669Y-93449003D01*
X158623664Y-93449006D01*
X158508455Y-93535252D01*
X158508452Y-93535255D01*
X158422206Y-93650464D01*
X158422202Y-93650471D01*
X158371908Y-93785317D01*
X158365501Y-93844916D01*
X158365501Y-93844923D01*
X158365500Y-93844935D01*
X158365500Y-95740670D01*
X158365501Y-95740676D01*
X158371908Y-95800283D01*
X158422202Y-95935128D01*
X158422206Y-95935135D01*
X158508452Y-96050344D01*
X158508455Y-96050347D01*
X158623664Y-96136593D01*
X158623671Y-96136597D01*
X158668618Y-96153361D01*
X158758517Y-96186891D01*
X158818127Y-96193300D01*
X159041500Y-96193299D01*
X159108539Y-96212983D01*
X159154294Y-96265787D01*
X159165500Y-96317299D01*
X159165500Y-98240116D01*
X159145815Y-98307155D01*
X159114386Y-98340434D01*
X159034725Y-98398311D01*
X158901112Y-98531924D01*
X158901112Y-98531925D01*
X158901110Y-98531927D01*
X158853410Y-98597579D01*
X158790040Y-98684800D01*
X158704254Y-98853163D01*
X158645859Y-99032881D01*
X158616300Y-99219513D01*
X158616300Y-99408486D01*
X158645859Y-99595118D01*
X158704254Y-99774836D01*
X158763595Y-99891298D01*
X158790040Y-99943199D01*
X158901110Y-100096073D01*
X159034727Y-100229690D01*
X159187601Y-100340760D01*
X159267147Y-100381290D01*
X159355963Y-100426545D01*
X159355965Y-100426545D01*
X159355968Y-100426547D01*
X159452297Y-100457846D01*
X159535681Y-100484940D01*
X159722314Y-100514500D01*
X159722319Y-100514500D01*
X159911286Y-100514500D01*
X160097918Y-100484940D01*
X160103990Y-100482967D01*
X160277632Y-100426547D01*
X160445999Y-100340760D01*
X160598873Y-100229690D01*
X160732490Y-100096073D01*
X160843560Y-99943199D01*
X160929347Y-99774832D01*
X160987740Y-99595118D01*
X161006177Y-99478710D01*
X161017300Y-99408486D01*
X161017300Y-99219513D01*
X160987740Y-99032881D01*
X160929345Y-98853163D01*
X160884090Y-98764347D01*
X160843560Y-98684801D01*
X160732490Y-98531927D01*
X160598873Y-98398310D01*
X160473410Y-98307155D01*
X160445998Y-98287239D01*
X160434201Y-98281228D01*
X160383407Y-98233251D01*
X160366500Y-98170745D01*
X160366500Y-96317299D01*
X160386185Y-96250260D01*
X160438989Y-96204505D01*
X160490500Y-96193299D01*
X160713871Y-96193299D01*
X160713872Y-96193299D01*
X160773483Y-96186891D01*
X160908331Y-96136596D01*
X161023546Y-96050346D01*
X161109796Y-95935131D01*
X161160091Y-95800283D01*
X161166500Y-95740673D01*
X161166499Y-93844928D01*
X161160091Y-93785317D01*
X161109796Y-93650469D01*
X161109795Y-93650468D01*
X161109793Y-93650464D01*
X161023547Y-93535255D01*
X161023544Y-93535252D01*
X160908335Y-93449006D01*
X160908328Y-93449002D01*
X160828419Y-93419198D01*
X160772485Y-93377327D01*
X160748068Y-93311862D01*
X160762920Y-93243589D01*
X160784069Y-93215337D01*
X160834242Y-93165165D01*
X160963815Y-92986822D01*
X161063895Y-92790406D01*
X161132015Y-92580751D01*
X161166500Y-92363022D01*
X161166500Y-92142578D01*
X161132015Y-91924849D01*
X161076506Y-91754008D01*
X161063896Y-91715196D01*
X161063895Y-91715193D01*
X160972311Y-91535453D01*
X160963815Y-91518778D01*
X160947260Y-91495992D01*
X160834247Y-91340441D01*
X160834243Y-91340436D01*
X160678363Y-91184556D01*
X160678358Y-91184552D01*
X160500023Y-91054985D01*
X160383404Y-90995563D01*
X160332608Y-90947588D01*
X160315700Y-90885079D01*
X160315700Y-89162889D01*
X160335385Y-89095850D01*
X160352019Y-89075208D01*
X160391594Y-89035633D01*
X160859717Y-88567510D01*
X160998543Y-88376434D01*
X161105768Y-88165992D01*
X161178753Y-87941368D01*
X161180464Y-87930568D01*
X161215700Y-87708097D01*
X161215700Y-87471902D01*
X161178753Y-87238631D01*
X161121654Y-87062900D01*
X161105768Y-87014008D01*
X161105766Y-87014005D01*
X161105766Y-87014003D01*
X160998542Y-86803564D01*
X160986788Y-86787387D01*
X160963307Y-86721581D01*
X160979131Y-86653527D01*
X161029236Y-86604831D01*
X161087105Y-86590500D01*
X162627297Y-86590500D01*
X162860568Y-86553553D01*
X163085192Y-86480568D01*
X163295634Y-86373343D01*
X163486710Y-86234517D01*
X165775419Y-83945808D01*
X165836742Y-83912323D01*
X165906434Y-83917307D01*
X165962367Y-83959179D01*
X165986784Y-84024643D01*
X165987100Y-84033489D01*
X165987100Y-98619297D01*
X166024046Y-98852568D01*
X166097033Y-99077196D01*
X166204257Y-99287634D01*
X166343084Y-99478711D01*
X169513181Y-102648808D01*
X169546666Y-102710131D01*
X169549500Y-102736489D01*
X169549500Y-103663615D01*
X169560000Y-103766395D01*
X169560001Y-103766396D01*
X169615186Y-103932935D01*
X169615187Y-103932937D01*
X169707286Y-104082251D01*
X169707289Y-104082255D01*
X169831344Y-104206310D01*
X169831348Y-104206313D01*
X169980662Y-104298412D01*
X169980664Y-104298413D01*
X169980666Y-104298414D01*
X170147203Y-104353599D01*
X170249992Y-104364100D01*
X170249997Y-104364100D01*
X172650003Y-104364100D01*
X172650008Y-104364100D01*
X172752797Y-104353599D01*
X172834497Y-104326525D01*
X172904324Y-104324124D01*
X172964366Y-104359856D01*
X172995559Y-104422376D01*
X172997500Y-104444232D01*
X172997500Y-113373111D01*
X172977815Y-113440150D01*
X172961181Y-113460792D01*
X171163192Y-115258781D01*
X171101869Y-115292266D01*
X171075511Y-115295100D01*
X170148384Y-115295100D01*
X170045604Y-115305600D01*
X170045603Y-115305601D01*
X169879064Y-115360786D01*
X169879062Y-115360787D01*
X169729748Y-115452886D01*
X169729744Y-115452889D01*
X169605689Y-115576944D01*
X169605686Y-115576948D01*
X169569141Y-115636197D01*
X169517193Y-115682922D01*
X169463603Y-115695100D01*
X164981903Y-115695100D01*
X164748631Y-115732046D01*
X164524003Y-115805033D01*
X164313563Y-115912259D01*
X164122496Y-116051076D01*
X164122491Y-116051080D01*
X159587192Y-120586381D01*
X159525869Y-120619866D01*
X159499511Y-120622700D01*
X147942090Y-120622700D01*
X147875051Y-120603015D01*
X147854409Y-120586381D01*
X135535912Y-108267885D01*
X135535911Y-108267884D01*
X135344834Y-108129057D01*
X135134396Y-108021833D01*
X134909768Y-107948846D01*
X134676497Y-107911900D01*
X134676492Y-107911900D01*
X117186308Y-107911900D01*
X117186303Y-107911900D01*
X116953031Y-107948846D01*
X116728403Y-108021833D01*
X116517966Y-108129057D01*
X116408950Y-108208262D01*
X116326890Y-108267883D01*
X116326888Y-108267885D01*
X116326887Y-108267885D01*
X116159885Y-108434887D01*
X116159885Y-108434888D01*
X116159883Y-108434890D01*
X116100262Y-108516950D01*
X116021057Y-108625966D01*
X115913833Y-108836403D01*
X115840846Y-109061031D01*
X115803900Y-109294302D01*
X115803900Y-109530497D01*
X115840846Y-109763768D01*
X115913833Y-109988396D01*
X116021057Y-110198833D01*
X116159883Y-110389910D01*
X116326890Y-110556917D01*
X116517967Y-110695743D01*
X116617391Y-110746402D01*
X116728403Y-110802966D01*
X116728405Y-110802966D01*
X116728408Y-110802968D01*
X116822908Y-110833673D01*
X116953031Y-110875953D01*
X117186303Y-110912900D01*
X117186308Y-110912900D01*
X133885511Y-110912900D01*
X133952550Y-110932585D01*
X133973192Y-110949219D01*
X146291691Y-123267719D01*
X146291696Y-123267723D01*
X146458355Y-123388806D01*
X146482767Y-123406543D01*
X146616859Y-123474866D01*
X146693203Y-123513766D01*
X146693205Y-123513766D01*
X146693208Y-123513768D01*
X146813612Y-123552889D01*
X146917831Y-123586753D01*
X147151103Y-123623700D01*
X147151108Y-123623700D01*
X160290497Y-123623700D01*
X160523768Y-123586753D01*
X160748392Y-123513768D01*
X160958834Y-123406543D01*
X161149910Y-123267717D01*
X165685209Y-118732419D01*
X165746532Y-118698934D01*
X165772890Y-118696100D01*
X169463603Y-118696100D01*
X169530642Y-118715785D01*
X169569141Y-118755003D01*
X169605686Y-118814251D01*
X169605689Y-118814255D01*
X169729744Y-118938310D01*
X169729748Y-118938313D01*
X169879062Y-119030412D01*
X169879064Y-119030413D01*
X169879066Y-119030414D01*
X170045603Y-119085599D01*
X170148392Y-119096100D01*
X170148397Y-119096100D01*
X172548403Y-119096100D01*
X172548408Y-119096100D01*
X172651197Y-119085599D01*
X172817734Y-119030414D01*
X172967055Y-118938311D01*
X173091111Y-118814255D01*
X173183214Y-118664934D01*
X173238399Y-118498397D01*
X173248900Y-118395608D01*
X173248900Y-117468489D01*
X173268585Y-117401450D01*
X173285219Y-117380808D01*
X174235035Y-116430992D01*
X175642517Y-115023510D01*
X175652782Y-115009380D01*
X175708110Y-114966715D01*
X175777724Y-114960735D01*
X175839519Y-114993341D01*
X175873877Y-115054179D01*
X175877100Y-115082266D01*
X175877100Y-130185500D01*
X175857415Y-130252539D01*
X175804611Y-130298294D01*
X175753100Y-130309500D01*
X99176500Y-130309500D01*
X99109461Y-130289815D01*
X99063706Y-130237011D01*
X99052500Y-130185500D01*
X99052500Y-84362384D01*
X119000300Y-84362384D01*
X119000300Y-86362415D01*
X119010800Y-86465195D01*
X119010801Y-86465197D01*
X119038393Y-86548465D01*
X119065986Y-86631735D01*
X119065987Y-86631737D01*
X119158086Y-86781051D01*
X119158089Y-86781055D01*
X119282144Y-86905110D01*
X119282148Y-86905113D01*
X119431462Y-86997212D01*
X119431464Y-86997213D01*
X119431466Y-86997214D01*
X119598003Y-87052399D01*
X119700792Y-87062900D01*
X120227911Y-87062900D01*
X120294950Y-87082585D01*
X120315592Y-87099219D01*
X128696490Y-95480117D01*
X128887566Y-95618943D01*
X129098008Y-95726168D01*
X129322631Y-95799153D01*
X129410109Y-95813008D01*
X129555903Y-95836100D01*
X129555908Y-95836100D01*
X129792092Y-95836100D01*
X132548972Y-95836100D01*
X132616011Y-95855785D01*
X132636653Y-95872419D01*
X132642544Y-95878310D01*
X132642548Y-95878313D01*
X132791862Y-95970412D01*
X132791864Y-95970413D01*
X132791866Y-95970414D01*
X132958403Y-96025599D01*
X133061192Y-96036100D01*
X133061197Y-96036100D01*
X135061203Y-96036100D01*
X135061208Y-96036100D01*
X135163997Y-96025599D01*
X135330534Y-95970414D01*
X135479855Y-95878311D01*
X135603911Y-95754255D01*
X135696014Y-95604934D01*
X135751199Y-95438397D01*
X135761700Y-95335608D01*
X135761700Y-93335592D01*
X135751199Y-93232803D01*
X135696014Y-93066266D01*
X135603911Y-92916945D01*
X135479855Y-92792889D01*
X135479851Y-92792886D01*
X135330537Y-92700787D01*
X135330535Y-92700786D01*
X135247265Y-92673193D01*
X135163997Y-92645601D01*
X135163995Y-92645600D01*
X135061215Y-92635100D01*
X135061208Y-92635100D01*
X133061192Y-92635100D01*
X133061184Y-92635100D01*
X132958404Y-92645600D01*
X132958403Y-92645601D01*
X132791864Y-92700786D01*
X132791862Y-92700787D01*
X132642548Y-92792886D01*
X132642544Y-92792889D01*
X132636653Y-92798781D01*
X132575330Y-92832266D01*
X132548972Y-92835100D01*
X130346889Y-92835100D01*
X130279850Y-92815415D01*
X130259208Y-92798781D01*
X122910508Y-85450081D01*
X122877023Y-85388758D01*
X122882007Y-85319066D01*
X122910508Y-85274719D01*
X133541609Y-74643619D01*
X133602932Y-74610134D01*
X133629290Y-74607300D01*
X159496097Y-74607300D01*
X159729368Y-74570353D01*
X159953992Y-74497368D01*
X160164433Y-74390143D01*
X160355510Y-74251317D01*
X160522517Y-74084310D01*
X160661343Y-73893233D01*
X160768568Y-73682792D01*
X160841553Y-73458168D01*
X160863698Y-73318350D01*
X160878500Y-73224897D01*
X160878500Y-72988702D01*
X160841553Y-72755431D01*
X160774493Y-72549044D01*
X160768568Y-72530808D01*
X160768566Y-72530805D01*
X160768566Y-72530803D01*
X160682114Y-72361132D01*
X160661343Y-72320367D01*
X160522517Y-72129290D01*
X160355510Y-71962283D01*
X160164433Y-71823457D01*
X159953996Y-71716233D01*
X159729368Y-71643246D01*
X159496097Y-71606300D01*
X159496092Y-71606300D01*
X133074492Y-71606300D01*
X132838308Y-71606300D01*
X132838303Y-71606300D01*
X132605031Y-71643246D01*
X132380403Y-71716233D01*
X132169963Y-71823459D01*
X131978896Y-71962276D01*
X131978891Y-71962280D01*
X120315592Y-83625581D01*
X120254269Y-83659066D01*
X120227911Y-83661900D01*
X119700784Y-83661900D01*
X119598004Y-83672400D01*
X119598003Y-83672401D01*
X119431464Y-83727586D01*
X119431462Y-83727587D01*
X119282148Y-83819686D01*
X119282144Y-83819689D01*
X119158089Y-83943744D01*
X119158086Y-83943748D01*
X119065987Y-84093062D01*
X119065986Y-84093064D01*
X119010801Y-84259603D01*
X119010800Y-84259604D01*
X119000300Y-84362384D01*
X99052500Y-84362384D01*
X99052500Y-72992446D01*
X101925000Y-72992446D01*
X101925000Y-73221154D01*
X101942878Y-73334027D01*
X101960778Y-73447046D01*
X101960778Y-73447049D01*
X102031450Y-73664555D01*
X102135283Y-73868338D01*
X102269714Y-74053366D01*
X102431434Y-74215086D01*
X102616462Y-74349517D01*
X102820242Y-74453348D01*
X102820244Y-74453349D01*
X103037751Y-74524021D01*
X103037752Y-74524021D01*
X103037755Y-74524022D01*
X103263646Y-74559800D01*
X103263647Y-74559800D01*
X103492353Y-74559800D01*
X103492354Y-74559800D01*
X103718245Y-74524022D01*
X103718248Y-74524021D01*
X103718249Y-74524021D01*
X103935755Y-74453349D01*
X103935755Y-74453348D01*
X103935758Y-74453348D01*
X104139538Y-74349517D01*
X104324566Y-74215086D01*
X104486286Y-74053366D01*
X104620717Y-73868338D01*
X104724548Y-73664558D01*
X104795222Y-73447045D01*
X104831000Y-73221154D01*
X104831000Y-72992446D01*
X104795222Y-72766555D01*
X104795221Y-72766551D01*
X104795221Y-72766550D01*
X104724549Y-72549044D01*
X104620716Y-72345261D01*
X104486286Y-72160234D01*
X104324566Y-71998514D01*
X104139538Y-71864083D01*
X104059805Y-71823457D01*
X103935755Y-71760250D01*
X103718248Y-71689578D01*
X103548826Y-71662744D01*
X103492354Y-71653800D01*
X103263646Y-71653800D01*
X103188349Y-71665726D01*
X103037753Y-71689578D01*
X103037750Y-71689578D01*
X102820244Y-71760250D01*
X102616461Y-71864083D01*
X102613578Y-71866178D01*
X102431434Y-71998514D01*
X102431432Y-71998516D01*
X102431431Y-71998516D01*
X102269716Y-72160231D01*
X102269716Y-72160232D01*
X102269714Y-72160234D01*
X102211980Y-72239696D01*
X102135283Y-72345261D01*
X102031450Y-72549044D01*
X101960778Y-72766550D01*
X101960778Y-72766553D01*
X101960778Y-72766555D01*
X101925000Y-72992446D01*
X99052500Y-72992446D01*
X99052500Y-66992446D01*
X101925000Y-66992446D01*
X101925000Y-67221153D01*
X101960778Y-67447046D01*
X101960778Y-67447049D01*
X102031450Y-67664555D01*
X102031452Y-67664558D01*
X102135283Y-67868338D01*
X102269714Y-68053366D01*
X102431434Y-68215086D01*
X102616462Y-68349517D01*
X102804392Y-68445272D01*
X102820244Y-68453349D01*
X103037751Y-68524021D01*
X103037752Y-68524021D01*
X103037755Y-68524022D01*
X103263646Y-68559800D01*
X103263647Y-68559800D01*
X103492353Y-68559800D01*
X103492354Y-68559800D01*
X103718245Y-68524022D01*
X103718248Y-68524021D01*
X103718249Y-68524021D01*
X103935755Y-68453349D01*
X103935755Y-68453348D01*
X103935758Y-68453348D01*
X104139538Y-68349517D01*
X104324566Y-68215086D01*
X104486286Y-68053366D01*
X104620717Y-67868338D01*
X104724548Y-67664558D01*
X104788806Y-67466792D01*
X104795221Y-67447049D01*
X104795221Y-67447048D01*
X104795222Y-67447045D01*
X104831000Y-67221154D01*
X104831000Y-66992446D01*
X104795222Y-66766555D01*
X104795221Y-66766551D01*
X104795221Y-66766550D01*
X104724549Y-66549044D01*
X104620716Y-66345261D01*
X104486286Y-66160234D01*
X104324566Y-65998514D01*
X104139538Y-65864083D01*
X103935755Y-65760250D01*
X103718248Y-65689578D01*
X103548826Y-65662744D01*
X103492354Y-65653800D01*
X103263646Y-65653800D01*
X103188349Y-65665726D01*
X103037753Y-65689578D01*
X103037750Y-65689578D01*
X102820244Y-65760250D01*
X102616461Y-65864083D01*
X102510896Y-65940780D01*
X102431434Y-65998514D01*
X102431432Y-65998516D01*
X102431431Y-65998516D01*
X102269716Y-66160231D01*
X102269716Y-66160232D01*
X102269714Y-66160234D01*
X102211980Y-66239696D01*
X102135283Y-66345261D01*
X102031450Y-66549044D01*
X101960778Y-66766550D01*
X101960778Y-66766553D01*
X101925000Y-66992446D01*
X99052500Y-66992446D01*
X99052500Y-46852500D01*
X99072185Y-46785461D01*
X99124989Y-46739706D01*
X99176500Y-46728500D01*
X175753100Y-46728500D01*
X175820139Y-46748185D01*
G37*
%TD.AperFunction*%
%TD*%
M02*
