%TF.GenerationSoftware,KiCad,Pcbnew,9.0.8*%
%TF.CreationDate,2026-04-17T15:59:27+02:00*%
%TF.ProjectId,intercons2,696e7465-7263-46f6-9e73-322e6b696361,rev?*%
%TF.SameCoordinates,Original*%
%TF.FileFunction,Copper,L2,Bot*%
%TF.FilePolarity,Positive*%
%FSLAX46Y46*%
G04 Gerber Fmt 4.6, Leading zero omitted, Abs format (unit mm)*
G04 Created by KiCad (PCBNEW 9.0.8) date 2026-04-17 15:59:27*
%MOMM*%
%LPD*%
G01*
G04 APERTURE LIST*
G04 Aperture macros list*
%AMRoundRect*
0 Rectangle with rounded corners*
0 $1 Rounding radius*
0 $2 $3 $4 $5 $6 $7 $8 $9 X,Y pos of 4 corners*
0 Add a 4 corners polygon primitive as box body*
4,1,4,$2,$3,$4,$5,$6,$7,$8,$9,$2,$3,0*
0 Add four circle primitives for the rounded corners*
1,1,$1+$1,$2,$3*
1,1,$1+$1,$4,$5*
1,1,$1+$1,$6,$7*
1,1,$1+$1,$8,$9*
0 Add four rect primitives between the rounded corners*
20,1,$1+$1,$2,$3,$4,$5,0*
20,1,$1+$1,$4,$5,$6,$7,0*
20,1,$1+$1,$6,$7,$8,$9,0*
20,1,$1+$1,$8,$9,$2,$3,0*%
G04 Aperture macros list end*
%TA.AperFunction,ComponentPad*%
%ADD10C,1.905000*%
%TD*%
%TA.AperFunction,ComponentPad*%
%ADD11RoundRect,0.250001X-0.949999X0.949999X-0.949999X-0.949999X0.949999X-0.949999X0.949999X0.949999X0*%
%TD*%
%TA.AperFunction,ComponentPad*%
%ADD12C,2.400000*%
%TD*%
%TA.AperFunction,ComponentPad*%
%ADD13C,1.400000*%
%TD*%
%TA.AperFunction,ComponentPad*%
%ADD14RoundRect,0.250001X1.149999X-1.149999X1.149999X1.149999X-1.149999X1.149999X-1.149999X-1.149999X0*%
%TD*%
%TA.AperFunction,ComponentPad*%
%ADD15C,2.800000*%
%TD*%
%TA.AperFunction,ComponentPad*%
%ADD16RoundRect,0.250001X-0.949999X-0.949999X0.949999X-0.949999X0.949999X0.949999X-0.949999X0.949999X0*%
%TD*%
%TA.AperFunction,ComponentPad*%
%ADD17RoundRect,0.250001X-1.149999X1.149999X-1.149999X-1.149999X1.149999X-1.149999X1.149999X1.149999X0*%
%TD*%
%TA.AperFunction,ComponentPad*%
%ADD18R,1.800000X1.800000*%
%TD*%
%TA.AperFunction,ComponentPad*%
%ADD19C,1.800000*%
%TD*%
G04 APERTURE END LIST*
D10*
%TO.P,A1,1,Vin+*%
%TO.N,Net-(A1-Vin+)*%
X156304400Y-111912400D03*
%TO.P,A1,2,Vin-*%
%TO.N,GND*%
X156304400Y-116912400D03*
%TO.P,A1,3,Bat-*%
X117304400Y-114412400D03*
%TO.P,A1,4,Bat+*%
%TO.N,Net-(A1-Bat+)*%
X117304400Y-109412400D03*
%TD*%
D11*
%TO.P,C1,1*%
%TO.N,Net-(D2-K)*%
X120700800Y-85362400D03*
D12*
%TO.P,C1,2*%
%TO.N,GND*%
X120700800Y-92862400D03*
%TD*%
D13*
%TO.P,R1,1*%
%TO.N,Net-(D3-K)*%
X159816800Y-99314000D03*
%TO.P,R1,2*%
%TO.N,GND*%
X152196800Y-99314000D03*
%TD*%
D10*
%TO.P,U1,1,DC-*%
%TO.N,GND*%
X116235000Y-54776600D03*
%TO.P,U1,2,DC+*%
%TO.N,Net-(D1-A)*%
X116235000Y-59776600D03*
%TO.P,U1,3,BAT+*%
%TO.N,Net-(A1-Bat+)*%
X116235000Y-67776600D03*
%TO.P,U1,4,BAT-*%
%TO.N,GND*%
X116235000Y-72776600D03*
%TO.P,U1,5,OUT-*%
X165735000Y-66776600D03*
%TO.P,U1,6,OUT+*%
%TO.N,Net-(SW1-B)*%
X165735000Y-61776600D03*
%TD*%
%TO.P,SW1,1,A*%
%TO.N,Net-(D2-A)*%
X159715200Y-87590000D03*
%TO.P,SW1,2,B*%
%TO.N,Net-(SW1-B)*%
X159715200Y-82590000D03*
%TD*%
D14*
%TO.P,J3,1,Pin_1*%
%TO.N,Net-(D2-K)*%
X104063800Y-68373000D03*
D15*
%TO.P,J3,2,Pin_2*%
%TO.N,GND*%
X104063800Y-63373000D03*
%TD*%
D16*
%TO.P,D1,1,K*%
%TO.N,Net-(A1-Vin+)*%
X133959600Y-85090000D03*
D12*
%TO.P,D1,2,A*%
%TO.N,Net-(D1-A)*%
X149199600Y-85090000D03*
%TD*%
D14*
%TO.P,J4,1,Pin_1*%
%TO.N,GND*%
X103886000Y-91309200D03*
D15*
%TO.P,J4,2,Pin_2*%
%TO.N,Net-(D2-A)*%
X103886000Y-86309200D03*
%TD*%
D17*
%TO.P,J1,1,Pin_1*%
%TO.N,Net-(D1-A)*%
X171196000Y-85826600D03*
D15*
%TO.P,J1,2,Pin_2*%
%TO.N,GND*%
X171196000Y-90826600D03*
%TD*%
D17*
%TO.P,J2,1,Pin_1*%
%TO.N,Net-(A1-Bat+)*%
X171196000Y-101854000D03*
D15*
%TO.P,J2,2,Pin_2*%
%TO.N,GND*%
X171196000Y-106854000D03*
%TD*%
D14*
%TO.P,J5,1,Pin_1*%
%TO.N,GND*%
X103980500Y-115737200D03*
D15*
%TO.P,J5,2,Pin_2*%
%TO.N,Net-(D2-A)*%
X103980500Y-110737200D03*
%TD*%
D16*
%TO.P,D2,1,K*%
%TO.N,Net-(D2-K)*%
X134061200Y-94335600D03*
D12*
%TO.P,D2,2,A*%
%TO.N,Net-(D2-A)*%
X149301200Y-94335600D03*
%TD*%
D18*
%TO.P,D3,1,K*%
%TO.N,Net-(D3-K)*%
X159766000Y-94792800D03*
D19*
%TO.P,D3,2,A*%
%TO.N,Net-(D2-A)*%
X159766000Y-92252800D03*
%TD*%
%TA.AperFunction,Conductor*%
%TO.N,GND*%
G36*
X173381336Y-46728726D02*
G01*
X173671396Y-46746271D01*
X173686259Y-46748076D01*
X173968397Y-46799780D01*
X173982934Y-46803363D01*
X174256782Y-46888698D01*
X174270763Y-46894000D01*
X174532334Y-47011724D01*
X174545587Y-47018680D01*
X174791058Y-47167071D01*
X174803376Y-47175573D01*
X175029173Y-47352474D01*
X175040381Y-47362404D01*
X175243195Y-47565218D01*
X175253125Y-47576426D01*
X175430022Y-47802217D01*
X175438528Y-47814541D01*
X175586919Y-48060012D01*
X175593877Y-48073269D01*
X175703741Y-48317376D01*
X175711594Y-48334823D01*
X175716904Y-48348825D01*
X175802235Y-48622664D01*
X175805819Y-48637202D01*
X175857523Y-48919340D01*
X175859328Y-48934205D01*
X175876874Y-49224263D01*
X175877100Y-49231750D01*
X175877100Y-127806249D01*
X175876874Y-127813736D01*
X175859328Y-128103794D01*
X175857523Y-128118659D01*
X175805819Y-128400797D01*
X175802235Y-128415335D01*
X175716904Y-128689174D01*
X175711594Y-128703176D01*
X175593877Y-128964730D01*
X175586919Y-128977987D01*
X175438528Y-129223458D01*
X175430022Y-129235782D01*
X175253125Y-129461573D01*
X175243195Y-129472781D01*
X175040381Y-129675595D01*
X175029173Y-129685525D01*
X174803382Y-129862422D01*
X174791058Y-129870928D01*
X174545587Y-130019319D01*
X174532330Y-130026277D01*
X174270776Y-130143994D01*
X174256774Y-130149304D01*
X173982935Y-130234635D01*
X173968397Y-130238219D01*
X173686259Y-130289923D01*
X173671394Y-130291728D01*
X173381336Y-130309274D01*
X173373849Y-130309500D01*
X101555751Y-130309500D01*
X101548264Y-130309274D01*
X101258205Y-130291728D01*
X101243340Y-130289923D01*
X100961202Y-130238219D01*
X100946664Y-130234635D01*
X100672825Y-130149304D01*
X100658827Y-130143995D01*
X100506096Y-130075256D01*
X100397269Y-130026277D01*
X100384012Y-130019319D01*
X100138541Y-129870928D01*
X100126217Y-129862422D01*
X99900426Y-129685525D01*
X99889218Y-129675595D01*
X99686404Y-129472781D01*
X99676474Y-129461573D01*
X99499573Y-129235776D01*
X99491071Y-129223458D01*
X99342680Y-128977987D01*
X99335722Y-128964730D01*
X99218000Y-128703163D01*
X99212698Y-128689182D01*
X99127363Y-128415334D01*
X99123780Y-128400797D01*
X99072076Y-128118659D01*
X99070271Y-128103794D01*
X99052726Y-127813736D01*
X99052500Y-127806249D01*
X99052500Y-126862332D01*
X100299500Y-126862332D01*
X100299500Y-127137667D01*
X100299501Y-127137684D01*
X100335438Y-127410655D01*
X100335439Y-127410660D01*
X100335440Y-127410666D01*
X100335441Y-127410668D01*
X100406704Y-127676630D01*
X100512075Y-127931017D01*
X100512080Y-127931028D01*
X100591809Y-128069121D01*
X100649751Y-128169479D01*
X100649753Y-128169482D01*
X100649754Y-128169483D01*
X100817370Y-128387926D01*
X100817376Y-128387933D01*
X101012066Y-128582623D01*
X101012072Y-128582628D01*
X101230521Y-128750249D01*
X101383778Y-128838732D01*
X101468971Y-128887919D01*
X101468976Y-128887921D01*
X101468979Y-128887923D01*
X101723368Y-128993295D01*
X101989334Y-129064560D01*
X102262326Y-129100500D01*
X102262333Y-129100500D01*
X102537667Y-129100500D01*
X102537674Y-129100500D01*
X102810666Y-129064560D01*
X103076632Y-128993295D01*
X103331021Y-128887923D01*
X103569479Y-128750249D01*
X103787928Y-128582628D01*
X103982628Y-128387928D01*
X104150249Y-128169479D01*
X104287923Y-127931021D01*
X104393295Y-127676632D01*
X104464560Y-127410666D01*
X104500500Y-127137674D01*
X104500500Y-126862332D01*
X170399500Y-126862332D01*
X170399500Y-127137667D01*
X170399501Y-127137684D01*
X170435438Y-127410655D01*
X170435439Y-127410660D01*
X170435440Y-127410666D01*
X170435441Y-127410668D01*
X170506704Y-127676630D01*
X170612075Y-127931017D01*
X170612080Y-127931028D01*
X170691809Y-128069121D01*
X170749751Y-128169479D01*
X170749753Y-128169482D01*
X170749754Y-128169483D01*
X170917370Y-128387926D01*
X170917376Y-128387933D01*
X171112066Y-128582623D01*
X171112072Y-128582628D01*
X171330521Y-128750249D01*
X171483778Y-128838732D01*
X171568971Y-128887919D01*
X171568976Y-128887921D01*
X171568979Y-128887923D01*
X171823368Y-128993295D01*
X172089334Y-129064560D01*
X172362326Y-129100500D01*
X172362333Y-129100500D01*
X172637667Y-129100500D01*
X172637674Y-129100500D01*
X172910666Y-129064560D01*
X173176632Y-128993295D01*
X173431021Y-128887923D01*
X173669479Y-128750249D01*
X173887928Y-128582628D01*
X174082628Y-128387928D01*
X174250249Y-128169479D01*
X174387923Y-127931021D01*
X174493295Y-127676632D01*
X174564560Y-127410666D01*
X174600500Y-127137674D01*
X174600500Y-126862326D01*
X174564560Y-126589334D01*
X174493295Y-126323368D01*
X174387923Y-126068979D01*
X174387921Y-126068976D01*
X174387919Y-126068971D01*
X174338732Y-125983778D01*
X174250249Y-125830521D01*
X174082628Y-125612072D01*
X174082623Y-125612066D01*
X173887933Y-125417376D01*
X173887926Y-125417370D01*
X173669483Y-125249754D01*
X173669482Y-125249753D01*
X173669479Y-125249751D01*
X173574407Y-125194861D01*
X173431028Y-125112080D01*
X173431017Y-125112075D01*
X173176630Y-125006704D01*
X173043649Y-124971072D01*
X172910666Y-124935440D01*
X172910660Y-124935439D01*
X172910655Y-124935438D01*
X172637684Y-124899501D01*
X172637679Y-124899500D01*
X172637674Y-124899500D01*
X172362326Y-124899500D01*
X172362320Y-124899500D01*
X172362315Y-124899501D01*
X172089344Y-124935438D01*
X172089337Y-124935439D01*
X172089334Y-124935440D01*
X172033125Y-124950500D01*
X171823369Y-125006704D01*
X171568982Y-125112075D01*
X171568971Y-125112080D01*
X171330516Y-125249754D01*
X171112073Y-125417370D01*
X171112066Y-125417376D01*
X170917376Y-125612066D01*
X170917370Y-125612073D01*
X170749754Y-125830516D01*
X170612080Y-126068971D01*
X170612075Y-126068982D01*
X170506704Y-126323369D01*
X170435441Y-126589331D01*
X170435438Y-126589344D01*
X170399501Y-126862315D01*
X170399500Y-126862332D01*
X104500500Y-126862332D01*
X104500500Y-126862326D01*
X104464560Y-126589334D01*
X104393295Y-126323368D01*
X104287923Y-126068979D01*
X104287921Y-126068976D01*
X104287919Y-126068971D01*
X104238732Y-125983778D01*
X104150249Y-125830521D01*
X103982628Y-125612072D01*
X103982623Y-125612066D01*
X103787933Y-125417376D01*
X103787926Y-125417370D01*
X103569483Y-125249754D01*
X103569482Y-125249753D01*
X103569479Y-125249751D01*
X103474407Y-125194861D01*
X103331028Y-125112080D01*
X103331017Y-125112075D01*
X103076630Y-125006704D01*
X102943649Y-124971072D01*
X102810666Y-124935440D01*
X102810660Y-124935439D01*
X102810655Y-124935438D01*
X102537684Y-124899501D01*
X102537679Y-124899500D01*
X102537674Y-124899500D01*
X102262326Y-124899500D01*
X102262320Y-124899500D01*
X102262315Y-124899501D01*
X101989344Y-124935438D01*
X101989337Y-124935439D01*
X101989334Y-124935440D01*
X101933125Y-124950500D01*
X101723369Y-125006704D01*
X101468982Y-125112075D01*
X101468971Y-125112080D01*
X101230516Y-125249754D01*
X101012073Y-125417370D01*
X101012066Y-125417376D01*
X100817376Y-125612066D01*
X100817370Y-125612073D01*
X100649754Y-125830516D01*
X100512080Y-126068971D01*
X100512075Y-126068982D01*
X100406704Y-126323369D01*
X100335441Y-126589331D01*
X100335438Y-126589344D01*
X100299501Y-126862315D01*
X100299500Y-126862332D01*
X99052500Y-126862332D01*
X99052500Y-110612641D01*
X102080000Y-110612641D01*
X102080000Y-110861758D01*
X102080001Y-110861775D01*
X102112517Y-111108761D01*
X102176998Y-111349407D01*
X102272330Y-111579561D01*
X102272337Y-111579576D01*
X102396900Y-111795326D01*
X102548560Y-111992974D01*
X102548566Y-111992981D01*
X102724718Y-112169133D01*
X102724725Y-112169139D01*
X102922373Y-112320799D01*
X103138123Y-112445362D01*
X103138138Y-112445369D01*
X103197985Y-112470158D01*
X103368293Y-112540702D01*
X103608935Y-112605182D01*
X103855935Y-112637700D01*
X103855942Y-112637700D01*
X104105058Y-112637700D01*
X104105065Y-112637700D01*
X104352065Y-112605182D01*
X104592707Y-112540702D01*
X104822873Y-112445364D01*
X105038627Y-112320799D01*
X105236276Y-112169138D01*
X105412438Y-111992976D01*
X105562013Y-111798046D01*
X154851400Y-111798046D01*
X154851400Y-112026753D01*
X154887178Y-112252646D01*
X154887178Y-112252649D01*
X154957850Y-112470155D01*
X154957852Y-112470158D01*
X155061683Y-112673938D01*
X155196114Y-112858966D01*
X155357834Y-113020686D01*
X155542862Y-113155117D01*
X155746642Y-113258948D01*
X155746644Y-113258949D01*
X155964151Y-113329621D01*
X155964152Y-113329621D01*
X155964155Y-113329622D01*
X156190046Y-113365400D01*
X156190047Y-113365400D01*
X156418753Y-113365400D01*
X156418754Y-113365400D01*
X156644645Y-113329622D01*
X156644648Y-113329621D01*
X156644649Y-113329621D01*
X156862155Y-113258949D01*
X156862155Y-113258948D01*
X156862158Y-113258948D01*
X157065938Y-113155117D01*
X157250966Y-113020686D01*
X157412686Y-112858966D01*
X157547117Y-112673938D01*
X157650948Y-112470158D01*
X157721622Y-112252645D01*
X157757400Y-112026754D01*
X157757400Y-111798046D01*
X157721622Y-111572155D01*
X157721621Y-111572151D01*
X157721621Y-111572150D01*
X157650949Y-111354644D01*
X157547116Y-111150861D01*
X157412686Y-110965834D01*
X157250966Y-110804114D01*
X157065938Y-110669683D01*
X156953975Y-110612635D01*
X156862155Y-110565850D01*
X156644648Y-110495178D01*
X156475226Y-110468344D01*
X156418754Y-110459400D01*
X156190046Y-110459400D01*
X156114749Y-110471326D01*
X155964153Y-110495178D01*
X155964150Y-110495178D01*
X155746644Y-110565850D01*
X155542861Y-110669683D01*
X155437296Y-110746380D01*
X155357834Y-110804114D01*
X155357832Y-110804116D01*
X155357831Y-110804116D01*
X155196116Y-110965831D01*
X155196116Y-110965832D01*
X155196114Y-110965834D01*
X155138380Y-111045296D01*
X155061683Y-111150861D01*
X154957850Y-111354644D01*
X154887178Y-111572150D01*
X154887178Y-111572153D01*
X154851400Y-111798046D01*
X105562013Y-111798046D01*
X105564099Y-111795327D01*
X105688664Y-111579573D01*
X105784002Y-111349407D01*
X105848482Y-111108765D01*
X105881000Y-110861765D01*
X105881000Y-110612635D01*
X105848482Y-110365635D01*
X105784002Y-110124993D01*
X105688664Y-109894827D01*
X105564099Y-109679073D01*
X105412438Y-109481424D01*
X105412433Y-109481418D01*
X105236281Y-109305266D01*
X105236274Y-109305260D01*
X105226872Y-109298046D01*
X115851400Y-109298046D01*
X115851400Y-109526753D01*
X115887178Y-109752646D01*
X115887178Y-109752649D01*
X115957850Y-109970155D01*
X115957852Y-109970158D01*
X116061683Y-110173938D01*
X116196114Y-110358966D01*
X116357834Y-110520686D01*
X116542862Y-110655117D01*
X116746642Y-110758948D01*
X116746644Y-110758949D01*
X116964151Y-110829621D01*
X116964152Y-110829621D01*
X116964155Y-110829622D01*
X117190046Y-110865400D01*
X117190047Y-110865400D01*
X117418753Y-110865400D01*
X117418754Y-110865400D01*
X117644645Y-110829622D01*
X117644648Y-110829621D01*
X117644649Y-110829621D01*
X117862155Y-110758949D01*
X117862155Y-110758948D01*
X117862158Y-110758948D01*
X118065938Y-110655117D01*
X118250966Y-110520686D01*
X118412686Y-110358966D01*
X118547117Y-110173938D01*
X118650948Y-109970158D01*
X118675421Y-109894838D01*
X118721621Y-109752649D01*
X118721621Y-109752648D01*
X118721622Y-109752645D01*
X118757400Y-109526754D01*
X118757400Y-109298046D01*
X118721622Y-109072155D01*
X118721621Y-109072151D01*
X118721621Y-109072150D01*
X118650949Y-108854644D01*
X118547116Y-108650861D01*
X118412686Y-108465834D01*
X118250966Y-108304114D01*
X118065938Y-108169683D01*
X117862155Y-108065850D01*
X117644648Y-107995178D01*
X117475226Y-107968344D01*
X117418754Y-107959400D01*
X117190046Y-107959400D01*
X117114749Y-107971326D01*
X116964153Y-107995178D01*
X116964150Y-107995178D01*
X116746644Y-108065850D01*
X116542861Y-108169683D01*
X116437296Y-108246380D01*
X116357834Y-108304114D01*
X116357832Y-108304116D01*
X116357831Y-108304116D01*
X116196116Y-108465831D01*
X116196116Y-108465832D01*
X116196114Y-108465834D01*
X116138380Y-108545296D01*
X116061683Y-108650861D01*
X115957850Y-108854644D01*
X115887178Y-109072150D01*
X115887178Y-109072153D01*
X115851400Y-109298046D01*
X105226872Y-109298046D01*
X105038626Y-109153600D01*
X104822876Y-109029037D01*
X104822861Y-109029030D01*
X104592707Y-108933698D01*
X104352061Y-108869217D01*
X104105075Y-108836701D01*
X104105070Y-108836700D01*
X104105065Y-108836700D01*
X103855935Y-108836700D01*
X103855929Y-108836700D01*
X103855924Y-108836701D01*
X103608938Y-108869217D01*
X103368292Y-108933698D01*
X103138138Y-109029030D01*
X103138123Y-109029037D01*
X102922373Y-109153600D01*
X102724725Y-109305260D01*
X102724718Y-109305266D01*
X102548566Y-109481418D01*
X102548560Y-109481425D01*
X102396900Y-109679073D01*
X102272337Y-109894823D01*
X102272330Y-109894838D01*
X102176998Y-110124992D01*
X102112517Y-110365638D01*
X102080001Y-110612624D01*
X102080000Y-110612641D01*
X99052500Y-110612641D01*
X99052500Y-100653984D01*
X169295500Y-100653984D01*
X169295500Y-103054015D01*
X169306000Y-103156795D01*
X169306001Y-103156796D01*
X169361186Y-103323335D01*
X169361187Y-103323337D01*
X169453286Y-103472651D01*
X169453289Y-103472655D01*
X169577344Y-103596710D01*
X169577348Y-103596713D01*
X169726662Y-103688812D01*
X169726664Y-103688813D01*
X169726666Y-103688814D01*
X169893203Y-103743999D01*
X169995992Y-103754500D01*
X169995997Y-103754500D01*
X172396003Y-103754500D01*
X172396008Y-103754500D01*
X172498797Y-103743999D01*
X172665334Y-103688814D01*
X172814655Y-103596711D01*
X172938711Y-103472655D01*
X173030814Y-103323334D01*
X173085999Y-103156797D01*
X173096500Y-103054008D01*
X173096500Y-100653992D01*
X173085999Y-100551203D01*
X173030814Y-100384666D01*
X173003732Y-100340760D01*
X172938713Y-100235348D01*
X172938710Y-100235344D01*
X172814655Y-100111289D01*
X172814651Y-100111286D01*
X172665337Y-100019187D01*
X172665335Y-100019186D01*
X172582065Y-99991593D01*
X172498797Y-99964001D01*
X172498795Y-99964000D01*
X172396015Y-99953500D01*
X172396008Y-99953500D01*
X169995992Y-99953500D01*
X169995984Y-99953500D01*
X169893204Y-99964000D01*
X169893203Y-99964001D01*
X169726664Y-100019186D01*
X169726662Y-100019187D01*
X169577348Y-100111286D01*
X169577344Y-100111289D01*
X169453289Y-100235344D01*
X169453286Y-100235348D01*
X169361187Y-100384662D01*
X169361186Y-100384664D01*
X169306001Y-100551203D01*
X169306000Y-100551204D01*
X169295500Y-100653984D01*
X99052500Y-100653984D01*
X99052500Y-99219513D01*
X158616300Y-99219513D01*
X158616300Y-99408486D01*
X158645859Y-99595118D01*
X158704254Y-99774836D01*
X158790040Y-99943199D01*
X158901110Y-100096073D01*
X159034727Y-100229690D01*
X159187601Y-100340760D01*
X159267147Y-100381290D01*
X159355963Y-100426545D01*
X159355965Y-100426545D01*
X159355968Y-100426547D01*
X159452297Y-100457846D01*
X159535681Y-100484940D01*
X159722314Y-100514500D01*
X159722319Y-100514500D01*
X159911286Y-100514500D01*
X160097918Y-100484940D01*
X160277632Y-100426547D01*
X160445999Y-100340760D01*
X160598873Y-100229690D01*
X160732490Y-100096073D01*
X160843560Y-99943199D01*
X160929347Y-99774832D01*
X160987740Y-99595118D01*
X161017300Y-99408486D01*
X161017300Y-99219513D01*
X160987740Y-99032881D01*
X160929345Y-98853163D01*
X160843559Y-98684800D01*
X160732490Y-98531927D01*
X160598873Y-98398310D01*
X160445999Y-98287240D01*
X160277636Y-98201454D01*
X160097918Y-98143059D01*
X159911286Y-98113500D01*
X159911281Y-98113500D01*
X159722319Y-98113500D01*
X159722314Y-98113500D01*
X159535681Y-98143059D01*
X159355963Y-98201454D01*
X159187600Y-98287240D01*
X159100379Y-98350610D01*
X159034727Y-98398310D01*
X159034725Y-98398312D01*
X159034724Y-98398312D01*
X158901112Y-98531924D01*
X158901112Y-98531925D01*
X158901110Y-98531927D01*
X158853410Y-98597579D01*
X158790040Y-98684800D01*
X158704254Y-98853163D01*
X158645859Y-99032881D01*
X158616300Y-99219513D01*
X99052500Y-99219513D01*
X99052500Y-93335584D01*
X132360700Y-93335584D01*
X132360700Y-95335615D01*
X132371200Y-95438395D01*
X132371201Y-95438397D01*
X132378104Y-95459229D01*
X132426386Y-95604935D01*
X132426387Y-95604937D01*
X132518486Y-95754251D01*
X132518489Y-95754255D01*
X132642544Y-95878310D01*
X132642548Y-95878313D01*
X132791862Y-95970412D01*
X132791864Y-95970413D01*
X132791866Y-95970414D01*
X132958403Y-96025599D01*
X133061192Y-96036100D01*
X133061197Y-96036100D01*
X135061203Y-96036100D01*
X135061208Y-96036100D01*
X135163997Y-96025599D01*
X135330534Y-95970414D01*
X135479855Y-95878311D01*
X135603911Y-95754255D01*
X135696014Y-95604934D01*
X135751199Y-95438397D01*
X135761700Y-95335608D01*
X135761700Y-94224149D01*
X147600700Y-94224149D01*
X147600700Y-94447050D01*
X147600701Y-94447066D01*
X147629794Y-94668052D01*
X147629795Y-94668057D01*
X147629796Y-94668063D01*
X147629797Y-94668065D01*
X147687490Y-94883380D01*
X147687493Y-94883390D01*
X147772793Y-95089322D01*
X147772795Y-95089326D01*
X147884252Y-95282374D01*
X147884257Y-95282380D01*
X147884258Y-95282382D01*
X148019951Y-95459222D01*
X148019957Y-95459229D01*
X148177570Y-95616842D01*
X148177576Y-95616847D01*
X148354426Y-95752548D01*
X148547474Y-95864005D01*
X148582012Y-95878311D01*
X148719180Y-95935128D01*
X148753419Y-95949310D01*
X148968737Y-96007004D01*
X149189743Y-96036100D01*
X149189750Y-96036100D01*
X149412650Y-96036100D01*
X149412657Y-96036100D01*
X149633663Y-96007004D01*
X149848981Y-95949310D01*
X150054926Y-95864005D01*
X150247974Y-95752548D01*
X150424824Y-95616847D01*
X150582447Y-95459224D01*
X150718148Y-95282374D01*
X150829605Y-95089326D01*
X150914910Y-94883381D01*
X150972604Y-94668063D01*
X151001700Y-94447057D01*
X151001700Y-94224143D01*
X150972604Y-94003137D01*
X150914910Y-93787819D01*
X150829605Y-93581874D01*
X150718148Y-93388826D01*
X150632079Y-93276658D01*
X150582448Y-93211977D01*
X150582442Y-93211970D01*
X150424829Y-93054357D01*
X150424822Y-93054351D01*
X150247982Y-92918658D01*
X150247980Y-92918657D01*
X150247974Y-92918652D01*
X150054926Y-92807195D01*
X150054922Y-92807193D01*
X149848990Y-92721893D01*
X149848983Y-92721891D01*
X149848981Y-92721890D01*
X149633663Y-92664196D01*
X149633657Y-92664195D01*
X149633652Y-92664194D01*
X149412666Y-92635101D01*
X149412663Y-92635100D01*
X149412657Y-92635100D01*
X149189743Y-92635100D01*
X149189737Y-92635100D01*
X149189733Y-92635101D01*
X148968747Y-92664194D01*
X148968740Y-92664195D01*
X148968737Y-92664196D01*
X148832181Y-92700786D01*
X148753419Y-92721890D01*
X148753409Y-92721893D01*
X148547477Y-92807193D01*
X148547473Y-92807195D01*
X148354426Y-92918652D01*
X148354417Y-92918658D01*
X148177577Y-93054351D01*
X148177570Y-93054357D01*
X148019957Y-93211970D01*
X148019951Y-93211977D01*
X147884258Y-93388817D01*
X147884252Y-93388826D01*
X147772795Y-93581873D01*
X147772793Y-93581877D01*
X147687493Y-93787809D01*
X147687490Y-93787819D01*
X147672188Y-93844929D01*
X147629797Y-94003134D01*
X147629794Y-94003147D01*
X147600701Y-94224133D01*
X147600700Y-94224149D01*
X135761700Y-94224149D01*
X135761700Y-93335592D01*
X135751199Y-93232803D01*
X135696014Y-93066266D01*
X135688668Y-93054357D01*
X135603913Y-92916948D01*
X135603910Y-92916944D01*
X135479855Y-92792889D01*
X135479851Y-92792886D01*
X135330537Y-92700787D01*
X135330535Y-92700786D01*
X135220107Y-92664194D01*
X135163997Y-92645601D01*
X135163995Y-92645600D01*
X135061215Y-92635100D01*
X135061208Y-92635100D01*
X133061192Y-92635100D01*
X133061184Y-92635100D01*
X132958404Y-92645600D01*
X132958403Y-92645601D01*
X132791864Y-92700786D01*
X132791862Y-92700787D01*
X132642548Y-92792886D01*
X132642544Y-92792889D01*
X132518489Y-92916944D01*
X132518486Y-92916948D01*
X132426387Y-93066262D01*
X132426386Y-93066264D01*
X132371201Y-93232803D01*
X132371200Y-93232804D01*
X132360700Y-93335584D01*
X99052500Y-93335584D01*
X99052500Y-92142578D01*
X158365500Y-92142578D01*
X158365500Y-92363021D01*
X158399985Y-92580752D01*
X158468103Y-92790403D01*
X158468104Y-92790406D01*
X158568187Y-92986825D01*
X158697752Y-93165158D01*
X158697756Y-93165163D01*
X158747928Y-93215335D01*
X158781413Y-93276658D01*
X158776429Y-93346350D01*
X158734557Y-93402283D01*
X158703581Y-93419198D01*
X158623669Y-93449003D01*
X158623664Y-93449006D01*
X158508455Y-93535252D01*
X158508452Y-93535255D01*
X158422206Y-93650464D01*
X158422202Y-93650471D01*
X158371908Y-93785317D01*
X158365501Y-93844916D01*
X158365501Y-93844923D01*
X158365500Y-93844935D01*
X158365500Y-95740670D01*
X158365501Y-95740676D01*
X158371908Y-95800283D01*
X158422202Y-95935128D01*
X158422206Y-95935135D01*
X158508452Y-96050344D01*
X158508455Y-96050347D01*
X158623664Y-96136593D01*
X158623671Y-96136597D01*
X158758517Y-96186891D01*
X158758516Y-96186891D01*
X158765444Y-96187635D01*
X158818127Y-96193300D01*
X160713872Y-96193299D01*
X160773483Y-96186891D01*
X160908331Y-96136596D01*
X161023546Y-96050346D01*
X161109796Y-95935131D01*
X161160091Y-95800283D01*
X161166500Y-95740673D01*
X161166499Y-93844928D01*
X161160091Y-93785317D01*
X161109796Y-93650469D01*
X161109795Y-93650468D01*
X161109793Y-93650464D01*
X161023547Y-93535255D01*
X161023544Y-93535252D01*
X160908335Y-93449006D01*
X160908328Y-93449002D01*
X160828419Y-93419198D01*
X160772485Y-93377327D01*
X160748068Y-93311862D01*
X160762920Y-93243589D01*
X160784069Y-93215337D01*
X160834242Y-93165165D01*
X160963815Y-92986822D01*
X161063895Y-92790406D01*
X161132015Y-92580751D01*
X161166500Y-92363022D01*
X161166500Y-92142578D01*
X161132015Y-91924849D01*
X161063895Y-91715194D01*
X161063895Y-91715193D01*
X161029237Y-91647175D01*
X160963815Y-91518778D01*
X160947260Y-91495992D01*
X160834247Y-91340441D01*
X160834243Y-91340436D01*
X160678363Y-91184556D01*
X160678358Y-91184552D01*
X160500025Y-91054987D01*
X160500024Y-91054986D01*
X160500022Y-91054985D01*
X160437096Y-91022922D01*
X160303606Y-90954904D01*
X160303603Y-90954903D01*
X160093952Y-90886785D01*
X159985086Y-90869542D01*
X159876222Y-90852300D01*
X159655778Y-90852300D01*
X159583201Y-90863795D01*
X159438047Y-90886785D01*
X159228396Y-90954903D01*
X159228393Y-90954904D01*
X159031974Y-91054987D01*
X158853641Y-91184552D01*
X158853636Y-91184556D01*
X158697756Y-91340436D01*
X158697752Y-91340441D01*
X158568187Y-91518774D01*
X158468104Y-91715193D01*
X158468103Y-91715196D01*
X158399985Y-91924847D01*
X158365500Y-92142578D01*
X99052500Y-92142578D01*
X99052500Y-86184641D01*
X101985500Y-86184641D01*
X101985500Y-86433758D01*
X101985501Y-86433775D01*
X102013102Y-86643431D01*
X102018018Y-86680765D01*
X102057593Y-86828461D01*
X102082498Y-86921407D01*
X102177830Y-87151561D01*
X102177837Y-87151576D01*
X102302400Y-87367326D01*
X102454060Y-87564974D01*
X102454066Y-87564981D01*
X102630218Y-87741133D01*
X102630225Y-87741139D01*
X102827873Y-87892799D01*
X103043623Y-88017362D01*
X103043638Y-88017369D01*
X103142825Y-88058453D01*
X103273793Y-88112702D01*
X103514435Y-88177182D01*
X103761435Y-88209700D01*
X103761442Y-88209700D01*
X104010558Y-88209700D01*
X104010565Y-88209700D01*
X104257565Y-88177182D01*
X104498207Y-88112702D01*
X104728373Y-88017364D01*
X104944127Y-87892799D01*
X105141776Y-87741138D01*
X105317938Y-87564976D01*
X105386483Y-87475646D01*
X158262200Y-87475646D01*
X158262200Y-87704354D01*
X158265803Y-87727100D01*
X158297978Y-87930246D01*
X158297978Y-87930249D01*
X158368650Y-88147755D01*
X158368652Y-88147758D01*
X158472483Y-88351538D01*
X158606914Y-88536566D01*
X158768634Y-88698286D01*
X158953662Y-88832717D01*
X159157442Y-88936548D01*
X159157444Y-88936549D01*
X159374951Y-89007221D01*
X159374952Y-89007221D01*
X159374955Y-89007222D01*
X159600846Y-89043000D01*
X159600847Y-89043000D01*
X159829553Y-89043000D01*
X159829554Y-89043000D01*
X160055445Y-89007222D01*
X160055448Y-89007221D01*
X160055449Y-89007221D01*
X160272955Y-88936549D01*
X160272955Y-88936548D01*
X160272958Y-88936548D01*
X160476738Y-88832717D01*
X160661766Y-88698286D01*
X160823486Y-88536566D01*
X160957917Y-88351538D01*
X161061748Y-88147758D01*
X161104114Y-88017369D01*
X161132421Y-87930249D01*
X161132421Y-87930248D01*
X161132422Y-87930245D01*
X161168200Y-87704354D01*
X161168200Y-87475646D01*
X161132422Y-87249755D01*
X161132421Y-87249751D01*
X161132421Y-87249750D01*
X161061749Y-87032244D01*
X161005275Y-86921407D01*
X160957917Y-86828462D01*
X160823486Y-86643434D01*
X160661766Y-86481714D01*
X160476738Y-86347283D01*
X160272955Y-86243450D01*
X160055448Y-86172778D01*
X159886026Y-86145944D01*
X159829554Y-86137000D01*
X159600846Y-86137000D01*
X159525549Y-86148926D01*
X159374953Y-86172778D01*
X159374950Y-86172778D01*
X159157444Y-86243450D01*
X158953661Y-86347283D01*
X158848096Y-86423980D01*
X158768634Y-86481714D01*
X158768632Y-86481716D01*
X158768631Y-86481716D01*
X158606916Y-86643431D01*
X158606916Y-86643432D01*
X158606914Y-86643434D01*
X158563124Y-86703706D01*
X158472483Y-86828461D01*
X158368650Y-87032244D01*
X158297978Y-87249750D01*
X158297978Y-87249753D01*
X158262200Y-87475646D01*
X105386483Y-87475646D01*
X105469599Y-87367327D01*
X105594164Y-87151573D01*
X105689502Y-86921407D01*
X105753982Y-86680765D01*
X105786500Y-86433765D01*
X105786500Y-86184635D01*
X105753982Y-85937635D01*
X105689502Y-85696993D01*
X105594164Y-85466827D01*
X105469599Y-85251073D01*
X105317938Y-85053424D01*
X105317933Y-85053418D01*
X105141781Y-84877266D01*
X105141774Y-84877260D01*
X104944126Y-84725600D01*
X104728376Y-84601037D01*
X104728361Y-84601030D01*
X104498207Y-84505698D01*
X104398604Y-84479009D01*
X104257563Y-84441217D01*
X104010575Y-84408701D01*
X104010570Y-84408700D01*
X104010565Y-84408700D01*
X103761435Y-84408700D01*
X103761429Y-84408700D01*
X103761424Y-84408701D01*
X103514438Y-84441217D01*
X103273792Y-84505698D01*
X103043638Y-84601030D01*
X103043623Y-84601037D01*
X102827873Y-84725600D01*
X102630225Y-84877260D01*
X102630218Y-84877266D01*
X102454066Y-85053418D01*
X102454060Y-85053425D01*
X102302400Y-85251073D01*
X102177837Y-85466823D01*
X102177830Y-85466838D01*
X102082498Y-85696992D01*
X102018017Y-85937638D01*
X101985501Y-86184624D01*
X101985500Y-86184641D01*
X99052500Y-86184641D01*
X99052500Y-84362384D01*
X119000300Y-84362384D01*
X119000300Y-86362415D01*
X119010800Y-86465195D01*
X119010801Y-86465196D01*
X119065986Y-86631735D01*
X119065987Y-86631737D01*
X119158086Y-86781051D01*
X119158089Y-86781055D01*
X119282144Y-86905110D01*
X119282148Y-86905113D01*
X119431462Y-86997212D01*
X119431464Y-86997213D01*
X119431466Y-86997214D01*
X119598003Y-87052399D01*
X119700792Y-87062900D01*
X119700797Y-87062900D01*
X121700803Y-87062900D01*
X121700808Y-87062900D01*
X121803597Y-87052399D01*
X121970134Y-86997214D01*
X122119455Y-86905111D01*
X122243511Y-86781055D01*
X122335614Y-86631734D01*
X122390799Y-86465197D01*
X122401300Y-86362408D01*
X122401300Y-84362392D01*
X122390799Y-84259603D01*
X122335614Y-84093066D01*
X122333713Y-84089984D01*
X132259100Y-84089984D01*
X132259100Y-86090015D01*
X132269600Y-86192795D01*
X132269601Y-86192797D01*
X132297193Y-86276065D01*
X132324786Y-86359335D01*
X132324787Y-86359337D01*
X132416886Y-86508651D01*
X132416889Y-86508655D01*
X132540944Y-86632710D01*
X132540948Y-86632713D01*
X132690262Y-86724812D01*
X132690264Y-86724813D01*
X132690266Y-86724814D01*
X132856803Y-86779999D01*
X132959592Y-86790500D01*
X132959597Y-86790500D01*
X134959603Y-86790500D01*
X134959608Y-86790500D01*
X135062397Y-86779999D01*
X135228934Y-86724814D01*
X135378255Y-86632711D01*
X135502311Y-86508655D01*
X135594414Y-86359334D01*
X135649599Y-86192797D01*
X135660100Y-86090008D01*
X135660100Y-84978549D01*
X147499100Y-84978549D01*
X147499100Y-85201450D01*
X147499101Y-85201466D01*
X147528194Y-85422452D01*
X147528195Y-85422457D01*
X147528196Y-85422463D01*
X147585890Y-85637780D01*
X147585893Y-85637790D01*
X147610416Y-85696993D01*
X147671195Y-85843726D01*
X147782652Y-86036774D01*
X147782657Y-86036780D01*
X147782658Y-86036782D01*
X147918351Y-86213622D01*
X147918357Y-86213629D01*
X148075970Y-86371242D01*
X148075977Y-86371248D01*
X148198412Y-86465195D01*
X148252826Y-86506948D01*
X148445874Y-86618405D01*
X148651819Y-86703710D01*
X148867137Y-86761404D01*
X149088143Y-86790500D01*
X149088150Y-86790500D01*
X149311050Y-86790500D01*
X149311057Y-86790500D01*
X149532063Y-86761404D01*
X149747381Y-86703710D01*
X149953326Y-86618405D01*
X150146374Y-86506948D01*
X150323224Y-86371247D01*
X150480847Y-86213624D01*
X150616548Y-86036774D01*
X150728005Y-85843726D01*
X150813310Y-85637781D01*
X150871004Y-85422463D01*
X150900100Y-85201457D01*
X150900100Y-84978543D01*
X150871004Y-84757537D01*
X150835915Y-84626584D01*
X169295500Y-84626584D01*
X169295500Y-87026615D01*
X169306000Y-87129395D01*
X169306001Y-87129397D01*
X169333593Y-87212665D01*
X169361186Y-87295935D01*
X169361187Y-87295937D01*
X169453286Y-87445251D01*
X169453289Y-87445255D01*
X169577344Y-87569310D01*
X169577348Y-87569313D01*
X169726662Y-87661412D01*
X169726664Y-87661413D01*
X169726666Y-87661414D01*
X169893203Y-87716599D01*
X169995992Y-87727100D01*
X169995997Y-87727100D01*
X172396003Y-87727100D01*
X172396008Y-87727100D01*
X172498797Y-87716599D01*
X172665334Y-87661414D01*
X172814655Y-87569311D01*
X172938711Y-87445255D01*
X173030814Y-87295934D01*
X173085999Y-87129397D01*
X173096500Y-87026608D01*
X173096500Y-84626592D01*
X173085999Y-84523803D01*
X173030814Y-84357266D01*
X173017865Y-84336273D01*
X172938713Y-84207948D01*
X172938710Y-84207944D01*
X172814655Y-84083889D01*
X172814651Y-84083886D01*
X172665337Y-83991787D01*
X172665335Y-83991786D01*
X172582065Y-83964193D01*
X172498797Y-83936601D01*
X172498795Y-83936600D01*
X172396015Y-83926100D01*
X172396008Y-83926100D01*
X169995992Y-83926100D01*
X169995984Y-83926100D01*
X169893204Y-83936600D01*
X169893203Y-83936601D01*
X169726664Y-83991786D01*
X169726662Y-83991787D01*
X169577348Y-84083886D01*
X169577344Y-84083889D01*
X169453289Y-84207944D01*
X169453286Y-84207948D01*
X169361187Y-84357262D01*
X169361186Y-84357264D01*
X169306001Y-84523803D01*
X169306000Y-84523804D01*
X169295500Y-84626584D01*
X150835915Y-84626584D01*
X150813310Y-84542219D01*
X150728005Y-84336274D01*
X150616548Y-84143226D01*
X150512188Y-84007221D01*
X150480848Y-83966377D01*
X150480842Y-83966370D01*
X150323229Y-83808757D01*
X150323222Y-83808751D01*
X150146382Y-83673058D01*
X150146380Y-83673057D01*
X150146374Y-83673052D01*
X149953326Y-83561595D01*
X149953322Y-83561593D01*
X149747390Y-83476293D01*
X149747383Y-83476291D01*
X149747381Y-83476290D01*
X149532063Y-83418596D01*
X149532057Y-83418595D01*
X149532052Y-83418594D01*
X149311066Y-83389501D01*
X149311063Y-83389500D01*
X149311057Y-83389500D01*
X149088143Y-83389500D01*
X149088137Y-83389500D01*
X149088133Y-83389501D01*
X148867147Y-83418594D01*
X148867140Y-83418595D01*
X148867137Y-83418596D01*
X148730581Y-83455186D01*
X148651819Y-83476290D01*
X148651809Y-83476293D01*
X148445877Y-83561593D01*
X148445873Y-83561595D01*
X148252826Y-83673052D01*
X148252817Y-83673058D01*
X148075977Y-83808751D01*
X148075970Y-83808757D01*
X147918357Y-83966370D01*
X147918351Y-83966377D01*
X147782658Y-84143217D01*
X147782652Y-84143226D01*
X147671195Y-84336273D01*
X147671193Y-84336277D01*
X147585893Y-84542209D01*
X147585890Y-84542219D01*
X147536754Y-84725600D01*
X147528197Y-84757534D01*
X147528194Y-84757547D01*
X147499101Y-84978533D01*
X147499100Y-84978549D01*
X135660100Y-84978549D01*
X135660100Y-84089992D01*
X135649599Y-83987203D01*
X135594414Y-83820666D01*
X135593811Y-83819689D01*
X135502313Y-83671348D01*
X135502310Y-83671344D01*
X135378255Y-83547289D01*
X135378251Y-83547286D01*
X135228937Y-83455187D01*
X135228935Y-83455186D01*
X135118507Y-83418594D01*
X135062397Y-83400001D01*
X135062395Y-83400000D01*
X134959615Y-83389500D01*
X134959608Y-83389500D01*
X132959592Y-83389500D01*
X132959584Y-83389500D01*
X132856804Y-83400000D01*
X132856803Y-83400001D01*
X132690264Y-83455186D01*
X132690262Y-83455187D01*
X132540948Y-83547286D01*
X132540944Y-83547289D01*
X132416889Y-83671344D01*
X132416886Y-83671348D01*
X132324787Y-83820662D01*
X132324786Y-83820664D01*
X132269601Y-83987203D01*
X132269600Y-83987204D01*
X132259100Y-84089984D01*
X122333713Y-84089984D01*
X122282664Y-84007222D01*
X122243513Y-83943748D01*
X122243510Y-83943744D01*
X122119455Y-83819689D01*
X122119451Y-83819686D01*
X121970137Y-83727587D01*
X121970135Y-83727586D01*
X121881704Y-83698283D01*
X121803597Y-83672401D01*
X121803595Y-83672400D01*
X121700815Y-83661900D01*
X121700808Y-83661900D01*
X119700792Y-83661900D01*
X119700784Y-83661900D01*
X119598004Y-83672400D01*
X119598003Y-83672401D01*
X119431464Y-83727586D01*
X119431462Y-83727587D01*
X119282148Y-83819686D01*
X119282144Y-83819689D01*
X119158089Y-83943744D01*
X119158086Y-83943748D01*
X119065987Y-84093062D01*
X119065986Y-84093064D01*
X119010801Y-84259603D01*
X119010800Y-84259604D01*
X119000300Y-84362384D01*
X99052500Y-84362384D01*
X99052500Y-82475646D01*
X158262200Y-82475646D01*
X158262200Y-82704353D01*
X158297978Y-82930246D01*
X158297978Y-82930249D01*
X158368650Y-83147755D01*
X158368652Y-83147758D01*
X158472483Y-83351538D01*
X158606914Y-83536566D01*
X158768634Y-83698286D01*
X158953662Y-83832717D01*
X159136937Y-83926100D01*
X159157444Y-83936549D01*
X159374951Y-84007221D01*
X159374952Y-84007221D01*
X159374955Y-84007222D01*
X159600846Y-84043000D01*
X159600847Y-84043000D01*
X159829553Y-84043000D01*
X159829554Y-84043000D01*
X160055445Y-84007222D01*
X160055448Y-84007221D01*
X160055449Y-84007221D01*
X160272955Y-83936549D01*
X160272955Y-83936548D01*
X160272958Y-83936548D01*
X160476738Y-83832717D01*
X160661766Y-83698286D01*
X160823486Y-83536566D01*
X160957917Y-83351538D01*
X161061748Y-83147758D01*
X161132422Y-82930245D01*
X161168200Y-82704354D01*
X161168200Y-82475646D01*
X161132422Y-82249755D01*
X161132421Y-82249751D01*
X161132421Y-82249750D01*
X161061749Y-82032244D01*
X160957916Y-81828461D01*
X160823486Y-81643434D01*
X160661766Y-81481714D01*
X160476738Y-81347283D01*
X160272955Y-81243450D01*
X160055448Y-81172778D01*
X159886026Y-81145944D01*
X159829554Y-81137000D01*
X159600846Y-81137000D01*
X159525549Y-81148926D01*
X159374953Y-81172778D01*
X159374950Y-81172778D01*
X159157444Y-81243450D01*
X158953661Y-81347283D01*
X158848096Y-81423980D01*
X158768634Y-81481714D01*
X158768632Y-81481716D01*
X158768631Y-81481716D01*
X158606916Y-81643431D01*
X158606916Y-81643432D01*
X158606914Y-81643434D01*
X158549180Y-81722896D01*
X158472483Y-81828461D01*
X158368650Y-82032244D01*
X158297978Y-82249750D01*
X158297978Y-82249753D01*
X158262200Y-82475646D01*
X99052500Y-82475646D01*
X99052500Y-67172984D01*
X102163300Y-67172984D01*
X102163300Y-69573015D01*
X102173800Y-69675795D01*
X102173801Y-69675796D01*
X102228986Y-69842335D01*
X102228987Y-69842337D01*
X102321086Y-69991651D01*
X102321089Y-69991655D01*
X102445144Y-70115710D01*
X102445148Y-70115713D01*
X102594462Y-70207812D01*
X102594464Y-70207813D01*
X102594466Y-70207814D01*
X102761003Y-70262999D01*
X102863792Y-70273500D01*
X102863797Y-70273500D01*
X105263803Y-70273500D01*
X105263808Y-70273500D01*
X105366597Y-70262999D01*
X105533134Y-70207814D01*
X105682455Y-70115711D01*
X105806511Y-69991655D01*
X105898614Y-69842334D01*
X105953799Y-69675797D01*
X105964300Y-69573008D01*
X105964300Y-67662246D01*
X114782000Y-67662246D01*
X114782000Y-67890953D01*
X114817778Y-68116846D01*
X114817778Y-68116849D01*
X114888450Y-68334355D01*
X114888452Y-68334358D01*
X114992283Y-68538138D01*
X115126714Y-68723166D01*
X115288434Y-68884886D01*
X115473462Y-69019317D01*
X115677242Y-69123148D01*
X115677244Y-69123149D01*
X115894751Y-69193821D01*
X115894752Y-69193821D01*
X115894755Y-69193822D01*
X116120646Y-69229600D01*
X116120647Y-69229600D01*
X116349353Y-69229600D01*
X116349354Y-69229600D01*
X116575245Y-69193822D01*
X116575248Y-69193821D01*
X116575249Y-69193821D01*
X116792755Y-69123149D01*
X116792755Y-69123148D01*
X116792758Y-69123148D01*
X116996538Y-69019317D01*
X117181566Y-68884886D01*
X117343286Y-68723166D01*
X117477717Y-68538138D01*
X117581548Y-68334358D01*
X117652222Y-68116845D01*
X117688000Y-67890954D01*
X117688000Y-67662246D01*
X117652222Y-67436355D01*
X117652221Y-67436351D01*
X117652221Y-67436350D01*
X117581549Y-67218844D01*
X117505813Y-67070204D01*
X117477717Y-67015062D01*
X117343286Y-66830034D01*
X117181566Y-66668314D01*
X116996538Y-66533883D01*
X116792755Y-66430050D01*
X116575248Y-66359378D01*
X116405826Y-66332544D01*
X116349354Y-66323600D01*
X116120646Y-66323600D01*
X116045349Y-66335526D01*
X115894753Y-66359378D01*
X115894750Y-66359378D01*
X115677244Y-66430050D01*
X115473461Y-66533883D01*
X115367896Y-66610580D01*
X115288434Y-66668314D01*
X115288432Y-66668316D01*
X115288431Y-66668316D01*
X115126716Y-66830031D01*
X115126716Y-66830032D01*
X115126714Y-66830034D01*
X115073220Y-66903662D01*
X114992283Y-67015061D01*
X114888450Y-67218844D01*
X114817778Y-67436350D01*
X114817778Y-67436353D01*
X114782000Y-67662246D01*
X105964300Y-67662246D01*
X105964300Y-67172992D01*
X105953799Y-67070203D01*
X105898614Y-66903666D01*
X105806511Y-66754345D01*
X105682455Y-66630289D01*
X105682451Y-66630286D01*
X105533137Y-66538187D01*
X105533135Y-66538186D01*
X105449865Y-66510593D01*
X105366597Y-66483001D01*
X105366595Y-66483000D01*
X105263815Y-66472500D01*
X105263808Y-66472500D01*
X102863792Y-66472500D01*
X102863784Y-66472500D01*
X102761004Y-66483000D01*
X102761003Y-66483001D01*
X102594464Y-66538186D01*
X102594462Y-66538187D01*
X102445148Y-66630286D01*
X102445144Y-66630289D01*
X102321089Y-66754344D01*
X102321086Y-66754348D01*
X102228987Y-66903662D01*
X102228986Y-66903664D01*
X102173801Y-67070203D01*
X102173800Y-67070204D01*
X102163300Y-67172984D01*
X99052500Y-67172984D01*
X99052500Y-61662246D01*
X164282000Y-61662246D01*
X164282000Y-61890953D01*
X164317778Y-62116846D01*
X164317778Y-62116849D01*
X164388450Y-62334355D01*
X164388452Y-62334358D01*
X164492283Y-62538138D01*
X164626714Y-62723166D01*
X164788434Y-62884886D01*
X164973462Y-63019317D01*
X165177242Y-63123148D01*
X165177244Y-63123149D01*
X165394751Y-63193821D01*
X165394752Y-63193821D01*
X165394755Y-63193822D01*
X165620646Y-63229600D01*
X165620647Y-63229600D01*
X165849353Y-63229600D01*
X165849354Y-63229600D01*
X166075245Y-63193822D01*
X166075248Y-63193821D01*
X166075249Y-63193821D01*
X166292755Y-63123149D01*
X166292755Y-63123148D01*
X166292758Y-63123148D01*
X166496538Y-63019317D01*
X166681566Y-62884886D01*
X166843286Y-62723166D01*
X166977717Y-62538138D01*
X167081548Y-62334358D01*
X167152222Y-62116845D01*
X167188000Y-61890954D01*
X167188000Y-61662246D01*
X167152222Y-61436355D01*
X167152221Y-61436351D01*
X167152221Y-61436350D01*
X167081549Y-61218844D01*
X167032790Y-61123149D01*
X166977717Y-61015062D01*
X166843286Y-60830034D01*
X166681566Y-60668314D01*
X166496538Y-60533883D01*
X166292755Y-60430050D01*
X166075248Y-60359378D01*
X165905826Y-60332544D01*
X165849354Y-60323600D01*
X165620646Y-60323600D01*
X165552742Y-60334355D01*
X165394753Y-60359378D01*
X165394750Y-60359378D01*
X165177244Y-60430050D01*
X164973461Y-60533883D01*
X164867896Y-60610580D01*
X164788434Y-60668314D01*
X164788432Y-60668316D01*
X164788431Y-60668316D01*
X164626716Y-60830031D01*
X164626716Y-60830032D01*
X164626714Y-60830034D01*
X164586864Y-60884883D01*
X164492283Y-61015061D01*
X164388450Y-61218844D01*
X164317778Y-61436350D01*
X164317778Y-61436353D01*
X164282000Y-61662246D01*
X99052500Y-61662246D01*
X99052500Y-59662246D01*
X114782000Y-59662246D01*
X114782000Y-59890953D01*
X114817778Y-60116846D01*
X114817778Y-60116849D01*
X114888450Y-60334355D01*
X114888452Y-60334358D01*
X114992283Y-60538138D01*
X115126714Y-60723166D01*
X115288434Y-60884886D01*
X115473462Y-61019317D01*
X115677242Y-61123148D01*
X115677244Y-61123149D01*
X115894751Y-61193821D01*
X115894752Y-61193821D01*
X115894755Y-61193822D01*
X116120646Y-61229600D01*
X116120647Y-61229600D01*
X116349353Y-61229600D01*
X116349354Y-61229600D01*
X116575245Y-61193822D01*
X116575248Y-61193821D01*
X116575249Y-61193821D01*
X116792755Y-61123149D01*
X116792755Y-61123148D01*
X116792758Y-61123148D01*
X116996538Y-61019317D01*
X117181566Y-60884886D01*
X117343286Y-60723166D01*
X117477717Y-60538138D01*
X117581548Y-60334358D01*
X117581549Y-60334355D01*
X117652221Y-60116849D01*
X117652221Y-60116848D01*
X117652222Y-60116845D01*
X117688000Y-59890954D01*
X117688000Y-59662246D01*
X117652222Y-59436355D01*
X117652221Y-59436351D01*
X117652221Y-59436350D01*
X117581549Y-59218844D01*
X117477716Y-59015061D01*
X117343286Y-58830034D01*
X117181566Y-58668314D01*
X116996538Y-58533883D01*
X116792755Y-58430050D01*
X116575248Y-58359378D01*
X116405826Y-58332544D01*
X116349354Y-58323600D01*
X116120646Y-58323600D01*
X116045349Y-58335526D01*
X115894753Y-58359378D01*
X115894750Y-58359378D01*
X115677244Y-58430050D01*
X115473461Y-58533883D01*
X115367896Y-58610580D01*
X115288434Y-58668314D01*
X115288432Y-58668316D01*
X115288431Y-58668316D01*
X115126716Y-58830031D01*
X115126716Y-58830032D01*
X115126714Y-58830034D01*
X115068980Y-58909496D01*
X114992283Y-59015061D01*
X114888450Y-59218844D01*
X114817778Y-59436350D01*
X114817778Y-59436353D01*
X114782000Y-59662246D01*
X99052500Y-59662246D01*
X99052500Y-49862332D01*
X100299500Y-49862332D01*
X100299500Y-50137667D01*
X100299501Y-50137684D01*
X100335438Y-50410655D01*
X100335439Y-50410660D01*
X100335440Y-50410666D01*
X100335441Y-50410668D01*
X100406704Y-50676630D01*
X100512075Y-50931017D01*
X100512080Y-50931028D01*
X100591809Y-51069121D01*
X100649751Y-51169479D01*
X100649753Y-51169482D01*
X100649754Y-51169483D01*
X100817370Y-51387926D01*
X100817376Y-51387933D01*
X101012066Y-51582623D01*
X101012072Y-51582628D01*
X101230521Y-51750249D01*
X101383778Y-51838732D01*
X101468971Y-51887919D01*
X101468976Y-51887921D01*
X101468979Y-51887923D01*
X101723368Y-51993295D01*
X101989334Y-52064560D01*
X102262326Y-52100500D01*
X102262333Y-52100500D01*
X102537667Y-52100500D01*
X102537674Y-52100500D01*
X102810666Y-52064560D01*
X103076632Y-51993295D01*
X103331021Y-51887923D01*
X103569479Y-51750249D01*
X103787928Y-51582628D01*
X103982628Y-51387928D01*
X104150249Y-51169479D01*
X104287923Y-50931021D01*
X104393295Y-50676632D01*
X104464560Y-50410666D01*
X104500500Y-50137674D01*
X104500500Y-49862326D01*
X104487336Y-49762332D01*
X170399500Y-49762332D01*
X170399500Y-50037667D01*
X170399501Y-50037684D01*
X170435438Y-50310655D01*
X170435439Y-50310660D01*
X170435440Y-50310666D01*
X170471072Y-50443649D01*
X170506704Y-50576630D01*
X170612075Y-50831017D01*
X170612080Y-50831028D01*
X170669812Y-50931021D01*
X170749751Y-51069479D01*
X170749753Y-51069482D01*
X170749754Y-51069483D01*
X170917370Y-51287926D01*
X170917376Y-51287933D01*
X171112066Y-51482623D01*
X171112072Y-51482628D01*
X171330521Y-51650249D01*
X171483778Y-51738732D01*
X171568971Y-51787919D01*
X171568976Y-51787921D01*
X171568979Y-51787923D01*
X171823368Y-51893295D01*
X172089334Y-51964560D01*
X172362326Y-52000500D01*
X172362333Y-52000500D01*
X172637667Y-52000500D01*
X172637674Y-52000500D01*
X172910666Y-51964560D01*
X173176632Y-51893295D01*
X173431021Y-51787923D01*
X173669479Y-51650249D01*
X173887928Y-51482628D01*
X174082628Y-51287928D01*
X174250249Y-51069479D01*
X174387923Y-50831021D01*
X174493295Y-50576632D01*
X174564560Y-50310666D01*
X174600500Y-50037674D01*
X174600500Y-49762326D01*
X174564560Y-49489334D01*
X174493295Y-49223368D01*
X174387923Y-48968979D01*
X174387921Y-48968976D01*
X174387919Y-48968971D01*
X174338732Y-48883778D01*
X174250249Y-48730521D01*
X174082628Y-48512072D01*
X174082623Y-48512066D01*
X173887933Y-48317376D01*
X173887926Y-48317370D01*
X173669483Y-48149754D01*
X173669482Y-48149753D01*
X173669479Y-48149751D01*
X173574407Y-48094861D01*
X173431028Y-48012080D01*
X173431017Y-48012075D01*
X173176630Y-47906704D01*
X173043649Y-47871072D01*
X172910666Y-47835440D01*
X172910660Y-47835439D01*
X172910655Y-47835438D01*
X172637684Y-47799501D01*
X172637679Y-47799500D01*
X172637674Y-47799500D01*
X172362326Y-47799500D01*
X172362320Y-47799500D01*
X172362315Y-47799501D01*
X172089344Y-47835438D01*
X172089337Y-47835439D01*
X172089334Y-47835440D01*
X172033125Y-47850500D01*
X171823369Y-47906704D01*
X171568982Y-48012075D01*
X171568971Y-48012080D01*
X171330516Y-48149754D01*
X171112073Y-48317370D01*
X171112066Y-48317376D01*
X170917376Y-48512066D01*
X170917370Y-48512073D01*
X170749754Y-48730516D01*
X170612080Y-48968971D01*
X170612075Y-48968982D01*
X170506704Y-49223369D01*
X170435441Y-49489331D01*
X170435438Y-49489344D01*
X170399501Y-49762315D01*
X170399500Y-49762332D01*
X104487336Y-49762332D01*
X104464560Y-49589334D01*
X104393295Y-49323368D01*
X104287923Y-49068979D01*
X104287921Y-49068976D01*
X104287919Y-49068971D01*
X104210111Y-48934205D01*
X104150249Y-48830521D01*
X103996255Y-48629831D01*
X103982629Y-48612073D01*
X103982623Y-48612066D01*
X103787933Y-48417376D01*
X103787926Y-48417370D01*
X103569483Y-48249754D01*
X103569482Y-48249753D01*
X103569479Y-48249751D01*
X103474407Y-48194861D01*
X103331028Y-48112080D01*
X103331017Y-48112075D01*
X103076630Y-48006704D01*
X102943649Y-47971072D01*
X102810666Y-47935440D01*
X102810660Y-47935439D01*
X102810655Y-47935438D01*
X102537684Y-47899501D01*
X102537679Y-47899500D01*
X102537674Y-47899500D01*
X102262326Y-47899500D01*
X102262320Y-47899500D01*
X102262315Y-47899501D01*
X101989344Y-47935438D01*
X101989337Y-47935439D01*
X101989334Y-47935440D01*
X101933125Y-47950500D01*
X101723369Y-48006704D01*
X101468982Y-48112075D01*
X101468971Y-48112080D01*
X101230516Y-48249754D01*
X101012073Y-48417370D01*
X101012066Y-48417376D01*
X100817376Y-48612066D01*
X100817370Y-48612073D01*
X100649754Y-48830516D01*
X100512080Y-49068971D01*
X100512075Y-49068982D01*
X100406704Y-49323369D01*
X100335441Y-49589331D01*
X100335438Y-49589344D01*
X100299501Y-49862315D01*
X100299500Y-49862332D01*
X99052500Y-49862332D01*
X99052500Y-49231750D01*
X99052726Y-49224263D01*
X99067247Y-48984194D01*
X99070271Y-48934201D01*
X99072076Y-48919340D01*
X99093234Y-48803889D01*
X99123780Y-48637198D01*
X99127364Y-48622664D01*
X99212699Y-48348812D01*
X99217997Y-48334842D01*
X99335727Y-48073258D01*
X99342680Y-48060012D01*
X99417987Y-47935438D01*
X99491075Y-47814534D01*
X99499567Y-47802230D01*
X99676481Y-47576417D01*
X99686396Y-47565226D01*
X99889226Y-47362396D01*
X99900417Y-47352481D01*
X100126230Y-47175567D01*
X100138534Y-47167075D01*
X100384012Y-47018680D01*
X100397258Y-47011727D01*
X100658842Y-46893997D01*
X100672812Y-46888699D01*
X100946668Y-46803362D01*
X100961198Y-46799780D01*
X101243344Y-46748075D01*
X101258201Y-46746271D01*
X101548264Y-46728726D01*
X101555751Y-46728500D01*
X101617892Y-46728500D01*
X173311708Y-46728500D01*
X173373849Y-46728500D01*
X173381336Y-46728726D01*
G37*
%TD.AperFunction*%
%TD*%
M02*
