%TF.GenerationSoftware,KiCad,Pcbnew,9.0.6-9.0.6~ubuntu24.04.1*%
%TF.CreationDate,2025-11-27T19:55:15+01:00*%
%TF.ProjectId,intercons,696e7465-7263-46f6-9e73-2e6b69636164,rev?*%
%TF.SameCoordinates,Original*%
%TF.FileFunction,Legend,Top*%
%TF.FilePolarity,Positive*%
%FSLAX46Y46*%
G04 Gerber Fmt 4.6, Leading zero omitted, Abs format (unit mm)*
G04 Created by KiCad (PCBNEW 9.0.6-9.0.6~ubuntu24.04.1) date 2025-11-27 19:55:15*
%MOMM*%
%LPD*%
G01*
G04 APERTURE LIST*
%ADD10C,0.150000*%
%ADD11C,0.100000*%
%ADD12C,0.500000*%
%ADD13C,0.000000*%
%ADD14C,0.120000*%
G04 APERTURE END LIST*
D10*
X165865980Y-92049219D02*
X165913600Y-92096838D01*
X165913600Y-92096838D02*
X165961219Y-92239695D01*
X165961219Y-92239695D02*
X165961219Y-92334933D01*
X165961219Y-92334933D02*
X165913600Y-92477790D01*
X165913600Y-92477790D02*
X165818361Y-92573028D01*
X165818361Y-92573028D02*
X165723123Y-92620647D01*
X165723123Y-92620647D02*
X165532647Y-92668266D01*
X165532647Y-92668266D02*
X165389790Y-92668266D01*
X165389790Y-92668266D02*
X165199314Y-92620647D01*
X165199314Y-92620647D02*
X165104076Y-92573028D01*
X165104076Y-92573028D02*
X165008838Y-92477790D01*
X165008838Y-92477790D02*
X164961219Y-92334933D01*
X164961219Y-92334933D02*
X164961219Y-92239695D01*
X164961219Y-92239695D02*
X165008838Y-92096838D01*
X165008838Y-92096838D02*
X165056457Y-92049219D01*
X164961219Y-91430171D02*
X164961219Y-91239695D01*
X164961219Y-91239695D02*
X165008838Y-91144457D01*
X165008838Y-91144457D02*
X165104076Y-91049219D01*
X165104076Y-91049219D02*
X165294552Y-91001600D01*
X165294552Y-91001600D02*
X165627885Y-91001600D01*
X165627885Y-91001600D02*
X165818361Y-91049219D01*
X165818361Y-91049219D02*
X165913600Y-91144457D01*
X165913600Y-91144457D02*
X165961219Y-91239695D01*
X165961219Y-91239695D02*
X165961219Y-91430171D01*
X165961219Y-91430171D02*
X165913600Y-91525409D01*
X165913600Y-91525409D02*
X165818361Y-91620647D01*
X165818361Y-91620647D02*
X165627885Y-91668266D01*
X165627885Y-91668266D02*
X165294552Y-91668266D01*
X165294552Y-91668266D02*
X165104076Y-91620647D01*
X165104076Y-91620647D02*
X165008838Y-91525409D01*
X165008838Y-91525409D02*
X164961219Y-91430171D01*
X165961219Y-90573028D02*
X164961219Y-90573028D01*
X164961219Y-90573028D02*
X165675504Y-90239695D01*
X165675504Y-90239695D02*
X164961219Y-89906362D01*
X164961219Y-89906362D02*
X165961219Y-89906362D01*
X165961219Y-89430171D02*
X164961219Y-89430171D01*
X164961219Y-89430171D02*
X165675504Y-89096838D01*
X165675504Y-89096838D02*
X164961219Y-88763505D01*
X164961219Y-88763505D02*
X165961219Y-88763505D01*
X166056457Y-88525410D02*
X166056457Y-87763505D01*
X165437409Y-87192076D02*
X165485028Y-87049219D01*
X165485028Y-87049219D02*
X165532647Y-87001600D01*
X165532647Y-87001600D02*
X165627885Y-86953981D01*
X165627885Y-86953981D02*
X165770742Y-86953981D01*
X165770742Y-86953981D02*
X165865980Y-87001600D01*
X165865980Y-87001600D02*
X165913600Y-87049219D01*
X165913600Y-87049219D02*
X165961219Y-87144457D01*
X165961219Y-87144457D02*
X165961219Y-87525409D01*
X165961219Y-87525409D02*
X164961219Y-87525409D01*
X164961219Y-87525409D02*
X164961219Y-87192076D01*
X164961219Y-87192076D02*
X165008838Y-87096838D01*
X165008838Y-87096838D02*
X165056457Y-87049219D01*
X165056457Y-87049219D02*
X165151695Y-87001600D01*
X165151695Y-87001600D02*
X165246933Y-87001600D01*
X165246933Y-87001600D02*
X165342171Y-87049219D01*
X165342171Y-87049219D02*
X165389790Y-87096838D01*
X165389790Y-87096838D02*
X165437409Y-87192076D01*
X165437409Y-87192076D02*
X165437409Y-87525409D01*
X165675504Y-86573028D02*
X165675504Y-86096838D01*
X165961219Y-86668266D02*
X164961219Y-86334933D01*
X164961219Y-86334933D02*
X165961219Y-86001600D01*
X164961219Y-85811123D02*
X164961219Y-85239695D01*
X165961219Y-85525409D02*
X164961219Y-85525409D01*
X166881980Y-57979866D02*
X166929600Y-58027485D01*
X166929600Y-58027485D02*
X166977219Y-58170342D01*
X166977219Y-58170342D02*
X166977219Y-58265580D01*
X166977219Y-58265580D02*
X166929600Y-58408437D01*
X166929600Y-58408437D02*
X166834361Y-58503675D01*
X166834361Y-58503675D02*
X166739123Y-58551294D01*
X166739123Y-58551294D02*
X166548647Y-58598913D01*
X166548647Y-58598913D02*
X166405790Y-58598913D01*
X166405790Y-58598913D02*
X166215314Y-58551294D01*
X166215314Y-58551294D02*
X166120076Y-58503675D01*
X166120076Y-58503675D02*
X166024838Y-58408437D01*
X166024838Y-58408437D02*
X165977219Y-58265580D01*
X165977219Y-58265580D02*
X165977219Y-58170342D01*
X165977219Y-58170342D02*
X166024838Y-58027485D01*
X166024838Y-58027485D02*
X166072457Y-57979866D01*
X165977219Y-57360818D02*
X165977219Y-57170342D01*
X165977219Y-57170342D02*
X166024838Y-57075104D01*
X166024838Y-57075104D02*
X166120076Y-56979866D01*
X166120076Y-56979866D02*
X166310552Y-56932247D01*
X166310552Y-56932247D02*
X166643885Y-56932247D01*
X166643885Y-56932247D02*
X166834361Y-56979866D01*
X166834361Y-56979866D02*
X166929600Y-57075104D01*
X166929600Y-57075104D02*
X166977219Y-57170342D01*
X166977219Y-57170342D02*
X166977219Y-57360818D01*
X166977219Y-57360818D02*
X166929600Y-57456056D01*
X166929600Y-57456056D02*
X166834361Y-57551294D01*
X166834361Y-57551294D02*
X166643885Y-57598913D01*
X166643885Y-57598913D02*
X166310552Y-57598913D01*
X166310552Y-57598913D02*
X166120076Y-57551294D01*
X166120076Y-57551294D02*
X166024838Y-57456056D01*
X166024838Y-57456056D02*
X165977219Y-57360818D01*
X166977219Y-56503675D02*
X165977219Y-56503675D01*
X165977219Y-56503675D02*
X166691504Y-56170342D01*
X166691504Y-56170342D02*
X165977219Y-55837009D01*
X165977219Y-55837009D02*
X166977219Y-55837009D01*
X166977219Y-55360818D02*
X165977219Y-55360818D01*
X165977219Y-55360818D02*
X166691504Y-55027485D01*
X166691504Y-55027485D02*
X165977219Y-54694152D01*
X165977219Y-54694152D02*
X166977219Y-54694152D01*
X167072457Y-54456057D02*
X167072457Y-53694152D01*
X165977219Y-53265580D02*
X165977219Y-53075104D01*
X165977219Y-53075104D02*
X166024838Y-52979866D01*
X166024838Y-52979866D02*
X166120076Y-52884628D01*
X166120076Y-52884628D02*
X166310552Y-52837009D01*
X166310552Y-52837009D02*
X166643885Y-52837009D01*
X166643885Y-52837009D02*
X166834361Y-52884628D01*
X166834361Y-52884628D02*
X166929600Y-52979866D01*
X166929600Y-52979866D02*
X166977219Y-53075104D01*
X166977219Y-53075104D02*
X166977219Y-53265580D01*
X166977219Y-53265580D02*
X166929600Y-53360818D01*
X166929600Y-53360818D02*
X166834361Y-53456056D01*
X166834361Y-53456056D02*
X166643885Y-53503675D01*
X166643885Y-53503675D02*
X166310552Y-53503675D01*
X166310552Y-53503675D02*
X166120076Y-53456056D01*
X166120076Y-53456056D02*
X166024838Y-53360818D01*
X166024838Y-53360818D02*
X165977219Y-53265580D01*
X165977219Y-52408437D02*
X166786742Y-52408437D01*
X166786742Y-52408437D02*
X166881980Y-52360818D01*
X166881980Y-52360818D02*
X166929600Y-52313199D01*
X166929600Y-52313199D02*
X166977219Y-52217961D01*
X166977219Y-52217961D02*
X166977219Y-52027485D01*
X166977219Y-52027485D02*
X166929600Y-51932247D01*
X166929600Y-51932247D02*
X166881980Y-51884628D01*
X166881980Y-51884628D02*
X166786742Y-51837009D01*
X166786742Y-51837009D02*
X165977219Y-51837009D01*
X165977219Y-51503675D02*
X165977219Y-50932247D01*
X166977219Y-51217961D02*
X165977219Y-51217961D01*
X108624019Y-121524494D02*
X109433542Y-121524494D01*
X109433542Y-121524494D02*
X109528780Y-121476875D01*
X109528780Y-121476875D02*
X109576400Y-121429256D01*
X109576400Y-121429256D02*
X109624019Y-121334018D01*
X109624019Y-121334018D02*
X109624019Y-121143542D01*
X109624019Y-121143542D02*
X109576400Y-121048304D01*
X109576400Y-121048304D02*
X109528780Y-121000685D01*
X109528780Y-121000685D02*
X109433542Y-120953066D01*
X109433542Y-120953066D02*
X108624019Y-120953066D01*
X108719257Y-120524494D02*
X108671638Y-120476875D01*
X108671638Y-120476875D02*
X108624019Y-120381637D01*
X108624019Y-120381637D02*
X108624019Y-120143542D01*
X108624019Y-120143542D02*
X108671638Y-120048304D01*
X108671638Y-120048304D02*
X108719257Y-120000685D01*
X108719257Y-120000685D02*
X108814495Y-119953066D01*
X108814495Y-119953066D02*
X108909733Y-119953066D01*
X108909733Y-119953066D02*
X109052590Y-120000685D01*
X109052590Y-120000685D02*
X109624019Y-120572113D01*
X109624019Y-120572113D02*
X109624019Y-119953066D01*
X109624019Y-119524494D02*
X108624019Y-119524494D01*
X108624019Y-119524494D02*
X108624019Y-119286399D01*
X108624019Y-119286399D02*
X108671638Y-119143542D01*
X108671638Y-119143542D02*
X108766876Y-119048304D01*
X108766876Y-119048304D02*
X108862114Y-119000685D01*
X108862114Y-119000685D02*
X109052590Y-118953066D01*
X109052590Y-118953066D02*
X109195447Y-118953066D01*
X109195447Y-118953066D02*
X109385923Y-119000685D01*
X109385923Y-119000685D02*
X109481161Y-119048304D01*
X109481161Y-119048304D02*
X109576400Y-119143542D01*
X109576400Y-119143542D02*
X109624019Y-119286399D01*
X109624019Y-119286399D02*
X109624019Y-119524494D01*
X108719257Y-118572113D02*
X108671638Y-118524494D01*
X108671638Y-118524494D02*
X108624019Y-118429256D01*
X108624019Y-118429256D02*
X108624019Y-118191161D01*
X108624019Y-118191161D02*
X108671638Y-118095923D01*
X108671638Y-118095923D02*
X108719257Y-118048304D01*
X108719257Y-118048304D02*
X108814495Y-118000685D01*
X108814495Y-118000685D02*
X108909733Y-118000685D01*
X108909733Y-118000685D02*
X109052590Y-118048304D01*
X109052590Y-118048304D02*
X109624019Y-118619732D01*
X109624019Y-118619732D02*
X109624019Y-118000685D01*
X139627219Y-89253219D02*
X139627219Y-88253219D01*
X139627219Y-88253219D02*
X139865314Y-88253219D01*
X139865314Y-88253219D02*
X140008171Y-88300838D01*
X140008171Y-88300838D02*
X140103409Y-88396076D01*
X140103409Y-88396076D02*
X140151028Y-88491314D01*
X140151028Y-88491314D02*
X140198647Y-88681790D01*
X140198647Y-88681790D02*
X140198647Y-88824647D01*
X140198647Y-88824647D02*
X140151028Y-89015123D01*
X140151028Y-89015123D02*
X140103409Y-89110361D01*
X140103409Y-89110361D02*
X140008171Y-89205600D01*
X140008171Y-89205600D02*
X139865314Y-89253219D01*
X139865314Y-89253219D02*
X139627219Y-89253219D01*
X140389124Y-89348457D02*
X141151028Y-89348457D01*
X141722457Y-88729409D02*
X141865314Y-88777028D01*
X141865314Y-88777028D02*
X141912933Y-88824647D01*
X141912933Y-88824647D02*
X141960552Y-88919885D01*
X141960552Y-88919885D02*
X141960552Y-89062742D01*
X141960552Y-89062742D02*
X141912933Y-89157980D01*
X141912933Y-89157980D02*
X141865314Y-89205600D01*
X141865314Y-89205600D02*
X141770076Y-89253219D01*
X141770076Y-89253219D02*
X141389124Y-89253219D01*
X141389124Y-89253219D02*
X141389124Y-88253219D01*
X141389124Y-88253219D02*
X141722457Y-88253219D01*
X141722457Y-88253219D02*
X141817695Y-88300838D01*
X141817695Y-88300838D02*
X141865314Y-88348457D01*
X141865314Y-88348457D02*
X141912933Y-88443695D01*
X141912933Y-88443695D02*
X141912933Y-88538933D01*
X141912933Y-88538933D02*
X141865314Y-88634171D01*
X141865314Y-88634171D02*
X141817695Y-88681790D01*
X141817695Y-88681790D02*
X141722457Y-88729409D01*
X141722457Y-88729409D02*
X141389124Y-88729409D01*
X142341505Y-88967504D02*
X142817695Y-88967504D01*
X142246267Y-89253219D02*
X142579600Y-88253219D01*
X142579600Y-88253219D02*
X142912933Y-89253219D01*
X143103410Y-88253219D02*
X143674838Y-88253219D01*
X143389124Y-89253219D02*
X143389124Y-88253219D01*
X166424780Y-74205695D02*
X166472400Y-74253314D01*
X166472400Y-74253314D02*
X166520019Y-74396171D01*
X166520019Y-74396171D02*
X166520019Y-74491409D01*
X166520019Y-74491409D02*
X166472400Y-74634266D01*
X166472400Y-74634266D02*
X166377161Y-74729504D01*
X166377161Y-74729504D02*
X166281923Y-74777123D01*
X166281923Y-74777123D02*
X166091447Y-74824742D01*
X166091447Y-74824742D02*
X165948590Y-74824742D01*
X165948590Y-74824742D02*
X165758114Y-74777123D01*
X165758114Y-74777123D02*
X165662876Y-74729504D01*
X165662876Y-74729504D02*
X165567638Y-74634266D01*
X165567638Y-74634266D02*
X165520019Y-74491409D01*
X165520019Y-74491409D02*
X165520019Y-74396171D01*
X165520019Y-74396171D02*
X165567638Y-74253314D01*
X165567638Y-74253314D02*
X165615257Y-74205695D01*
X165520019Y-73586647D02*
X165520019Y-73396171D01*
X165520019Y-73396171D02*
X165567638Y-73300933D01*
X165567638Y-73300933D02*
X165662876Y-73205695D01*
X165662876Y-73205695D02*
X165853352Y-73158076D01*
X165853352Y-73158076D02*
X166186685Y-73158076D01*
X166186685Y-73158076D02*
X166377161Y-73205695D01*
X166377161Y-73205695D02*
X166472400Y-73300933D01*
X166472400Y-73300933D02*
X166520019Y-73396171D01*
X166520019Y-73396171D02*
X166520019Y-73586647D01*
X166520019Y-73586647D02*
X166472400Y-73681885D01*
X166472400Y-73681885D02*
X166377161Y-73777123D01*
X166377161Y-73777123D02*
X166186685Y-73824742D01*
X166186685Y-73824742D02*
X165853352Y-73824742D01*
X165853352Y-73824742D02*
X165662876Y-73777123D01*
X165662876Y-73777123D02*
X165567638Y-73681885D01*
X165567638Y-73681885D02*
X165520019Y-73586647D01*
X166520019Y-72729504D02*
X165520019Y-72729504D01*
X165520019Y-72729504D02*
X166234304Y-72396171D01*
X166234304Y-72396171D02*
X165520019Y-72062838D01*
X165520019Y-72062838D02*
X166520019Y-72062838D01*
X166520019Y-71586647D02*
X165520019Y-71586647D01*
X165520019Y-71586647D02*
X166234304Y-71253314D01*
X166234304Y-71253314D02*
X165520019Y-70919981D01*
X165520019Y-70919981D02*
X166520019Y-70919981D01*
X166615257Y-70681886D02*
X166615257Y-69919981D01*
X166520019Y-69681885D02*
X165520019Y-69681885D01*
X165520019Y-69681885D02*
X165520019Y-69300933D01*
X165520019Y-69300933D02*
X165567638Y-69205695D01*
X165567638Y-69205695D02*
X165615257Y-69158076D01*
X165615257Y-69158076D02*
X165710495Y-69110457D01*
X165710495Y-69110457D02*
X165853352Y-69110457D01*
X165853352Y-69110457D02*
X165948590Y-69158076D01*
X165948590Y-69158076D02*
X165996209Y-69205695D01*
X165996209Y-69205695D02*
X166043828Y-69300933D01*
X166043828Y-69300933D02*
X166043828Y-69681885D01*
X166472400Y-68729504D02*
X166520019Y-68586647D01*
X166520019Y-68586647D02*
X166520019Y-68348552D01*
X166520019Y-68348552D02*
X166472400Y-68253314D01*
X166472400Y-68253314D02*
X166424780Y-68205695D01*
X166424780Y-68205695D02*
X166329542Y-68158076D01*
X166329542Y-68158076D02*
X166234304Y-68158076D01*
X166234304Y-68158076D02*
X166139066Y-68205695D01*
X166139066Y-68205695D02*
X166091447Y-68253314D01*
X166091447Y-68253314D02*
X166043828Y-68348552D01*
X166043828Y-68348552D02*
X165996209Y-68539028D01*
X165996209Y-68539028D02*
X165948590Y-68634266D01*
X165948590Y-68634266D02*
X165900971Y-68681885D01*
X165900971Y-68681885D02*
X165805733Y-68729504D01*
X165805733Y-68729504D02*
X165710495Y-68729504D01*
X165710495Y-68729504D02*
X165615257Y-68681885D01*
X165615257Y-68681885D02*
X165567638Y-68634266D01*
X165567638Y-68634266D02*
X165520019Y-68539028D01*
X165520019Y-68539028D02*
X165520019Y-68300933D01*
X165520019Y-68300933D02*
X165567638Y-68158076D01*
X165520019Y-67729504D02*
X166329542Y-67729504D01*
X166329542Y-67729504D02*
X166424780Y-67681885D01*
X166424780Y-67681885D02*
X166472400Y-67634266D01*
X166472400Y-67634266D02*
X166520019Y-67539028D01*
X166520019Y-67539028D02*
X166520019Y-67348552D01*
X166520019Y-67348552D02*
X166472400Y-67253314D01*
X166472400Y-67253314D02*
X166424780Y-67205695D01*
X166424780Y-67205695D02*
X166329542Y-67158076D01*
X166329542Y-67158076D02*
X165520019Y-67158076D01*
X131529675Y-78737619D02*
X130958247Y-78737619D01*
X131243961Y-78737619D02*
X131243961Y-77737619D01*
X131243961Y-77737619D02*
X131148723Y-77880476D01*
X131148723Y-77880476D02*
X131053485Y-77975714D01*
X131053485Y-77975714D02*
X130958247Y-78023333D01*
X131910628Y-77832857D02*
X131958247Y-77785238D01*
X131958247Y-77785238D02*
X132053485Y-77737619D01*
X132053485Y-77737619D02*
X132291580Y-77737619D01*
X132291580Y-77737619D02*
X132386818Y-77785238D01*
X132386818Y-77785238D02*
X132434437Y-77832857D01*
X132434437Y-77832857D02*
X132482056Y-77928095D01*
X132482056Y-77928095D02*
X132482056Y-78023333D01*
X132482056Y-78023333D02*
X132434437Y-78166190D01*
X132434437Y-78166190D02*
X131863009Y-78737619D01*
X131863009Y-78737619D02*
X132482056Y-78737619D01*
X132767771Y-77737619D02*
X133101104Y-78737619D01*
X133101104Y-78737619D02*
X133434437Y-77737619D01*
X133529676Y-78832857D02*
X134291580Y-78832857D01*
X135005866Y-77737619D02*
X134529676Y-77737619D01*
X134529676Y-77737619D02*
X134482057Y-78213809D01*
X134482057Y-78213809D02*
X134529676Y-78166190D01*
X134529676Y-78166190D02*
X134624914Y-78118571D01*
X134624914Y-78118571D02*
X134863009Y-78118571D01*
X134863009Y-78118571D02*
X134958247Y-78166190D01*
X134958247Y-78166190D02*
X135005866Y-78213809D01*
X135005866Y-78213809D02*
X135053485Y-78309047D01*
X135053485Y-78309047D02*
X135053485Y-78547142D01*
X135053485Y-78547142D02*
X135005866Y-78642380D01*
X135005866Y-78642380D02*
X134958247Y-78690000D01*
X134958247Y-78690000D02*
X134863009Y-78737619D01*
X134863009Y-78737619D02*
X134624914Y-78737619D01*
X134624914Y-78737619D02*
X134529676Y-78690000D01*
X134529676Y-78690000D02*
X134482057Y-78642380D01*
X135339200Y-77737619D02*
X135672533Y-78737619D01*
X135672533Y-78737619D02*
X136005866Y-77737619D01*
X136101105Y-78832857D02*
X136863009Y-78832857D01*
X137434438Y-78213809D02*
X137577295Y-78261428D01*
X137577295Y-78261428D02*
X137624914Y-78309047D01*
X137624914Y-78309047D02*
X137672533Y-78404285D01*
X137672533Y-78404285D02*
X137672533Y-78547142D01*
X137672533Y-78547142D02*
X137624914Y-78642380D01*
X137624914Y-78642380D02*
X137577295Y-78690000D01*
X137577295Y-78690000D02*
X137482057Y-78737619D01*
X137482057Y-78737619D02*
X137101105Y-78737619D01*
X137101105Y-78737619D02*
X137101105Y-77737619D01*
X137101105Y-77737619D02*
X137434438Y-77737619D01*
X137434438Y-77737619D02*
X137529676Y-77785238D01*
X137529676Y-77785238D02*
X137577295Y-77832857D01*
X137577295Y-77832857D02*
X137624914Y-77928095D01*
X137624914Y-77928095D02*
X137624914Y-78023333D01*
X137624914Y-78023333D02*
X137577295Y-78118571D01*
X137577295Y-78118571D02*
X137529676Y-78166190D01*
X137529676Y-78166190D02*
X137434438Y-78213809D01*
X137434438Y-78213809D02*
X137101105Y-78213809D01*
X138101105Y-77737619D02*
X138101105Y-78547142D01*
X138101105Y-78547142D02*
X138148724Y-78642380D01*
X138148724Y-78642380D02*
X138196343Y-78690000D01*
X138196343Y-78690000D02*
X138291581Y-78737619D01*
X138291581Y-78737619D02*
X138482057Y-78737619D01*
X138482057Y-78737619D02*
X138577295Y-78690000D01*
X138577295Y-78690000D02*
X138624914Y-78642380D01*
X138624914Y-78642380D02*
X138672533Y-78547142D01*
X138672533Y-78547142D02*
X138672533Y-77737619D01*
X139720152Y-78642380D02*
X139672533Y-78690000D01*
X139672533Y-78690000D02*
X139529676Y-78737619D01*
X139529676Y-78737619D02*
X139434438Y-78737619D01*
X139434438Y-78737619D02*
X139291581Y-78690000D01*
X139291581Y-78690000D02*
X139196343Y-78594761D01*
X139196343Y-78594761D02*
X139148724Y-78499523D01*
X139148724Y-78499523D02*
X139101105Y-78309047D01*
X139101105Y-78309047D02*
X139101105Y-78166190D01*
X139101105Y-78166190D02*
X139148724Y-77975714D01*
X139148724Y-77975714D02*
X139196343Y-77880476D01*
X139196343Y-77880476D02*
X139291581Y-77785238D01*
X139291581Y-77785238D02*
X139434438Y-77737619D01*
X139434438Y-77737619D02*
X139529676Y-77737619D01*
X139529676Y-77737619D02*
X139672533Y-77785238D01*
X139672533Y-77785238D02*
X139720152Y-77832857D01*
X140148724Y-78737619D02*
X140148724Y-77737619D01*
X140720152Y-78737619D02*
X140291581Y-78166190D01*
X140720152Y-77737619D02*
X140148724Y-78309047D01*
X110284419Y-92771505D02*
X109808228Y-93104838D01*
X110284419Y-93342933D02*
X109284419Y-93342933D01*
X109284419Y-93342933D02*
X109284419Y-92961981D01*
X109284419Y-92961981D02*
X109332038Y-92866743D01*
X109332038Y-92866743D02*
X109379657Y-92819124D01*
X109379657Y-92819124D02*
X109474895Y-92771505D01*
X109474895Y-92771505D02*
X109617752Y-92771505D01*
X109617752Y-92771505D02*
X109712990Y-92819124D01*
X109712990Y-92819124D02*
X109760609Y-92866743D01*
X109760609Y-92866743D02*
X109808228Y-92961981D01*
X109808228Y-92961981D02*
X109808228Y-93342933D01*
X110284419Y-92200076D02*
X110236800Y-92295314D01*
X110236800Y-92295314D02*
X110189180Y-92342933D01*
X110189180Y-92342933D02*
X110093942Y-92390552D01*
X110093942Y-92390552D02*
X109808228Y-92390552D01*
X109808228Y-92390552D02*
X109712990Y-92342933D01*
X109712990Y-92342933D02*
X109665371Y-92295314D01*
X109665371Y-92295314D02*
X109617752Y-92200076D01*
X109617752Y-92200076D02*
X109617752Y-92057219D01*
X109617752Y-92057219D02*
X109665371Y-91961981D01*
X109665371Y-91961981D02*
X109712990Y-91914362D01*
X109712990Y-91914362D02*
X109808228Y-91866743D01*
X109808228Y-91866743D02*
X110093942Y-91866743D01*
X110093942Y-91866743D02*
X110189180Y-91914362D01*
X110189180Y-91914362D02*
X110236800Y-91961981D01*
X110236800Y-91961981D02*
X110284419Y-92057219D01*
X110284419Y-92057219D02*
X110284419Y-92200076D01*
X110284419Y-91438171D02*
X109284419Y-91438171D01*
X109665371Y-91438171D02*
X109617752Y-91342933D01*
X109617752Y-91342933D02*
X109617752Y-91152457D01*
X109617752Y-91152457D02*
X109665371Y-91057219D01*
X109665371Y-91057219D02*
X109712990Y-91009600D01*
X109712990Y-91009600D02*
X109808228Y-90961981D01*
X109808228Y-90961981D02*
X110093942Y-90961981D01*
X110093942Y-90961981D02*
X110189180Y-91009600D01*
X110189180Y-91009600D02*
X110236800Y-91057219D01*
X110236800Y-91057219D02*
X110284419Y-91152457D01*
X110284419Y-91152457D02*
X110284419Y-91342933D01*
X110284419Y-91342933D02*
X110236800Y-91438171D01*
X110284419Y-90390552D02*
X110236800Y-90485790D01*
X110236800Y-90485790D02*
X110189180Y-90533409D01*
X110189180Y-90533409D02*
X110093942Y-90581028D01*
X110093942Y-90581028D02*
X109808228Y-90581028D01*
X109808228Y-90581028D02*
X109712990Y-90533409D01*
X109712990Y-90533409D02*
X109665371Y-90485790D01*
X109665371Y-90485790D02*
X109617752Y-90390552D01*
X109617752Y-90390552D02*
X109617752Y-90247695D01*
X109617752Y-90247695D02*
X109665371Y-90152457D01*
X109665371Y-90152457D02*
X109712990Y-90104838D01*
X109712990Y-90104838D02*
X109808228Y-90057219D01*
X109808228Y-90057219D02*
X110093942Y-90057219D01*
X110093942Y-90057219D02*
X110189180Y-90104838D01*
X110189180Y-90104838D02*
X110236800Y-90152457D01*
X110236800Y-90152457D02*
X110284419Y-90247695D01*
X110284419Y-90247695D02*
X110284419Y-90390552D01*
X110189180Y-89057219D02*
X110236800Y-89104838D01*
X110236800Y-89104838D02*
X110284419Y-89247695D01*
X110284419Y-89247695D02*
X110284419Y-89342933D01*
X110284419Y-89342933D02*
X110236800Y-89485790D01*
X110236800Y-89485790D02*
X110141561Y-89581028D01*
X110141561Y-89581028D02*
X110046323Y-89628647D01*
X110046323Y-89628647D02*
X109855847Y-89676266D01*
X109855847Y-89676266D02*
X109712990Y-89676266D01*
X109712990Y-89676266D02*
X109522514Y-89628647D01*
X109522514Y-89628647D02*
X109427276Y-89581028D01*
X109427276Y-89581028D02*
X109332038Y-89485790D01*
X109332038Y-89485790D02*
X109284419Y-89342933D01*
X109284419Y-89342933D02*
X109284419Y-89247695D01*
X109284419Y-89247695D02*
X109332038Y-89104838D01*
X109332038Y-89104838D02*
X109379657Y-89057219D01*
X110284419Y-88485790D02*
X110236800Y-88581028D01*
X110236800Y-88581028D02*
X110141561Y-88628647D01*
X110141561Y-88628647D02*
X109284419Y-88628647D01*
X110284419Y-87676266D02*
X109760609Y-87676266D01*
X109760609Y-87676266D02*
X109665371Y-87723885D01*
X109665371Y-87723885D02*
X109617752Y-87819123D01*
X109617752Y-87819123D02*
X109617752Y-88009599D01*
X109617752Y-88009599D02*
X109665371Y-88104837D01*
X110236800Y-87676266D02*
X110284419Y-87771504D01*
X110284419Y-87771504D02*
X110284419Y-88009599D01*
X110284419Y-88009599D02*
X110236800Y-88104837D01*
X110236800Y-88104837D02*
X110141561Y-88152456D01*
X110141561Y-88152456D02*
X110046323Y-88152456D01*
X110046323Y-88152456D02*
X109951085Y-88104837D01*
X109951085Y-88104837D02*
X109903466Y-88009599D01*
X109903466Y-88009599D02*
X109903466Y-87771504D01*
X109903466Y-87771504D02*
X109855847Y-87676266D01*
X109617752Y-87295313D02*
X110284419Y-87104837D01*
X110284419Y-87104837D02*
X109808228Y-86914361D01*
X109808228Y-86914361D02*
X110284419Y-86723885D01*
X110284419Y-86723885D02*
X109617752Y-86533409D01*
X110284419Y-85628647D02*
X110284419Y-86200075D01*
X110284419Y-85914361D02*
X109284419Y-85914361D01*
X109284419Y-85914361D02*
X109427276Y-86009599D01*
X109427276Y-86009599D02*
X109522514Y-86104837D01*
X109522514Y-86104837D02*
X109570133Y-86200075D01*
X109776419Y-107757505D02*
X109300228Y-108090838D01*
X109776419Y-108328933D02*
X108776419Y-108328933D01*
X108776419Y-108328933D02*
X108776419Y-107947981D01*
X108776419Y-107947981D02*
X108824038Y-107852743D01*
X108824038Y-107852743D02*
X108871657Y-107805124D01*
X108871657Y-107805124D02*
X108966895Y-107757505D01*
X108966895Y-107757505D02*
X109109752Y-107757505D01*
X109109752Y-107757505D02*
X109204990Y-107805124D01*
X109204990Y-107805124D02*
X109252609Y-107852743D01*
X109252609Y-107852743D02*
X109300228Y-107947981D01*
X109300228Y-107947981D02*
X109300228Y-108328933D01*
X109776419Y-107186076D02*
X109728800Y-107281314D01*
X109728800Y-107281314D02*
X109681180Y-107328933D01*
X109681180Y-107328933D02*
X109585942Y-107376552D01*
X109585942Y-107376552D02*
X109300228Y-107376552D01*
X109300228Y-107376552D02*
X109204990Y-107328933D01*
X109204990Y-107328933D02*
X109157371Y-107281314D01*
X109157371Y-107281314D02*
X109109752Y-107186076D01*
X109109752Y-107186076D02*
X109109752Y-107043219D01*
X109109752Y-107043219D02*
X109157371Y-106947981D01*
X109157371Y-106947981D02*
X109204990Y-106900362D01*
X109204990Y-106900362D02*
X109300228Y-106852743D01*
X109300228Y-106852743D02*
X109585942Y-106852743D01*
X109585942Y-106852743D02*
X109681180Y-106900362D01*
X109681180Y-106900362D02*
X109728800Y-106947981D01*
X109728800Y-106947981D02*
X109776419Y-107043219D01*
X109776419Y-107043219D02*
X109776419Y-107186076D01*
X109776419Y-106424171D02*
X108776419Y-106424171D01*
X109157371Y-106424171D02*
X109109752Y-106328933D01*
X109109752Y-106328933D02*
X109109752Y-106138457D01*
X109109752Y-106138457D02*
X109157371Y-106043219D01*
X109157371Y-106043219D02*
X109204990Y-105995600D01*
X109204990Y-105995600D02*
X109300228Y-105947981D01*
X109300228Y-105947981D02*
X109585942Y-105947981D01*
X109585942Y-105947981D02*
X109681180Y-105995600D01*
X109681180Y-105995600D02*
X109728800Y-106043219D01*
X109728800Y-106043219D02*
X109776419Y-106138457D01*
X109776419Y-106138457D02*
X109776419Y-106328933D01*
X109776419Y-106328933D02*
X109728800Y-106424171D01*
X109776419Y-105376552D02*
X109728800Y-105471790D01*
X109728800Y-105471790D02*
X109681180Y-105519409D01*
X109681180Y-105519409D02*
X109585942Y-105567028D01*
X109585942Y-105567028D02*
X109300228Y-105567028D01*
X109300228Y-105567028D02*
X109204990Y-105519409D01*
X109204990Y-105519409D02*
X109157371Y-105471790D01*
X109157371Y-105471790D02*
X109109752Y-105376552D01*
X109109752Y-105376552D02*
X109109752Y-105233695D01*
X109109752Y-105233695D02*
X109157371Y-105138457D01*
X109157371Y-105138457D02*
X109204990Y-105090838D01*
X109204990Y-105090838D02*
X109300228Y-105043219D01*
X109300228Y-105043219D02*
X109585942Y-105043219D01*
X109585942Y-105043219D02*
X109681180Y-105090838D01*
X109681180Y-105090838D02*
X109728800Y-105138457D01*
X109728800Y-105138457D02*
X109776419Y-105233695D01*
X109776419Y-105233695D02*
X109776419Y-105376552D01*
X109681180Y-104043219D02*
X109728800Y-104090838D01*
X109728800Y-104090838D02*
X109776419Y-104233695D01*
X109776419Y-104233695D02*
X109776419Y-104328933D01*
X109776419Y-104328933D02*
X109728800Y-104471790D01*
X109728800Y-104471790D02*
X109633561Y-104567028D01*
X109633561Y-104567028D02*
X109538323Y-104614647D01*
X109538323Y-104614647D02*
X109347847Y-104662266D01*
X109347847Y-104662266D02*
X109204990Y-104662266D01*
X109204990Y-104662266D02*
X109014514Y-104614647D01*
X109014514Y-104614647D02*
X108919276Y-104567028D01*
X108919276Y-104567028D02*
X108824038Y-104471790D01*
X108824038Y-104471790D02*
X108776419Y-104328933D01*
X108776419Y-104328933D02*
X108776419Y-104233695D01*
X108776419Y-104233695D02*
X108824038Y-104090838D01*
X108824038Y-104090838D02*
X108871657Y-104043219D01*
X109776419Y-103471790D02*
X109728800Y-103567028D01*
X109728800Y-103567028D02*
X109633561Y-103614647D01*
X109633561Y-103614647D02*
X108776419Y-103614647D01*
X109776419Y-102662266D02*
X109252609Y-102662266D01*
X109252609Y-102662266D02*
X109157371Y-102709885D01*
X109157371Y-102709885D02*
X109109752Y-102805123D01*
X109109752Y-102805123D02*
X109109752Y-102995599D01*
X109109752Y-102995599D02*
X109157371Y-103090837D01*
X109728800Y-102662266D02*
X109776419Y-102757504D01*
X109776419Y-102757504D02*
X109776419Y-102995599D01*
X109776419Y-102995599D02*
X109728800Y-103090837D01*
X109728800Y-103090837D02*
X109633561Y-103138456D01*
X109633561Y-103138456D02*
X109538323Y-103138456D01*
X109538323Y-103138456D02*
X109443085Y-103090837D01*
X109443085Y-103090837D02*
X109395466Y-102995599D01*
X109395466Y-102995599D02*
X109395466Y-102757504D01*
X109395466Y-102757504D02*
X109347847Y-102662266D01*
X109109752Y-102281313D02*
X109776419Y-102090837D01*
X109776419Y-102090837D02*
X109300228Y-101900361D01*
X109300228Y-101900361D02*
X109776419Y-101709885D01*
X109776419Y-101709885D02*
X109109752Y-101519409D01*
X108871657Y-101186075D02*
X108824038Y-101138456D01*
X108824038Y-101138456D02*
X108776419Y-101043218D01*
X108776419Y-101043218D02*
X108776419Y-100805123D01*
X108776419Y-100805123D02*
X108824038Y-100709885D01*
X108824038Y-100709885D02*
X108871657Y-100662266D01*
X108871657Y-100662266D02*
X108966895Y-100614647D01*
X108966895Y-100614647D02*
X109062133Y-100614647D01*
X109062133Y-100614647D02*
X109204990Y-100662266D01*
X109204990Y-100662266D02*
X109776419Y-101233694D01*
X109776419Y-101233694D02*
X109776419Y-100614647D01*
D11*
X157142474Y-125582931D02*
X156666284Y-125582931D01*
X156666284Y-125582931D02*
X156666284Y-124582931D01*
X157428189Y-125297216D02*
X157904379Y-125297216D01*
X157332951Y-125582931D02*
X157666284Y-124582931D01*
X157666284Y-124582931D02*
X157999617Y-125582931D01*
X158904379Y-125582931D02*
X158571046Y-125106740D01*
X158332951Y-125582931D02*
X158332951Y-124582931D01*
X158332951Y-124582931D02*
X158713903Y-124582931D01*
X158713903Y-124582931D02*
X158809141Y-124630550D01*
X158809141Y-124630550D02*
X158856760Y-124678169D01*
X158856760Y-124678169D02*
X158904379Y-124773407D01*
X158904379Y-124773407D02*
X158904379Y-124916264D01*
X158904379Y-124916264D02*
X158856760Y-125011502D01*
X158856760Y-125011502D02*
X158809141Y-125059121D01*
X158809141Y-125059121D02*
X158713903Y-125106740D01*
X158713903Y-125106740D02*
X158332951Y-125106740D01*
X159285332Y-125297216D02*
X159761522Y-125297216D01*
X159190094Y-125582931D02*
X159523427Y-124582931D01*
X159523427Y-124582931D02*
X159856760Y-125582931D01*
X160951999Y-125582931D02*
X160951999Y-124582931D01*
X160951999Y-124582931D02*
X161332951Y-124582931D01*
X161332951Y-124582931D02*
X161428189Y-124630550D01*
X161428189Y-124630550D02*
X161475808Y-124678169D01*
X161475808Y-124678169D02*
X161523427Y-124773407D01*
X161523427Y-124773407D02*
X161523427Y-124916264D01*
X161523427Y-124916264D02*
X161475808Y-125011502D01*
X161475808Y-125011502D02*
X161428189Y-125059121D01*
X161428189Y-125059121D02*
X161332951Y-125106740D01*
X161332951Y-125106740D02*
X160951999Y-125106740D01*
X161951999Y-125582931D02*
X161951999Y-124916264D01*
X161951999Y-125106740D02*
X161999618Y-125011502D01*
X161999618Y-125011502D02*
X162047237Y-124963883D01*
X162047237Y-124963883D02*
X162142475Y-124916264D01*
X162142475Y-124916264D02*
X162237713Y-124916264D01*
X162713904Y-125582931D02*
X162618666Y-125535312D01*
X162618666Y-125535312D02*
X162571047Y-125487692D01*
X162571047Y-125487692D02*
X162523428Y-125392454D01*
X162523428Y-125392454D02*
X162523428Y-125106740D01*
X162523428Y-125106740D02*
X162571047Y-125011502D01*
X162571047Y-125011502D02*
X162618666Y-124963883D01*
X162618666Y-124963883D02*
X162713904Y-124916264D01*
X162713904Y-124916264D02*
X162856761Y-124916264D01*
X162856761Y-124916264D02*
X162951999Y-124963883D01*
X162951999Y-124963883D02*
X162999618Y-125011502D01*
X162999618Y-125011502D02*
X163047237Y-125106740D01*
X163047237Y-125106740D02*
X163047237Y-125392454D01*
X163047237Y-125392454D02*
X162999618Y-125487692D01*
X162999618Y-125487692D02*
X162951999Y-125535312D01*
X162951999Y-125535312D02*
X162856761Y-125582931D01*
X162856761Y-125582931D02*
X162713904Y-125582931D01*
X163475809Y-124916264D02*
X163475809Y-125773407D01*
X163475809Y-125773407D02*
X163428190Y-125868645D01*
X163428190Y-125868645D02*
X163332952Y-125916264D01*
X163332952Y-125916264D02*
X163285333Y-125916264D01*
X163475809Y-124582931D02*
X163428190Y-124630550D01*
X163428190Y-124630550D02*
X163475809Y-124678169D01*
X163475809Y-124678169D02*
X163523428Y-124630550D01*
X163523428Y-124630550D02*
X163475809Y-124582931D01*
X163475809Y-124582931D02*
X163475809Y-124678169D01*
X164332951Y-125535312D02*
X164237713Y-125582931D01*
X164237713Y-125582931D02*
X164047237Y-125582931D01*
X164047237Y-125582931D02*
X163951999Y-125535312D01*
X163951999Y-125535312D02*
X163904380Y-125440073D01*
X163904380Y-125440073D02*
X163904380Y-125059121D01*
X163904380Y-125059121D02*
X163951999Y-124963883D01*
X163951999Y-124963883D02*
X164047237Y-124916264D01*
X164047237Y-124916264D02*
X164237713Y-124916264D01*
X164237713Y-124916264D02*
X164332951Y-124963883D01*
X164332951Y-124963883D02*
X164380570Y-125059121D01*
X164380570Y-125059121D02*
X164380570Y-125154359D01*
X164380570Y-125154359D02*
X163904380Y-125249597D01*
X165237713Y-125535312D02*
X165142475Y-125582931D01*
X165142475Y-125582931D02*
X164951999Y-125582931D01*
X164951999Y-125582931D02*
X164856761Y-125535312D01*
X164856761Y-125535312D02*
X164809142Y-125487692D01*
X164809142Y-125487692D02*
X164761523Y-125392454D01*
X164761523Y-125392454D02*
X164761523Y-125106740D01*
X164761523Y-125106740D02*
X164809142Y-125011502D01*
X164809142Y-125011502D02*
X164856761Y-124963883D01*
X164856761Y-124963883D02*
X164951999Y-124916264D01*
X164951999Y-124916264D02*
X165142475Y-124916264D01*
X165142475Y-124916264D02*
X165237713Y-124963883D01*
X165523428Y-124916264D02*
X165904380Y-124916264D01*
X165666285Y-124582931D02*
X165666285Y-125440073D01*
X165666285Y-125440073D02*
X165713904Y-125535312D01*
X165713904Y-125535312D02*
X165809142Y-125582931D01*
X165809142Y-125582931D02*
X165904380Y-125582931D01*
X157142474Y-127192875D02*
X156666284Y-127192875D01*
X156666284Y-127192875D02*
X156666284Y-126192875D01*
X157904379Y-126526208D02*
X157904379Y-127192875D01*
X157475808Y-126526208D02*
X157475808Y-127050017D01*
X157475808Y-127050017D02*
X157523427Y-127145256D01*
X157523427Y-127145256D02*
X157618665Y-127192875D01*
X157618665Y-127192875D02*
X157761522Y-127192875D01*
X157761522Y-127192875D02*
X157856760Y-127145256D01*
X157856760Y-127145256D02*
X157904379Y-127097636D01*
X158809141Y-127145256D02*
X158713903Y-127192875D01*
X158713903Y-127192875D02*
X158523427Y-127192875D01*
X158523427Y-127192875D02*
X158428189Y-127145256D01*
X158428189Y-127145256D02*
X158380570Y-127097636D01*
X158380570Y-127097636D02*
X158332951Y-127002398D01*
X158332951Y-127002398D02*
X158332951Y-126716684D01*
X158332951Y-126716684D02*
X158380570Y-126621446D01*
X158380570Y-126621446D02*
X158428189Y-126573827D01*
X158428189Y-126573827D02*
X158523427Y-126526208D01*
X158523427Y-126526208D02*
X158713903Y-126526208D01*
X158713903Y-126526208D02*
X158809141Y-126573827D01*
X159666284Y-127192875D02*
X159666284Y-126669065D01*
X159666284Y-126669065D02*
X159618665Y-126573827D01*
X159618665Y-126573827D02*
X159523427Y-126526208D01*
X159523427Y-126526208D02*
X159332951Y-126526208D01*
X159332951Y-126526208D02*
X159237713Y-126573827D01*
X159666284Y-127145256D02*
X159571046Y-127192875D01*
X159571046Y-127192875D02*
X159332951Y-127192875D01*
X159332951Y-127192875D02*
X159237713Y-127145256D01*
X159237713Y-127145256D02*
X159190094Y-127050017D01*
X159190094Y-127050017D02*
X159190094Y-126954779D01*
X159190094Y-126954779D02*
X159237713Y-126859541D01*
X159237713Y-126859541D02*
X159332951Y-126811922D01*
X159332951Y-126811922D02*
X159571046Y-126811922D01*
X159571046Y-126811922D02*
X159666284Y-126764303D01*
X160094856Y-127145256D02*
X160190094Y-127192875D01*
X160190094Y-127192875D02*
X160380570Y-127192875D01*
X160380570Y-127192875D02*
X160475808Y-127145256D01*
X160475808Y-127145256D02*
X160523427Y-127050017D01*
X160523427Y-127050017D02*
X160523427Y-127002398D01*
X160523427Y-127002398D02*
X160475808Y-126907160D01*
X160475808Y-126907160D02*
X160380570Y-126859541D01*
X160380570Y-126859541D02*
X160237713Y-126859541D01*
X160237713Y-126859541D02*
X160142475Y-126811922D01*
X160142475Y-126811922D02*
X160094856Y-126716684D01*
X160094856Y-126716684D02*
X160094856Y-126669065D01*
X160094856Y-126669065D02*
X160142475Y-126573827D01*
X160142475Y-126573827D02*
X160237713Y-126526208D01*
X160237713Y-126526208D02*
X160380570Y-126526208D01*
X160380570Y-126526208D02*
X160475808Y-126573827D01*
X161713904Y-127192875D02*
X161713904Y-126192875D01*
X161713904Y-126669065D02*
X162285332Y-126669065D01*
X162285332Y-127192875D02*
X162285332Y-126192875D01*
X163142475Y-127145256D02*
X163047237Y-127192875D01*
X163047237Y-127192875D02*
X162856761Y-127192875D01*
X162856761Y-127192875D02*
X162761523Y-127145256D01*
X162761523Y-127145256D02*
X162713904Y-127050017D01*
X162713904Y-127050017D02*
X162713904Y-126669065D01*
X162713904Y-126669065D02*
X162761523Y-126573827D01*
X162761523Y-126573827D02*
X162856761Y-126526208D01*
X162856761Y-126526208D02*
X163047237Y-126526208D01*
X163047237Y-126526208D02*
X163142475Y-126573827D01*
X163142475Y-126573827D02*
X163190094Y-126669065D01*
X163190094Y-126669065D02*
X163190094Y-126764303D01*
X163190094Y-126764303D02*
X162713904Y-126859541D01*
X163618666Y-127192875D02*
X163618666Y-126526208D01*
X163618666Y-126716684D02*
X163666285Y-126621446D01*
X163666285Y-126621446D02*
X163713904Y-126573827D01*
X163713904Y-126573827D02*
X163809142Y-126526208D01*
X163809142Y-126526208D02*
X163904380Y-126526208D01*
X164237714Y-127192875D02*
X164237714Y-126526208D01*
X164237714Y-126716684D02*
X164285333Y-126621446D01*
X164285333Y-126621446D02*
X164332952Y-126573827D01*
X164332952Y-126573827D02*
X164428190Y-126526208D01*
X164428190Y-126526208D02*
X164523428Y-126526208D01*
X165237714Y-127145256D02*
X165142476Y-127192875D01*
X165142476Y-127192875D02*
X164952000Y-127192875D01*
X164952000Y-127192875D02*
X164856762Y-127145256D01*
X164856762Y-127145256D02*
X164809143Y-127050017D01*
X164809143Y-127050017D02*
X164809143Y-126669065D01*
X164809143Y-126669065D02*
X164856762Y-126573827D01*
X164856762Y-126573827D02*
X164952000Y-126526208D01*
X164952000Y-126526208D02*
X165142476Y-126526208D01*
X165142476Y-126526208D02*
X165237714Y-126573827D01*
X165237714Y-126573827D02*
X165285333Y-126669065D01*
X165285333Y-126669065D02*
X165285333Y-126764303D01*
X165285333Y-126764303D02*
X164809143Y-126859541D01*
X165713905Y-127192875D02*
X165713905Y-126526208D01*
X165713905Y-126716684D02*
X165761524Y-126621446D01*
X165761524Y-126621446D02*
X165809143Y-126573827D01*
X165809143Y-126573827D02*
X165904381Y-126526208D01*
X165904381Y-126526208D02*
X165999619Y-126526208D01*
X166761524Y-127192875D02*
X166761524Y-126669065D01*
X166761524Y-126669065D02*
X166713905Y-126573827D01*
X166713905Y-126573827D02*
X166618667Y-126526208D01*
X166618667Y-126526208D02*
X166428191Y-126526208D01*
X166428191Y-126526208D02*
X166332953Y-126573827D01*
X166761524Y-127145256D02*
X166666286Y-127192875D01*
X166666286Y-127192875D02*
X166428191Y-127192875D01*
X166428191Y-127192875D02*
X166332953Y-127145256D01*
X166332953Y-127145256D02*
X166285334Y-127050017D01*
X166285334Y-127050017D02*
X166285334Y-126954779D01*
X166285334Y-126954779D02*
X166332953Y-126859541D01*
X166332953Y-126859541D02*
X166428191Y-126811922D01*
X166428191Y-126811922D02*
X166666286Y-126811922D01*
X166666286Y-126811922D02*
X166761524Y-126764303D01*
X156666284Y-127802819D02*
X156666284Y-128612342D01*
X156666284Y-128612342D02*
X156713903Y-128707580D01*
X156713903Y-128707580D02*
X156761522Y-128755200D01*
X156761522Y-128755200D02*
X156856760Y-128802819D01*
X156856760Y-128802819D02*
X157047236Y-128802819D01*
X157047236Y-128802819D02*
X157142474Y-128755200D01*
X157142474Y-128755200D02*
X157190093Y-128707580D01*
X157190093Y-128707580D02*
X157237712Y-128612342D01*
X157237712Y-128612342D02*
X157237712Y-127802819D01*
X157713903Y-128802819D02*
X157713903Y-127802819D01*
X157713903Y-127802819D02*
X158094855Y-127802819D01*
X158094855Y-127802819D02*
X158190093Y-127850438D01*
X158190093Y-127850438D02*
X158237712Y-127898057D01*
X158237712Y-127898057D02*
X158285331Y-127993295D01*
X158285331Y-127993295D02*
X158285331Y-128136152D01*
X158285331Y-128136152D02*
X158237712Y-128231390D01*
X158237712Y-128231390D02*
X158190093Y-128279009D01*
X158190093Y-128279009D02*
X158094855Y-128326628D01*
X158094855Y-128326628D02*
X157713903Y-128326628D01*
X158713903Y-128802819D02*
X158713903Y-127802819D01*
X158713903Y-127802819D02*
X159047236Y-128517104D01*
X159047236Y-128517104D02*
X159380569Y-127802819D01*
X159380569Y-127802819D02*
X159380569Y-128802819D01*
X160571046Y-127898057D02*
X160618665Y-127850438D01*
X160618665Y-127850438D02*
X160713903Y-127802819D01*
X160713903Y-127802819D02*
X160951998Y-127802819D01*
X160951998Y-127802819D02*
X161047236Y-127850438D01*
X161047236Y-127850438D02*
X161094855Y-127898057D01*
X161094855Y-127898057D02*
X161142474Y-127993295D01*
X161142474Y-127993295D02*
X161142474Y-128088533D01*
X161142474Y-128088533D02*
X161094855Y-128231390D01*
X161094855Y-128231390D02*
X160523427Y-128802819D01*
X160523427Y-128802819D02*
X161142474Y-128802819D01*
X161761522Y-127802819D02*
X161856760Y-127802819D01*
X161856760Y-127802819D02*
X161951998Y-127850438D01*
X161951998Y-127850438D02*
X161999617Y-127898057D01*
X161999617Y-127898057D02*
X162047236Y-127993295D01*
X162047236Y-127993295D02*
X162094855Y-128183771D01*
X162094855Y-128183771D02*
X162094855Y-128421866D01*
X162094855Y-128421866D02*
X162047236Y-128612342D01*
X162047236Y-128612342D02*
X161999617Y-128707580D01*
X161999617Y-128707580D02*
X161951998Y-128755200D01*
X161951998Y-128755200D02*
X161856760Y-128802819D01*
X161856760Y-128802819D02*
X161761522Y-128802819D01*
X161761522Y-128802819D02*
X161666284Y-128755200D01*
X161666284Y-128755200D02*
X161618665Y-128707580D01*
X161618665Y-128707580D02*
X161571046Y-128612342D01*
X161571046Y-128612342D02*
X161523427Y-128421866D01*
X161523427Y-128421866D02*
X161523427Y-128183771D01*
X161523427Y-128183771D02*
X161571046Y-127993295D01*
X161571046Y-127993295D02*
X161618665Y-127898057D01*
X161618665Y-127898057D02*
X161666284Y-127850438D01*
X161666284Y-127850438D02*
X161761522Y-127802819D01*
X162475808Y-127898057D02*
X162523427Y-127850438D01*
X162523427Y-127850438D02*
X162618665Y-127802819D01*
X162618665Y-127802819D02*
X162856760Y-127802819D01*
X162856760Y-127802819D02*
X162951998Y-127850438D01*
X162951998Y-127850438D02*
X162999617Y-127898057D01*
X162999617Y-127898057D02*
X163047236Y-127993295D01*
X163047236Y-127993295D02*
X163047236Y-128088533D01*
X163047236Y-128088533D02*
X162999617Y-128231390D01*
X162999617Y-128231390D02*
X162428189Y-128802819D01*
X162428189Y-128802819D02*
X163047236Y-128802819D01*
X163951998Y-127802819D02*
X163475808Y-127802819D01*
X163475808Y-127802819D02*
X163428189Y-128279009D01*
X163428189Y-128279009D02*
X163475808Y-128231390D01*
X163475808Y-128231390D02*
X163571046Y-128183771D01*
X163571046Y-128183771D02*
X163809141Y-128183771D01*
X163809141Y-128183771D02*
X163904379Y-128231390D01*
X163904379Y-128231390D02*
X163951998Y-128279009D01*
X163951998Y-128279009D02*
X163999617Y-128374247D01*
X163999617Y-128374247D02*
X163999617Y-128612342D01*
X163999617Y-128612342D02*
X163951998Y-128707580D01*
X163951998Y-128707580D02*
X163904379Y-128755200D01*
X163904379Y-128755200D02*
X163809141Y-128802819D01*
X163809141Y-128802819D02*
X163571046Y-128802819D01*
X163571046Y-128802819D02*
X163475808Y-128755200D01*
X163475808Y-128755200D02*
X163428189Y-128707580D01*
D10*
X154578228Y-97838419D02*
X154244895Y-97362228D01*
X154006800Y-97838419D02*
X154006800Y-96838419D01*
X154006800Y-96838419D02*
X154387752Y-96838419D01*
X154387752Y-96838419D02*
X154482990Y-96886038D01*
X154482990Y-96886038D02*
X154530609Y-96933657D01*
X154530609Y-96933657D02*
X154578228Y-97028895D01*
X154578228Y-97028895D02*
X154578228Y-97171752D01*
X154578228Y-97171752D02*
X154530609Y-97266990D01*
X154530609Y-97266990D02*
X154482990Y-97314609D01*
X154482990Y-97314609D02*
X154387752Y-97362228D01*
X154387752Y-97362228D02*
X154006800Y-97362228D01*
X154768705Y-97933657D02*
X155530609Y-97933657D01*
X156244895Y-97838419D02*
X155768705Y-97838419D01*
X155768705Y-97838419D02*
X155768705Y-96838419D01*
X156578229Y-97314609D02*
X156911562Y-97314609D01*
X157054419Y-97838419D02*
X156578229Y-97838419D01*
X156578229Y-97838419D02*
X156578229Y-96838419D01*
X156578229Y-96838419D02*
X157054419Y-96838419D01*
X157482991Y-97838419D02*
X157482991Y-96838419D01*
X157482991Y-96838419D02*
X157721086Y-96838419D01*
X157721086Y-96838419D02*
X157863943Y-96886038D01*
X157863943Y-96886038D02*
X157959181Y-96981276D01*
X157959181Y-96981276D02*
X158006800Y-97076514D01*
X158006800Y-97076514D02*
X158054419Y-97266990D01*
X158054419Y-97266990D02*
X158054419Y-97409847D01*
X158054419Y-97409847D02*
X158006800Y-97600323D01*
X158006800Y-97600323D02*
X157959181Y-97695561D01*
X157959181Y-97695561D02*
X157863943Y-97790800D01*
X157863943Y-97790800D02*
X157721086Y-97838419D01*
X157721086Y-97838419D02*
X157482991Y-97838419D01*
X165183409Y-121981600D02*
X165231028Y-121838743D01*
X165231028Y-121838743D02*
X165278647Y-121791124D01*
X165278647Y-121791124D02*
X165373885Y-121743505D01*
X165373885Y-121743505D02*
X165516742Y-121743505D01*
X165516742Y-121743505D02*
X165611980Y-121791124D01*
X165611980Y-121791124D02*
X165659600Y-121838743D01*
X165659600Y-121838743D02*
X165707219Y-121933981D01*
X165707219Y-121933981D02*
X165707219Y-122314933D01*
X165707219Y-122314933D02*
X164707219Y-122314933D01*
X164707219Y-122314933D02*
X164707219Y-121981600D01*
X164707219Y-121981600D02*
X164754838Y-121886362D01*
X164754838Y-121886362D02*
X164802457Y-121838743D01*
X164802457Y-121838743D02*
X164897695Y-121791124D01*
X164897695Y-121791124D02*
X164992933Y-121791124D01*
X164992933Y-121791124D02*
X165088171Y-121838743D01*
X165088171Y-121838743D02*
X165135790Y-121886362D01*
X165135790Y-121886362D02*
X165183409Y-121981600D01*
X165183409Y-121981600D02*
X165183409Y-122314933D01*
X165421504Y-121362552D02*
X165421504Y-120886362D01*
X165707219Y-121457790D02*
X164707219Y-121124457D01*
X164707219Y-121124457D02*
X165707219Y-120791124D01*
X164707219Y-120600647D02*
X164707219Y-120029219D01*
X165707219Y-120314933D02*
X164707219Y-120314933D01*
X164707219Y-119838742D02*
X164707219Y-119267314D01*
X165707219Y-119553028D02*
X164707219Y-119553028D01*
X165183409Y-118933980D02*
X165183409Y-118600647D01*
X165707219Y-118457790D02*
X165707219Y-118933980D01*
X165707219Y-118933980D02*
X164707219Y-118933980D01*
X164707219Y-118933980D02*
X164707219Y-118457790D01*
X165707219Y-117457790D02*
X165231028Y-117791123D01*
X165707219Y-118029218D02*
X164707219Y-118029218D01*
X164707219Y-118029218D02*
X164707219Y-117648266D01*
X164707219Y-117648266D02*
X164754838Y-117553028D01*
X164754838Y-117553028D02*
X164802457Y-117505409D01*
X164802457Y-117505409D02*
X164897695Y-117457790D01*
X164897695Y-117457790D02*
X165040552Y-117457790D01*
X165040552Y-117457790D02*
X165135790Y-117505409D01*
X165135790Y-117505409D02*
X165183409Y-117553028D01*
X165183409Y-117553028D02*
X165231028Y-117648266D01*
X165231028Y-117648266D02*
X165231028Y-118029218D01*
X165231028Y-116838742D02*
X165707219Y-116838742D01*
X164707219Y-117172075D02*
X165231028Y-116838742D01*
X165231028Y-116838742D02*
X164707219Y-116505409D01*
X133102742Y-123476609D02*
X133245599Y-123524228D01*
X133245599Y-123524228D02*
X133293218Y-123571847D01*
X133293218Y-123571847D02*
X133340837Y-123667085D01*
X133340837Y-123667085D02*
X133340837Y-123809942D01*
X133340837Y-123809942D02*
X133293218Y-123905180D01*
X133293218Y-123905180D02*
X133245599Y-123952800D01*
X133245599Y-123952800D02*
X133150361Y-124000419D01*
X133150361Y-124000419D02*
X132769409Y-124000419D01*
X132769409Y-124000419D02*
X132769409Y-123000419D01*
X132769409Y-123000419D02*
X133102742Y-123000419D01*
X133102742Y-123000419D02*
X133197980Y-123048038D01*
X133197980Y-123048038D02*
X133245599Y-123095657D01*
X133245599Y-123095657D02*
X133293218Y-123190895D01*
X133293218Y-123190895D02*
X133293218Y-123286133D01*
X133293218Y-123286133D02*
X133245599Y-123381371D01*
X133245599Y-123381371D02*
X133197980Y-123428990D01*
X133197980Y-123428990D02*
X133102742Y-123476609D01*
X133102742Y-123476609D02*
X132769409Y-123476609D01*
X133721790Y-123714704D02*
X134197980Y-123714704D01*
X133626552Y-124000419D02*
X133959885Y-123000419D01*
X133959885Y-123000419D02*
X134293218Y-124000419D01*
X134483695Y-123000419D02*
X135055123Y-123000419D01*
X134769409Y-124000419D02*
X134769409Y-123000419D01*
X135150362Y-124095657D02*
X135912266Y-124095657D01*
X136721790Y-123905180D02*
X136674171Y-123952800D01*
X136674171Y-123952800D02*
X136531314Y-124000419D01*
X136531314Y-124000419D02*
X136436076Y-124000419D01*
X136436076Y-124000419D02*
X136293219Y-123952800D01*
X136293219Y-123952800D02*
X136197981Y-123857561D01*
X136197981Y-123857561D02*
X136150362Y-123762323D01*
X136150362Y-123762323D02*
X136102743Y-123571847D01*
X136102743Y-123571847D02*
X136102743Y-123428990D01*
X136102743Y-123428990D02*
X136150362Y-123238514D01*
X136150362Y-123238514D02*
X136197981Y-123143276D01*
X136197981Y-123143276D02*
X136293219Y-123048038D01*
X136293219Y-123048038D02*
X136436076Y-123000419D01*
X136436076Y-123000419D02*
X136531314Y-123000419D01*
X136531314Y-123000419D02*
X136674171Y-123048038D01*
X136674171Y-123048038D02*
X136721790Y-123095657D01*
X137150362Y-124000419D02*
X137150362Y-123000419D01*
X137150362Y-123476609D02*
X137721790Y-123476609D01*
X137721790Y-124000419D02*
X137721790Y-123000419D01*
X138769409Y-124000419D02*
X138436076Y-123524228D01*
X138197981Y-124000419D02*
X138197981Y-123000419D01*
X138197981Y-123000419D02*
X138578933Y-123000419D01*
X138578933Y-123000419D02*
X138674171Y-123048038D01*
X138674171Y-123048038D02*
X138721790Y-123095657D01*
X138721790Y-123095657D02*
X138769409Y-123190895D01*
X138769409Y-123190895D02*
X138769409Y-123333752D01*
X138769409Y-123333752D02*
X138721790Y-123428990D01*
X138721790Y-123428990D02*
X138674171Y-123476609D01*
X138674171Y-123476609D02*
X138578933Y-123524228D01*
X138578933Y-123524228D02*
X138197981Y-123524228D01*
X139721790Y-123048038D02*
X139626552Y-123000419D01*
X139626552Y-123000419D02*
X139483695Y-123000419D01*
X139483695Y-123000419D02*
X139340838Y-123048038D01*
X139340838Y-123048038D02*
X139245600Y-123143276D01*
X139245600Y-123143276D02*
X139197981Y-123238514D01*
X139197981Y-123238514D02*
X139150362Y-123428990D01*
X139150362Y-123428990D02*
X139150362Y-123571847D01*
X139150362Y-123571847D02*
X139197981Y-123762323D01*
X139197981Y-123762323D02*
X139245600Y-123857561D01*
X139245600Y-123857561D02*
X139340838Y-123952800D01*
X139340838Y-123952800D02*
X139483695Y-124000419D01*
X139483695Y-124000419D02*
X139578933Y-124000419D01*
X139578933Y-124000419D02*
X139721790Y-123952800D01*
X139721790Y-123952800D02*
X139769409Y-123905180D01*
X139769409Y-123905180D02*
X139769409Y-123571847D01*
X139769409Y-123571847D02*
X139578933Y-123571847D01*
X120051676Y-79150380D02*
X120004057Y-79198000D01*
X120004057Y-79198000D02*
X119861200Y-79245619D01*
X119861200Y-79245619D02*
X119765962Y-79245619D01*
X119765962Y-79245619D02*
X119623105Y-79198000D01*
X119623105Y-79198000D02*
X119527867Y-79102761D01*
X119527867Y-79102761D02*
X119480248Y-79007523D01*
X119480248Y-79007523D02*
X119432629Y-78817047D01*
X119432629Y-78817047D02*
X119432629Y-78674190D01*
X119432629Y-78674190D02*
X119480248Y-78483714D01*
X119480248Y-78483714D02*
X119527867Y-78388476D01*
X119527867Y-78388476D02*
X119623105Y-78293238D01*
X119623105Y-78293238D02*
X119765962Y-78245619D01*
X119765962Y-78245619D02*
X119861200Y-78245619D01*
X119861200Y-78245619D02*
X120004057Y-78293238D01*
X120004057Y-78293238D02*
X120051676Y-78340857D01*
X120242153Y-79340857D02*
X121004057Y-79340857D01*
X121813581Y-79245619D02*
X121480248Y-78769428D01*
X121242153Y-79245619D02*
X121242153Y-78245619D01*
X121242153Y-78245619D02*
X121623105Y-78245619D01*
X121623105Y-78245619D02*
X121718343Y-78293238D01*
X121718343Y-78293238D02*
X121765962Y-78340857D01*
X121765962Y-78340857D02*
X121813581Y-78436095D01*
X121813581Y-78436095D02*
X121813581Y-78578952D01*
X121813581Y-78578952D02*
X121765962Y-78674190D01*
X121765962Y-78674190D02*
X121718343Y-78721809D01*
X121718343Y-78721809D02*
X121623105Y-78769428D01*
X121623105Y-78769428D02*
X121242153Y-78769428D01*
X122242153Y-79245619D02*
X122242153Y-78245619D01*
X122242153Y-78245619D02*
X122623105Y-78245619D01*
X122623105Y-78245619D02*
X122718343Y-78293238D01*
X122718343Y-78293238D02*
X122765962Y-78340857D01*
X122765962Y-78340857D02*
X122813581Y-78436095D01*
X122813581Y-78436095D02*
X122813581Y-78578952D01*
X122813581Y-78578952D02*
X122765962Y-78674190D01*
X122765962Y-78674190D02*
X122718343Y-78721809D01*
X122718343Y-78721809D02*
X122623105Y-78769428D01*
X122623105Y-78769428D02*
X122242153Y-78769428D01*
X123242153Y-79245619D02*
X123242153Y-78578952D01*
X123242153Y-78245619D02*
X123194534Y-78293238D01*
X123194534Y-78293238D02*
X123242153Y-78340857D01*
X123242153Y-78340857D02*
X123289772Y-78293238D01*
X123289772Y-78293238D02*
X123242153Y-78245619D01*
X123242153Y-78245619D02*
X123242153Y-78340857D01*
X163424400Y-99210285D02*
X163472019Y-99067428D01*
X163472019Y-99067428D02*
X163472019Y-98829333D01*
X163472019Y-98829333D02*
X163424400Y-98734095D01*
X163424400Y-98734095D02*
X163376780Y-98686476D01*
X163376780Y-98686476D02*
X163281542Y-98638857D01*
X163281542Y-98638857D02*
X163186304Y-98638857D01*
X163186304Y-98638857D02*
X163091066Y-98686476D01*
X163091066Y-98686476D02*
X163043447Y-98734095D01*
X163043447Y-98734095D02*
X162995828Y-98829333D01*
X162995828Y-98829333D02*
X162948209Y-99019809D01*
X162948209Y-99019809D02*
X162900590Y-99115047D01*
X162900590Y-99115047D02*
X162852971Y-99162666D01*
X162852971Y-99162666D02*
X162757733Y-99210285D01*
X162757733Y-99210285D02*
X162662495Y-99210285D01*
X162662495Y-99210285D02*
X162567257Y-99162666D01*
X162567257Y-99162666D02*
X162519638Y-99115047D01*
X162519638Y-99115047D02*
X162472019Y-99019809D01*
X162472019Y-99019809D02*
X162472019Y-98781714D01*
X162472019Y-98781714D02*
X162519638Y-98638857D01*
X162472019Y-98353142D02*
X162472019Y-97781714D01*
X163472019Y-98067428D02*
X162472019Y-98067428D01*
X163186304Y-97495999D02*
X163186304Y-97019809D01*
X163472019Y-97591237D02*
X162472019Y-97257904D01*
X162472019Y-97257904D02*
X163472019Y-96924571D01*
X162472019Y-96734094D02*
X162472019Y-96162666D01*
X163472019Y-96448380D02*
X162472019Y-96448380D01*
X162472019Y-95829332D02*
X163281542Y-95829332D01*
X163281542Y-95829332D02*
X163376780Y-95781713D01*
X163376780Y-95781713D02*
X163424400Y-95734094D01*
X163424400Y-95734094D02*
X163472019Y-95638856D01*
X163472019Y-95638856D02*
X163472019Y-95448380D01*
X163472019Y-95448380D02*
X163424400Y-95353142D01*
X163424400Y-95353142D02*
X163376780Y-95305523D01*
X163376780Y-95305523D02*
X163281542Y-95257904D01*
X163281542Y-95257904D02*
X162472019Y-95257904D01*
X163424400Y-94829332D02*
X163472019Y-94686475D01*
X163472019Y-94686475D02*
X163472019Y-94448380D01*
X163472019Y-94448380D02*
X163424400Y-94353142D01*
X163424400Y-94353142D02*
X163376780Y-94305523D01*
X163376780Y-94305523D02*
X163281542Y-94257904D01*
X163281542Y-94257904D02*
X163186304Y-94257904D01*
X163186304Y-94257904D02*
X163091066Y-94305523D01*
X163091066Y-94305523D02*
X163043447Y-94353142D01*
X163043447Y-94353142D02*
X162995828Y-94448380D01*
X162995828Y-94448380D02*
X162948209Y-94638856D01*
X162948209Y-94638856D02*
X162900590Y-94734094D01*
X162900590Y-94734094D02*
X162852971Y-94781713D01*
X162852971Y-94781713D02*
X162757733Y-94829332D01*
X162757733Y-94829332D02*
X162662495Y-94829332D01*
X162662495Y-94829332D02*
X162567257Y-94781713D01*
X162567257Y-94781713D02*
X162519638Y-94734094D01*
X162519638Y-94734094D02*
X162472019Y-94638856D01*
X162472019Y-94638856D02*
X162472019Y-94400761D01*
X162472019Y-94400761D02*
X162519638Y-94257904D01*
X163567257Y-94067428D02*
X163567257Y-93305523D01*
X163472019Y-92591237D02*
X163472019Y-93067427D01*
X163472019Y-93067427D02*
X162472019Y-93067427D01*
X162948209Y-92257903D02*
X162948209Y-91924570D01*
X163472019Y-91781713D02*
X163472019Y-92257903D01*
X163472019Y-92257903D02*
X162472019Y-92257903D01*
X162472019Y-92257903D02*
X162472019Y-91781713D01*
X163472019Y-91353141D02*
X162472019Y-91353141D01*
X162472019Y-91353141D02*
X162472019Y-91115046D01*
X162472019Y-91115046D02*
X162519638Y-90972189D01*
X162519638Y-90972189D02*
X162614876Y-90876951D01*
X162614876Y-90876951D02*
X162710114Y-90829332D01*
X162710114Y-90829332D02*
X162900590Y-90781713D01*
X162900590Y-90781713D02*
X163043447Y-90781713D01*
X163043447Y-90781713D02*
X163233923Y-90829332D01*
X163233923Y-90829332D02*
X163329161Y-90876951D01*
X163329161Y-90876951D02*
X163424400Y-90972189D01*
X163424400Y-90972189D02*
X163472019Y-91115046D01*
X163472019Y-91115046D02*
X163472019Y-91353141D01*
X139800248Y-98498819D02*
X139800248Y-97498819D01*
X139800248Y-97498819D02*
X140038343Y-97498819D01*
X140038343Y-97498819D02*
X140181200Y-97546438D01*
X140181200Y-97546438D02*
X140276438Y-97641676D01*
X140276438Y-97641676D02*
X140324057Y-97736914D01*
X140324057Y-97736914D02*
X140371676Y-97927390D01*
X140371676Y-97927390D02*
X140371676Y-98070247D01*
X140371676Y-98070247D02*
X140324057Y-98260723D01*
X140324057Y-98260723D02*
X140276438Y-98355961D01*
X140276438Y-98355961D02*
X140181200Y-98451200D01*
X140181200Y-98451200D02*
X140038343Y-98498819D01*
X140038343Y-98498819D02*
X139800248Y-98498819D01*
X140562153Y-98594057D02*
X141324057Y-98594057D01*
X142133581Y-98498819D02*
X141800248Y-98022628D01*
X141562153Y-98498819D02*
X141562153Y-97498819D01*
X141562153Y-97498819D02*
X141943105Y-97498819D01*
X141943105Y-97498819D02*
X142038343Y-97546438D01*
X142038343Y-97546438D02*
X142085962Y-97594057D01*
X142085962Y-97594057D02*
X142133581Y-97689295D01*
X142133581Y-97689295D02*
X142133581Y-97832152D01*
X142133581Y-97832152D02*
X142085962Y-97927390D01*
X142085962Y-97927390D02*
X142038343Y-97975009D01*
X142038343Y-97975009D02*
X141943105Y-98022628D01*
X141943105Y-98022628D02*
X141562153Y-98022628D01*
X142562153Y-98498819D02*
X142562153Y-97498819D01*
X142562153Y-97498819D02*
X142943105Y-97498819D01*
X142943105Y-97498819D02*
X143038343Y-97546438D01*
X143038343Y-97546438D02*
X143085962Y-97594057D01*
X143085962Y-97594057D02*
X143133581Y-97689295D01*
X143133581Y-97689295D02*
X143133581Y-97832152D01*
X143133581Y-97832152D02*
X143085962Y-97927390D01*
X143085962Y-97927390D02*
X143038343Y-97975009D01*
X143038343Y-97975009D02*
X142943105Y-98022628D01*
X142943105Y-98022628D02*
X142562153Y-98022628D01*
X143562153Y-98498819D02*
X143562153Y-97832152D01*
X143562153Y-97498819D02*
X143514534Y-97546438D01*
X143514534Y-97546438D02*
X143562153Y-97594057D01*
X143562153Y-97594057D02*
X143609772Y-97546438D01*
X143609772Y-97546438D02*
X143562153Y-97498819D01*
X143562153Y-97498819D02*
X143562153Y-97594057D01*
D11*
X130654514Y-47720504D02*
X131130704Y-47720504D01*
X130559276Y-48006219D02*
X130892609Y-47006219D01*
X130892609Y-47006219D02*
X131225942Y-48006219D01*
X131511657Y-47101457D02*
X131559276Y-47053838D01*
X131559276Y-47053838D02*
X131654514Y-47006219D01*
X131654514Y-47006219D02*
X131892609Y-47006219D01*
X131892609Y-47006219D02*
X131987847Y-47053838D01*
X131987847Y-47053838D02*
X132035466Y-47101457D01*
X132035466Y-47101457D02*
X132083085Y-47196695D01*
X132083085Y-47196695D02*
X132083085Y-47291933D01*
X132083085Y-47291933D02*
X132035466Y-47434790D01*
X132035466Y-47434790D02*
X131464038Y-48006219D01*
X131464038Y-48006219D02*
X132083085Y-48006219D01*
X136191714Y-100704904D02*
X136667904Y-100704904D01*
X136096476Y-100990619D02*
X136429809Y-99990619D01*
X136429809Y-99990619D02*
X136763142Y-100990619D01*
X137620285Y-100990619D02*
X137048857Y-100990619D01*
X137334571Y-100990619D02*
X137334571Y-99990619D01*
X137334571Y-99990619D02*
X137239333Y-100133476D01*
X137239333Y-100133476D02*
X137144095Y-100228714D01*
X137144095Y-100228714D02*
X137048857Y-100276333D01*
D10*
X131310380Y-89279066D02*
X131358000Y-89326685D01*
X131358000Y-89326685D02*
X131405619Y-89469542D01*
X131405619Y-89469542D02*
X131405619Y-89564780D01*
X131405619Y-89564780D02*
X131358000Y-89707637D01*
X131358000Y-89707637D02*
X131262761Y-89802875D01*
X131262761Y-89802875D02*
X131167523Y-89850494D01*
X131167523Y-89850494D02*
X130977047Y-89898113D01*
X130977047Y-89898113D02*
X130834190Y-89898113D01*
X130834190Y-89898113D02*
X130643714Y-89850494D01*
X130643714Y-89850494D02*
X130548476Y-89802875D01*
X130548476Y-89802875D02*
X130453238Y-89707637D01*
X130453238Y-89707637D02*
X130405619Y-89564780D01*
X130405619Y-89564780D02*
X130405619Y-89469542D01*
X130405619Y-89469542D02*
X130453238Y-89326685D01*
X130453238Y-89326685D02*
X130500857Y-89279066D01*
X131405619Y-88326685D02*
X131405619Y-88898113D01*
X131405619Y-88612399D02*
X130405619Y-88612399D01*
X130405619Y-88612399D02*
X130548476Y-88707637D01*
X130548476Y-88707637D02*
X130643714Y-88802875D01*
X130643714Y-88802875D02*
X130691333Y-88898113D01*
X155840133Y-101688819D02*
X155506800Y-101212628D01*
X155268705Y-101688819D02*
X155268705Y-100688819D01*
X155268705Y-100688819D02*
X155649657Y-100688819D01*
X155649657Y-100688819D02*
X155744895Y-100736438D01*
X155744895Y-100736438D02*
X155792514Y-100784057D01*
X155792514Y-100784057D02*
X155840133Y-100879295D01*
X155840133Y-100879295D02*
X155840133Y-101022152D01*
X155840133Y-101022152D02*
X155792514Y-101117390D01*
X155792514Y-101117390D02*
X155744895Y-101165009D01*
X155744895Y-101165009D02*
X155649657Y-101212628D01*
X155649657Y-101212628D02*
X155268705Y-101212628D01*
X156792514Y-101688819D02*
X156221086Y-101688819D01*
X156506800Y-101688819D02*
X156506800Y-100688819D01*
X156506800Y-100688819D02*
X156411562Y-100831676D01*
X156411562Y-100831676D02*
X156316324Y-100926914D01*
X156316324Y-100926914D02*
X156221086Y-100974533D01*
X173698819Y-89385733D02*
X174413104Y-89385733D01*
X174413104Y-89385733D02*
X174555961Y-89433352D01*
X174555961Y-89433352D02*
X174651200Y-89528590D01*
X174651200Y-89528590D02*
X174698819Y-89671447D01*
X174698819Y-89671447D02*
X174698819Y-89766685D01*
X173698819Y-89004780D02*
X173698819Y-88385733D01*
X173698819Y-88385733D02*
X174079771Y-88719066D01*
X174079771Y-88719066D02*
X174079771Y-88576209D01*
X174079771Y-88576209D02*
X174127390Y-88480971D01*
X174127390Y-88480971D02*
X174175009Y-88433352D01*
X174175009Y-88433352D02*
X174270247Y-88385733D01*
X174270247Y-88385733D02*
X174508342Y-88385733D01*
X174508342Y-88385733D02*
X174603580Y-88433352D01*
X174603580Y-88433352D02*
X174651200Y-88480971D01*
X174651200Y-88480971D02*
X174698819Y-88576209D01*
X174698819Y-88576209D02*
X174698819Y-88861923D01*
X174698819Y-88861923D02*
X174651200Y-88957161D01*
X174651200Y-88957161D02*
X174603580Y-89004780D01*
D11*
X156518200Y-86270932D02*
X156565819Y-86128075D01*
X156565819Y-86128075D02*
X156565819Y-85889980D01*
X156565819Y-85889980D02*
X156518200Y-85794742D01*
X156518200Y-85794742D02*
X156470580Y-85747123D01*
X156470580Y-85747123D02*
X156375342Y-85699504D01*
X156375342Y-85699504D02*
X156280104Y-85699504D01*
X156280104Y-85699504D02*
X156184866Y-85747123D01*
X156184866Y-85747123D02*
X156137247Y-85794742D01*
X156137247Y-85794742D02*
X156089628Y-85889980D01*
X156089628Y-85889980D02*
X156042009Y-86080456D01*
X156042009Y-86080456D02*
X155994390Y-86175694D01*
X155994390Y-86175694D02*
X155946771Y-86223313D01*
X155946771Y-86223313D02*
X155851533Y-86270932D01*
X155851533Y-86270932D02*
X155756295Y-86270932D01*
X155756295Y-86270932D02*
X155661057Y-86223313D01*
X155661057Y-86223313D02*
X155613438Y-86175694D01*
X155613438Y-86175694D02*
X155565819Y-86080456D01*
X155565819Y-86080456D02*
X155565819Y-85842361D01*
X155565819Y-85842361D02*
X155613438Y-85699504D01*
X155565819Y-85366170D02*
X156565819Y-85128075D01*
X156565819Y-85128075D02*
X155851533Y-84937599D01*
X155851533Y-84937599D02*
X156565819Y-84747123D01*
X156565819Y-84747123D02*
X155565819Y-84509028D01*
X156565819Y-83604266D02*
X156565819Y-84175694D01*
X156565819Y-83889980D02*
X155565819Y-83889980D01*
X155565819Y-83889980D02*
X155708676Y-83985218D01*
X155708676Y-83985218D02*
X155803914Y-84080456D01*
X155803914Y-84080456D02*
X155851533Y-84175694D01*
D10*
X163624419Y-89596361D02*
X162624419Y-89596361D01*
X162624419Y-89596361D02*
X162624419Y-89215409D01*
X162624419Y-89215409D02*
X162672038Y-89120171D01*
X162672038Y-89120171D02*
X162719657Y-89072552D01*
X162719657Y-89072552D02*
X162814895Y-89024933D01*
X162814895Y-89024933D02*
X162957752Y-89024933D01*
X162957752Y-89024933D02*
X163052990Y-89072552D01*
X163052990Y-89072552D02*
X163100609Y-89120171D01*
X163100609Y-89120171D02*
X163148228Y-89215409D01*
X163148228Y-89215409D02*
X163148228Y-89596361D01*
X162624419Y-88691599D02*
X163624419Y-88453504D01*
X163624419Y-88453504D02*
X162910133Y-88263028D01*
X162910133Y-88263028D02*
X163624419Y-88072552D01*
X163624419Y-88072552D02*
X162624419Y-87834457D01*
X163624419Y-86882076D02*
X163148228Y-87215409D01*
X163624419Y-87453504D02*
X162624419Y-87453504D01*
X162624419Y-87453504D02*
X162624419Y-87072552D01*
X162624419Y-87072552D02*
X162672038Y-86977314D01*
X162672038Y-86977314D02*
X162719657Y-86929695D01*
X162719657Y-86929695D02*
X162814895Y-86882076D01*
X162814895Y-86882076D02*
X162957752Y-86882076D01*
X162957752Y-86882076D02*
X163052990Y-86929695D01*
X163052990Y-86929695D02*
X163100609Y-86977314D01*
X163100609Y-86977314D02*
X163148228Y-87072552D01*
X163148228Y-87072552D02*
X163148228Y-87453504D01*
X163719657Y-86691600D02*
X163719657Y-85929695D01*
X163576800Y-85739218D02*
X163624419Y-85596361D01*
X163624419Y-85596361D02*
X163624419Y-85358266D01*
X163624419Y-85358266D02*
X163576800Y-85263028D01*
X163576800Y-85263028D02*
X163529180Y-85215409D01*
X163529180Y-85215409D02*
X163433942Y-85167790D01*
X163433942Y-85167790D02*
X163338704Y-85167790D01*
X163338704Y-85167790D02*
X163243466Y-85215409D01*
X163243466Y-85215409D02*
X163195847Y-85263028D01*
X163195847Y-85263028D02*
X163148228Y-85358266D01*
X163148228Y-85358266D02*
X163100609Y-85548742D01*
X163100609Y-85548742D02*
X163052990Y-85643980D01*
X163052990Y-85643980D02*
X163005371Y-85691599D01*
X163005371Y-85691599D02*
X162910133Y-85739218D01*
X162910133Y-85739218D02*
X162814895Y-85739218D01*
X162814895Y-85739218D02*
X162719657Y-85691599D01*
X162719657Y-85691599D02*
X162672038Y-85643980D01*
X162672038Y-85643980D02*
X162624419Y-85548742D01*
X162624419Y-85548742D02*
X162624419Y-85310647D01*
X162624419Y-85310647D02*
X162672038Y-85167790D01*
X162624419Y-84834456D02*
X163624419Y-84596361D01*
X163624419Y-84596361D02*
X162910133Y-84405885D01*
X162910133Y-84405885D02*
X163624419Y-84215409D01*
X163624419Y-84215409D02*
X162624419Y-83977314D01*
X163624419Y-83596361D02*
X162624419Y-83596361D01*
X162624419Y-83263028D02*
X162624419Y-82691600D01*
X163624419Y-82977314D02*
X162624419Y-82977314D01*
X163529180Y-81786838D02*
X163576800Y-81834457D01*
X163576800Y-81834457D02*
X163624419Y-81977314D01*
X163624419Y-81977314D02*
X163624419Y-82072552D01*
X163624419Y-82072552D02*
X163576800Y-82215409D01*
X163576800Y-82215409D02*
X163481561Y-82310647D01*
X163481561Y-82310647D02*
X163386323Y-82358266D01*
X163386323Y-82358266D02*
X163195847Y-82405885D01*
X163195847Y-82405885D02*
X163052990Y-82405885D01*
X163052990Y-82405885D02*
X162862514Y-82358266D01*
X162862514Y-82358266D02*
X162767276Y-82310647D01*
X162767276Y-82310647D02*
X162672038Y-82215409D01*
X162672038Y-82215409D02*
X162624419Y-82072552D01*
X162624419Y-82072552D02*
X162624419Y-81977314D01*
X162624419Y-81977314D02*
X162672038Y-81834457D01*
X162672038Y-81834457D02*
X162719657Y-81786838D01*
X163624419Y-81358266D02*
X162624419Y-81358266D01*
X163100609Y-81358266D02*
X163100609Y-80786838D01*
X163624419Y-80786838D02*
X162624419Y-80786838D01*
X140841505Y-81759819D02*
X140841505Y-80759819D01*
X140841505Y-80759819D02*
X141079600Y-80759819D01*
X141079600Y-80759819D02*
X141222457Y-80807438D01*
X141222457Y-80807438D02*
X141317695Y-80902676D01*
X141317695Y-80902676D02*
X141365314Y-80997914D01*
X141365314Y-80997914D02*
X141412933Y-81188390D01*
X141412933Y-81188390D02*
X141412933Y-81331247D01*
X141412933Y-81331247D02*
X141365314Y-81521723D01*
X141365314Y-81521723D02*
X141317695Y-81616961D01*
X141317695Y-81616961D02*
X141222457Y-81712200D01*
X141222457Y-81712200D02*
X141079600Y-81759819D01*
X141079600Y-81759819D02*
X140841505Y-81759819D01*
X142365314Y-81759819D02*
X141793886Y-81759819D01*
X142079600Y-81759819D02*
X142079600Y-80759819D01*
X142079600Y-80759819D02*
X141984362Y-80902676D01*
X141984362Y-80902676D02*
X141889124Y-80997914D01*
X141889124Y-80997914D02*
X141793886Y-81045533D01*
X133697695Y-83344819D02*
X133697695Y-82344819D01*
X134269123Y-83344819D02*
X133840552Y-82773390D01*
X134269123Y-82344819D02*
X133697695Y-82916247D01*
X173698819Y-71453333D02*
X174413104Y-71453333D01*
X174413104Y-71453333D02*
X174555961Y-71500952D01*
X174555961Y-71500952D02*
X174651200Y-71596190D01*
X174651200Y-71596190D02*
X174698819Y-71739047D01*
X174698819Y-71739047D02*
X174698819Y-71834285D01*
X173794057Y-71024761D02*
X173746438Y-70977142D01*
X173746438Y-70977142D02*
X173698819Y-70881904D01*
X173698819Y-70881904D02*
X173698819Y-70643809D01*
X173698819Y-70643809D02*
X173746438Y-70548571D01*
X173746438Y-70548571D02*
X173794057Y-70500952D01*
X173794057Y-70500952D02*
X173889295Y-70453333D01*
X173889295Y-70453333D02*
X173984533Y-70453333D01*
X173984533Y-70453333D02*
X174127390Y-70500952D01*
X174127390Y-70500952D02*
X174698819Y-71072380D01*
X174698819Y-71072380D02*
X174698819Y-70453333D01*
X99988019Y-89284133D02*
X100702304Y-89284133D01*
X100702304Y-89284133D02*
X100845161Y-89331752D01*
X100845161Y-89331752D02*
X100940400Y-89426990D01*
X100940400Y-89426990D02*
X100988019Y-89569847D01*
X100988019Y-89569847D02*
X100988019Y-89665085D01*
X99988019Y-88379371D02*
X99988019Y-88569847D01*
X99988019Y-88569847D02*
X100035638Y-88665085D01*
X100035638Y-88665085D02*
X100083257Y-88712704D01*
X100083257Y-88712704D02*
X100226114Y-88807942D01*
X100226114Y-88807942D02*
X100416590Y-88855561D01*
X100416590Y-88855561D02*
X100797542Y-88855561D01*
X100797542Y-88855561D02*
X100892780Y-88807942D01*
X100892780Y-88807942D02*
X100940400Y-88760323D01*
X100940400Y-88760323D02*
X100988019Y-88665085D01*
X100988019Y-88665085D02*
X100988019Y-88474609D01*
X100988019Y-88474609D02*
X100940400Y-88379371D01*
X100940400Y-88379371D02*
X100892780Y-88331752D01*
X100892780Y-88331752D02*
X100797542Y-88284133D01*
X100797542Y-88284133D02*
X100559447Y-88284133D01*
X100559447Y-88284133D02*
X100464209Y-88331752D01*
X100464209Y-88331752D02*
X100416590Y-88379371D01*
X100416590Y-88379371D02*
X100368971Y-88474609D01*
X100368971Y-88474609D02*
X100368971Y-88665085D01*
X100368971Y-88665085D02*
X100416590Y-88760323D01*
X100416590Y-88760323D02*
X100464209Y-88807942D01*
X100464209Y-88807942D02*
X100559447Y-88855561D01*
X174054419Y-104981333D02*
X174768704Y-104981333D01*
X174768704Y-104981333D02*
X174911561Y-105028952D01*
X174911561Y-105028952D02*
X175006800Y-105124190D01*
X175006800Y-105124190D02*
X175054419Y-105267047D01*
X175054419Y-105267047D02*
X175054419Y-105362285D01*
X174387752Y-104076571D02*
X175054419Y-104076571D01*
X174006800Y-104314666D02*
X174721085Y-104552761D01*
X174721085Y-104552761D02*
X174721085Y-103933714D01*
X166215219Y-106011504D02*
X165215219Y-106011504D01*
X165215219Y-106011504D02*
X165215219Y-105630552D01*
X165215219Y-105630552D02*
X165262838Y-105535314D01*
X165262838Y-105535314D02*
X165310457Y-105487695D01*
X165310457Y-105487695D02*
X165405695Y-105440076D01*
X165405695Y-105440076D02*
X165548552Y-105440076D01*
X165548552Y-105440076D02*
X165643790Y-105487695D01*
X165643790Y-105487695D02*
X165691409Y-105535314D01*
X165691409Y-105535314D02*
X165739028Y-105630552D01*
X165739028Y-105630552D02*
X165739028Y-106011504D01*
X166167600Y-105059123D02*
X166215219Y-104916266D01*
X166215219Y-104916266D02*
X166215219Y-104678171D01*
X166215219Y-104678171D02*
X166167600Y-104582933D01*
X166167600Y-104582933D02*
X166119980Y-104535314D01*
X166119980Y-104535314D02*
X166024742Y-104487695D01*
X166024742Y-104487695D02*
X165929504Y-104487695D01*
X165929504Y-104487695D02*
X165834266Y-104535314D01*
X165834266Y-104535314D02*
X165786647Y-104582933D01*
X165786647Y-104582933D02*
X165739028Y-104678171D01*
X165739028Y-104678171D02*
X165691409Y-104868647D01*
X165691409Y-104868647D02*
X165643790Y-104963885D01*
X165643790Y-104963885D02*
X165596171Y-105011504D01*
X165596171Y-105011504D02*
X165500933Y-105059123D01*
X165500933Y-105059123D02*
X165405695Y-105059123D01*
X165405695Y-105059123D02*
X165310457Y-105011504D01*
X165310457Y-105011504D02*
X165262838Y-104963885D01*
X165262838Y-104963885D02*
X165215219Y-104868647D01*
X165215219Y-104868647D02*
X165215219Y-104630552D01*
X165215219Y-104630552D02*
X165262838Y-104487695D01*
X165215219Y-104059123D02*
X166024742Y-104059123D01*
X166024742Y-104059123D02*
X166119980Y-104011504D01*
X166119980Y-104011504D02*
X166167600Y-103963885D01*
X166167600Y-103963885D02*
X166215219Y-103868647D01*
X166215219Y-103868647D02*
X166215219Y-103678171D01*
X166215219Y-103678171D02*
X166167600Y-103582933D01*
X166167600Y-103582933D02*
X166119980Y-103535314D01*
X166119980Y-103535314D02*
X166024742Y-103487695D01*
X166024742Y-103487695D02*
X165215219Y-103487695D01*
X173597219Y-119967333D02*
X174311504Y-119967333D01*
X174311504Y-119967333D02*
X174454361Y-120014952D01*
X174454361Y-120014952D02*
X174549600Y-120110190D01*
X174549600Y-120110190D02*
X174597219Y-120253047D01*
X174597219Y-120253047D02*
X174597219Y-120348285D01*
X173597219Y-119014952D02*
X173597219Y-119491142D01*
X173597219Y-119491142D02*
X174073409Y-119538761D01*
X174073409Y-119538761D02*
X174025790Y-119491142D01*
X174025790Y-119491142D02*
X173978171Y-119395904D01*
X173978171Y-119395904D02*
X173978171Y-119157809D01*
X173978171Y-119157809D02*
X174025790Y-119062571D01*
X174025790Y-119062571D02*
X174073409Y-119014952D01*
X174073409Y-119014952D02*
X174168647Y-118967333D01*
X174168647Y-118967333D02*
X174406742Y-118967333D01*
X174406742Y-118967333D02*
X174501980Y-119014952D01*
X174501980Y-119014952D02*
X174549600Y-119062571D01*
X174549600Y-119062571D02*
X174597219Y-119157809D01*
X174597219Y-119157809D02*
X174597219Y-119395904D01*
X174597219Y-119395904D02*
X174549600Y-119491142D01*
X174549600Y-119491142D02*
X174501980Y-119538761D01*
X100242019Y-104473333D02*
X100956304Y-104473333D01*
X100956304Y-104473333D02*
X101099161Y-104520952D01*
X101099161Y-104520952D02*
X101194400Y-104616190D01*
X101194400Y-104616190D02*
X101242019Y-104759047D01*
X101242019Y-104759047D02*
X101242019Y-104854285D01*
X100242019Y-104092380D02*
X100242019Y-103425714D01*
X100242019Y-103425714D02*
X101242019Y-103854285D01*
X140943105Y-91005419D02*
X140943105Y-90005419D01*
X140943105Y-90005419D02*
X141181200Y-90005419D01*
X141181200Y-90005419D02*
X141324057Y-90053038D01*
X141324057Y-90053038D02*
X141419295Y-90148276D01*
X141419295Y-90148276D02*
X141466914Y-90243514D01*
X141466914Y-90243514D02*
X141514533Y-90433990D01*
X141514533Y-90433990D02*
X141514533Y-90576847D01*
X141514533Y-90576847D02*
X141466914Y-90767323D01*
X141466914Y-90767323D02*
X141419295Y-90862561D01*
X141419295Y-90862561D02*
X141324057Y-90957800D01*
X141324057Y-90957800D02*
X141181200Y-91005419D01*
X141181200Y-91005419D02*
X140943105Y-91005419D01*
X141895486Y-90100657D02*
X141943105Y-90053038D01*
X141943105Y-90053038D02*
X142038343Y-90005419D01*
X142038343Y-90005419D02*
X142276438Y-90005419D01*
X142276438Y-90005419D02*
X142371676Y-90053038D01*
X142371676Y-90053038D02*
X142419295Y-90100657D01*
X142419295Y-90100657D02*
X142466914Y-90195895D01*
X142466914Y-90195895D02*
X142466914Y-90291133D01*
X142466914Y-90291133D02*
X142419295Y-90433990D01*
X142419295Y-90433990D02*
X141847867Y-91005419D01*
X141847867Y-91005419D02*
X142466914Y-91005419D01*
X133799295Y-92590419D02*
X133799295Y-91590419D01*
X134370723Y-92590419D02*
X133942152Y-92018990D01*
X134370723Y-91590419D02*
X133799295Y-92161847D01*
X174156019Y-55197333D02*
X174870304Y-55197333D01*
X174870304Y-55197333D02*
X175013161Y-55244952D01*
X175013161Y-55244952D02*
X175108400Y-55340190D01*
X175108400Y-55340190D02*
X175156019Y-55483047D01*
X175156019Y-55483047D02*
X175156019Y-55578285D01*
X175156019Y-54197333D02*
X175156019Y-54768761D01*
X175156019Y-54483047D02*
X174156019Y-54483047D01*
X174156019Y-54483047D02*
X174298876Y-54578285D01*
X174298876Y-54578285D02*
X174394114Y-54673523D01*
X174394114Y-54673523D02*
X174441733Y-54768761D01*
X100191219Y-120170533D02*
X100905504Y-120170533D01*
X100905504Y-120170533D02*
X101048361Y-120218152D01*
X101048361Y-120218152D02*
X101143600Y-120313390D01*
X101143600Y-120313390D02*
X101191219Y-120456247D01*
X101191219Y-120456247D02*
X101191219Y-120551485D01*
X100619790Y-119551485D02*
X100572171Y-119646723D01*
X100572171Y-119646723D02*
X100524552Y-119694342D01*
X100524552Y-119694342D02*
X100429314Y-119741961D01*
X100429314Y-119741961D02*
X100381695Y-119741961D01*
X100381695Y-119741961D02*
X100286457Y-119694342D01*
X100286457Y-119694342D02*
X100238838Y-119646723D01*
X100238838Y-119646723D02*
X100191219Y-119551485D01*
X100191219Y-119551485D02*
X100191219Y-119361009D01*
X100191219Y-119361009D02*
X100238838Y-119265771D01*
X100238838Y-119265771D02*
X100286457Y-119218152D01*
X100286457Y-119218152D02*
X100381695Y-119170533D01*
X100381695Y-119170533D02*
X100429314Y-119170533D01*
X100429314Y-119170533D02*
X100524552Y-119218152D01*
X100524552Y-119218152D02*
X100572171Y-119265771D01*
X100572171Y-119265771D02*
X100619790Y-119361009D01*
X100619790Y-119361009D02*
X100619790Y-119551485D01*
X100619790Y-119551485D02*
X100667409Y-119646723D01*
X100667409Y-119646723D02*
X100715028Y-119694342D01*
X100715028Y-119694342D02*
X100810266Y-119741961D01*
X100810266Y-119741961D02*
X101000742Y-119741961D01*
X101000742Y-119741961D02*
X101095980Y-119694342D01*
X101095980Y-119694342D02*
X101143600Y-119646723D01*
X101143600Y-119646723D02*
X101191219Y-119551485D01*
X101191219Y-119551485D02*
X101191219Y-119361009D01*
X101191219Y-119361009D02*
X101143600Y-119265771D01*
X101143600Y-119265771D02*
X101095980Y-119218152D01*
X101095980Y-119218152D02*
X101000742Y-119170533D01*
X101000742Y-119170533D02*
X100810266Y-119170533D01*
X100810266Y-119170533D02*
X100715028Y-119218152D01*
X100715028Y-119218152D02*
X100667409Y-119265771D01*
X100667409Y-119265771D02*
X100619790Y-119361009D01*
X157260819Y-94260894D02*
X156260819Y-94260894D01*
X156260819Y-94260894D02*
X156260819Y-94022799D01*
X156260819Y-94022799D02*
X156308438Y-93879942D01*
X156308438Y-93879942D02*
X156403676Y-93784704D01*
X156403676Y-93784704D02*
X156498914Y-93737085D01*
X156498914Y-93737085D02*
X156689390Y-93689466D01*
X156689390Y-93689466D02*
X156832247Y-93689466D01*
X156832247Y-93689466D02*
X157022723Y-93737085D01*
X157022723Y-93737085D02*
X157117961Y-93784704D01*
X157117961Y-93784704D02*
X157213200Y-93879942D01*
X157213200Y-93879942D02*
X157260819Y-94022799D01*
X157260819Y-94022799D02*
X157260819Y-94260894D01*
X156260819Y-93356132D02*
X156260819Y-92737085D01*
X156260819Y-92737085D02*
X156641771Y-93070418D01*
X156641771Y-93070418D02*
X156641771Y-92927561D01*
X156641771Y-92927561D02*
X156689390Y-92832323D01*
X156689390Y-92832323D02*
X156737009Y-92784704D01*
X156737009Y-92784704D02*
X156832247Y-92737085D01*
X156832247Y-92737085D02*
X157070342Y-92737085D01*
X157070342Y-92737085D02*
X157165580Y-92784704D01*
X157165580Y-92784704D02*
X157213200Y-92832323D01*
X157213200Y-92832323D02*
X157260819Y-92927561D01*
X157260819Y-92927561D02*
X157260819Y-93213275D01*
X157260819Y-93213275D02*
X157213200Y-93308513D01*
X157213200Y-93308513D02*
X157165580Y-93356132D01*
D12*
%TO.C,A2*%
X163378000Y-77106800D02*
X99378000Y-77106800D01*
X163378000Y-49106800D02*
X163378000Y-77106800D01*
X99378000Y-77106800D02*
X99378000Y-49106800D01*
X99378000Y-49106800D02*
X163378000Y-49106800D01*
D13*
%TO.C,logo3*%
G36*
X151805557Y-123874365D02*
G01*
X151824566Y-123878806D01*
X151845349Y-123885768D01*
X151880538Y-123900282D01*
X151922756Y-123920564D01*
X151959505Y-123940348D01*
X152109077Y-124026394D01*
X152242084Y-124102811D01*
X152358933Y-124169833D01*
X152460031Y-124227692D01*
X152545786Y-124276621D01*
X152616606Y-124316850D01*
X152672897Y-124348614D01*
X152715067Y-124372144D01*
X152743523Y-124387672D01*
X152748940Y-124390540D01*
X152817007Y-124426207D01*
X152959952Y-124427171D01*
X153016759Y-124427768D01*
X153058779Y-124429148D01*
X153090857Y-124432018D01*
X153117837Y-124437088D01*
X153144560Y-124445068D01*
X153175872Y-124456666D01*
X153184620Y-124460071D01*
X153278656Y-124506458D01*
X153358523Y-124566204D01*
X153423586Y-124638498D01*
X153473209Y-124722526D01*
X153506756Y-124817476D01*
X153520241Y-124889276D01*
X153526060Y-124927378D01*
X153532742Y-124959584D01*
X153538908Y-124979312D01*
X153539292Y-124980071D01*
X153552894Y-124992383D01*
X153579672Y-125007832D01*
X153614184Y-125023338D01*
X153619138Y-125025267D01*
X153705436Y-125067838D01*
X153783703Y-125126706D01*
X153854174Y-125202224D01*
X153917082Y-125294748D01*
X153972659Y-125404631D01*
X154021140Y-125532227D01*
X154062758Y-125677889D01*
X154070369Y-125709612D01*
X154096845Y-125854774D01*
X154106355Y-125990207D01*
X154098889Y-126116076D01*
X154074436Y-126232546D01*
X154032983Y-126339781D01*
X154025579Y-126354537D01*
X154012763Y-126395579D01*
X154013067Y-126438159D01*
X154022126Y-126465821D01*
X154029812Y-126478310D01*
X154047196Y-126505368D01*
X154073111Y-126545216D01*
X154106391Y-126596072D01*
X154145869Y-126656159D01*
X154190379Y-126723696D01*
X154238754Y-126796903D01*
X154272757Y-126848252D01*
X154323050Y-126924373D01*
X154370176Y-126996154D01*
X154412976Y-127061795D01*
X154450292Y-127119499D01*
X154480963Y-127167467D01*
X154503831Y-127203901D01*
X154517738Y-127227004D01*
X154521457Y-127234111D01*
X154531836Y-127280727D01*
X154524463Y-127319138D01*
X154499365Y-127349201D01*
X154499014Y-127349467D01*
X154466223Y-127368269D01*
X154421264Y-127386522D01*
X154371515Y-127401878D01*
X154324353Y-127411992D01*
X154293841Y-127414731D01*
X154262551Y-127412573D01*
X154235569Y-127404639D01*
X154210450Y-127388737D01*
X154184744Y-127362677D01*
X154156003Y-127324267D01*
X154121779Y-127271317D01*
X154107407Y-127247884D01*
X154032096Y-127124162D01*
X153966326Y-127016580D01*
X153909630Y-126924395D01*
X153861541Y-126846863D01*
X153821590Y-126783239D01*
X153789309Y-126732779D01*
X153764232Y-126694738D01*
X153745889Y-126668374D01*
X153733814Y-126652941D01*
X153732636Y-126651651D01*
X153708197Y-126630079D01*
X153683407Y-126621048D01*
X153662148Y-126619754D01*
X153623979Y-126623663D01*
X153581091Y-126633843D01*
X153541097Y-126647976D01*
X153511609Y-126663742D01*
X153507747Y-126666797D01*
X153499001Y-126676227D01*
X153493478Y-126688272D01*
X153491509Y-126705205D01*
X153493427Y-126729301D01*
X153499562Y-126762834D01*
X153510247Y-126808079D01*
X153525814Y-126867309D01*
X153546593Y-126942799D01*
X153549561Y-126953448D01*
X153582172Y-127070463D01*
X153609767Y-127170111D01*
X153632622Y-127253929D01*
X153651016Y-127323451D01*
X153665227Y-127380215D01*
X153675531Y-127425755D01*
X153682207Y-127461607D01*
X153685532Y-127489306D01*
X153685783Y-127510389D01*
X153683239Y-127526390D01*
X153678177Y-127538845D01*
X153670874Y-127549290D01*
X153661608Y-127559261D01*
X153659464Y-127561413D01*
X153627153Y-127584519D01*
X153584493Y-127602526D01*
X153536851Y-127614508D01*
X153489594Y-127619540D01*
X153448089Y-127616698D01*
X153417702Y-127605056D01*
X153415568Y-127603443D01*
X153388939Y-127572069D01*
X153366652Y-127526468D01*
X153354647Y-127486917D01*
X153349001Y-127464379D01*
X153339307Y-127427207D01*
X153326701Y-127379702D01*
X153312320Y-127326162D01*
X153304407Y-127296957D01*
X153287212Y-127233304D01*
X153268955Y-127165085D01*
X153251558Y-127099514D01*
X153236940Y-127043805D01*
X153233867Y-127031964D01*
X153213136Y-126951980D01*
X153195650Y-126884955D01*
X153179803Y-126824828D01*
X153163988Y-126765538D01*
X153146599Y-126701023D01*
X153127212Y-126629569D01*
X153110847Y-126568962D01*
X153094234Y-126506711D01*
X153079000Y-126448962D01*
X153066773Y-126401860D01*
X153063527Y-126389113D01*
X153050062Y-126336522D01*
X153034362Y-126276209D01*
X153019350Y-126219390D01*
X153016181Y-126207544D01*
X152989868Y-126109505D01*
X152967844Y-126027497D01*
X152949321Y-125958593D01*
X152933509Y-125899862D01*
X152919619Y-125848377D01*
X152906862Y-125801209D01*
X152894450Y-125755428D01*
X152886630Y-125726632D01*
X152871951Y-125672034D01*
X152860472Y-125628501D01*
X153198612Y-125628501D01*
X153200178Y-125641452D01*
X153204668Y-125663759D01*
X153213369Y-125701253D01*
X153225360Y-125750174D01*
X153239718Y-125806762D01*
X153255521Y-125867259D01*
X153255968Y-125868943D01*
X153279142Y-125955960D01*
X153298283Y-126025816D01*
X153314364Y-126080330D01*
X153328364Y-126121320D01*
X153341259Y-126150604D01*
X153354023Y-126169999D01*
X153367634Y-126181324D01*
X153383068Y-126186398D01*
X153401301Y-126187038D01*
X153423310Y-126185062D01*
X153425568Y-126184812D01*
X153457025Y-126179319D01*
X153500120Y-126169169D01*
X153547922Y-126156075D01*
X153573995Y-126148148D01*
X153623187Y-126131550D01*
X153658116Y-126116793D01*
X153683665Y-126101398D01*
X153704717Y-126082885D01*
X153706857Y-126080668D01*
X153739678Y-126034487D01*
X153758728Y-125978629D01*
X153764004Y-125912200D01*
X153755503Y-125834308D01*
X153733220Y-125744058D01*
X153705189Y-125661612D01*
X153678681Y-125609285D01*
X153642098Y-125562402D01*
X153599715Y-125525383D01*
X153555812Y-125502652D01*
X153549685Y-125500835D01*
X153530002Y-125496503D01*
X153510254Y-125495016D01*
X153486350Y-125496835D01*
X153454199Y-125502425D01*
X153409709Y-125512248D01*
X153373843Y-125520737D01*
X153309155Y-125537219D01*
X153261633Y-125552227D01*
X153229047Y-125567309D01*
X153209167Y-125584016D01*
X153199766Y-125603897D01*
X153198612Y-125628501D01*
X152860472Y-125628501D01*
X152857766Y-125618237D01*
X152845587Y-125571052D01*
X152836930Y-125536285D01*
X152836201Y-125533225D01*
X152823756Y-125490544D01*
X152807099Y-125457110D01*
X152782540Y-125428283D01*
X152746391Y-125399427D01*
X152711231Y-125376102D01*
X152673621Y-125351021D01*
X152638063Y-125325251D01*
X152611404Y-125303785D01*
X152608428Y-125301090D01*
X152566369Y-125253619D01*
X152526888Y-125193902D01*
X152494379Y-125129239D01*
X152477896Y-125084188D01*
X152465079Y-125046011D01*
X152451355Y-125012194D01*
X152439682Y-124990020D01*
X152439620Y-124989930D01*
X152425995Y-124977215D01*
X152398333Y-124956557D01*
X152359533Y-124929937D01*
X152340804Y-124917753D01*
X152678333Y-124917753D01*
X152681497Y-124991227D01*
X152702282Y-125058113D01*
X152739284Y-125116651D01*
X152791100Y-125165084D01*
X152856324Y-125201653D01*
X152921328Y-125222109D01*
X152979703Y-125229502D01*
X153037211Y-125224347D01*
X153101068Y-125205970D01*
X153103676Y-125205017D01*
X153166031Y-125172789D01*
X153217149Y-125127858D01*
X153255729Y-125073303D01*
X153280471Y-125012204D01*
X153290077Y-124947643D01*
X153283246Y-124882699D01*
X153262763Y-124827980D01*
X153221889Y-124768935D01*
X153166448Y-124717841D01*
X153104267Y-124680527D01*
X153043108Y-124661497D01*
X152975037Y-124655821D01*
X152907526Y-124663500D01*
X152856164Y-124680527D01*
X152800563Y-124713193D01*
X152751083Y-124754946D01*
X152713329Y-124800748D01*
X152703394Y-124817830D01*
X152691254Y-124850368D01*
X152681776Y-124891396D01*
X152678333Y-124917753D01*
X152340804Y-124917753D01*
X152312495Y-124899336D01*
X152260116Y-124866734D01*
X152252881Y-124862341D01*
X152083690Y-124759901D01*
X151999515Y-124761075D01*
X151948052Y-124763842D01*
X151892327Y-124770007D01*
X151843957Y-124778267D01*
X151841730Y-124778758D01*
X151802982Y-124786942D01*
X151751516Y-124797104D01*
X151693969Y-124807966D01*
X151636979Y-124818247D01*
X151635625Y-124818484D01*
X151573873Y-124829458D01*
X151506691Y-124841644D01*
X151442648Y-124853477D01*
X151395169Y-124862454D01*
X151233539Y-124893371D01*
X151088448Y-124920797D01*
X150957215Y-124945236D01*
X150837160Y-124967190D01*
X150816112Y-124970992D01*
X150730298Y-124986533D01*
X150661501Y-124999234D01*
X150607403Y-125009641D01*
X150565687Y-125018300D01*
X150534035Y-125025755D01*
X150510128Y-125032552D01*
X150491649Y-125039237D01*
X150476281Y-125046356D01*
X150461846Y-125054371D01*
X150435392Y-125072880D01*
X150400111Y-125101695D01*
X150359705Y-125137323D01*
X150317874Y-125176277D01*
X150278320Y-125215064D01*
X150244743Y-125250194D01*
X150220846Y-125278177D01*
X150213684Y-125288398D01*
X150202974Y-125312575D01*
X150191330Y-125349242D01*
X150180872Y-125391498D01*
X150178569Y-125402753D01*
X150153426Y-125496301D01*
X150115795Y-125578038D01*
X150063684Y-125651000D01*
X149995103Y-125718225D01*
X149947406Y-125755485D01*
X149911173Y-125783409D01*
X149888267Y-125805726D01*
X149874965Y-125826559D01*
X149869578Y-125841726D01*
X149867173Y-125859870D01*
X149864794Y-125895409D01*
X149862465Y-125946324D01*
X149860211Y-126010597D01*
X149858057Y-126086210D01*
X149856027Y-126171142D01*
X149854146Y-126263377D01*
X149852438Y-126360895D01*
X149850929Y-126461677D01*
X149849643Y-126563706D01*
X149848604Y-126664961D01*
X149847837Y-126763426D01*
X149847368Y-126857080D01*
X149847219Y-126943905D01*
X149847417Y-127021883D01*
X149847986Y-127088996D01*
X149848950Y-127143223D01*
X149850335Y-127182547D01*
X149852164Y-127204949D01*
X149852887Y-127208340D01*
X149856500Y-127219792D01*
X149860172Y-127229708D01*
X149865252Y-127238186D01*
X149873088Y-127245325D01*
X149885027Y-127251224D01*
X149902417Y-127255981D01*
X149926605Y-127259696D01*
X149958939Y-127262466D01*
X150000766Y-127264391D01*
X150053435Y-127265569D01*
X150118292Y-127266099D01*
X150196685Y-127266080D01*
X150289962Y-127265610D01*
X150399471Y-127264789D01*
X150526558Y-127263714D01*
X150600192Y-127263087D01*
X150735710Y-127261938D01*
X150852990Y-127260996D01*
X150953423Y-127260340D01*
X151038402Y-127260053D01*
X151109316Y-127260217D01*
X151167557Y-127260913D01*
X151214516Y-127262222D01*
X151251584Y-127264226D01*
X151280153Y-127267006D01*
X151301613Y-127270645D01*
X151317356Y-127275224D01*
X151328773Y-127280823D01*
X151337254Y-127287525D01*
X151344192Y-127295412D01*
X151350977Y-127304564D01*
X151352922Y-127307208D01*
X151361406Y-127322223D01*
X151367392Y-127343077D01*
X151371511Y-127373679D01*
X151374393Y-127417937D01*
X151375629Y-127448135D01*
X151377762Y-127495498D01*
X151380417Y-127536917D01*
X151383242Y-127567712D01*
X151385698Y-127582658D01*
X151389453Y-127592607D01*
X151394972Y-127600895D01*
X151403946Y-127607673D01*
X151418065Y-127613092D01*
X151439020Y-127617305D01*
X151468503Y-127620462D01*
X151508204Y-127622716D01*
X151559814Y-127624218D01*
X151625024Y-127625120D01*
X151705526Y-127625573D01*
X151803010Y-127625729D01*
X151866267Y-127625743D01*
X151970690Y-127625802D01*
X152057301Y-127626021D01*
X152127913Y-127626466D01*
X152184343Y-127627204D01*
X152228407Y-127628301D01*
X152261918Y-127629822D01*
X152286694Y-127631834D01*
X152304549Y-127634403D01*
X152317299Y-127637594D01*
X152326759Y-127641475D01*
X152328834Y-127642566D01*
X152374469Y-127678369D01*
X152406525Y-127727278D01*
X152419913Y-127768251D01*
X152422506Y-127790357D01*
X152424746Y-127829163D01*
X152426632Y-127882129D01*
X152428162Y-127946718D01*
X152429336Y-128020392D01*
X152430152Y-128100614D01*
X152430610Y-128184846D01*
X152430707Y-128270550D01*
X152430443Y-128355188D01*
X152429816Y-128436222D01*
X152428826Y-128511115D01*
X152427470Y-128577329D01*
X152425748Y-128632326D01*
X152423660Y-128673569D01*
X152421202Y-128698519D01*
X152420356Y-128702583D01*
X152398765Y-128749337D01*
X152364332Y-128789299D01*
X152323100Y-128815835D01*
X152297589Y-128822745D01*
X152257040Y-128828058D01*
X152199890Y-128831926D01*
X152131816Y-128834325D01*
X152068552Y-128836080D01*
X152021777Y-128838658D01*
X151988357Y-128843460D01*
X151965159Y-128851889D01*
X151949052Y-128865346D01*
X151936902Y-128885233D01*
X151925577Y-128912950D01*
X151919574Y-128929284D01*
X151890888Y-129000753D01*
X151861183Y-129059157D01*
X151827036Y-129110914D01*
X151812725Y-129129496D01*
X151774767Y-129169161D01*
X151725151Y-129209927D01*
X151670049Y-129247531D01*
X151615630Y-129277709D01*
X151573828Y-129294550D01*
X151530370Y-129304032D01*
X151475330Y-129310752D01*
X151415879Y-129314334D01*
X151359185Y-129314403D01*
X151312420Y-129310587D01*
X151301931Y-129308740D01*
X151245504Y-129291302D01*
X151183079Y-129262723D01*
X151121448Y-129226750D01*
X151067403Y-129187134D01*
X151045442Y-129167221D01*
X150993765Y-129105474D01*
X150948174Y-129030595D01*
X150912375Y-128948934D01*
X150904751Y-128926168D01*
X150891008Y-128891833D01*
X150874021Y-128862321D01*
X150863737Y-128850106D01*
X150839554Y-128828023D01*
X149629471Y-128828023D01*
X149424076Y-128828098D01*
X149238060Y-128828323D01*
X149071174Y-128828700D01*
X148923167Y-128829232D01*
X148793791Y-128829921D01*
X148682797Y-128830769D01*
X148589933Y-128831777D01*
X148514953Y-128832949D01*
X148457604Y-128834286D01*
X148417639Y-128835789D01*
X148394808Y-128837463D01*
X148389529Y-128838432D01*
X148378031Y-128842889D01*
X148368344Y-128848983D01*
X148358823Y-128859341D01*
X148347824Y-128876594D01*
X148333702Y-128903371D01*
X148314811Y-128942300D01*
X148289508Y-128996011D01*
X148285228Y-129005140D01*
X148249522Y-129066934D01*
X148202553Y-129127417D01*
X148149445Y-129180820D01*
X148095319Y-129221371D01*
X148090944Y-129223977D01*
X147997710Y-129267846D01*
X147902426Y-129293178D01*
X147807046Y-129300652D01*
X147713525Y-129290948D01*
X147623818Y-129264746D01*
X147539878Y-129222725D01*
X147463659Y-129165565D01*
X147397117Y-129093945D01*
X147342204Y-129008544D01*
X147317271Y-128954975D01*
X147299748Y-128913776D01*
X147283828Y-128884749D01*
X147265699Y-128865766D01*
X147241550Y-128854694D01*
X147207568Y-128849405D01*
X147159944Y-128847768D01*
X147125245Y-128847652D01*
X147072740Y-128846746D01*
X147022127Y-128844285D01*
X146979547Y-128840660D01*
X146953435Y-128836779D01*
X146903343Y-128817983D01*
X146859503Y-128786556D01*
X146849387Y-128774152D01*
X147534948Y-128774152D01*
X147546747Y-128838395D01*
X147556494Y-128863016D01*
X147594147Y-128927996D01*
X147640353Y-128976924D01*
X147698283Y-129012625D01*
X147744165Y-129030214D01*
X147791872Y-129041135D01*
X147837579Y-129041204D01*
X147889874Y-129030314D01*
X147896962Y-129028276D01*
X147964848Y-128999573D01*
X148020854Y-128956246D01*
X148066631Y-128896889D01*
X148080479Y-128872189D01*
X148101863Y-128810744D01*
X148102986Y-128793964D01*
X151115940Y-128793964D01*
X151126354Y-128857693D01*
X151147722Y-128908777D01*
X151181454Y-128954858D01*
X151225129Y-128998589D01*
X151271390Y-129032872D01*
X151283217Y-129039509D01*
X151341254Y-129059718D01*
X151406801Y-129066510D01*
X151472919Y-129059755D01*
X151522758Y-129043988D01*
X151582157Y-129007849D01*
X151633706Y-128956668D01*
X151670281Y-128900253D01*
X151693446Y-128834745D01*
X151698970Y-128768357D01*
X151688553Y-128703565D01*
X151663894Y-128642842D01*
X151626695Y-128588662D01*
X151578655Y-128543500D01*
X151521473Y-128509829D01*
X151456849Y-128490123D01*
X151386484Y-128486858D01*
X151386272Y-128486874D01*
X151312068Y-128501945D01*
X151247082Y-128534170D01*
X151192086Y-128582984D01*
X151147852Y-128647821D01*
X151137310Y-128669184D01*
X151119494Y-128728864D01*
X151115940Y-128793964D01*
X148102986Y-128793964D01*
X148106199Y-128745955D01*
X148094868Y-128681234D01*
X148069251Y-128619994D01*
X148030731Y-128565647D01*
X147980688Y-128521605D01*
X147927271Y-128493724D01*
X147871247Y-128479944D01*
X147808849Y-128476402D01*
X147747923Y-128482918D01*
X147696892Y-128499036D01*
X147639606Y-128536088D01*
X147593400Y-128585673D01*
X147559643Y-128644244D01*
X147539703Y-128708253D01*
X147534948Y-128774152D01*
X146849387Y-128774152D01*
X146827089Y-128746812D01*
X146815634Y-128721870D01*
X146812593Y-128706365D01*
X146810018Y-128678956D01*
X146807881Y-128638532D01*
X146806156Y-128583980D01*
X146804813Y-128514190D01*
X146803826Y-128428050D01*
X146803167Y-128324448D01*
X146802965Y-128257600D01*
X147131514Y-128257600D01*
X147132288Y-128312742D01*
X147134506Y-128360375D01*
X147135190Y-128369323D01*
X147141209Y-128421820D01*
X147150393Y-128457979D01*
X147164871Y-128481061D01*
X147186770Y-128494332D01*
X147218218Y-128501052D01*
X147221315Y-128501416D01*
X147261761Y-128504308D01*
X147294823Y-128501394D01*
X147324829Y-128490707D01*
X147356107Y-128470278D01*
X147392984Y-128438140D01*
X147421796Y-128410248D01*
X147503144Y-128340231D01*
X147587077Y-128289179D01*
X147675282Y-128256451D01*
X147769448Y-128241403D01*
X147861939Y-128242549D01*
X147945350Y-128255282D01*
X148020752Y-128279841D01*
X148091801Y-128318088D01*
X148162155Y-128371885D01*
X148215981Y-128422864D01*
X148247753Y-128454984D01*
X148274234Y-128481460D01*
X148292558Y-128499445D01*
X148299791Y-128506072D01*
X148313340Y-128507955D01*
X148346097Y-128509742D01*
X148397644Y-128511428D01*
X148467560Y-128513011D01*
X148555426Y-128514484D01*
X148660823Y-128515844D01*
X148783331Y-128517087D01*
X148922529Y-128518207D01*
X149077999Y-128519201D01*
X149249320Y-128520065D01*
X149436072Y-128520793D01*
X149637837Y-128521381D01*
X149798170Y-128521727D01*
X149971052Y-128522023D01*
X150125376Y-128522226D01*
X150262211Y-128522324D01*
X150382628Y-128522304D01*
X150487697Y-128522156D01*
X150578487Y-128521866D01*
X150656070Y-128521422D01*
X150721515Y-128520814D01*
X150775893Y-128520028D01*
X150820273Y-128519053D01*
X150855727Y-128517876D01*
X150883323Y-128516487D01*
X150904133Y-128514872D01*
X150919226Y-128513019D01*
X150929673Y-128510918D01*
X150935605Y-128508965D01*
X150958148Y-128495733D01*
X150989398Y-128472438D01*
X151024289Y-128443005D01*
X151042996Y-128425811D01*
X151126382Y-128358316D01*
X151214446Y-128309395D01*
X151306314Y-128279274D01*
X151401110Y-128268176D01*
X151497959Y-128276323D01*
X151563963Y-128292788D01*
X151632259Y-128318464D01*
X151692869Y-128351109D01*
X151751754Y-128394406D01*
X151803170Y-128440671D01*
X151840681Y-128474515D01*
X151872977Y-128496610D01*
X151905937Y-128509004D01*
X151945440Y-128513747D01*
X151997364Y-128512888D01*
X152008608Y-128512290D01*
X152054089Y-128507544D01*
X152084072Y-128497426D01*
X152102553Y-128478868D01*
X152113527Y-128448800D01*
X152117410Y-128428726D01*
X152120622Y-128398481D01*
X152123017Y-128354494D01*
X152124603Y-128300772D01*
X152125388Y-128241319D01*
X152125383Y-128180142D01*
X152124595Y-128121245D01*
X152123034Y-128068634D01*
X152120708Y-128026315D01*
X152117625Y-127998293D01*
X152116452Y-127992896D01*
X152099157Y-127959517D01*
X152079703Y-127945299D01*
X152063388Y-127942294D01*
X152028583Y-127939415D01*
X151976429Y-127936668D01*
X151908063Y-127934062D01*
X151824627Y-127931602D01*
X151727258Y-127929296D01*
X151617096Y-127927150D01*
X151495280Y-127925172D01*
X151362951Y-127923368D01*
X151221246Y-127921746D01*
X151071306Y-127920313D01*
X150914269Y-127919075D01*
X150751275Y-127918039D01*
X150583464Y-127917212D01*
X150411974Y-127916602D01*
X150237945Y-127916215D01*
X150062516Y-127916057D01*
X149886826Y-127916137D01*
X149712016Y-127916461D01*
X149539223Y-127917036D01*
X149369588Y-127917869D01*
X149204249Y-127918966D01*
X149044346Y-127920336D01*
X148891019Y-127921984D01*
X148745406Y-127923918D01*
X148696174Y-127924668D01*
X148572743Y-127926598D01*
X148440325Y-127928634D01*
X148302937Y-127930716D01*
X148164595Y-127932785D01*
X148029314Y-127934780D01*
X147901112Y-127936643D01*
X147784003Y-127938314D01*
X147682004Y-127939733D01*
X147670556Y-127939889D01*
X147571573Y-127941444D01*
X147479994Y-127943292D01*
X147397688Y-127945369D01*
X147326528Y-127947612D01*
X147268387Y-127949959D01*
X147225134Y-127952346D01*
X147198642Y-127954712D01*
X147192022Y-127955941D01*
X147166655Y-127968648D01*
X147149546Y-127985561D01*
X147149238Y-127986119D01*
X147144331Y-128004917D01*
X147140016Y-128039463D01*
X147136435Y-128085880D01*
X147133729Y-128140293D01*
X147132041Y-128198825D01*
X147131514Y-128257600D01*
X146802965Y-128257600D01*
X146802819Y-128209035D01*
X146801970Y-127732357D01*
X146828459Y-127692285D01*
X146864070Y-127653681D01*
X146909756Y-127625398D01*
X146964563Y-127598584D01*
X147629171Y-127610198D01*
X147756770Y-127612455D01*
X147890274Y-127614866D01*
X148026439Y-127617369D01*
X148162025Y-127619904D01*
X148293789Y-127622409D01*
X148418489Y-127624821D01*
X148532883Y-127627080D01*
X148633728Y-127629123D01*
X148708275Y-127630686D01*
X148829025Y-127633008D01*
X148930911Y-127634401D01*
X149013792Y-127634865D01*
X149077530Y-127634402D01*
X149121986Y-127633010D01*
X149147019Y-127630691D01*
X149150975Y-127629729D01*
X149162300Y-127625713D01*
X149171972Y-127621183D01*
X149180113Y-127614666D01*
X149186843Y-127604689D01*
X149192283Y-127589780D01*
X149196553Y-127568466D01*
X149199774Y-127539273D01*
X149202068Y-127500730D01*
X149203553Y-127451362D01*
X149204353Y-127389698D01*
X149204586Y-127314264D01*
X149204374Y-127223589D01*
X149203837Y-127116198D01*
X149203114Y-126993542D01*
X149202300Y-126873002D01*
X149201260Y-126745503D01*
X149200036Y-126614743D01*
X149198669Y-126484418D01*
X149197200Y-126358225D01*
X149195672Y-126239864D01*
X149194124Y-126133031D01*
X149192598Y-126041423D01*
X149192313Y-126025975D01*
X149190332Y-125925469D01*
X149188455Y-125842629D01*
X149186570Y-125775491D01*
X149184568Y-125722094D01*
X149182337Y-125680475D01*
X149179767Y-125648672D01*
X149176748Y-125624721D01*
X149173167Y-125606661D01*
X149168915Y-125592529D01*
X149167675Y-125589229D01*
X149140861Y-125513180D01*
X149124164Y-125445582D01*
X149116220Y-125378964D01*
X149115666Y-125305854D01*
X149115709Y-125304607D01*
X149115722Y-125304339D01*
X149355545Y-125304339D01*
X149356369Y-125370902D01*
X149375912Y-125436321D01*
X149414039Y-125498735D01*
X149435758Y-125523812D01*
X149492712Y-125570088D01*
X149558883Y-125600738D01*
X149630854Y-125615160D01*
X149705206Y-125612751D01*
X149778522Y-125592907D01*
X149792708Y-125586817D01*
X149849273Y-125553063D01*
X149898784Y-125508661D01*
X149934973Y-125459239D01*
X149935087Y-125459031D01*
X149944125Y-125436618D01*
X149949577Y-125406697D01*
X149952081Y-125364616D01*
X149952434Y-125332519D01*
X149952175Y-125288511D01*
X149950389Y-125258305D01*
X149945564Y-125236070D01*
X149936186Y-125215980D01*
X149920742Y-125192205D01*
X149913175Y-125181289D01*
X149864399Y-125127089D01*
X149805774Y-125087709D01*
X149740368Y-125063186D01*
X149671246Y-125053556D01*
X149601475Y-125058857D01*
X149534121Y-125079126D01*
X149472249Y-125114401D01*
X149418926Y-125164717D01*
X149410592Y-125175217D01*
X149373575Y-125238491D01*
X149355545Y-125304339D01*
X149115722Y-125304339D01*
X149118227Y-125253856D01*
X149122584Y-125215505D01*
X149130248Y-125182330D01*
X149142685Y-125147105D01*
X149152571Y-125123110D01*
X149173032Y-125079236D01*
X149195206Y-125043159D01*
X149223988Y-125007845D01*
X149255884Y-124974589D01*
X149334550Y-124908221D01*
X149420063Y-124859890D01*
X149513048Y-124829397D01*
X149614131Y-124816544D01*
X149723936Y-124821133D01*
X149736274Y-124822655D01*
X149782535Y-124828059D01*
X149814705Y-124829818D01*
X149837990Y-124827857D01*
X149857600Y-124822101D01*
X149860636Y-124820868D01*
X149869122Y-124816695D01*
X149879746Y-124810041D01*
X149893567Y-124799967D01*
X149911644Y-124785533D01*
X149935035Y-124765800D01*
X149964799Y-124739826D01*
X150001993Y-124706673D01*
X150022672Y-124687990D01*
X150821019Y-124687990D01*
X150829491Y-124698770D01*
X150849599Y-124707749D01*
X150873382Y-124712010D01*
X150884814Y-124711348D01*
X150901710Y-124708348D01*
X150933493Y-124702763D01*
X150975713Y-124695373D01*
X151023918Y-124686959D01*
X151027124Y-124686400D01*
X151083893Y-124676408D01*
X151152057Y-124664263D01*
X151223711Y-124651379D01*
X151290950Y-124639173D01*
X151301931Y-124637165D01*
X151362898Y-124626009D01*
X151425226Y-124614615D01*
X151482675Y-124604123D01*
X151529004Y-124595673D01*
X151540210Y-124593632D01*
X151609692Y-124579538D01*
X151659809Y-124565340D01*
X151690766Y-124549903D01*
X151702767Y-124532093D01*
X151696017Y-124510775D01*
X151670721Y-124484815D01*
X151627084Y-124453077D01*
X151571831Y-124418353D01*
X151521429Y-124387629D01*
X151464521Y-124352508D01*
X151411129Y-124319186D01*
X151396125Y-124309726D01*
X151348161Y-124280905D01*
X151311835Y-124263345D01*
X151283480Y-124256015D01*
X151259431Y-124257883D01*
X151239945Y-124265769D01*
X151226273Y-124276124D01*
X151201163Y-124298090D01*
X151167012Y-124329353D01*
X151126214Y-124367597D01*
X151081166Y-124410509D01*
X151034263Y-124455772D01*
X150987901Y-124501073D01*
X150944474Y-124544095D01*
X150906380Y-124582524D01*
X150876012Y-124614046D01*
X150855768Y-124636344D01*
X150852917Y-124639774D01*
X150834741Y-124663833D01*
X150823190Y-124682140D01*
X150821019Y-124687990D01*
X150022672Y-124687990D01*
X150047676Y-124665400D01*
X150102906Y-124615069D01*
X150168743Y-124554738D01*
X150246244Y-124483467D01*
X150336467Y-124400319D01*
X150394087Y-124347161D01*
X150451175Y-124294573D01*
X150504866Y-124245289D01*
X150553126Y-124201161D01*
X150593921Y-124164046D01*
X150625214Y-124135796D01*
X150644972Y-124118268D01*
X150649265Y-124114611D01*
X150685400Y-124088872D01*
X150727235Y-124067516D01*
X150777987Y-124049463D01*
X150840876Y-124033633D01*
X150919119Y-124018948D01*
X150948608Y-124014208D01*
X150996941Y-124006391D01*
X151043081Y-123998415D01*
X151080404Y-123991449D01*
X151095826Y-123988237D01*
X151121934Y-123982885D01*
X151162322Y-123975227D01*
X151211910Y-123966201D01*
X151265618Y-123956744D01*
X151277395Y-123954713D01*
X151333716Y-123944797D01*
X151389331Y-123934571D01*
X151438307Y-123925154D01*
X151474711Y-123917665D01*
X151478593Y-123916805D01*
X151513943Y-123909768D01*
X151562255Y-123901363D01*
X151617015Y-123892674D01*
X151668688Y-123885196D01*
X151720925Y-123878228D01*
X151758184Y-123874090D01*
X151784912Y-123872798D01*
X151805557Y-123874365D01*
G37*
G36*
X154119290Y-127683675D02*
G01*
X154125397Y-127684361D01*
X154161050Y-127690493D01*
X154186208Y-127701060D01*
X154210003Y-127720634D01*
X154221754Y-127732604D01*
X154232039Y-127744198D01*
X154241892Y-127757643D01*
X154252093Y-127774796D01*
X154263421Y-127797515D01*
X154276656Y-127827656D01*
X154292575Y-127867075D01*
X154311960Y-127917631D01*
X154335590Y-127981179D01*
X154364242Y-128059577D01*
X154397451Y-128151231D01*
X154428419Y-128236769D01*
X154458548Y-128319737D01*
X154486906Y-128397590D01*
X154512562Y-128467782D01*
X154534586Y-128527765D01*
X154552046Y-128574995D01*
X154564011Y-128606925D01*
X154565991Y-128612104D01*
X154609251Y-128725036D01*
X154645614Y-128821153D01*
X154675552Y-128901834D01*
X154699540Y-128968454D01*
X154718052Y-129022393D01*
X154731562Y-129065026D01*
X154740543Y-129097732D01*
X154745470Y-129121889D01*
X154746831Y-129137587D01*
X154738452Y-129166008D01*
X154716654Y-129195237D01*
X154686446Y-129219317D01*
X154671889Y-129226701D01*
X154642520Y-129233882D01*
X154600402Y-129238022D01*
X154552187Y-129239057D01*
X154504526Y-129236924D01*
X154464072Y-129231561D01*
X154452395Y-129228782D01*
X154420432Y-129216405D01*
X154393958Y-129197364D01*
X154371058Y-129168910D01*
X154349823Y-129128295D01*
X154328339Y-129072770D01*
X154314216Y-129030158D01*
X154294742Y-128971592D01*
X154278394Y-128929012D01*
X154263784Y-128899304D01*
X154249525Y-128879353D01*
X154244938Y-128874642D01*
X154216537Y-128847652D01*
X154021724Y-128847652D01*
X153948519Y-128847605D01*
X153892133Y-128848554D01*
X153849769Y-128852133D01*
X153818628Y-128859977D01*
X153795912Y-128873720D01*
X153778821Y-128894998D01*
X153764558Y-128925445D01*
X153750323Y-128966695D01*
X153734994Y-129015130D01*
X153718499Y-129064317D01*
X153702100Y-129108597D01*
X153687527Y-129143586D01*
X153676510Y-129164903D01*
X153675082Y-129166894D01*
X153644279Y-129196652D01*
X153604937Y-129216385D01*
X153553687Y-129227251D01*
X153490647Y-129230419D01*
X153428920Y-129228235D01*
X153383425Y-129220934D01*
X153351175Y-129207391D01*
X153329183Y-129186478D01*
X153317597Y-129165218D01*
X153312117Y-129150351D01*
X153309094Y-129135315D01*
X153309125Y-129117736D01*
X153312809Y-129095237D01*
X153320743Y-129065440D01*
X153333527Y-129025971D01*
X153351759Y-128974452D01*
X153376037Y-128908507D01*
X153395087Y-128857467D01*
X153418470Y-128794844D01*
X153442281Y-128730845D01*
X153464546Y-128670791D01*
X153483290Y-128620008D01*
X153493387Y-128592475D01*
X153508201Y-128551943D01*
X153527881Y-128498175D01*
X153530232Y-128491758D01*
X153904013Y-128491758D01*
X153908420Y-128511104D01*
X153919535Y-128522737D01*
X153919957Y-128522987D01*
X153937618Y-128527574D01*
X153968838Y-128530910D01*
X154007576Y-128532853D01*
X154047794Y-128533261D01*
X154083452Y-128531992D01*
X154108510Y-128528905D01*
X154113264Y-128527525D01*
X154131552Y-128515369D01*
X154139847Y-128494789D01*
X154138621Y-128462633D01*
X154129446Y-128419937D01*
X154115475Y-128370461D01*
X154098780Y-128318094D01*
X154081112Y-128267721D01*
X154064223Y-128224229D01*
X154049867Y-128192503D01*
X154044485Y-128183033D01*
X154031496Y-128168819D01*
X154018302Y-128167305D01*
X154004191Y-128179634D01*
X153988451Y-128206946D01*
X153970369Y-128250383D01*
X153949234Y-128311087D01*
X153933179Y-128361443D01*
X153916180Y-128419528D01*
X153906529Y-128462100D01*
X153904013Y-128491758D01*
X153530232Y-128491758D01*
X153550526Y-128436359D01*
X153574235Y-128371683D01*
X153592250Y-128322575D01*
X153617907Y-128252391D01*
X153647437Y-128171183D01*
X153678132Y-128086423D01*
X153707285Y-128005580D01*
X153725031Y-127956141D01*
X153751412Y-127883916D01*
X153773341Y-127827927D01*
X153792195Y-127785671D01*
X153809354Y-127754641D01*
X153826199Y-127732333D01*
X153844107Y-127716241D01*
X153863724Y-127704240D01*
X153888441Y-127696477D01*
X153927431Y-127689907D01*
X153975352Y-127684936D01*
X154026863Y-127681970D01*
X154076622Y-127681414D01*
X154119290Y-127683675D01*
G37*
D12*
%TO.C,A1*%
X113804400Y-101912400D02*
X159804400Y-101912400D01*
X113804400Y-121912400D02*
X113804400Y-101912400D01*
X159804400Y-101912400D02*
X159804400Y-121912400D01*
X159804400Y-121912400D02*
X113804400Y-121912400D01*
D14*
%TO.C,C1*%
X119260800Y-91432400D02*
X111920800Y-91432400D01*
X119260800Y-91472400D02*
X111931800Y-91472400D01*
X119260800Y-91512400D02*
X111941800Y-91512400D01*
X119260800Y-91552400D02*
X111952800Y-91552400D01*
X119260800Y-91592400D02*
X111964800Y-91592400D01*
X119260800Y-91632400D02*
X111975800Y-91632400D01*
X119260800Y-91672400D02*
X111987800Y-91672400D01*
X119260800Y-91712400D02*
X111998800Y-91712400D01*
X119260800Y-91752400D02*
X112010800Y-91752400D01*
X119260800Y-91792400D02*
X112023800Y-91792400D01*
X119260800Y-91832400D02*
X112035800Y-91832400D01*
X119260800Y-91872400D02*
X112048800Y-91872400D01*
X119260800Y-91912400D02*
X112060800Y-91912400D01*
X119260800Y-91952400D02*
X112073800Y-91952400D01*
X119260800Y-91992400D02*
X112087800Y-91992400D01*
X119260800Y-92032400D02*
X112100800Y-92032400D01*
X119260800Y-92072400D02*
X112114800Y-92072400D01*
X119260800Y-92112400D02*
X112128800Y-92112400D01*
X119260800Y-92152400D02*
X112142800Y-92152400D01*
X119260800Y-92192400D02*
X112156800Y-92192400D01*
X119260800Y-92232400D02*
X112170800Y-92232400D01*
X119260800Y-92272400D02*
X112185800Y-92272400D01*
X119260800Y-92312400D02*
X112200800Y-92312400D01*
X119260800Y-92352400D02*
X112215800Y-92352400D01*
X119260800Y-92392400D02*
X112230800Y-92392400D01*
X119260800Y-92432400D02*
X112246800Y-92432400D01*
X119260800Y-92472400D02*
X112262800Y-92472400D01*
X119260800Y-92512400D02*
X112277800Y-92512400D01*
X119260800Y-92552400D02*
X112294800Y-92552400D01*
X119260800Y-92592400D02*
X112310800Y-92592400D01*
X119260800Y-92632400D02*
X112327800Y-92632400D01*
X119260800Y-92672400D02*
X112344800Y-92672400D01*
X119260800Y-92712400D02*
X112361800Y-92712400D01*
X119260800Y-92752400D02*
X112378800Y-92752400D01*
X119260800Y-92792400D02*
X112395800Y-92792400D01*
X119260800Y-92832400D02*
X112413800Y-92832400D01*
X119260800Y-92872400D02*
X112431800Y-92872400D01*
X119260800Y-92912400D02*
X112449800Y-92912400D01*
X119260800Y-92952400D02*
X112468800Y-92952400D01*
X119260800Y-92992400D02*
X112487800Y-92992400D01*
X119260800Y-93032400D02*
X112505800Y-93032400D01*
X119260800Y-93072400D02*
X112525800Y-93072400D01*
X119260800Y-93112400D02*
X112544800Y-93112400D01*
X119260800Y-93152400D02*
X112564800Y-93152400D01*
X119260800Y-93192400D02*
X112584800Y-93192400D01*
X119260800Y-93232400D02*
X112604800Y-93232400D01*
X119260800Y-93272400D02*
X112624800Y-93272400D01*
X119260800Y-93312400D02*
X112645800Y-93312400D01*
X119260800Y-93352400D02*
X112666800Y-93352400D01*
X119260800Y-93392400D02*
X112687800Y-93392400D01*
X119260800Y-93432400D02*
X112708800Y-93432400D01*
X119260800Y-93472400D02*
X112730800Y-93472400D01*
X119260800Y-93512400D02*
X112752800Y-93512400D01*
X119260800Y-93552400D02*
X112774800Y-93552400D01*
X119260800Y-93592400D02*
X112796800Y-93592400D01*
X119260800Y-93632400D02*
X112819800Y-93632400D01*
X119260800Y-93672400D02*
X112842800Y-93672400D01*
X119260800Y-93712400D02*
X112865800Y-93712400D01*
X119260800Y-93752400D02*
X112889800Y-93752400D01*
X119260800Y-93792400D02*
X112912800Y-93792400D01*
X119260800Y-93832400D02*
X112936800Y-93832400D01*
X119260800Y-93872400D02*
X112961800Y-93872400D01*
X119260800Y-93912400D02*
X112985800Y-93912400D01*
X119260800Y-93952400D02*
X113010800Y-93952400D01*
X119260800Y-93992400D02*
X113035800Y-93992400D01*
X119260800Y-94032400D02*
X113061800Y-94032400D01*
X119260800Y-94072400D02*
X113087800Y-94072400D01*
X119260800Y-94112400D02*
X113113800Y-94112400D01*
X119260800Y-94152400D02*
X113139800Y-94152400D01*
X119260800Y-94192400D02*
X113166800Y-94192400D01*
X119260800Y-94232400D02*
X113193800Y-94232400D01*
X119260800Y-94272400D02*
X113220800Y-94272400D01*
X120660800Y-98232400D02*
X120740800Y-98232400D01*
X121513800Y-98192400D02*
X119887800Y-98192400D01*
X121865800Y-98152400D02*
X119535800Y-98152400D01*
X122135800Y-98112400D02*
X119265800Y-98112400D01*
X122361800Y-98072400D02*
X119039800Y-98072400D01*
X122559800Y-98032400D02*
X118841800Y-98032400D01*
X122738800Y-97992400D02*
X118662800Y-97992400D01*
X122902800Y-97952400D02*
X118498800Y-97952400D01*
X123055800Y-97912400D02*
X118345800Y-97912400D01*
X123197800Y-97872400D02*
X118203800Y-97872400D01*
X123331800Y-97832400D02*
X118069800Y-97832400D01*
X123459800Y-97792400D02*
X117941800Y-97792400D01*
X123580800Y-97752400D02*
X117820800Y-97752400D01*
X123696800Y-97712400D02*
X117704800Y-97712400D01*
X123807800Y-97672400D02*
X117593800Y-97672400D01*
X123913800Y-97632400D02*
X117487800Y-97632400D01*
X124016800Y-97592400D02*
X117384800Y-97592400D01*
X124116800Y-97552400D02*
X117284800Y-97552400D01*
X124212800Y-97512400D02*
X117188800Y-97512400D01*
X124305800Y-97472400D02*
X117095800Y-97472400D01*
X124395800Y-97432400D02*
X117005800Y-97432400D01*
X124483800Y-97392400D02*
X116917800Y-97392400D01*
X124569800Y-97352400D02*
X116831800Y-97352400D01*
X124652800Y-97312400D02*
X116748800Y-97312400D01*
X124733800Y-97272400D02*
X116667800Y-97272400D01*
X124812800Y-97232400D02*
X116588800Y-97232400D01*
X124889800Y-97192400D02*
X116511800Y-97192400D01*
X124965800Y-97152400D02*
X116435800Y-97152400D01*
X125039800Y-97112400D02*
X116361800Y-97112400D01*
X125111800Y-97072400D02*
X116289800Y-97072400D01*
X125182800Y-97032400D02*
X116218800Y-97032400D01*
X125251800Y-96992400D02*
X116149800Y-96992400D01*
X125319800Y-96952400D02*
X116081800Y-96952400D01*
X125386800Y-96912400D02*
X116014800Y-96912400D01*
X125451800Y-96872400D02*
X115949800Y-96872400D01*
X125516800Y-96832400D02*
X115884800Y-96832400D01*
X125579800Y-96792400D02*
X115821800Y-96792400D01*
X125640800Y-96752400D02*
X115760800Y-96752400D01*
X125701800Y-96712400D02*
X115699800Y-96712400D01*
X125761800Y-96672400D02*
X115639800Y-96672400D01*
X125815800Y-79352960D02*
X125815800Y-81152960D01*
X125820800Y-96632400D02*
X115580800Y-96632400D01*
X125878800Y-96592400D02*
X115522800Y-96592400D01*
X125935800Y-96552400D02*
X115465800Y-96552400D01*
X125991800Y-96512400D02*
X115409800Y-96512400D01*
X126046800Y-96472400D02*
X115354800Y-96472400D01*
X126100800Y-96432400D02*
X115300800Y-96432400D01*
X126153800Y-96392400D02*
X115247800Y-96392400D01*
X126206800Y-96352400D02*
X115194800Y-96352400D01*
X126258800Y-96312400D02*
X115142800Y-96312400D01*
X126309800Y-96272400D02*
X115091800Y-96272400D01*
X126359800Y-96232400D02*
X115041800Y-96232400D01*
X126409800Y-96192400D02*
X114991800Y-96192400D01*
X126458800Y-96152400D02*
X114942800Y-96152400D01*
X126506800Y-96112400D02*
X114894800Y-96112400D01*
X126553800Y-96072400D02*
X114847800Y-96072400D01*
X126600800Y-96032400D02*
X114800800Y-96032400D01*
X126647800Y-95992400D02*
X114753800Y-95992400D01*
X126692800Y-95952400D02*
X114708800Y-95952400D01*
X126715800Y-80252960D02*
X124915800Y-80252960D01*
X126737800Y-95912400D02*
X114663800Y-95912400D01*
X126782800Y-95872400D02*
X114618800Y-95872400D01*
X126826800Y-95832400D02*
X114574800Y-95832400D01*
X126869800Y-95792400D02*
X114531800Y-95792400D01*
X126912800Y-95752400D02*
X114488800Y-95752400D01*
X126954800Y-95712400D02*
X114446800Y-95712400D01*
X126996800Y-95672400D02*
X114404800Y-95672400D01*
X127037800Y-95632400D02*
X114363800Y-95632400D01*
X127077800Y-95592400D02*
X114323800Y-95592400D01*
X127118800Y-95552400D02*
X114282800Y-95552400D01*
X127157800Y-95512400D02*
X114243800Y-95512400D01*
X127196800Y-95472400D02*
X114204800Y-95472400D01*
X127235800Y-95432400D02*
X114165800Y-95432400D01*
X127273800Y-95392400D02*
X114127800Y-95392400D01*
X127311800Y-95352400D02*
X114089800Y-95352400D01*
X127348800Y-95312400D02*
X114052800Y-95312400D01*
X127385800Y-95272400D02*
X114015800Y-95272400D01*
X127422800Y-95232400D02*
X113978800Y-95232400D01*
X127458800Y-95192400D02*
X113942800Y-95192400D01*
X127493800Y-95152400D02*
X113907800Y-95152400D01*
X127528800Y-95112400D02*
X113872800Y-95112400D01*
X127563800Y-95072400D02*
X113837800Y-95072400D01*
X127597800Y-95032400D02*
X113803800Y-95032400D01*
X127631800Y-94992400D02*
X113769800Y-94992400D01*
X127665800Y-94952400D02*
X113735800Y-94952400D01*
X127698800Y-94912400D02*
X113702800Y-94912400D01*
X127731800Y-94872400D02*
X113669800Y-94872400D01*
X127763800Y-94832400D02*
X113637800Y-94832400D01*
X127795800Y-94792400D02*
X113605800Y-94792400D01*
X127827800Y-94752400D02*
X113573800Y-94752400D01*
X127858800Y-94712400D02*
X113542800Y-94712400D01*
X127889800Y-94672400D02*
X113511800Y-94672400D01*
X127920800Y-94632400D02*
X113480800Y-94632400D01*
X127950800Y-94592400D02*
X113450800Y-94592400D01*
X127980800Y-94552400D02*
X113420800Y-94552400D01*
X128009800Y-94512400D02*
X113391800Y-94512400D01*
X128039800Y-94472400D02*
X113361800Y-94472400D01*
X128068800Y-94432400D02*
X113332800Y-94432400D01*
X128096800Y-94392400D02*
X113304800Y-94392400D01*
X128124800Y-94352400D02*
X113276800Y-94352400D01*
X128152800Y-94312400D02*
X113248800Y-94312400D01*
X128180800Y-94272400D02*
X122140800Y-94272400D01*
X128207800Y-94232400D02*
X122140800Y-94232400D01*
X128234800Y-94192400D02*
X122140800Y-94192400D01*
X128261800Y-94152400D02*
X122140800Y-94152400D01*
X128287800Y-94112400D02*
X122140800Y-94112400D01*
X128313800Y-94072400D02*
X122140800Y-94072400D01*
X128339800Y-94032400D02*
X122140800Y-94032400D01*
X128365800Y-93992400D02*
X122140800Y-93992400D01*
X128390800Y-93952400D02*
X122140800Y-93952400D01*
X128415800Y-93912400D02*
X122140800Y-93912400D01*
X128439800Y-93872400D02*
X122140800Y-93872400D01*
X128464800Y-93832400D02*
X122140800Y-93832400D01*
X128488800Y-93792400D02*
X122140800Y-93792400D01*
X128511800Y-93752400D02*
X122140800Y-93752400D01*
X128535800Y-93712400D02*
X122140800Y-93712400D01*
X128558800Y-93672400D02*
X122140800Y-93672400D01*
X128581800Y-93632400D02*
X122140800Y-93632400D01*
X128604800Y-93592400D02*
X122140800Y-93592400D01*
X128626800Y-93552400D02*
X122140800Y-93552400D01*
X128648800Y-93512400D02*
X122140800Y-93512400D01*
X128670800Y-93472400D02*
X122140800Y-93472400D01*
X128692800Y-93432400D02*
X122140800Y-93432400D01*
X128713800Y-93392400D02*
X122140800Y-93392400D01*
X128734800Y-93352400D02*
X122140800Y-93352400D01*
X128755800Y-93312400D02*
X122140800Y-93312400D01*
X128776800Y-93272400D02*
X122140800Y-93272400D01*
X128796800Y-93232400D02*
X122140800Y-93232400D01*
X128816800Y-93192400D02*
X122140800Y-93192400D01*
X128836800Y-93152400D02*
X122140800Y-93152400D01*
X128856800Y-93112400D02*
X122140800Y-93112400D01*
X128875800Y-93072400D02*
X122140800Y-93072400D01*
X128895800Y-93032400D02*
X122140800Y-93032400D01*
X128913800Y-92992400D02*
X122140800Y-92992400D01*
X128932800Y-92952400D02*
X122140800Y-92952400D01*
X128951800Y-92912400D02*
X122140800Y-92912400D01*
X128969800Y-92872400D02*
X122140800Y-92872400D01*
X128987800Y-92832400D02*
X122140800Y-92832400D01*
X129005800Y-92792400D02*
X122140800Y-92792400D01*
X129022800Y-92752400D02*
X122140800Y-92752400D01*
X129039800Y-92712400D02*
X122140800Y-92712400D01*
X129056800Y-92672400D02*
X122140800Y-92672400D01*
X129073800Y-92632400D02*
X122140800Y-92632400D01*
X129090800Y-92592400D02*
X122140800Y-92592400D01*
X129106800Y-92552400D02*
X122140800Y-92552400D01*
X129123800Y-92512400D02*
X122140800Y-92512400D01*
X129138800Y-92472400D02*
X122140800Y-92472400D01*
X129154800Y-92432400D02*
X122140800Y-92432400D01*
X129170800Y-92392400D02*
X122140800Y-92392400D01*
X129185800Y-92352400D02*
X122140800Y-92352400D01*
X129200800Y-92312400D02*
X122140800Y-92312400D01*
X129215800Y-92272400D02*
X122140800Y-92272400D01*
X129230800Y-92232400D02*
X122140800Y-92232400D01*
X129244800Y-92192400D02*
X122140800Y-92192400D01*
X129258800Y-92152400D02*
X122140800Y-92152400D01*
X129272800Y-92112400D02*
X122140800Y-92112400D01*
X129286800Y-92072400D02*
X122140800Y-92072400D01*
X129300800Y-92032400D02*
X122140800Y-92032400D01*
X129313800Y-91992400D02*
X122140800Y-91992400D01*
X129327800Y-91952400D02*
X122140800Y-91952400D01*
X129340800Y-91912400D02*
X122140800Y-91912400D01*
X129352800Y-91872400D02*
X122140800Y-91872400D01*
X129365800Y-91832400D02*
X122140800Y-91832400D01*
X129377800Y-91792400D02*
X122140800Y-91792400D01*
X129390800Y-91752400D02*
X122140800Y-91752400D01*
X129402800Y-91712400D02*
X122140800Y-91712400D01*
X129413800Y-91672400D02*
X122140800Y-91672400D01*
X129425800Y-91632400D02*
X122140800Y-91632400D01*
X129436800Y-91592400D02*
X122140800Y-91592400D01*
X129448800Y-91552400D02*
X122140800Y-91552400D01*
X129459800Y-91512400D02*
X122140800Y-91512400D01*
X129469800Y-91472400D02*
X122140800Y-91472400D01*
X129480800Y-91432400D02*
X122140800Y-91432400D01*
X129490800Y-91392400D02*
X111910800Y-91392400D01*
X129501800Y-91352400D02*
X111899800Y-91352400D01*
X129511800Y-91312400D02*
X111889800Y-91312400D01*
X129521800Y-91272400D02*
X111879800Y-91272400D01*
X129530800Y-91232400D02*
X111870800Y-91232400D01*
X129540800Y-91192400D02*
X111860800Y-91192400D01*
X129549800Y-91152400D02*
X111851800Y-91152400D01*
X129558800Y-91112400D02*
X111842800Y-91112400D01*
X129567800Y-91072400D02*
X111833800Y-91072400D01*
X129576800Y-91032400D02*
X111824800Y-91032400D01*
X129584800Y-90992400D02*
X111816800Y-90992400D01*
X129592800Y-90952400D02*
X111808800Y-90952400D01*
X129601800Y-90912400D02*
X111799800Y-90912400D01*
X129609800Y-90872400D02*
X111791800Y-90872400D01*
X129616800Y-90832400D02*
X111784800Y-90832400D01*
X129624800Y-90792400D02*
X111776800Y-90792400D01*
X129631800Y-90752400D02*
X111769800Y-90752400D01*
X129639800Y-90712400D02*
X111761800Y-90712400D01*
X129646800Y-90672400D02*
X111754800Y-90672400D01*
X129652800Y-90632400D02*
X111748800Y-90632400D01*
X129659800Y-90592400D02*
X111741800Y-90592400D01*
X129666800Y-90552400D02*
X111734800Y-90552400D01*
X129672800Y-90512400D02*
X111728800Y-90512400D01*
X129678800Y-90472400D02*
X111722800Y-90472400D01*
X129684800Y-90432400D02*
X111716800Y-90432400D01*
X129690800Y-90392400D02*
X111710800Y-90392400D01*
X129695800Y-90352400D02*
X111705800Y-90352400D01*
X129701800Y-90312400D02*
X111699800Y-90312400D01*
X129706800Y-90272400D02*
X111694800Y-90272400D01*
X129711800Y-90232400D02*
X111689800Y-90232400D01*
X129716800Y-90192400D02*
X111684800Y-90192400D01*
X129721800Y-90152400D02*
X111679800Y-90152400D01*
X129725800Y-90112400D02*
X111675800Y-90112400D01*
X129729800Y-90072400D02*
X111671800Y-90072400D01*
X129733800Y-90032400D02*
X111667800Y-90032400D01*
X129737800Y-89992400D02*
X111663800Y-89992400D01*
X129741800Y-89952400D02*
X111659800Y-89952400D01*
X129745800Y-89912400D02*
X111655800Y-89912400D01*
X129748800Y-89872400D02*
X111652800Y-89872400D01*
X129752800Y-89832400D02*
X111648800Y-89832400D01*
X129755800Y-89792400D02*
X111645800Y-89792400D01*
X129758800Y-89752400D02*
X111642800Y-89752400D01*
X129760800Y-89712400D02*
X111640800Y-89712400D01*
X129763800Y-89672400D02*
X111637800Y-89672400D01*
X129765800Y-89632400D02*
X111635800Y-89632400D01*
X129767800Y-89592400D02*
X111633800Y-89592400D01*
X129769800Y-89552400D02*
X111631800Y-89552400D01*
X129771800Y-89512400D02*
X111629800Y-89512400D01*
X129773800Y-89472400D02*
X111627800Y-89472400D01*
X129774800Y-89432400D02*
X111626800Y-89432400D01*
X129776800Y-89392400D02*
X111624800Y-89392400D01*
X129777800Y-89352400D02*
X111623800Y-89352400D01*
X129778800Y-89312400D02*
X111622800Y-89312400D01*
X129779800Y-89232400D02*
X111621800Y-89232400D01*
X129779800Y-89272400D02*
X111621800Y-89272400D01*
X129780800Y-89112400D02*
X111620800Y-89112400D01*
X129780800Y-89152400D02*
X111620800Y-89152400D01*
X129780800Y-89192400D02*
X111620800Y-89192400D01*
X129820800Y-89112400D02*
G75*
G02*
X111580800Y-89112400I-9120000J0D01*
G01*
X111580800Y-89112400D02*
G75*
G02*
X129820800Y-89112400I9120000J0D01*
G01*
%TO.C,R1*%
X153136800Y-99314000D02*
X154086800Y-99314000D01*
X158876800Y-99314000D02*
X157926800Y-99314000D01*
X157926800Y-100234000D02*
X154086800Y-100234000D01*
X154086800Y-98394000D01*
X157926800Y-98394000D01*
X157926800Y-100234000D01*
%TO.C,J3*%
X167359300Y-83733200D02*
X175399300Y-83733200D01*
X167359300Y-86553200D02*
X167359300Y-83733200D01*
X167359300Y-94473200D02*
X167359300Y-87153200D01*
X169479300Y-83733200D02*
X169479300Y-84973200D01*
X169479300Y-88733200D02*
X169479300Y-91310200D01*
X169479300Y-92396200D02*
X169479300Y-94473200D01*
X170779300Y-83733200D02*
X170779300Y-84973200D01*
X170779300Y-88733200D02*
X170779300Y-90041200D01*
X170779300Y-93665200D02*
X170779300Y-94473200D01*
X171779300Y-83733200D02*
X171779300Y-84973200D01*
X171779300Y-88733200D02*
X171779300Y-90041200D01*
X171779300Y-93665200D02*
X171779300Y-94473200D01*
X175399300Y-83733200D02*
X175399300Y-94473200D01*
X175399300Y-94473200D02*
X167359300Y-94473200D01*
X167359300Y-86853200D02*
X166749300Y-87293200D01*
X166749300Y-86413200D01*
X167359300Y-86853200D01*
G36*
X167359300Y-86853200D02*
G01*
X166749300Y-87293200D01*
X166749300Y-86413200D01*
X167359300Y-86853200D01*
G37*
D11*
%TO.C,SW1*%
X157215200Y-80590000D02*
X162215200Y-80590000D01*
X157215200Y-89590000D02*
X157215200Y-80590000D01*
X162215200Y-80590000D02*
X162215200Y-89590000D01*
X162215200Y-89590000D02*
X157215200Y-89590000D01*
D14*
%TO.C,D1*%
X135399600Y-85090000D02*
X136699600Y-85090000D01*
X138127600Y-82305000D02*
X138127600Y-87875000D01*
X138247600Y-82305000D02*
X138247600Y-87875000D01*
X138367600Y-82305000D02*
X138367600Y-87875000D01*
X147759600Y-85090000D02*
X146459600Y-85090000D01*
X136699600Y-82305000D02*
X146459600Y-82305000D01*
X146459600Y-87875000D01*
X136699600Y-87875000D01*
X136699600Y-82305000D01*
%TO.C,J2*%
X167613300Y-65546800D02*
X175653300Y-65546800D01*
X167613300Y-68366800D02*
X167613300Y-65546800D01*
X167613300Y-76286800D02*
X167613300Y-68966800D01*
X169733300Y-65546800D02*
X169733300Y-66786800D01*
X169733300Y-70546800D02*
X169733300Y-73123800D01*
X169733300Y-74209800D02*
X169733300Y-76286800D01*
X171033300Y-65546800D02*
X171033300Y-66786800D01*
X171033300Y-70546800D02*
X171033300Y-71854800D01*
X171033300Y-75478800D02*
X171033300Y-76286800D01*
X172033300Y-65546800D02*
X172033300Y-66786800D01*
X172033300Y-70546800D02*
X172033300Y-71854800D01*
X172033300Y-75478800D02*
X172033300Y-76286800D01*
X175653300Y-65546800D02*
X175653300Y-76286800D01*
X175653300Y-76286800D02*
X167613300Y-76286800D01*
X167613300Y-68666800D02*
X167003300Y-69106800D01*
X167003300Y-68226800D01*
X167613300Y-68666800D01*
G36*
X167613300Y-68666800D02*
G01*
X167003300Y-69106800D01*
X167003300Y-68226800D01*
X167613300Y-68666800D01*
G37*
%TO.C,J6*%
X99327100Y-83784000D02*
X107367100Y-83784000D01*
X99327100Y-94524000D02*
X99327100Y-83784000D01*
X102947100Y-84592000D02*
X102947100Y-83784000D01*
X102947100Y-89524000D02*
X102947100Y-88216000D01*
X102947100Y-94524000D02*
X102947100Y-93284000D01*
X103947100Y-84592000D02*
X103947100Y-83784000D01*
X103947100Y-89524000D02*
X103947100Y-88216000D01*
X103947100Y-94524000D02*
X103947100Y-93284000D01*
X105247100Y-85861000D02*
X105247100Y-83784000D01*
X105247100Y-89524000D02*
X105247100Y-86947000D01*
X105247100Y-94524000D02*
X105247100Y-93284000D01*
X107367100Y-83784000D02*
X107367100Y-91104000D01*
X107367100Y-91704000D02*
X107367100Y-94524000D01*
X107367100Y-94524000D02*
X99327100Y-94524000D01*
X107977100Y-91844000D02*
X107367100Y-91404000D01*
X107977100Y-90964000D01*
X107977100Y-91844000D01*
G36*
X107977100Y-91844000D02*
G01*
X107367100Y-91404000D01*
X107977100Y-90964000D01*
X107977100Y-91844000D01*
G37*
%TO.C,J4*%
X167530000Y-99343600D02*
X175570000Y-99343600D01*
X167530000Y-102163600D02*
X167530000Y-99343600D01*
X167530000Y-110083600D02*
X167530000Y-102763600D01*
X169650000Y-99343600D02*
X169650000Y-100583600D01*
X169650000Y-104343600D02*
X169650000Y-106920600D01*
X169650000Y-108006600D02*
X169650000Y-110083600D01*
X170950000Y-99343600D02*
X170950000Y-100583600D01*
X170950000Y-104343600D02*
X170950000Y-105651600D01*
X170950000Y-109275600D02*
X170950000Y-110083600D01*
X171950000Y-99343600D02*
X171950000Y-100583600D01*
X171950000Y-104343600D02*
X171950000Y-105651600D01*
X171950000Y-109275600D02*
X171950000Y-110083600D01*
X175570000Y-99343600D02*
X175570000Y-110083600D01*
X175570000Y-110083600D02*
X167530000Y-110083600D01*
X167530000Y-102463600D02*
X166920000Y-102903600D01*
X166920000Y-102023600D01*
X167530000Y-102463600D01*
G36*
X167530000Y-102463600D02*
G01*
X166920000Y-102903600D01*
X166920000Y-102023600D01*
X167530000Y-102463600D01*
G37*
%TO.C,J5*%
X167428400Y-114075600D02*
X175468400Y-114075600D01*
X167428400Y-116895600D02*
X167428400Y-114075600D01*
X167428400Y-124815600D02*
X167428400Y-117495600D01*
X169548400Y-114075600D02*
X169548400Y-115315600D01*
X169548400Y-119075600D02*
X169548400Y-121652600D01*
X169548400Y-122738600D02*
X169548400Y-124815600D01*
X170848400Y-114075600D02*
X170848400Y-115315600D01*
X170848400Y-119075600D02*
X170848400Y-120383600D01*
X170848400Y-124007600D02*
X170848400Y-124815600D01*
X171848400Y-114075600D02*
X171848400Y-115315600D01*
X171848400Y-119075600D02*
X171848400Y-120383600D01*
X171848400Y-124007600D02*
X171848400Y-124815600D01*
X175468400Y-114075600D02*
X175468400Y-124815600D01*
X175468400Y-124815600D02*
X167428400Y-124815600D01*
X167428400Y-117195600D02*
X166818400Y-117635600D01*
X166818400Y-116755600D01*
X167428400Y-117195600D01*
G36*
X167428400Y-117195600D02*
G01*
X166818400Y-117635600D01*
X166818400Y-116755600D01*
X167428400Y-117195600D01*
G37*
%TO.C,J7*%
X99327100Y-99074800D02*
X107367100Y-99074800D01*
X99327100Y-109814800D02*
X99327100Y-99074800D01*
X102947100Y-99882800D02*
X102947100Y-99074800D01*
X102947100Y-104814800D02*
X102947100Y-103506800D01*
X102947100Y-109814800D02*
X102947100Y-108574800D01*
X103947100Y-99882800D02*
X103947100Y-99074800D01*
X103947100Y-104814800D02*
X103947100Y-103506800D01*
X103947100Y-109814800D02*
X103947100Y-108574800D01*
X105247100Y-101151800D02*
X105247100Y-99074800D01*
X105247100Y-104814800D02*
X105247100Y-102237800D01*
X105247100Y-109814800D02*
X105247100Y-108574800D01*
X107367100Y-99074800D02*
X107367100Y-106394800D01*
X107367100Y-106994800D02*
X107367100Y-109814800D01*
X107367100Y-109814800D02*
X99327100Y-109814800D01*
X107977100Y-107134800D02*
X107367100Y-106694800D01*
X107977100Y-106254800D01*
X107977100Y-107134800D01*
G36*
X107977100Y-107134800D02*
G01*
X107367100Y-106694800D01*
X107977100Y-106254800D01*
X107977100Y-107134800D01*
G37*
%TO.C,D2*%
X135501200Y-94335600D02*
X136801200Y-94335600D01*
X138229200Y-91550600D02*
X138229200Y-97120600D01*
X138349200Y-91550600D02*
X138349200Y-97120600D01*
X138469200Y-91550600D02*
X138469200Y-97120600D01*
X147861200Y-94335600D02*
X146561200Y-94335600D01*
X136801200Y-91550600D02*
X146561200Y-91550600D01*
X146561200Y-97120600D01*
X136801200Y-97120600D01*
X136801200Y-91550600D01*
%TO.C,J1*%
X167867300Y-49443200D02*
X175907300Y-49443200D01*
X167867300Y-52263200D02*
X167867300Y-49443200D01*
X167867300Y-60183200D02*
X167867300Y-52863200D01*
X169987300Y-49443200D02*
X169987300Y-50683200D01*
X169987300Y-54443200D02*
X169987300Y-57020200D01*
X169987300Y-58106200D02*
X169987300Y-60183200D01*
X171287300Y-49443200D02*
X171287300Y-50683200D01*
X171287300Y-54443200D02*
X171287300Y-55751200D01*
X171287300Y-59375200D02*
X171287300Y-60183200D01*
X172287300Y-49443200D02*
X172287300Y-50683200D01*
X172287300Y-54443200D02*
X172287300Y-55751200D01*
X172287300Y-59375200D02*
X172287300Y-60183200D01*
X175907300Y-49443200D02*
X175907300Y-60183200D01*
X175907300Y-60183200D02*
X167867300Y-60183200D01*
X167867300Y-52563200D02*
X167257300Y-53003200D01*
X167257300Y-52123200D01*
X167867300Y-52563200D01*
G36*
X167867300Y-52563200D02*
G01*
X167257300Y-53003200D01*
X167257300Y-52123200D01*
X167867300Y-52563200D01*
G37*
%TO.C,J8*%
X99207200Y-114423200D02*
X107247200Y-114423200D01*
X99207200Y-125163200D02*
X99207200Y-114423200D01*
X102827200Y-115231200D02*
X102827200Y-114423200D01*
X102827200Y-120163200D02*
X102827200Y-118855200D01*
X102827200Y-125163200D02*
X102827200Y-123923200D01*
X103827200Y-115231200D02*
X103827200Y-114423200D01*
X103827200Y-120163200D02*
X103827200Y-118855200D01*
X103827200Y-125163200D02*
X103827200Y-123923200D01*
X105127200Y-116500200D02*
X105127200Y-114423200D01*
X105127200Y-120163200D02*
X105127200Y-117586200D01*
X105127200Y-125163200D02*
X105127200Y-123923200D01*
X107247200Y-114423200D02*
X107247200Y-121743200D01*
X107247200Y-122343200D02*
X107247200Y-125163200D01*
X107247200Y-125163200D02*
X99207200Y-125163200D01*
X107857200Y-122483200D02*
X107247200Y-122043200D01*
X107857200Y-121603200D01*
X107857200Y-122483200D01*
G36*
X107857200Y-122483200D02*
G01*
X107247200Y-122043200D01*
X107857200Y-121603200D01*
X107857200Y-122483200D01*
G37*
%TO.C,D3*%
X158530000Y-95082800D02*
X158686000Y-95082800D01*
X160846000Y-95082800D02*
X161002000Y-95082800D01*
X158530484Y-95082800D02*
G75*
G02*
X158686000Y-91851363I1235516J1560000D01*
G01*
X158686000Y-94563761D02*
G75*
G02*
X158686000Y-92481839I1080000J1040961D01*
G01*
X160846000Y-91851363D02*
G75*
G02*
X161001516Y-95082800I-1080000J-1671437D01*
G01*
X160846000Y-92481839D02*
G75*
G02*
X160846000Y-94563761I-1080000J-1040961D01*
G01*
%TD*%
M02*
