M48
; DRILL file {KiCad 9.0.8} date 2026-04-17T15:59:32+0200
; FORMAT={-:-/ absolute / metric / decimal}
; #@! TF.CreationDate,2026-04-17T15:59:32+02:00
; #@! TF.GenerationSoftware,Kicad,Pcbnew,9.0.8
; #@! TF.FileFunction,Plated,1,2,PTH
FMAT,2
METRIC
; #@! TA.AperFunction,Plated,PTH,ComponentDrill
T1C0.700
; #@! TA.AperFunction,Plated,PTH,ComponentDrill
T2C0.900
; #@! TA.AperFunction,Plated,PTH,ComponentDrill
T3C1.000
; #@! TA.AperFunction,Plated,PTH,ComponentDrill
T4C1.100
; #@! TA.AperFunction,Plated,PTH,ComponentDrill
T5C1.200
; #@! TA.AperFunction,Plated,PTH,ComponentDrill
T6C1.300
%
G90
G05
T1
X152.197Y-99.314
X159.817Y-99.314
T2
X159.766Y-92.253
X159.766Y-94.793
T3
X159.715Y-82.59
X159.715Y-87.59
T4
X116.235Y-54.777
X116.235Y-59.777
X116.235Y-67.777
X116.235Y-72.777
X117.304Y-109.412
X117.304Y-114.412
X156.304Y-111.912
X156.304Y-116.912
X165.735Y-61.777
X165.735Y-66.777
T5
X120.701Y-85.362
X120.701Y-92.862
X133.96Y-85.09
X134.061Y-94.336
X149.2Y-85.09
X149.301Y-94.336
T6
X103.886Y-86.309
X103.886Y-91.309
X103.98Y-110.737
X103.98Y-115.737
X104.064Y-63.373
X104.064Y-68.373
X171.196Y-85.827
X171.196Y-90.827
X171.196Y-101.854
X171.196Y-106.854
M30
