  0
SECTION
  2
HEADER
  9
$ACADVER
  1
AC1009
  9
$INSBASE
 10
0.0
 20
0.0
 30
0.0
  9
$EXTMIN
 10
0.0
 20
0.0
 30
0.0
  9
$EXTMAX
 10
0.0
 20
0.0
 30
0.0
  0
ENDSEC
  0
SECTION
  2
TABLES
  0
TABLE
  2
VPORT
 70
0
  0
ENDTAB
  0
TABLE
  2
LTYPE
 70
1
  0
LTYPE
  2
CONTINUOUS
 70
0
  3
Solid line
 72
65
 73
0
 40
0.0
  0
ENDTAB
  0
TABLE
  2
LAYER
 70
1
  0
LAYER
  2
0
 70
64
 62
7
  6
continuous
  0
ENDTAB
  0
TABLE
  2
STYLE
 70
1
  0
STYLE
  2
STANDARD
 70
0
 40
0
 41
1.0
 50
0.0
 71
0
 42
1
 3
ARIAL.TTF
 4

  0
ENDTAB
  0
TABLE
  2
VIEW
 70
0
  0
ENDTAB
  0
ENDSEC
  0
SECTION
  2
BLOCKS
  0
BLOCK
  8
0
  2
BODY
 70
0
 10
0.0
 20
0.0
 30
0.0
  3
BODY
  0
ARC
  8
0
 62
0
 10
20.0631520000015
 20
-19.999659999999924
 30
0.0
 40
25.0
 50
-180.0
 51
-0.0
  0
LINE
  8
0
 62
0
 10
45.06315200000151
 20
-19.99965999999993
 30
0.0
 11
45.06315200000151
 21
380.0000283397448
 31
0.0
  0
ARC
  8
0
 62
0
 10
20.063152000001505
 20
380.0000283397446
 30
0.0
 40
25.0
 50
0.0
 51
-180.0
  0
LINE
  8
0
 62
0
 10
-4.936847999998498
 20
-19.99965999999993
 30
0.0
 11
-4.936847999998495
 21
380.0000283397444
 31
0.0
  0
LINE
  8
0
 62
0
 10
34.562082
 20
60.500037
 30
0.0
 11
5.562082
 21
60.500037
 31
0.0
  0
LINE
  8
0
 62
0
 10
5.562082
 20
60.500037
 30
0.0
 11
5.562082
 21
5.000037000000013
 31
0.0
  0
LINE
  8
0
 62
0
 10
5.562082
 20
5.000037000000011
 30
0.0
 11
14.865919999999996
 21
5.000037000000011
 31
0.0
  0
ARC
  8
0
 62
0
 10
20.062082
 20
18.000033171913138
 30
0.0
 40
14.0
 50
-111.78683150892105
 51
-68.21322142049645
  0
LINE
  8
0
 62
0
 10
25.25823199069744
 20
5.000032199829521
 30
0.0
 11
34.562082
 21
5.000032199829521
 31
0.0
  0
LINE
  8
0
 62
0
 10
34.562082
 20
60.500037
 30
0.0
 11
34.562082
 21
5.000032199829519
 31
0.0
  0
CIRCLE
  8
0
 62
0
 10
20.063152000001505
 20
380.0000283397446
 30
0.0
 40
5.0
  0
CIRCLE
  8
0
 62
0
 10
20.0631520000015
 20
-19.999659999999924
 30
0.0
 40
5.0
  0
CIRCLE
  8
0
 62
0
 10
40.0579796982632
 20
80.00167823659805
 30
0.0
 40
1.5
  0
CIRCLE
  8
0
 62
0
 10
40.0579796982632
 20
180.0033281334515
 30
0.0
 40
1.5
  0
CIRCLE
  8
0
 62
0
 10
40.0579796982632
 20
280.10590597483224
 30
0.0
 40
1.5
  0
CIRCLE
  8
0
 62
0
 10
0.0631522682063625
 20
80.00167823659805
 30
0.0
 40
1.5
  0
CIRCLE
  8
0
 62
0
 10
0.0631522682063625
 20
180.0033281334515
 30
0.0
 40
1.5
  0
CIRCLE
  8
0
 62
0
 10
0.0631522682063625
 20
280.10590597483224
 30
0.0
 40
1.5
  0
CIRCLE
  8
0
 62
0
 10
37.362082
 20
58.000037
 30
0.0
 40
1.25
  0
CIRCLE
  8
0
 62
0
 10
37.362082
 20
36.000037
 30
0.0
 40
1.25
  0
CIRCLE
  8
0
 62
0
 10
31.062082
 20
63.300037
 30
0.0
 40
1.25
  0
CIRCLE
  8
0
 62
0
 10
9.062082
 20
63.300037
 30
0.0
 40
1.25
  0
CIRCLE
  8
0
 62
0
 10
2.762082
 20
58.000037
 30
0.0
 40
1.25
  0
CIRCLE
  8
0
 62
0
 10
2.762082
 20
36.000037
 30
0.0
 40
1.25
  0
CIRCLE
  8
0
 62
0
 10
37.362082
 20
14.000037
 30
0.0
 40
1.25
  0
CIRCLE
  8
0
 62
0
 10
2.762082
 20
14.000037
 30
0.0
 40
1.25
  0
CIRCLE
  8
0
 62
0
 10
9.063455
 20
-19.999963
 30
0.0
 40
1.25
  0
CIRCLE
  8
0
 62
0
 10
20.063152000001505
 20
-9.000266019538751
 30
0.0
 40
1.25
  0
CIRCLE
  8
0
 62
0
 10
31.06285
 20
-19.999963
 30
0.0
 40
1.25
  0
CIRCLE
  8
0
 62
0
 10
20.063152
 20
-30.999661
 30
0.0
 40
1.25
  0
ENDBLK
  0
ENDSEC
  0
SECTION
  2
ENTITIES
  0
INSERT
  2
BODY
  8
0
 62
0
 10
0.0
 20
0.0
 30
0.0
  0
ENDSEC
  0
EOF
