  0
SECTION
  2
HEADER
  9
$ACADVER
  1
AC1009
  9
$INSBASE
 10
0.0
 20
0.0
 30
0.0
  9
$EXTMIN
 10
0.0
 20
0.0
 30
0.0
  9
$EXTMAX
 10
0.0
 20
0.0
 30
0.0
  0
ENDSEC
  0
SECTION
  2
TABLES
  0
TABLE
  2
VPORT
 70
0
  0
ENDTAB
  0
TABLE
  2
LTYPE
 70
1
  0
LTYPE
  2
CONTINUOUS
 70
0
  3
Solid line
 72
65
 73
0
 40
0.0
  0
ENDTAB
  0
TABLE
  2
LAYER
 70
1
  0
LAYER
  2
0
 70
64
 62
7
  6
continuous
  0
ENDTAB
  0
TABLE
  2
STYLE
 70
1
  0
STYLE
  2
STANDARD
 70
0
 40
0
 41
1.0
 50
0.0
 71
0
 42
1
 3
ARIAL.TTF
 4

  0
ENDTAB
  0
TABLE
  2
VIEW
 70
0
  0
ENDTAB
  0
ENDSEC
  0
SECTION
  2
BLOCKS
  0
BLOCK
  8
0
  2
POCKET001
 70
0
 10
0.0
 20
0.0
 30
0.0
  3
POCKET001
  0
ARC
  8
0
 62
0
 10
0.010165
 20
-5.992905
 30
0.0
 40
25.0
 50
-180.0
 51
-0.0
  0
LINE
  8
0
 62
0
 10
-24.989835
 20
-5.992905000000008
 30
0.0
 11
-24.989835
 21
338.53511759850164
 31
0.0
  0
LINE
  8
0
 62
0
 10
25.010165
 20
-5.992905000000007
 30
0.0
 11
25.010165
 21
338.5575309701086
 31
0.0
  0
POLYLINE
  8
0
 62
0
 70
0
 66
1
 10
0.0
 20
0.0
 30
0.0
  0
VERTEX
  8
0
 10
-22.069278129653082
 20
371.7278881188672
 30
0.0
  0
VERTEX
  8
0
 10
-22.069278129664333
 20
343.08219588112763
 30
0.0
  0
SEQEND
  8
0
  0
POLYLINE
  8
0
 62
0
 70
0
 66
1
 10
0.0
 20
0.0
 30
0.0
  0
VERTEX
  8
0
 10
22.089608133168635
 20
343.10460876439527
 30
0.0
  0
VERTEX
  8
0
 10
22.089608133161644
 20
371.75030110109907
 30
0.0
  0
SEQEND
  8
0
  0
ARC
  8
0
 62
0
 10
-19.989834999999996
 20
338.53511810357304
 30
0.0
 40
5.000000000000023
 50
114.57528993944129
 51
-179.9999942094254
  0
POLYLINE
  8
0
 62
0
 70
0
 66
1
 10
0.0
 20
0.0
 30
0.0
  0
VERTEX
  8
0
 10
-22.069278127806733
 20
343.0821958770686
 30
0.0
  0
VERTEX
  8
0
 10
-22.069278127806733
 20
371.72788812293135
 30
0.0
  0
SEQEND
  8
0
  0
ARC
  8
0
 62
0
 10
-19.989835
 20
376.2749658964269
 30
0.0
 40
5.000000000000015
 50
179.99998975471624
 51
-114.57528993944133
  0
LINE
  8
0
 62
0
 10
-24.989835
 20
376.274966791031
 30
0.0
 11
-24.989835
 21
399.95202333974476
 31
0.0
  0
ARC
  8
0
 62
0
 10
0.010165
 20
399.95202333974476
 30
0.0
 40
25.0
 50
-0.0
 51
-180.0
  0
LINE
  8
0
 62
0
 10
25.010165
 20
376.29738054670383
 30
0.0
 11
25.010165
 21
399.95202333974476
 31
0.0
  0
ARC
  8
0
 62
0
 10
20.010165000000004
 20
376.29737887705426
 30
0.0
 40
4.999999999999993
 50
-65.4247100164896
 51
1.9129102916627893e-05
  0
POLYLINE
  8
0
 62
0
 70
0
 66
1
 10
0.0
 20
0.0
 30
0.0
  0
VERTEX
  8
0
 10
22.08960813130414
 20
371.7503011051581
 30
0.0
  0
VERTEX
  8
0
 10
22.089608131304146
 20
343.10460876033926
 30
0.0
  0
SEQEND
  8
0
  0
ARC
  8
0
 62
0
 10
20.010165
 20
338.5575309884431
 30
0.0
 40
4.999999999999974
 50
-0.0
 51
65.42471001648926
  0
ARC
  8
0
 62
0
 10
-17.2631519999999
 20
33.99997856698724
 30
0.0
 40
1.2499999999998963
 50
-0.0
 51
180.0
  0
LINE
  8
0
 62
0
 10
-16.013152
 20
33.99997856698724
 30
0.0
 11
-16.01315200000006
 21
24.999979
 31
0.0
  0
LINE
  8
0
 62
0
 10
-18.513151999999796
 20
33.999978566987245
 30
0.0
 11
-18.513151999999852
 21
24.999979000000007
 31
0.0
  0
ARC
  8
0
 62
0
 10
-17.263151999999955
 20
24.999979
 30
0.0
 40
1.2499999999998963
 50
180.0
 51
-0.0
  0
CIRCLE
  8
0
 62
0
 10
-10.999697
 20
-6.0
 30
0.0
 40
1.25
  0
ARC
  8
0
 62
0
 10
-17.263151999999998
 20
56.00023
 30
0.0
 40
1.25
 50
0.0
 51
180.0
  0
LINE
  8
0
 62
0
 10
-16.013152
 20
56.00023000000039
 30
0.0
 11
-16.013152
 21
47.00022999999959
 31
0.0
  0
LINE
  8
0
 62
0
 10
-18.513152
 20
56.00023000000039
 30
0.0
 11
-18.513152
 21
47.00022999999959
 31
0.0
  0
ARC
  8
0
 62
0
 10
-17.263151999999998
 20
47.00023
 30
0.0
 40
1.25
 50
-180.0
 51
-0.0
  0
CIRCLE
  8
0
 62
0
 10
-17.263152
 20
68.999963
 30
0.0
 40
1.25
  0
CIRCLE
  8
0
 62
0
 10
0.0
 20
-16.999698
 30
0.0
 40
1.25
  0
CIRCLE
  8
0
 62
0
 10
0.0
 20
-6.0
 30
0.0
 40
5.0
  0
CIRCLE
  8
0
 62
0
 10
0.0
 20
4.999962
 30
0.0
 40
1.25
  0
LINE
  8
0
 62
0
 10
14.536848
 20
80.499963
 30
0.0
 11
14.536848
 21
16.025929027916376
 31
0.0
  0
LINE
  8
0
 62
0
 10
14.536848
 20
80.499963
 30
0.0
 11
-14.463152
 21
80.499963
 31
0.0
  0
LINE
  8
0
 62
0
 10
5.232997990697441
 20
16.025929027916384
 30
0.0
 11
14.536848000000003
 21
16.025929027916384
 31
0.0
  0
LINE
  8
0
 62
0
 10
-14.463152
 20
80.499963
 30
0.0
 11
-14.463152
 21
16.025933828086867
 31
0.0
  0
ARC
  8
0
 62
0
 10
0.036848
 20
29.02593
 30
0.0
 40
14.0
 50
-111.78683150892101
 51
-68.21322142049644
  0
LINE
  8
0
 62
0
 10
-5.159313999999992
 20
16.025933828086867
 30
0.0
 11
-14.463151999999997
 21
16.025933828086867
 31
0.0
  0
CIRCLE
  8
0
 62
0
 10
-20.00000056529216
 20
99.98979261626661
 30
0.0
 40
1.5
  0
CIRCLE
  8
0
 62
0
 10
10.999698
 20
-6.0
 30
0.0
 40
1.25
  0
ARC
  8
0
 62
0
 10
17.336848000000007
 20
33.999979
 30
0.0
 40
1.25
 50
-0.0
 51
-180.0
  0
LINE
  8
0
 62
0
 10
18.586848000000007
 20
33.999979
 30
0.0
 11
18.586848000000003
 21
24.999979000000003
 31
0.0
  0
LINE
  8
0
 62
0
 10
16.086848000000007
 20
33.999979
 30
0.0
 11
16.086848000000007
 21
24.999979000000003
 31
0.0
  0
ARC
  8
0
 62
0
 10
17.336848000000007
 20
24.999979000000003
 30
0.0
 40
1.25
 50
-180.0
 51
-0.0
  0
ARC
  8
0
 62
0
 10
17.336848
 20
56.000229999999995
 30
0.0
 40
1.249999999999866
 50
0.0
 51
-180.0
  0
LINE
  8
0
 62
0
 10
18.586847999999865
 20
56.00023
 30
0.0
 11
18.586847999999883
 21
47.00022956698725
 31
0.0
  0
LINE
  8
0
 62
0
 10
16.086848000000135
 20
56.000229999999995
 30
0.0
 11
16.086848000000153
 21
47.000229566987244
 31
0.0
  0
ARC
  8
0
 62
0
 10
17.336848000000018
 20
47.000229566987244
 30
0.0
 40
1.249999999999866
 50
-180.0
 51
0.0
  0
CIRCLE
  8
0
 62
0
 10
17.336848000000007
 20
68.999963
 30
0.0
 40
1.25
  0
CIRCLE
  8
0
 62
0
 10
20.230003702529054
 20
99.98979261626661
 30
0.0
 40
1.5
  0
CIRCLE
  8
0
 62
0
 10
-20.00000056529216
 20
199.97958523253322
 30
0.0
 40
1.5
  0
CIRCLE
  8
0
 62
0
 10
-20.00000056529216
 20
299.9693775345161
 30
0.0
 40
1.5
  0
CIRCLE
  8
0
 62
0
 10
-10.999697
 20
400.0
 30
0.0
 40
1.25
  0
CIRCLE
  8
0
 62
0
 10
0.0
 20
354.844431
 30
0.0
 40
1.5
  0
CIRCLE
  8
0
 62
0
 10
0.0
 20
389.000302
 30
0.0
 40
1.25
  0
CIRCLE
  8
0
 62
0
 10
0.0
 20
400.00003
 30
0.0
 40
2.0
  0
CIRCLE
  8
0
 62
0
 10
0.0
 20
410.999962
 30
0.0
 40
1.25
  0
CIRCLE
  8
0
 62
0
 10
20.230003702529054
 20
199.97958523253322
 30
0.0
 40
1.5
  0
CIRCLE
  8
0
 62
0
 10
20.230003702529054
 20
299.9693775345161
 30
0.0
 40
1.5
  0
CIRCLE
  8
0
 62
0
 10
10.999698
 20
400.0
 30
0.0
 40
1.25
  0
ENDBLK
  0
BLOCK
  8
0
  2
PAD001
 70
0
 10
0.0
 20
0.0
 30
0.0
  3
PAD001
  0
ARC
  8
0
 62
0
 10
0.0
 20
0.0
 30
0.0
 40
25.0
 50
180.0
 51
-0.0
  0
LINE
  8
0
 62
0
 10
25.0
 20
-6.12e-15
 30
0.0
 11
25.0
 21
406.000606
 31
0.0
  0
ARC
  8
0
 62
0
 10
0.0
 20
406.000606
 30
0.0
 40
25.0
 50
-0.0
 51
180.0
  0
LINE
  8
0
 62
0
 10
-25.00000000000118
 20
6.967e-14
 30
0.0
 11
-24.999999999999996
 21
406.00060600000006
 31
0.0
  0
CIRCLE
  8
0
 62
0
 10
0.0
 20
406.000606
 30
0.0
 40
5.0
  0
CIRCLE
  8
0
 62
0
 10
0.0
 20
0.000303
 30
0.0
 40
2.0
  0
CIRCLE
  8
0
 62
0
 10
0.0
 20
361.000606
 30
0.0
 40
1.5
  0
CIRCLE
  8
0
 62
0
 10
0.0
 20
45.0
 30
0.0
 40
1.5
  0
CIRCLE
  8
0
 62
0
 10
20.0
 20
100.0001515
 30
0.0
 40
1.5
  0
CIRCLE
  8
0
 62
0
 10
-20.0
 20
100.0001515
 30
0.0
 40
1.5
  0
CIRCLE
  8
0
 62
0
 10
20.0
 20
200.000303
 30
0.0
 40
1.5
  0
CIRCLE
  8
0
 62
0
 10
-20.0
 20
200.000303
 30
0.0
 40
1.5
  0
CIRCLE
  8
0
 62
0
 10
20.0
 20
300.0004545
 30
0.0
 40
1.5
  0
CIRCLE
  8
0
 62
0
 10
-20.0
 20
300.0004545
 30
0.0
 40
1.5
  0
CIRCLE
  8
0
 62
0
 10
10.999698
 20
406.000909
 30
0.0
 40
1.25
  0
CIRCLE
  8
0
 62
0
 10
0.0
 20
395.001211
 30
0.0
 40
1.25
  0
CIRCLE
  8
0
 62
0
 10
-10.999697
 20
406.000909
 30
0.0
 40
1.25
  0
CIRCLE
  8
0
 62
0
 10
0.0
 20
417.000606
 30
0.0
 40
1.25
  0
CIRCLE
  8
0
 62
0
 10
0.0
 20
-10.999395
 30
0.0
 40
1.25
  0
CIRCLE
  8
0
 62
0
 10
-10.999697
 20
0.000303
 30
0.0
 40
1.25
  0
CIRCLE
  8
0
 62
0
 10
0.0
 20
11.0
 30
0.0
 40
1.25
  0
CIRCLE
  8
0
 62
0
 10
10.999698
 20
0.000303
 30
0.0
 40
1.25
  0
ENDBLK
  0
ENDSEC
  0
SECTION
  2
ENTITIES
  0
INSERT
  2
POCKET001
  8
0
 62
0
 10
0.0
 20
0.0
 30
0.0
  0
INSERT
  2
PAD001
  8
0
 62
0
 10
0.0
 20
0.0
 30
0.0
  0
ENDSEC
  0
EOF
