  0
SECTION
  2
HEADER
  9
$ACADVER
  1
AC1009
  9
$INSBASE
 10
0.0
 20
0.0
 30
0.0
  9
$EXTMIN
 10
0.0
 20
0.0
 30
0.0
  9
$EXTMAX
 10
0.0
 20
0.0
 30
0.0
  0
ENDSEC
  0
SECTION
  2
TABLES
  0
TABLE
  2
VPORT
 70
0
  0
ENDTAB
  0
TABLE
  2
LTYPE
 70
1
  0
LTYPE
  2
CONTINUOUS
 70
0
  3
Solid line
 72
65
 73
0
 40
0.0
  0
ENDTAB
  0
TABLE
  2
LAYER
 70
1
  0
LAYER
  2
0
 70
64
 62
7
  6
continuous
  0
ENDTAB
  0
TABLE
  2
STYLE
 70
1
  0
STYLE
  2
STANDARD
 70
0
 40
0
 41
1.0
 50
0.0
 71
0
 42
1
 3
ARIAL.TTF
 4

  0
ENDTAB
  0
TABLE
  2
VIEW
 70
0
  0
ENDTAB
  0
ENDSEC
  0
SECTION
  2
BLOCKS
  0
ENDSEC
  0
SECTION
  2
ENTITIES
  0
ARC
  8
0
 62
0
 10
0.010165
 20
-5.992905
 30
0.0
 40
25.0
 50
-180.0
 51
-0.0
  0
LINE
  8
0
 62
0
 10
25.010165
 20
-5.992905000000007
 30
0.0
 11
25.010165
 21
399.95202333974476
 31
0.0
  0
ARC
  8
0
 62
0
 10
0.010165
 20
399.95202333974476
 30
0.0
 40
25.0
 50
-0.0
 51
-180.0
  0
LINE
  8
0
 62
0
 10
-24.989835
 20
-5.992905000000008
 30
0.0
 11
-24.989835
 21
399.95202333974476
 31
0.0
  0
LINE
  8
0
 62
0
 10
14.536848
 20
80.499963
 30
0.0
 11
-14.463152
 21
80.499963
 31
0.0
  0
LINE
  8
0
 62
0
 10
-5.159313999999992
 20
16.025933828086867
 30
0.0
 11
-14.463151999999997
 21
16.025933828086867
 31
0.0
  0
ARC
  8
0
 62
0
 10
0.036848
 20
29.02593
 30
0.0
 40
14.0
 50
-111.78683150892101
 51
-68.21322142049645
  0
LINE
  8
0
 62
0
 10
5.232997990697441
 20
16.025929027916384
 30
0.0
 11
14.536848000000003
 21
16.025929027916384
 31
0.0
  0
CIRCLE
  8
0
 62
0
 10
0.0
 20
-6.0
 30
0.0
 40
5.0
  0
ARC
  8
0
 62
0
 10
17.336848
 20
56.000229999999995
 30
0.0
 40
1.249999999999865
 50
-0.0
 51
-180.0
  0
LINE
  8
0
 62
0
 10
16.086848000000135
 20
56.000229999999995
 30
0.0
 11
16.086848000000153
 21
47.000229566987244
 31
0.0
  0
ARC
  8
0
 62
0
 10
17.336848000000018
 20
47.000229566987244
 30
0.0
 40
1.249999999999865
 50
-180.0
 51
-0.0
  0
LINE
  8
0
 62
0
 10
18.586847999999865
 20
56.00023
 30
0.0
 11
18.586847999999883
 21
47.00022956698725
 31
0.0
  0
ARC
  8
0
 62
0
 10
-17.263151999999998
 20
56.00023
 30
0.0
 40
1.25
 50
-0.0
 51
-180.0
  0
LINE
  8
0
 62
0
 10
-18.513152
 20
56.00023000000039
 30
0.0
 11
-18.513152
 21
47.00022999999959
 31
0.0
  0
ARC
  8
0
 62
0
 10
-17.263151999999998
 20
47.00023
 30
0.0
 40
1.25
 50
-180.0
 51
-0.0
  0
LINE
  8
0
 62
0
 10
-16.013152
 20
56.00023000000039
 30
0.0
 11
-16.013152
 21
47.00022999999959
 31
0.0
  0
ARC
  8
0
 62
0
 10
17.336848000000007
 20
33.999979
 30
0.0
 40
1.25
 50
-0.0
 51
-180.0
  0
LINE
  8
0
 62
0
 10
16.086848000000007
 20
33.999979
 30
0.0
 11
16.086848000000007
 21
24.999979000000003
 31
0.0
  0
ARC
  8
0
 62
0
 10
17.336848000000007
 20
24.999979000000003
 30
0.0
 40
1.25
 50
-180.0
 51
-0.0
  0
LINE
  8
0
 62
0
 10
18.586848000000007
 20
33.999979
 30
0.0
 11
18.586848000000003
 21
24.999979000000003
 31
0.0
  0
ARC
  8
0
 62
0
 10
-17.2631519999999
 20
33.99997856698724
 30
0.0
 40
1.249999999999897
 50
-0.0
 51
-180.0
  0
LINE
  8
0
 62
0
 10
-18.513151999999796
 20
33.999978566987245
 30
0.0
 11
-18.513151999999852
 21
24.999979000000007
 31
0.0
  0
ARC
  8
0
 62
0
 10
-17.263151999999955
 20
24.999979
 30
0.0
 40
1.249999999999897
 50
-180.0
 51
-0.0
  0
LINE
  8
0
 62
0
 10
-16.013152
 20
33.99997856698724
 30
0.0
 11
-16.01315200000006
 21
24.999979
 31
0.0
  0
CIRCLE
  8
0
 62
0
 10
0.0
 20
400.00003
 30
0.0
 40
2.0
  0
CIRCLE
  8
0
 62
0
 10
0.0
 20
354.844431
 30
0.0
 40
1.5
  0
CIRCLE
  8
0
 62
0
 10
20.230003702529054
 20
99.98979261626661
 30
0.0
 40
1.5
  0
CIRCLE
  8
0
 62
0
 10
-20.00000056529216
 20
99.98979261626661
 30
0.0
 40
1.5
  0
CIRCLE
  8
0
 62
0
 10
20.230003702529054
 20
199.97958523253322
 30
0.0
 40
1.5
  0
CIRCLE
  8
0
 62
0
 10
-20.00000056529216
 20
199.97958523253322
 30
0.0
 40
1.5
  0
CIRCLE
  8
0
 62
0
 10
20.230003702529054
 20
299.9693775345161
 30
0.0
 40
1.5
  0
CIRCLE
  8
0
 62
0
 10
-20.00000056529216
 20
299.9693775345161
 30
0.0
 40
1.5
  0
CIRCLE
  8
0
 62
0
 10
0.0
 20
4.999962
 30
0.0
 40
1.25
  0
CIRCLE
  8
0
 62
0
 10
-10.999697
 20
-6.0
 30
0.0
 40
1.25
  0
CIRCLE
  8
0
 62
0
 10
10.999698
 20
-6.0
 30
0.0
 40
1.25
  0
CIRCLE
  8
0
 62
0
 10
0.0
 20
-16.999698
 30
0.0
 40
1.25
  0
CIRCLE
  8
0
 62
0
 10
17.336848000000007
 20
68.999963
 30
0.0
 40
1.25
  0
CIRCLE
  8
0
 62
0
 10
-17.263152
 20
68.999963
 30
0.0
 40
1.25
  0
CIRCLE
  8
0
 62
0
 10
0.0
 20
410.999962
 30
0.0
 40
1.25
  0
CIRCLE
  8
0
 62
0
 10
10.999698
 20
400.0
 30
0.0
 40
1.25
  0
CIRCLE
  8
0
 62
0
 10
0.0
 20
389.000302
 30
0.0
 40
1.25
  0
CIRCLE
  8
0
 62
0
 10
-10.999697
 20
400.0
 30
0.0
 40
1.25
  0
LINE
  8
0
 62
0
 10
14.536848
 20
80.499963
 30
0.0
 11
14.536848
 21
16.025929027916376
 31
0.0
  0
LINE
  8
0
 62
0
 10
-14.463152
 20
80.499963
 30
0.0
 11
-14.463152
 21
16.025933828086867
 31
0.0
  0
ARC
  8
0
 62
0
 10
60.010165
 20
-5.992905
 30
0.0
 40
25.0
 50
-180.0
 51
-0.0
  0
LINE
  8
0
 62
0
 10
85.010165
 20
-5.992905000000007
 30
0.0
 11
85.010165
 21
399.95202333974476
 31
0.0
  0
ARC
  8
0
 62
0
 10
60.010165
 20
399.95202333974476
 30
0.0
 40
25.0
 50
-0.0
 51
-180.0
  0
LINE
  8
0
 62
0
 10
35.010165
 20
-5.992905000000008
 30
0.0
 11
35.010165
 21
399.95202333974476
 31
0.0
  0
LINE
  8
0
 62
0
 10
74.536848
 20
80.499963
 30
0.0
 11
45.536848
 21
80.499963
 31
0.0
  0
LINE
  8
0
 62
0
 10
54.840686000000005
 20
16.025933828086867
 30
0.0
 11
45.536848000000006
 21
16.025933828086867
 31
0.0
  0
ARC
  8
0
 62
0
 10
60.036848
 20
29.02593
 30
0.0
 40
14.0
 50
-111.78683150892103
 51
-68.21322142049644
  0
LINE
  8
0
 62
0
 10
65.23299799069744
 20
16.025929027916384
 30
0.0
 11
74.536848
 21
16.025929027916384
 31
0.0
  0
CIRCLE
  8
0
 62
0
 10
60.0
 20
-6.0
 30
0.0
 40
5.0
  0
ARC
  8
0
 62
0
 10
77.336848
 20
56.000229999999995
 30
0.0
 40
1.249999999999865
 50
-0.0
 51
-180.0
  0
LINE
  8
0
 62
0
 10
76.08684800000013
 20
56.000229999999995
 30
0.0
 11
76.08684800000015
 21
47.000229566987244
 31
0.0
  0
ARC
  8
0
 62
0
 10
77.33684800000002
 20
47.000229566987244
 30
0.0
 40
1.249999999999865
 50
-180.0
 51
-0.0
  0
LINE
  8
0
 62
0
 10
78.58684799999986
 20
56.00023
 30
0.0
 11
78.58684799999989
 21
47.00022956698725
 31
0.0
  0
ARC
  8
0
 62
0
 10
42.736848
 20
56.00023
 30
0.0
 40
1.25
 50
-0.0
 51
-180.0
  0
LINE
  8
0
 62
0
 10
41.486847999999995
 20
56.00023000000039
 30
0.0
 11
41.486847999999995
 21
47.00022999999959
 31
0.0
  0
ARC
  8
0
 62
0
 10
42.736848
 20
47.00023
 30
0.0
 40
1.25
 50
-180.0
 51
-0.0
  0
LINE
  8
0
 62
0
 10
43.986847999999995
 20
56.00023000000039
 30
0.0
 11
43.986847999999995
 21
47.00022999999959
 31
0.0
  0
ARC
  8
0
 62
0
 10
77.336848
 20
33.999979
 30
0.0
 40
1.25
 50
-0.0
 51
-180.0
  0
LINE
  8
0
 62
0
 10
76.086848
 20
33.999979
 30
0.0
 11
76.086848
 21
24.999979000000003
 31
0.0
  0
ARC
  8
0
 62
0
 10
77.336848
 20
24.999979000000003
 30
0.0
 40
1.25
 50
-180.0
 51
-0.0
  0
LINE
  8
0
 62
0
 10
78.586848
 20
33.999979
 30
0.0
 11
78.586848
 21
24.999979000000003
 31
0.0
  0
ARC
  8
0
 62
0
 10
42.7368480000001
 20
33.99997856698724
 30
0.0
 40
1.249999999999897
 50
-0.0
 51
-180.0
  0
LINE
  8
0
 62
0
 10
41.48684800000021
 20
33.999978566987245
 30
0.0
 11
41.48684800000015
 21
24.999979000000007
 31
0.0
  0
ARC
  8
0
 62
0
 10
42.736848000000045
 20
24.999979
 30
0.0
 40
1.249999999999897
 50
-180.0
 51
-0.0
  0
LINE
  8
0
 62
0
 10
43.986847999999995
 20
33.99997856698724
 30
0.0
 11
43.98684799999994
 21
24.999979
 31
0.0
  0
CIRCLE
  8
0
 62
0
 10
60.0
 20
400.00003
 30
0.0
 40
2.0
  0
CIRCLE
  8
0
 62
0
 10
60.0
 20
354.844431
 30
0.0
 40
1.5
  0
CIRCLE
  8
0
 62
0
 10
80.23000370252905
 20
99.98979261626661
 30
0.0
 40
1.5
  0
CIRCLE
  8
0
 62
0
 10
39.99999943470784
 20
99.98979261626661
 30
0.0
 40
1.5
  0
CIRCLE
  8
0
 62
0
 10
80.23000370252905
 20
199.97958523253322
 30
0.0
 40
1.5
  0
CIRCLE
  8
0
 62
0
 10
39.99999943470784
 20
199.97958523253322
 30
0.0
 40
1.5
  0
CIRCLE
  8
0
 62
0
 10
80.23000370252905
 20
299.9693775345161
 30
0.0
 40
1.5
  0
CIRCLE
  8
0
 62
0
 10
39.99999943470784
 20
299.9693775345161
 30
0.0
 40
1.5
  0
CIRCLE
  8
0
 62
0
 10
60.0
 20
4.999962
 30
0.0
 40
1.25
  0
CIRCLE
  8
0
 62
0
 10
49.000303
 20
-6.0
 30
0.0
 40
1.25
  0
CIRCLE
  8
0
 62
0
 10
70.999698
 20
-6.0
 30
0.0
 40
1.25
  0
CIRCLE
  8
0
 62
0
 10
60.0
 20
-16.999698
 30
0.0
 40
1.25
  0
CIRCLE
  8
0
 62
0
 10
77.336848
 20
68.999963
 30
0.0
 40
1.25
  0
CIRCLE
  8
0
 62
0
 10
42.736847999999995
 20
68.999963
 30
0.0
 40
1.25
  0
CIRCLE
  8
0
 62
0
 10
60.0
 20
410.999962
 30
0.0
 40
1.25
  0
CIRCLE
  8
0
 62
0
 10
70.999698
 20
400.0
 30
0.0
 40
1.25
  0
CIRCLE
  8
0
 62
0
 10
60.0
 20
389.000302
 30
0.0
 40
1.25
  0
CIRCLE
  8
0
 62
0
 10
49.000303
 20
400.0
 30
0.0
 40
1.25
  0
LINE
  8
0
 62
0
 10
74.536848
 20
80.499963
 30
0.0
 11
74.536848
 21
16.025929027916376
 31
0.0
  0
LINE
  8
0
 62
0
 10
45.536848
 20
80.499963
 30
0.0
 11
45.536848
 21
16.025933828086867
 31
0.0
  0
LINE
  8
0
 62
0
 10
145.0000000000012
 20
399.99999999999994
 30
0.0
 11
145.0000000000001
 21
51.57161223848567
 31
0.0
  0
ARC
  8
0
 62
0
 10
135.0000000000001
 20
51.57161223848573
 30
0.0
 40
10.000000000000012
 50
-63.61220003875733
 51
-0.0
  0
ARC
  8
0
 62
0
 10
120.0
 20
400.0
 30
0.0
 40
25.0
 50
-0.0
 51
-180.0
  0
ARC
  8
0
 62
0
 10
145.00000000000009
 20
31.41596786773931
 30
0.0
 40
12.500000000000002
 50
116.38779996124295
 51
-180.0
  0
LINE
  8
0
 62
0
 10
95.0
 20
400.0
 30
0.0
 11
94.99999999999996
 21
51.571612238485784
 31
0.0
  0
ARC
  8
0
 62
0
 10
145.00000000000009
 20
31.41596786773931
 30
0.0
 40
12.5
 50
-180.0
 51
-116.3877999612434
  0
ARC
  8
0
 62
0
 10
104.99999999999996
 20
51.571612238485784
 30
0.0
 40
10.0
 50
-180.0
 51
-116.38779996124312
  0
ARC
  8
0
 62
0
 10
135.0
 20
11.26032349699301
 30
0.0
 40
10.000000000000002
 50
-0.0
 51
63.61220003875675
  0
ARC
  8
0
 62
0
 10
94.99999999999996
 20
31.415967867739425
 30
0.0
 40
12.499999999999993
 50
-63.61220003875713
 51
63.61220003875702
  0
LINE
  8
0
 62
0
 10
145.0
 20
11.260323496992953
 30
0.0
 11
144.99999999999994
 21
-6.000606000000062
 31
0.0
  0
ARC
  8
0
 62
0
 10
104.99999999999996
 20
11.260323496993067
 30
0.0
 40
9.999999999999995
 50
116.3877999612432
 51
-180.0
  0
ARC
  8
0
 62
0
 10
119.99999999999996
 20
-6.000606000000005
 30
0.0
 40
25.0
 50
-180.0
 51
-0.0
  0
LINE
  8
0
 62
0
 10
94.99999999999996
 20
11.26032349699301
 30
0.0
 11
94.99999999999994
 21
-6.000606000000005
 31
0.0
  0
CIRCLE
  8
0
 62
0
 10
130.999697
 20
399.999697
 30
0.0
 40
1.25
  0
CIRCLE
  8
0
 62
0
 10
140.0
 20
299.9998485
 30
0.0
 40
1.5
  0
CIRCLE
  8
0
 62
0
 10
139.99999999999997
 20
199.999697
 30
0.0
 40
1.5
  0
CIRCLE
  8
0
 62
0
 10
120.0
 20
410.999395
 30
0.0
 40
1.25
  0
CIRCLE
  8
0
 62
0
 10
120.0
 20
399.999697
 30
0.0
 40
2.0
  0
CIRCLE
  8
0
 62
0
 10
120.0
 20
389.0
 30
0.0
 40
1.25
  0
CIRCLE
  8
0
 62
0
 10
120.0
 20
355.0
 30
0.0
 40
1.5
  0
CIRCLE
  8
0
 62
0
 10
109.000302
 20
399.999697
 30
0.0
 40
1.25
  0
CIRCLE
  8
0
 62
0
 10
99.99999999999999
 20
299.9998485
 30
0.0
 40
1.5
  0
CIRCLE
  8
0
 62
0
 10
99.99999999999997
 20
199.999697
 30
0.0
 40
1.5
  0
CIRCLE
  8
0
 62
0
 10
139.99999999999997
 20
99.99954550000001
 30
0.0
 40
1.5
  0
CIRCLE
  8
0
 62
0
 10
130.99969699999994
 20
-6.000908999999979
 30
0.0
 40
1.25
  0
CIRCLE
  8
0
 62
0
 10
99.99999999999997
 20
99.99954550000001
 30
0.0
 40
1.5
  0
CIRCLE
  8
0
 62
0
 10
119.99999999999996
 20
38.999393999999995
 30
0.0
 40
1.5
  0
CIRCLE
  8
0
 62
0
 10
119.99999999999996
 20
4.998788999999988
 30
0.0
 40
1.25
  0
CIRCLE
  8
0
 62
0
 10
119.99999999999996
 20
-6.000606000000005
 30
0.0
 40
5.0
  0
CIRCLE
  8
0
 62
0
 10
119.99999999999994
 20
-17.000606000000005
 30
0.0
 40
1.25
  0
CIRCLE
  8
0
 62
0
 10
109.00030199999995
 20
-6.000908999999979
 30
0.0
 40
1.25
  0
LINE
  8
0
 62
0
 10
205.0000000000012
 20
399.99999999999994
 30
0.0
 11
205.0000000000001
 21
51.57161223848567
 31
0.0
  0
ARC
  8
0
 62
0
 10
195.0000000000001
 20
51.57161223848573
 30
0.0
 40
10.000000000000012
 50
-63.61220003875733
 51
-0.0
  0
ARC
  8
0
 62
0
 10
180.0
 20
400.0
 30
0.0
 40
25.0
 50
-0.0
 51
-180.0
  0
ARC
  8
0
 62
0
 10
205.00000000000009
 20
31.41596786773931
 30
0.0
 40
12.500000000000002
 50
116.38779996124295
 51
-180.0
  0
LINE
  8
0
 62
0
 10
155.0
 20
400.0
 30
0.0
 11
154.99999999999994
 21
51.571612238485784
 31
0.0
  0
ARC
  8
0
 62
0
 10
205.00000000000009
 20
31.41596786773931
 30
0.0
 40
12.5
 50
-180.0
 51
-116.3877999612434
  0
ARC
  8
0
 62
0
 10
164.99999999999994
 20
51.571612238485784
 30
0.0
 40
10.0
 50
-180.0
 51
-116.38779996124312
  0
ARC
  8
0
 62
0
 10
195.0
 20
11.26032349699301
 30
0.0
 40
10.000000000000002
 50
-0.0
 51
63.61220003875675
  0
ARC
  8
0
 62
0
 10
154.99999999999994
 20
31.415967867739425
 30
0.0
 40
12.499999999999993
 50
-63.61220003875707
 51
63.61220003875695
  0
LINE
  8
0
 62
0
 10
205.0
 20
11.260323496992953
 30
0.0
 11
204.99999999999994
 21
-6.000606000000062
 31
0.0
  0
ARC
  8
0
 62
0
 10
164.99999999999994
 20
11.260323496993067
 30
0.0
 40
9.999999999999995
 50
116.38779996124312
 51
-180.0
  0
ARC
  8
0
 62
0
 10
179.99999999999994
 20
-6.000606000000005
 30
0.0
 40
25.0
 50
-180.0
 51
-0.0
  0
LINE
  8
0
 62
0
 10
154.99999999999994
 20
11.26032349699301
 30
0.0
 11
154.99999999999994
 21
-6.000606000000005
 31
0.0
  0
CIRCLE
  8
0
 62
0
 10
190.999697
 20
399.999697
 30
0.0
 40
1.25
  0
CIRCLE
  8
0
 62
0
 10
200.0
 20
299.9998485
 30
0.0
 40
1.5
  0
CIRCLE
  8
0
 62
0
 10
199.99999999999997
 20
199.999697
 30
0.0
 40
1.5
  0
CIRCLE
  8
0
 62
0
 10
180.0
 20
410.999395
 30
0.0
 40
1.25
  0
CIRCLE
  8
0
 62
0
 10
180.0
 20
399.999697
 30
0.0
 40
2.0
  0
CIRCLE
  8
0
 62
0
 10
180.0
 20
389.0
 30
0.0
 40
1.25
  0
CIRCLE
  8
0
 62
0
 10
180.0
 20
355.0
 30
0.0
 40
1.5
  0
CIRCLE
  8
0
 62
0
 10
169.000302
 20
399.999697
 30
0.0
 40
1.25
  0
CIRCLE
  8
0
 62
0
 10
160.0
 20
299.9998485
 30
0.0
 40
1.5
  0
CIRCLE
  8
0
 62
0
 10
159.99999999999997
 20
199.999697
 30
0.0
 40
1.5
  0
CIRCLE
  8
0
 62
0
 10
199.99999999999997
 20
99.99954550000001
 30
0.0
 40
1.5
  0
CIRCLE
  8
0
 62
0
 10
190.99969699999994
 20
-6.000908999999979
 30
0.0
 40
1.25
  0
CIRCLE
  8
0
 62
0
 10
159.99999999999997
 20
99.99954550000001
 30
0.0
 40
1.5
  0
CIRCLE
  8
0
 62
0
 10
179.99999999999994
 20
38.999393999999995
 30
0.0
 40
1.5
  0
CIRCLE
  8
0
 62
0
 10
179.99999999999994
 20
4.998788999999988
 30
0.0
 40
1.25
  0
CIRCLE
  8
0
 62
0
 10
179.99999999999994
 20
-6.000606000000005
 30
0.0
 40
5.0
  0
CIRCLE
  8
0
 62
0
 10
179.99999999999994
 20
-17.000606000000005
 30
0.0
 40
1.25
  0
CIRCLE
  8
0
 62
0
 10
169.00030199999995
 20
-6.000908999999979
 30
0.0
 40
1.25
  0
ENDSEC
  0
EOF
