  0
SECTION
  2
HEADER
  9
$ACADVER
  1
AC1009
  9
$INSBASE
 10
0.0
 20
0.0
 30
0.0
  9
$EXTMIN
 10
0.0
 20
0.0
 30
0.0
  9
$EXTMAX
 10
0.0
 20
0.0
 30
0.0
  0
ENDSEC
  0
SECTION
  2
TABLES
  0
TABLE
  2
VPORT
 70
0
  0
ENDTAB
  0
TABLE
  2
LTYPE
 70
1
  0
LTYPE
  2
CONTINUOUS
 70
0
  3
Solid line
 72
65
 73
0
 40
0.0
  0
ENDTAB
  0
TABLE
  2
LAYER
 70
1
  0
LAYER
  2
0
 70
64
 62
7
  6
continuous
  0
ENDTAB
  0
TABLE
  2
STYLE
 70
1
  0
STYLE
  2
STANDARD
 70
0
 40
0
 41
1.0
 50
0.0
 71
0
 42
1
 3
ARIAL.TTF
 4

  0
ENDTAB
  0
TABLE
  2
VIEW
 70
0
  0
ENDTAB
  0
ENDSEC
  0
SECTION
  2
BLOCKS
  0
BLOCK
  8
0
  2
BODY
 70
0
 10
0.0
 20
0.0
 30
0.0
  3
BODY
  0
ARC
  8
0
 62
0
 10
0.11500098181868573
 20
-0.00036739563989781157
 30
0.0
 40
25.115002264228888
 50
179.81508575309363
 51
-0.18491424690636316
  0
LINE
  8
0
 62
0
 10
25.229872448882706
 20
-0.08142246997699347
 30
0.0
 11
26.52068339914379
 21
399.8756606518448
 31
0.0
  0
ARC
  8
0
 62
0
 10
1.4058119320797653
 20
399.95671572618187
 30
0.0
 40
25.115002264228888
 50
-0.18491424690636316
 51
179.81508575309363
  0
LINE
  8
0
 62
0
 10
-24.99987048524533
 20
0.08068767869719477
 30
0.0
 11
-23.709059534984252
 21
400.03777080051896
 31
0.0
  0
LINE
  8
0
 62
0
 10
14.79657439930374
 20
80.45262816603534
 30
0.0
 11
-14.203274570736507
 21
80.54622151438727
 31
0.0
  0
LINE
  8
0
 62
0
 10
-14.203274570736507
 20
80.54622151438727
 30
0.0
 11
-14.382392989022447
 21
25.046475330369013
 31
0.0
  0
LINE
  8
0
 62
0
 10
-14.382392989022447
 20
25.046475330369013
 30
0.0
 11
-5.078603923451595
 21
25.016448526715433
 31
0.0
  0
ARC
  8
0
 62
0
 10
0.15948712193936243
 20
37.99960693290439
 30
0.0
 40
14.0
 50
-111.97174787443973
 51
-68.39813566740209
  0
LINE
  8
0
 62
0
 10
5.313654409399573
 20
24.982903833698543
 30
0.0
 11
14.617455964905844
 21
24.952876989735273
 31
0.0
  0
LINE
  8
0
 62
0
 10
14.79657439930374
 20
80.45262816603534
 30
0.0
 11
14.61745596490584
 21
24.95287698973528
 31
0.0
  0
CIRCLE
  8
0
 62
0
 10
-8.099216898616804e-33
 20
-1.792696084607048e-30
 30
0.0
 40
5.0
  0
CIRCLE
  8
0
 62
0
 10
1.290942735162505
 20
399.99791660384545
 30
0.0
 40
2.0
  0
CIRCLE
  8
0
 62
0
 10
20.552601220036095
 20
99.92398321694748
 30
0.0
 40
1.5
  0
CIRCLE
  8
0
 62
0
 10
-19.677193793388412
 20
100.05381979722443
 30
0.0
 40
1.5
  0
CIRCLE
  8
0
 62
0
 10
20.875303963661487
 20
199.9132558751325
 30
0.0
 40
1.5
  0
CIRCLE
  8
0
 62
0
 10
-19.35449104976302
 20
200.0430924554095
 30
0.0
 40
1.5
  0
CIRCLE
  8
0
 62
0
 10
21.19800670122675
 20
299.90252665558796
 30
0.0
 40
1.5
  0
CIRCLE
  8
0
 62
0
 10
-19.031788312197758
 20
300.0323632358649
 30
0.0
 40
1.5
  0
CIRCLE
  8
0
 62
0
 10
-17.15333208158057
 20
34.05550028226707
 30
0.0
 40
1.25
  0
CIRCLE
  8
0
 62
0
 10
-17.082330231106685
 20
56.05538570781484
 30
0.0
 40
1.25
  0
CIRCLE
  8
0
 62
0
 10
-10.69425619933905
 20
83.33491118324524
 30
0.0
 40
1.25
  0
CIRCLE
  8
0
 62
0
 10
-17.011328380632804
 20
78.05527113336261
 30
0.0
 40
1.25
  0
CIRCLE
  8
0
 62
0
 10
17.44648772405366
 20
33.943833735612685
 30
0.0
 40
1.25
  0
CIRCLE
  8
0
 62
0
 10
17.517489574527545
 20
55.94371916116046
 30
0.0
 40
1.25
  0
CIRCLE
  8
0
 62
0
 10
17.588491425001425
 20
77.94360458670823
 30
0.0
 40
1.25
  0
CIRCLE
  8
0
 62
0
 10
11.305629226208724
 20
83.26390933277136
 30
0.0
 40
1.25
  0
CIRCLE
  8
0
 62
0
 10
0.03550080259738073
 20
10.999904712971789
 30
0.0
 40
1.25
  0
CIRCLE
  8
0
 62
0
 10
-0.03549995057517505
 20
-10.999640714346683
 30
0.0
 40
1.25
  0
CIRCLE
  8
0
 62
0
 10
-10.99963971435189
 20
0.0354999473478182
 30
0.0
 40
1.25
  0
CIRCLE
  8
0
 62
0
 10
10.999640714346683
 20
-0.03549995057517505
 30
0.0
 40
1.25
  0
CIRCLE
  8
0
 62
0
 10
1.3264435384861313
 20
410.9978215411131
 30
0.0
 40
1.25
  0
CIRCLE
  8
0
 62
0
 10
12.290583450235433
 20
399.96241687756617
 30
0.0
 40
1.25
  0
CIRCLE
  8
0
 62
0
 10
1.2554427853135754
 20
388.99827611379465
 30
0.0
 40
1.25
  0
CIRCLE
  8
0
 62
0
 10
-9.70869697846314
 20
400.0334167754892
 30
0.0
 40
1.25
  0
ENDBLK
  0
BLOCK
  8
0
  2
BODY001
 70
0
 10
0.0
 20
0.0
 30
0.0
  3
BODY001
  0
ARC
  8
0
 62
0
 10
83.15386254568742
 20
0.7707733476549219
 30
0.0
 40
25.0
 50
179.8840768969503
 51
-0.11592310304973057
  0
LINE
  8
0
 62
0
 10
108.15381137696238
 20
0.7201923864800627
 30
0.0
 11
108.96310798184263
 21
400.7199796856392
 31
0.0
  0
ARC
  8
0
 62
0
 10
83.96315915056766
 20
400.7705606468141
 30
0.0
 40
25.0
 50
-0.11592310304973057
 51
179.8840768969503
  0
LINE
  8
0
 62
0
 10
58.153913714412454
 20
0.8213543088297731
 30
0.0
 11
58.9632103192927
 21
400.8211416079889
 31
0.0
  0
CIRCLE
  8
0
 62
0
 10
83.15386254568742
 20
0.7707733476549219
 30
0.0
 40
5.0
  0
CIRCLE
  8
0
 62
0
 10
83.96315915056766
 20
400.7705606468141
 30
0.0
 40
5.0
  0
CIRCLE
  8
0
 62
0
 10
103.35614576192745
 20
100.73025540350483
 30
0.0
 40
1.5
  0
CIRCLE
  8
0
 62
0
 10
63.356227631887506
 20
100.8111849413846
 30
0.0
 40
1.5
  0
CIRCLE
  8
0
 62
0
 10
103.55846991314752
 20
200.7302022282946
 30
0.0
 40
1.5
  0
CIRCLE
  8
0
 62
0
 10
63.55855178310756
 20
200.8111317661744
 30
0.0
 40
1.5
  0
CIRCLE
  8
0
 62
0
 10
103.76079406436757
 20
300.7301490530844
 30
0.0
 40
1.5
  0
CIRCLE
  8
0
 62
0
 10
63.76087593432763
 20
300.8110785909642
 30
0.0
 40
1.5
  0
CIRCLE
  8
0
 62
0
 10
83.13160814682973
 20
-10.228599139344347
 30
0.0
 40
1.25
  0
CIRCLE
  8
0
 62
0
 10
72.15418867234752
 20
0.7933313569104455
 30
0.0
 40
1.25
  0
CIRCLE
  8
0
 62
0
 10
83.17611816860436
 20
11.770750833415908
 30
0.0
 40
1.25
  0
CIRCLE
  8
0
 62
0
 10
94.15353864510777
 20
0.7488213351358298
 30
0.0
 40
1.25
  0
CIRCLE
  8
0
 62
0
 10
83.94090475170998
 20
389.7711881598148
 30
0.0
 40
1.25
  0
CIRCLE
  8
0
 62
0
 10
72.96348527722776
 20
400.79311865606957
 30
0.0
 40
1.25
  0
CIRCLE
  8
0
 62
0
 10
83.9854147734846
 20
411.7705381325751
 30
0.0
 40
1.25
  0
CIRCLE
  8
0
 62
0
 10
94.96283524998802
 20
400.74860863429495
 30
0.0
 40
1.25
  0
ENDBLK
  0
ENDSEC
  0
SECTION
  2
ENTITIES
  0
INSERT
  2
BODY
  8
0
 62
0
 10
0.0
 20
0.0
 30
0.0
  0
INSERT
  2
BODY001
  8
0
 62
0
 10
0.0
 20
0.0
 30
0.0
  0
ENDSEC
  0
EOF
