  0
SECTION
  2
HEADER
  9
$ACADVER
  1
AC1009
  9
$INSBASE
 10
0.0
 20
0.0
 30
0.0
  9
$EXTMIN
 10
0.0
 20
0.0
 30
0.0
  9
$EXTMAX
 10
0.0
 20
0.0
 30
0.0
  0
ENDSEC
  0
SECTION
  2
TABLES
  0
TABLE
  2
VPORT
 70
0
  0
ENDTAB
  0
TABLE
  2
LTYPE
 70
1
  0
LTYPE
  2
CONTINUOUS
 70
0
  3
Solid line
 72
65
 73
0
 40
0.0
  0
ENDTAB
  0
TABLE
  2
LAYER
 70
1
  0
LAYER
  2
0
 70
64
 62
7
  6
continuous
  0
ENDTAB
  0
TABLE
  2
STYLE
 70
1
  0
STYLE
  2
STANDARD
 70
0
 40
0
 41
1.0
 50
0.0
 71
0
 42
1
 3
ARIAL.TTF
 4

  0
ENDTAB
  0
TABLE
  2
VIEW
 70
0
  0
ENDTAB
  0
ENDSEC
  0
SECTION
  2
BLOCKS
  0
ENDSEC
  0
SECTION
  2
ENTITIES
  0
ARC
  8
0
 62
0
 10
0.11500098181868573
 20
-0.0003673956398946159
 30
0.0
 40
25.11500226422888
 50
179.81508575309562
 51
-0.18491424690439218
  0
LINE
  8
0
 62
0
 10
25.2298724488827
 20
-0.0814224699762866
 30
0.0
 11
26.520683399132633
 21
399.87566065184546
 31
0.0
  0
ARC
  8
0
 62
0
 10
1.405811932068616
 20
399.95671572618176
 30
0.0
 40
25.11500226422888
 50
-0.18491424690439218
 51
179.81508575309562
  0
LINE
  8
0
 62
0
 10
-24.999870485245324
 20
0.08068767869649787
 30
0.0
 11
-23.709059534995394
 21
400.0377708005183
 31
0.0
  0
LINE
  8
0
 62
0
 10
14.796574399301493
 20
80.45262816603572
 30
0.0
 11
-14.203274570738754
 21
80.54622151438684
 31
0.0
  0
LINE
  8
0
 62
0
 10
-14.203274570738747
 20
80.54622151438686
 30
0.0
 11
-14.38239298902314
 21
25.0464753303686
 31
0.0
  0
LINE
  8
0
 62
0
 10
-14.38239298902314
 20
25.0464753303686
 30
0.0
 11
-5.078603923452288
 21
25.01644852671528
 31
0.0
  0
ARC
  8
0
 62
0
 10
0.15948712193830314
 20
37.999606932904385
 30
0.0
 40
13.999999999999998
 50
-111.97174787443812
 51
-68.39813566740048
  0
LINE
  8
0
 62
0
 10
5.313654409398875
 20
24.982903833698682
 30
0.0
 11
14.617455964905146
 21
24.95287698973567
 31
0.0
  0
LINE
  8
0
 62
0
 10
14.796574399301493
 20
80.45262816603572
 30
0.0
 11
14.61745596490514
 21
24.952876989735664
 31
0.0
  0
CIRCLE
  8
0
 62
0
 10
0.0
 20
0.0
 30
0.0
 40
4.999999999999999
  0
CIRCLE
  8
0
 62
0
 10
1.2909427351513545
 20
399.99791660384534
 30
0.0
 40
4.999999999999999
  0
CIRCLE
  8
0
 62
0
 10
20.552601220033303
 20
99.92398321694802
 30
0.0
 40
1.5
  0
CIRCLE
  8
0
 62
0
 10
-19.677193793391197
 20
100.05381979722385
 30
0.0
 40
1.5
  0
CIRCLE
  8
0
 62
0
 10
20.87530396365591
 20
199.91325587513302
 30
0.0
 40
1.5
  0
CIRCLE
  8
0
 62
0
 10
-19.35449104976859
 20
200.04309245540887
 30
0.0
 40
1.5
  0
CIRCLE
  8
0
 62
0
 10
21.198006701218382
 20
299.9025266555885
 30
0.0
 40
1.5
  0
CIRCLE
  8
0
 62
0
 10
-19.031788312206118
 20
300.0323632358643
 30
0.0
 40
1.5
  0
CIRCLE
  8
0
 62
0
 10
-17.15333208158151
 20
34.05550028226658
 30
0.0
 40
1.25
  0
CIRCLE
  8
0
 62
0
 10
-17.082330231108244
 20
56.055385707814345
 30
0.0
 40
1.25
  0
CIRCLE
  8
0
 62
0
 10
-10.69425619934137
 20
83.33491118324493
 30
0.0
 40
1.25
  0
CIRCLE
  8
0
 62
0
 10
-17.011328380634975
 20
78.05527113336211
 30
0.0
 40
1.25
  0
CIRCLE
  8
0
 62
0
 10
17.446487724052712
 20
33.94383373561317
 30
0.0
 40
1.25
  0
CIRCLE
  8
0
 62
0
 10
17.517489574525978
 20
55.943719161160935
 30
0.0
 40
1.25
  0
CIRCLE
  8
0
 62
0
 10
17.588491424999248
 20
77.9436045867087
 30
0.0
 40
1.25
  0
CIRCLE
  8
0
 62
0
 10
11.3056292262064
 20
83.26390933277166
 30
0.0
 40
1.25
  0
CIRCLE
  8
0
 62
0
 10
0.035500802597074096
 20
10.999904712971787
 30
0.0
 40
1.2499999999999998
  0
CIRCLE
  8
0
 62
0
 10
-0.03549995057486842
 20
-10.99964071434668
 30
0.0
 40
1.2499999999999998
  0
CIRCLE
  8
0
 62
0
 10
-10.999639714351888
 20
0.03549994734751158
 30
0.0
 40
1.25
  0
CIRCLE
  8
0
 62
0
 10
10.99964071434668
 20
-0.03549995057486842
 30
0.0
 40
1.25
  0
CIRCLE
  8
0
 62
0
 10
1.3264435384746742
 20
410.997821541113
 30
0.0
 40
1.2499999999999998
  0
CIRCLE
  8
0
 62
0
 10
12.290583450224279
 20
399.96241687756634
 30
0.0
 40
1.25
  0
CIRCLE
  8
0
 62
0
 10
1.2554427853027317
 20
388.99827611379453
 30
0.0
 40
1.25
  0
CIRCLE
  8
0
 62
0
 10
-9.708696978474288
 20
400.0334167754887
 30
0.0
 40
1.25
  0
ARC
  8
0
 62
0
 10
83.15386254568742
 20
0.7707733476549219
 30
0.0
 40
24.999999999999996
 50
179.8840768969503
 51
-0.11592310304973057
  0
LINE
  8
0
 62
0
 10
108.15381137696238
 20
0.720192386480063
 30
0.0
 11
108.96310798184263
 21
400.7199796856392
 31
0.0
  0
ARC
  8
0
 62
0
 10
83.96315915056766
 20
400.7705606468141
 30
0.0
 40
24.999999999999996
 50
-0.11592310304973057
 51
179.8840768969503
  0
LINE
  8
0
 62
0
 10
58.153913714412454
 20
0.821354308829773
 30
0.0
 11
58.9632103192927
 21
400.8211416079889
 31
0.0
  0
CIRCLE
  8
0
 62
0
 10
83.15386254568742
 20
0.7707733476549219
 30
0.0
 40
5.0
  0
CIRCLE
  8
0
 62
0
 10
83.96315915056766
 20
400.7705606468141
 30
0.0
 40
5.0
  0
CIRCLE
  8
0
 62
0
 10
103.35614576192745
 20
100.73025540350483
 30
0.0
 40
1.5
  0
CIRCLE
  8
0
 62
0
 10
63.356227631887506
 20
100.8111849413846
 30
0.0
 40
1.5
  0
CIRCLE
  8
0
 62
0
 10
103.55846991314752
 20
200.7302022282946
 30
0.0
 40
1.5
  0
CIRCLE
  8
0
 62
0
 10
63.55855178310756
 20
200.8111317661744
 30
0.0
 40
1.5
  0
CIRCLE
  8
0
 62
0
 10
103.76079406436757
 20
300.7301490530844
 30
0.0
 40
1.5
  0
CIRCLE
  8
0
 62
0
 10
63.76087593432763
 20
300.8110785909642
 30
0.0
 40
1.5
  0
CIRCLE
  8
0
 62
0
 10
83.13160814682973
 20
-10.228599139344347
 30
0.0
 40
1.25
  0
CIRCLE
  8
0
 62
0
 10
72.15418867234752
 20
0.7933313569104455
 30
0.0
 40
1.25
  0
CIRCLE
  8
0
 62
0
 10
83.17611816860436
 20
11.770750833415908
 30
0.0
 40
1.25
  0
CIRCLE
  8
0
 62
0
 10
94.15353864510777
 20
0.7488213351358298
 30
0.0
 40
1.25
  0
CIRCLE
  8
0
 62
0
 10
83.94090475170998
 20
389.7711881598148
 30
0.0
 40
1.25
  0
CIRCLE
  8
0
 62
0
 10
72.96348527722776
 20
400.79311865606957
 30
0.0
 40
1.25
  0
CIRCLE
  8
0
 62
0
 10
83.9854147734846
 20
411.7705381325751
 30
0.0
 40
1.25
  0
CIRCLE
  8
0
 62
0
 10
94.96283524998802
 20
400.74860863429495
 30
0.0
 40
1.25
  0
ENDSEC
  0
EOF
