  0
SECTION
  2
HEADER
  9
$ACADVER
  1
AC1009
  9
$INSBASE
 10
0.0
 20
0.0
 30
0.0
  9
$EXTMIN
 10
0.0
 20
0.0
 30
0.0
  9
$EXTMAX
 10
0.0
 20
0.0
 30
0.0
  0
ENDSEC
  0
SECTION
  2
TABLES
  0
TABLE
  2
VPORT
 70
0
  0
ENDTAB
  0
TABLE
  2
LTYPE
 70
1
  0
LTYPE
  2
CONTINUOUS
 70
0
  3
Solid line
 72
65
 73
0
 40
0.0
  0
ENDTAB
  0
TABLE
  2
LAYER
 70
1
  0
LAYER
  2
0
 70
64
 62
7
  6
continuous
  0
ENDTAB
  0
TABLE
  2
STYLE
 70
1
  0
STYLE
  2
STANDARD
 70
0
 40
0
 41
1.0
 50
0.0
 71
0
 42
1
 3
ARIAL.TTF
 4

  0
ENDTAB
  0
TABLE
  2
VIEW
 70
0
  0
ENDTAB
  0
ENDSEC
  0
SECTION
  2
BLOCKS
  0
BLOCK
  8
0
  2
FILLET
 70
0
 10
0.0
 20
0.0
 30
0.0
  3
FILLET
  0
LINE
  8
0
 62
0
 10
-25.00000000000118
 20
6.967e-14
 30
0.0
 11
-25.000000000000167
 21
348.42838776151433
 31
0.0
  0
ARC
  8
0
 62
0
 10
-15.000000000000165
 20
348.4283877615143
 30
0.0
 40
10.0
 50
116.38779996124272
 51
180.0
  0
ARC
  8
0
 62
0
 10
0.0
 20
0.0
 30
0.0
 40
25.0
 50
180.0
 51
-0.0
  0
ARC
  8
0
 62
0
 10
-25.000000000000128
 20
368.5840321322607
 30
0.0
 40
12.5
 50
-63.61220003875704
 51
-0.0
  0
LINE
  8
0
 62
0
 10
25.0
 20
-6.12e-15
 30
0.0
 11
25.0
 21
348.4283877615142
 31
0.0
  0
ARC
  8
0
 62
0
 10
-25.000000000000128
 20
368.5840321322607
 30
0.0
 40
12.5
 50
-0.0
 51
63.61220003875668
  0
ARC
  8
0
 62
0
 10
15.0
 20
348.4283877615142
 30
0.0
 40
10.0
 50
-0.0
 51
63.61220003875691
  0
ARC
  8
0
 62
0
 10
-15.000000000000048
 20
388.739676503007
 30
0.0
 40
10.0
 50
180.0
 51
-116.3877999612432
  0
ARC
  8
0
 62
0
 10
24.999999999999996
 20
368.5840321322606
 30
0.0
 40
12.5
 50
116.38779996124288
 51
-116.38779996124299
  0
LINE
  8
0
 62
0
 10
-25.00000000000005
 20
388.73967650300705
 30
0.0
 11
-24.999999999999996
 21
406.00060600000006
 31
0.0
  0
ARC
  8
0
 62
0
 10
15.0
 20
388.73967650300693
 30
0.0
 40
10.0
 50
-63.612200038756825
 51
0.0
  0
ARC
  8
0
 62
0
 10
0.0
 20
406.000606
 30
0.0
 40
25.0
 50
-0.0
 51
180.0
  0
LINE
  8
0
 62
0
 10
25.0
 20
388.739676503007
 30
0.0
 11
25.0
 21
406.000606
 31
0.0
  0
CIRCLE
  8
0
 62
0
 10
-10.999697
 20
0.000303
 30
0.0
 40
1.25
  0
CIRCLE
  8
0
 62
0
 10
-20.0
 20
100.0001515
 30
0.0
 40
1.5
  0
CIRCLE
  8
0
 62
0
 10
-20.0
 20
200.000303
 30
0.0
 40
1.5
  0
CIRCLE
  8
0
 62
0
 10
0.0
 20
-10.999395
 30
0.0
 40
1.25
  0
CIRCLE
  8
0
 62
0
 10
0.0
 20
0.000303
 30
0.0
 40
2.0
  0
CIRCLE
  8
0
 62
0
 10
0.0
 20
11.0
 30
0.0
 40
1.25
  0
CIRCLE
  8
0
 62
0
 10
0.0
 20
45.0
 30
0.0
 40
1.5
  0
CIRCLE
  8
0
 62
0
 10
10.999698
 20
0.000303
 30
0.0
 40
1.25
  0
CIRCLE
  8
0
 62
0
 10
20.0
 20
100.0001515
 30
0.0
 40
1.5
  0
CIRCLE
  8
0
 62
0
 10
20.0
 20
200.000303
 30
0.0
 40
1.5
  0
CIRCLE
  8
0
 62
0
 10
-20.0
 20
300.0004545
 30
0.0
 40
1.5
  0
CIRCLE
  8
0
 62
0
 10
-10.999697
 20
406.000909
 30
0.0
 40
1.25
  0
CIRCLE
  8
0
 62
0
 10
20.0
 20
300.0004545
 30
0.0
 40
1.5
  0
CIRCLE
  8
0
 62
0
 10
0.0
 20
361.000606
 30
0.0
 40
1.5
  0
CIRCLE
  8
0
 62
0
 10
0.0
 20
395.001211
 30
0.0
 40
1.25
  0
CIRCLE
  8
0
 62
0
 10
0.0
 20
406.000606
 30
0.0
 40
5.0
  0
CIRCLE
  8
0
 62
0
 10
0.0
 20
417.000606
 30
0.0
 40
1.25
  0
CIRCLE
  8
0
 62
0
 10
10.999698
 20
406.000909
 30
0.0
 40
1.25
  0
ENDBLK
  0
ENDSEC
  0
SECTION
  2
ENTITIES
  0
INSERT
  2
FILLET
  8
0
 62
0
 10
0.0
 20
0.0
 30
0.0
  0
ENDSEC
  0
EOF
